G04 #@! TF.GenerationSoftware,KiCad,Pcbnew,(5.1.0)-1*
G04 #@! TF.CreationDate,2019-05-12T16:35:28-05:00*
G04 #@! TF.ProjectId,GPIODriverVer1,4750494f-4472-4697-9665-72566572312e,rev?*
G04 #@! TF.SameCoordinates,Original*
G04 #@! TF.FileFunction,Copper,L3,Inr*
G04 #@! TF.FilePolarity,Positive*
%FSLAX46Y46*%
G04 Gerber Fmt 4.6, Leading zero omitted, Abs format (unit mm)*
G04 Created by KiCad (PCBNEW (5.1.0)-1) date 2019-05-12 16:35:28*
%MOMM*%
%LPD*%
G04 APERTURE LIST*
%ADD10C,0.800000*%
%ADD11C,6.400000*%
%ADD12O,1.700000X1.700000*%
%ADD13R,1.700000X1.700000*%
%ADD14C,0.500000*%
%ADD15C,0.250000*%
%ADD16C,0.254000*%
G04 APERTURE END LIST*
D10*
X122947056Y-123802944D03*
X121250000Y-123100000D03*
X119552944Y-123802944D03*
X118850000Y-125500000D03*
X119552944Y-127197056D03*
X121250000Y-127900000D03*
X122947056Y-127197056D03*
X123650000Y-125500000D03*
D11*
X121250000Y-125500000D03*
D10*
X162947056Y-123802944D03*
X161250000Y-123100000D03*
X159552944Y-123802944D03*
X158850000Y-125500000D03*
X159552944Y-127197056D03*
X161250000Y-127900000D03*
X162947056Y-127197056D03*
X163650000Y-125500000D03*
D11*
X161250000Y-125500000D03*
D10*
X122947056Y-83802944D03*
X121250000Y-83100000D03*
X119552944Y-83802944D03*
X118850000Y-85500000D03*
X119552944Y-87197056D03*
X121250000Y-87900000D03*
X122947056Y-87197056D03*
X123650000Y-85500000D03*
D11*
X121250000Y-85500000D03*
D10*
X162947056Y-83802944D03*
X161250000Y-83100000D03*
X159552944Y-83802944D03*
X158850000Y-85500000D03*
X159552944Y-87197056D03*
X161250000Y-87900000D03*
X162947056Y-87197056D03*
X163650000Y-85500000D03*
D11*
X161250000Y-85500000D03*
D12*
X121290000Y-118400000D03*
X118750000Y-118400000D03*
X121290000Y-115860000D03*
X118750000Y-115860000D03*
X121290000Y-113320000D03*
X118750000Y-113320000D03*
X121290000Y-110780000D03*
X118750000Y-110780000D03*
X121290000Y-108240000D03*
X118750000Y-108240000D03*
X121290000Y-105700000D03*
X118750000Y-105700000D03*
X121290000Y-103160000D03*
X118750000Y-103160000D03*
X121290000Y-100620000D03*
X118750000Y-100620000D03*
X121290000Y-98080000D03*
X118750000Y-98080000D03*
X121290000Y-95540000D03*
X118750000Y-95540000D03*
X121290000Y-93000000D03*
D13*
X118750000Y-93000000D03*
X164750000Y-96340000D03*
D12*
X164750000Y-98880000D03*
X164750000Y-101420000D03*
X164750000Y-103960000D03*
X164750000Y-106500000D03*
X164750000Y-109040000D03*
X164750000Y-111580000D03*
X164750000Y-114120000D03*
D10*
X142750000Y-102750000D03*
X142750000Y-108250000D03*
X142750000Y-113750000D03*
X142750000Y-119250000D03*
X142750000Y-97250000D03*
X130250000Y-100000000D03*
X133250000Y-100500000D03*
X130250000Y-106000000D03*
X130175000Y-111075000D03*
X133325000Y-116925000D03*
X130175000Y-116925000D03*
X142750000Y-86250000D03*
X159750000Y-99000000D03*
X159750000Y-101500000D03*
X159750000Y-104000000D03*
X159750000Y-106500000D03*
X159750000Y-109000000D03*
X159750000Y-111500000D03*
X159750000Y-114000000D03*
X159750000Y-96500000D03*
X130250000Y-98000000D03*
X150750000Y-108250000D03*
X142749998Y-124750000D03*
X128600000Y-119200000D03*
X128400000Y-125200000D03*
X148600000Y-88450000D03*
X148400000Y-82300000D03*
X127800000Y-82200000D03*
X130800000Y-86800000D03*
X131965657Y-112027388D03*
X142749590Y-91730026D03*
X156237347Y-95012653D03*
X155500000Y-98012653D03*
X155500000Y-100750000D03*
X155749986Y-103250000D03*
X155500000Y-105750000D03*
X155500000Y-108250000D03*
X155487347Y-111237347D03*
X156500000Y-115500000D03*
X133400000Y-99200000D03*
X133400000Y-92800000D03*
X133249999Y-108400000D03*
X142800000Y-100000000D03*
X137170010Y-86629990D03*
X152600000Y-86200000D03*
X152200000Y-91999964D03*
X125600000Y-86200000D03*
X151600000Y-95000000D03*
X125600000Y-88000000D03*
X151600000Y-100600000D03*
X134000000Y-123000000D03*
X149025032Y-106000000D03*
X151600000Y-114000000D03*
X152600000Y-122400000D03*
X146600000Y-128200000D03*
X151400000Y-117600000D03*
X134000000Y-128400000D03*
X151625792Y-124773755D03*
X142750000Y-87250000D03*
X136750000Y-93500000D03*
X131250000Y-92750000D03*
X142800000Y-93199978D03*
X142750000Y-98250000D03*
X130500000Y-93500000D03*
X142750000Y-103750000D03*
X131250000Y-94250000D03*
X142750000Y-109250000D03*
X130500000Y-95000000D03*
X142750000Y-114750000D03*
X131175000Y-95825000D03*
X142750000Y-120250000D03*
X131750000Y-96750000D03*
X131250000Y-97750000D03*
X142750000Y-125750000D03*
X130250000Y-101500000D03*
X126237340Y-103512660D03*
X126250000Y-105500000D03*
X133250000Y-103500000D03*
X126250000Y-107000000D03*
X133250000Y-105000000D03*
X126250000Y-108500000D03*
X133250000Y-106000000D03*
X127250000Y-110999973D03*
X132647224Y-112894449D03*
X125750000Y-114500000D03*
X127250000Y-112000014D03*
X126250000Y-117500000D03*
X133000000Y-114600000D03*
X146600000Y-105800000D03*
X146600000Y-100000000D03*
X149750000Y-100000000D03*
X148200000Y-100000000D03*
X137000000Y-92200000D03*
X140400000Y-92200000D03*
X137800000Y-91000000D03*
X134400000Y-92000000D03*
X137800000Y-89800000D03*
X135800000Y-89800000D03*
X136200000Y-120800000D03*
X132200000Y-116000000D03*
X136200000Y-126800000D03*
X127400000Y-98800000D03*
X131800000Y-102775000D03*
X131799999Y-104725000D03*
X130600000Y-104800000D03*
X130200000Y-107200000D03*
X135000000Y-108600000D03*
X128800000Y-98800000D03*
X131475000Y-101600000D03*
X136200000Y-112800000D03*
X137000000Y-113600000D03*
X137000000Y-107200000D03*
X136400000Y-114800000D03*
X136400000Y-116000000D03*
X133000000Y-101600000D03*
X133599998Y-109800000D03*
D14*
X142800000Y-100000000D02*
X139400000Y-100000000D01*
X139400000Y-100000000D02*
X138600000Y-99200000D01*
X134600000Y-107049999D02*
X134600000Y-99200000D01*
X133249999Y-108400000D02*
X134600000Y-107049999D01*
X138600000Y-99200000D02*
X134600000Y-99200000D01*
X134600000Y-99200000D02*
X133400000Y-99200000D01*
X133400000Y-98634315D02*
X133400000Y-92800000D01*
X133400000Y-99200000D02*
X133400000Y-98634315D01*
X133400000Y-92800000D02*
X133400000Y-87400000D01*
X134170010Y-86629990D02*
X137170010Y-86629990D01*
X133400000Y-87400000D02*
X134170010Y-86629990D01*
D15*
X129850001Y-101899999D02*
X130250000Y-101500000D01*
X126900001Y-101899999D02*
X129850001Y-101899999D01*
X126237340Y-103512660D02*
X126237340Y-102562660D01*
X126237340Y-102562660D02*
X126900001Y-101899999D01*
X132684315Y-103500000D02*
X133250000Y-103500000D01*
X127300000Y-103500000D02*
X132684315Y-103500000D01*
X126250000Y-105500000D02*
X126250000Y-104550000D01*
X126250000Y-104550000D02*
X127300000Y-103500000D01*
X127000000Y-106250000D02*
X126250000Y-107000000D01*
X127000000Y-104800000D02*
X127000000Y-106250000D01*
X127800000Y-104000000D02*
X127000000Y-104800000D01*
X133250000Y-105000000D02*
X132250000Y-104000000D01*
X132250000Y-104000000D02*
X127800000Y-104000000D01*
X127250000Y-110999973D02*
X127815685Y-110999973D01*
X129710161Y-112894449D02*
X132081539Y-112894449D01*
X127815685Y-110999973D02*
X129710161Y-112894449D01*
X132081539Y-112894449D02*
X132647224Y-112894449D01*
X127250000Y-113000000D02*
X127250000Y-112000014D01*
X125750000Y-114500000D02*
X127250000Y-113000000D01*
X129150000Y-114600000D02*
X132434315Y-114600000D01*
X132434315Y-114600000D02*
X133000000Y-114600000D01*
X126250000Y-117500000D02*
X129150000Y-114600000D01*
D16*
G36*
X164192565Y-80638662D02*
G01*
X164242263Y-80671869D01*
X166078131Y-82507737D01*
X166111338Y-82557435D01*
X166123000Y-82616063D01*
X166123000Y-95126322D01*
X166051185Y-95038815D01*
X165954494Y-94959463D01*
X165844180Y-94900498D01*
X165724482Y-94864188D01*
X165600000Y-94851928D01*
X163900000Y-94851928D01*
X163775518Y-94864188D01*
X163655820Y-94900498D01*
X163545506Y-94959463D01*
X163448815Y-95038815D01*
X163369463Y-95135506D01*
X163310498Y-95245820D01*
X163274188Y-95365518D01*
X163261928Y-95490000D01*
X163261928Y-97190000D01*
X163274188Y-97314482D01*
X163310498Y-97434180D01*
X163369463Y-97544494D01*
X163448815Y-97641185D01*
X163545506Y-97720537D01*
X163655820Y-97779502D01*
X163724687Y-97800393D01*
X163694866Y-97824866D01*
X163509294Y-98050986D01*
X163371401Y-98308966D01*
X163286487Y-98588889D01*
X163257815Y-98880000D01*
X163286487Y-99171111D01*
X163371401Y-99451034D01*
X163509294Y-99709014D01*
X163694866Y-99935134D01*
X163920986Y-100120706D01*
X163975791Y-100150000D01*
X163920986Y-100179294D01*
X163694866Y-100364866D01*
X163509294Y-100590986D01*
X163371401Y-100848966D01*
X163286487Y-101128889D01*
X163257815Y-101420000D01*
X163286487Y-101711111D01*
X163371401Y-101991034D01*
X163509294Y-102249014D01*
X163694866Y-102475134D01*
X163920986Y-102660706D01*
X163975791Y-102690000D01*
X163920986Y-102719294D01*
X163694866Y-102904866D01*
X163509294Y-103130986D01*
X163371401Y-103388966D01*
X163286487Y-103668889D01*
X163257815Y-103960000D01*
X163286487Y-104251111D01*
X163371401Y-104531034D01*
X163509294Y-104789014D01*
X163694866Y-105015134D01*
X163920986Y-105200706D01*
X163975791Y-105230000D01*
X163920986Y-105259294D01*
X163694866Y-105444866D01*
X163509294Y-105670986D01*
X163371401Y-105928966D01*
X163286487Y-106208889D01*
X163257815Y-106500000D01*
X163286487Y-106791111D01*
X163371401Y-107071034D01*
X163509294Y-107329014D01*
X163694866Y-107555134D01*
X163920986Y-107740706D01*
X163975791Y-107770000D01*
X163920986Y-107799294D01*
X163694866Y-107984866D01*
X163509294Y-108210986D01*
X163371401Y-108468966D01*
X163286487Y-108748889D01*
X163257815Y-109040000D01*
X163286487Y-109331111D01*
X163371401Y-109611034D01*
X163509294Y-109869014D01*
X163694866Y-110095134D01*
X163920986Y-110280706D01*
X163975791Y-110310000D01*
X163920986Y-110339294D01*
X163694866Y-110524866D01*
X163509294Y-110750986D01*
X163371401Y-111008966D01*
X163286487Y-111288889D01*
X163257815Y-111580000D01*
X163286487Y-111871111D01*
X163371401Y-112151034D01*
X163509294Y-112409014D01*
X163694866Y-112635134D01*
X163920986Y-112820706D01*
X163975791Y-112850000D01*
X163920986Y-112879294D01*
X163694866Y-113064866D01*
X163509294Y-113290986D01*
X163371401Y-113548966D01*
X163286487Y-113828889D01*
X163257815Y-114120000D01*
X163286487Y-114411111D01*
X163371401Y-114691034D01*
X163509294Y-114949014D01*
X163694866Y-115175134D01*
X163920986Y-115360706D01*
X164178966Y-115498599D01*
X164458889Y-115583513D01*
X164677050Y-115605000D01*
X164822950Y-115605000D01*
X165041111Y-115583513D01*
X165321034Y-115498599D01*
X165579014Y-115360706D01*
X165805134Y-115175134D01*
X165990706Y-114949014D01*
X166123000Y-114701509D01*
X166123000Y-127398433D01*
X166113830Y-127450700D01*
X166087413Y-127496725D01*
X163736337Y-130318016D01*
X163683760Y-130358573D01*
X163618944Y-130373000D01*
X118606617Y-130373000D01*
X118552093Y-130362984D01*
X118504689Y-130334247D01*
X116428336Y-128488601D01*
X116390423Y-128436940D01*
X116377000Y-128374284D01*
X116377000Y-125122285D01*
X117415000Y-125122285D01*
X117415000Y-125877715D01*
X117562377Y-126618628D01*
X117851467Y-127316554D01*
X118271161Y-127944670D01*
X118805330Y-128478839D01*
X119433446Y-128898533D01*
X120131372Y-129187623D01*
X120872285Y-129335000D01*
X121627715Y-129335000D01*
X122368628Y-129187623D01*
X123066554Y-128898533D01*
X123694670Y-128478839D01*
X123875448Y-128298061D01*
X132965000Y-128298061D01*
X132965000Y-128501939D01*
X133004774Y-128701898D01*
X133082795Y-128890256D01*
X133196063Y-129059774D01*
X133340226Y-129203937D01*
X133509744Y-129317205D01*
X133698102Y-129395226D01*
X133898061Y-129435000D01*
X134101939Y-129435000D01*
X134301898Y-129395226D01*
X134490256Y-129317205D01*
X134659774Y-129203937D01*
X134803937Y-129059774D01*
X134917205Y-128890256D01*
X134995226Y-128701898D01*
X135035000Y-128501939D01*
X135035000Y-128298061D01*
X134995226Y-128098102D01*
X134995210Y-128098061D01*
X145565000Y-128098061D01*
X145565000Y-128301939D01*
X145604774Y-128501898D01*
X145682795Y-128690256D01*
X145796063Y-128859774D01*
X145940226Y-129003937D01*
X146109744Y-129117205D01*
X146298102Y-129195226D01*
X146498061Y-129235000D01*
X146701939Y-129235000D01*
X146901898Y-129195226D01*
X147090256Y-129117205D01*
X147259774Y-129003937D01*
X147403937Y-128859774D01*
X147517205Y-128690256D01*
X147595226Y-128501898D01*
X147635000Y-128301939D01*
X147635000Y-128098061D01*
X147595226Y-127898102D01*
X147517205Y-127709744D01*
X147403937Y-127540226D01*
X147259774Y-127396063D01*
X147090256Y-127282795D01*
X146901898Y-127204774D01*
X146701939Y-127165000D01*
X146498061Y-127165000D01*
X146298102Y-127204774D01*
X146109744Y-127282795D01*
X145940226Y-127396063D01*
X145796063Y-127540226D01*
X145682795Y-127709744D01*
X145604774Y-127898102D01*
X145565000Y-128098061D01*
X134995210Y-128098061D01*
X134917205Y-127909744D01*
X134803937Y-127740226D01*
X134659774Y-127596063D01*
X134490256Y-127482795D01*
X134301898Y-127404774D01*
X134101939Y-127365000D01*
X133898061Y-127365000D01*
X133698102Y-127404774D01*
X133509744Y-127482795D01*
X133340226Y-127596063D01*
X133196063Y-127740226D01*
X133082795Y-127909744D01*
X133004774Y-128098102D01*
X132965000Y-128298061D01*
X123875448Y-128298061D01*
X124228839Y-127944670D01*
X124648533Y-127316554D01*
X124904720Y-126698061D01*
X135165000Y-126698061D01*
X135165000Y-126901939D01*
X135204774Y-127101898D01*
X135282795Y-127290256D01*
X135396063Y-127459774D01*
X135540226Y-127603937D01*
X135709744Y-127717205D01*
X135898102Y-127795226D01*
X136098061Y-127835000D01*
X136301939Y-127835000D01*
X136501898Y-127795226D01*
X136690256Y-127717205D01*
X136859774Y-127603937D01*
X137003937Y-127459774D01*
X137117205Y-127290256D01*
X137195226Y-127101898D01*
X137235000Y-126901939D01*
X137235000Y-126698061D01*
X137195226Y-126498102D01*
X137117205Y-126309744D01*
X137003937Y-126140226D01*
X136859774Y-125996063D01*
X136690256Y-125882795D01*
X136501898Y-125804774D01*
X136301939Y-125765000D01*
X136098061Y-125765000D01*
X135898102Y-125804774D01*
X135709744Y-125882795D01*
X135540226Y-125996063D01*
X135396063Y-126140226D01*
X135282795Y-126309744D01*
X135204774Y-126498102D01*
X135165000Y-126698061D01*
X124904720Y-126698061D01*
X124937623Y-126618628D01*
X125085000Y-125877715D01*
X125085000Y-125648061D01*
X141715000Y-125648061D01*
X141715000Y-125851939D01*
X141754774Y-126051898D01*
X141832795Y-126240256D01*
X141946063Y-126409774D01*
X142090226Y-126553937D01*
X142259744Y-126667205D01*
X142448102Y-126745226D01*
X142648061Y-126785000D01*
X142851939Y-126785000D01*
X143051898Y-126745226D01*
X143240256Y-126667205D01*
X143409774Y-126553937D01*
X143553937Y-126409774D01*
X143667205Y-126240256D01*
X143745226Y-126051898D01*
X143785000Y-125851939D01*
X143785000Y-125648061D01*
X143745226Y-125448102D01*
X143667205Y-125259744D01*
X143553937Y-125090226D01*
X143409774Y-124946063D01*
X143240256Y-124832795D01*
X143051898Y-124754774D01*
X142851939Y-124715000D01*
X142648061Y-124715000D01*
X142448102Y-124754774D01*
X142259744Y-124832795D01*
X142090226Y-124946063D01*
X141946063Y-125090226D01*
X141832795Y-125259744D01*
X141754774Y-125448102D01*
X141715000Y-125648061D01*
X125085000Y-125648061D01*
X125085000Y-125122285D01*
X124995396Y-124671816D01*
X150590792Y-124671816D01*
X150590792Y-124875694D01*
X150630566Y-125075653D01*
X150708587Y-125264011D01*
X150821855Y-125433529D01*
X150966018Y-125577692D01*
X151135536Y-125690960D01*
X151323894Y-125768981D01*
X151523853Y-125808755D01*
X151727731Y-125808755D01*
X151927690Y-125768981D01*
X152116048Y-125690960D01*
X152285566Y-125577692D01*
X152429729Y-125433529D01*
X152542997Y-125264011D01*
X152601702Y-125122285D01*
X157415000Y-125122285D01*
X157415000Y-125877715D01*
X157562377Y-126618628D01*
X157851467Y-127316554D01*
X158271161Y-127944670D01*
X158805330Y-128478839D01*
X159433446Y-128898533D01*
X160131372Y-129187623D01*
X160872285Y-129335000D01*
X161627715Y-129335000D01*
X162368628Y-129187623D01*
X163066554Y-128898533D01*
X163694670Y-128478839D01*
X164228839Y-127944670D01*
X164648533Y-127316554D01*
X164937623Y-126618628D01*
X165085000Y-125877715D01*
X165085000Y-125122285D01*
X164937623Y-124381372D01*
X164648533Y-123683446D01*
X164228839Y-123055330D01*
X163694670Y-122521161D01*
X163066554Y-122101467D01*
X162368628Y-121812377D01*
X161627715Y-121665000D01*
X160872285Y-121665000D01*
X160131372Y-121812377D01*
X159433446Y-122101467D01*
X158805330Y-122521161D01*
X158271161Y-123055330D01*
X157851467Y-123683446D01*
X157562377Y-124381372D01*
X157415000Y-125122285D01*
X152601702Y-125122285D01*
X152621018Y-125075653D01*
X152660792Y-124875694D01*
X152660792Y-124671816D01*
X152621018Y-124471857D01*
X152542997Y-124283499D01*
X152429729Y-124113981D01*
X152285566Y-123969818D01*
X152116048Y-123856550D01*
X151927690Y-123778529D01*
X151727731Y-123738755D01*
X151523853Y-123738755D01*
X151323894Y-123778529D01*
X151135536Y-123856550D01*
X150966018Y-123969818D01*
X150821855Y-124113981D01*
X150708587Y-124283499D01*
X150630566Y-124471857D01*
X150590792Y-124671816D01*
X124995396Y-124671816D01*
X124937623Y-124381372D01*
X124648533Y-123683446D01*
X124228839Y-123055330D01*
X124071570Y-122898061D01*
X132965000Y-122898061D01*
X132965000Y-123101939D01*
X133004774Y-123301898D01*
X133082795Y-123490256D01*
X133196063Y-123659774D01*
X133340226Y-123803937D01*
X133509744Y-123917205D01*
X133698102Y-123995226D01*
X133898061Y-124035000D01*
X134101939Y-124035000D01*
X134301898Y-123995226D01*
X134490256Y-123917205D01*
X134659774Y-123803937D01*
X134803937Y-123659774D01*
X134917205Y-123490256D01*
X134995226Y-123301898D01*
X135035000Y-123101939D01*
X135035000Y-122898061D01*
X134995226Y-122698102D01*
X134917205Y-122509744D01*
X134803937Y-122340226D01*
X134761772Y-122298061D01*
X151565000Y-122298061D01*
X151565000Y-122501939D01*
X151604774Y-122701898D01*
X151682795Y-122890256D01*
X151796063Y-123059774D01*
X151940226Y-123203937D01*
X152109744Y-123317205D01*
X152298102Y-123395226D01*
X152498061Y-123435000D01*
X152701939Y-123435000D01*
X152901898Y-123395226D01*
X153090256Y-123317205D01*
X153259774Y-123203937D01*
X153403937Y-123059774D01*
X153517205Y-122890256D01*
X153595226Y-122701898D01*
X153635000Y-122501939D01*
X153635000Y-122298061D01*
X153595226Y-122098102D01*
X153517205Y-121909744D01*
X153403937Y-121740226D01*
X153259774Y-121596063D01*
X153090256Y-121482795D01*
X152901898Y-121404774D01*
X152701939Y-121365000D01*
X152498061Y-121365000D01*
X152298102Y-121404774D01*
X152109744Y-121482795D01*
X151940226Y-121596063D01*
X151796063Y-121740226D01*
X151682795Y-121909744D01*
X151604774Y-122098102D01*
X151565000Y-122298061D01*
X134761772Y-122298061D01*
X134659774Y-122196063D01*
X134490256Y-122082795D01*
X134301898Y-122004774D01*
X134101939Y-121965000D01*
X133898061Y-121965000D01*
X133698102Y-122004774D01*
X133509744Y-122082795D01*
X133340226Y-122196063D01*
X133196063Y-122340226D01*
X133082795Y-122509744D01*
X133004774Y-122698102D01*
X132965000Y-122898061D01*
X124071570Y-122898061D01*
X123694670Y-122521161D01*
X123066554Y-122101467D01*
X122368628Y-121812377D01*
X121627715Y-121665000D01*
X120872285Y-121665000D01*
X120131372Y-121812377D01*
X119433446Y-122101467D01*
X118805330Y-122521161D01*
X118271161Y-123055330D01*
X117851467Y-123683446D01*
X117562377Y-124381372D01*
X117415000Y-125122285D01*
X116377000Y-125122285D01*
X116377000Y-120698061D01*
X135165000Y-120698061D01*
X135165000Y-120901939D01*
X135204774Y-121101898D01*
X135282795Y-121290256D01*
X135396063Y-121459774D01*
X135540226Y-121603937D01*
X135709744Y-121717205D01*
X135898102Y-121795226D01*
X136098061Y-121835000D01*
X136301939Y-121835000D01*
X136501898Y-121795226D01*
X136690256Y-121717205D01*
X136859774Y-121603937D01*
X137003937Y-121459774D01*
X137117205Y-121290256D01*
X137195226Y-121101898D01*
X137235000Y-120901939D01*
X137235000Y-120698061D01*
X137195226Y-120498102D01*
X137117205Y-120309744D01*
X137009173Y-120148061D01*
X141715000Y-120148061D01*
X141715000Y-120351939D01*
X141754774Y-120551898D01*
X141832795Y-120740256D01*
X141946063Y-120909774D01*
X142090226Y-121053937D01*
X142259744Y-121167205D01*
X142448102Y-121245226D01*
X142648061Y-121285000D01*
X142851939Y-121285000D01*
X143051898Y-121245226D01*
X143240256Y-121167205D01*
X143409774Y-121053937D01*
X143553937Y-120909774D01*
X143667205Y-120740256D01*
X143745226Y-120551898D01*
X143785000Y-120351939D01*
X143785000Y-120148061D01*
X143745226Y-119948102D01*
X143667205Y-119759744D01*
X143553937Y-119590226D01*
X143409774Y-119446063D01*
X143240256Y-119332795D01*
X143051898Y-119254774D01*
X142851939Y-119215000D01*
X142648061Y-119215000D01*
X142448102Y-119254774D01*
X142259744Y-119332795D01*
X142090226Y-119446063D01*
X141946063Y-119590226D01*
X141832795Y-119759744D01*
X141754774Y-119948102D01*
X141715000Y-120148061D01*
X137009173Y-120148061D01*
X137003937Y-120140226D01*
X136859774Y-119996063D01*
X136690256Y-119882795D01*
X136501898Y-119804774D01*
X136301939Y-119765000D01*
X136098061Y-119765000D01*
X135898102Y-119804774D01*
X135709744Y-119882795D01*
X135540226Y-119996063D01*
X135396063Y-120140226D01*
X135282795Y-120309744D01*
X135204774Y-120498102D01*
X135165000Y-120698061D01*
X116377000Y-120698061D01*
X116377000Y-118756890D01*
X117308524Y-118756890D01*
X117353175Y-118904099D01*
X117478359Y-119166920D01*
X117652412Y-119400269D01*
X117868645Y-119595178D01*
X118118748Y-119744157D01*
X118393109Y-119841481D01*
X118623000Y-119720814D01*
X118623000Y-118527000D01*
X117429845Y-118527000D01*
X117308524Y-118756890D01*
X116377000Y-118756890D01*
X116377000Y-95540000D01*
X117257815Y-95540000D01*
X117286487Y-95831111D01*
X117371401Y-96111034D01*
X117509294Y-96369014D01*
X117694866Y-96595134D01*
X117920986Y-96780706D01*
X117975791Y-96810000D01*
X117920986Y-96839294D01*
X117694866Y-97024866D01*
X117509294Y-97250986D01*
X117371401Y-97508966D01*
X117286487Y-97788889D01*
X117257815Y-98080000D01*
X117286487Y-98371111D01*
X117371401Y-98651034D01*
X117509294Y-98909014D01*
X117694866Y-99135134D01*
X117920986Y-99320706D01*
X117975791Y-99350000D01*
X117920986Y-99379294D01*
X117694866Y-99564866D01*
X117509294Y-99790986D01*
X117371401Y-100048966D01*
X117286487Y-100328889D01*
X117257815Y-100620000D01*
X117286487Y-100911111D01*
X117371401Y-101191034D01*
X117509294Y-101449014D01*
X117694866Y-101675134D01*
X117920986Y-101860706D01*
X117975791Y-101890000D01*
X117920986Y-101919294D01*
X117694866Y-102104866D01*
X117509294Y-102330986D01*
X117371401Y-102588966D01*
X117286487Y-102868889D01*
X117257815Y-103160000D01*
X117286487Y-103451111D01*
X117371401Y-103731034D01*
X117509294Y-103989014D01*
X117694866Y-104215134D01*
X117920986Y-104400706D01*
X117985523Y-104435201D01*
X117868645Y-104504822D01*
X117652412Y-104699731D01*
X117478359Y-104933080D01*
X117353175Y-105195901D01*
X117308524Y-105343110D01*
X117429845Y-105573000D01*
X118623000Y-105573000D01*
X118623000Y-105553000D01*
X118877000Y-105553000D01*
X118877000Y-105573000D01*
X118897000Y-105573000D01*
X118897000Y-105827000D01*
X118877000Y-105827000D01*
X118877000Y-105847000D01*
X118623000Y-105847000D01*
X118623000Y-105827000D01*
X117429845Y-105827000D01*
X117308524Y-106056890D01*
X117353175Y-106204099D01*
X117478359Y-106466920D01*
X117652412Y-106700269D01*
X117868645Y-106895178D01*
X117985523Y-106964799D01*
X117920986Y-106999294D01*
X117694866Y-107184866D01*
X117509294Y-107410986D01*
X117371401Y-107668966D01*
X117286487Y-107948889D01*
X117257815Y-108240000D01*
X117286487Y-108531111D01*
X117371401Y-108811034D01*
X117509294Y-109069014D01*
X117694866Y-109295134D01*
X117920986Y-109480706D01*
X117975791Y-109510000D01*
X117920986Y-109539294D01*
X117694866Y-109724866D01*
X117509294Y-109950986D01*
X117371401Y-110208966D01*
X117286487Y-110488889D01*
X117257815Y-110780000D01*
X117286487Y-111071111D01*
X117371401Y-111351034D01*
X117509294Y-111609014D01*
X117694866Y-111835134D01*
X117920986Y-112020706D01*
X117975791Y-112050000D01*
X117920986Y-112079294D01*
X117694866Y-112264866D01*
X117509294Y-112490986D01*
X117371401Y-112748966D01*
X117286487Y-113028889D01*
X117257815Y-113320000D01*
X117286487Y-113611111D01*
X117371401Y-113891034D01*
X117509294Y-114149014D01*
X117694866Y-114375134D01*
X117920986Y-114560706D01*
X117975791Y-114590000D01*
X117920986Y-114619294D01*
X117694866Y-114804866D01*
X117509294Y-115030986D01*
X117371401Y-115288966D01*
X117286487Y-115568889D01*
X117257815Y-115860000D01*
X117286487Y-116151111D01*
X117371401Y-116431034D01*
X117509294Y-116689014D01*
X117694866Y-116915134D01*
X117920986Y-117100706D01*
X117985523Y-117135201D01*
X117868645Y-117204822D01*
X117652412Y-117399731D01*
X117478359Y-117633080D01*
X117353175Y-117895901D01*
X117308524Y-118043110D01*
X117429845Y-118273000D01*
X118623000Y-118273000D01*
X118623000Y-118253000D01*
X118877000Y-118253000D01*
X118877000Y-118273000D01*
X118897000Y-118273000D01*
X118897000Y-118527000D01*
X118877000Y-118527000D01*
X118877000Y-119720814D01*
X119106891Y-119841481D01*
X119381252Y-119744157D01*
X119631355Y-119595178D01*
X119847588Y-119400269D01*
X120018416Y-119171244D01*
X120049294Y-119229014D01*
X120234866Y-119455134D01*
X120460986Y-119640706D01*
X120718966Y-119778599D01*
X120998889Y-119863513D01*
X121217050Y-119885000D01*
X121362950Y-119885000D01*
X121581111Y-119863513D01*
X121861034Y-119778599D01*
X122119014Y-119640706D01*
X122345134Y-119455134D01*
X122530706Y-119229014D01*
X122668599Y-118971034D01*
X122753513Y-118691111D01*
X122782185Y-118400000D01*
X122753513Y-118108889D01*
X122668599Y-117828966D01*
X122530706Y-117570986D01*
X122345134Y-117344866D01*
X122119014Y-117159294D01*
X122064209Y-117130000D01*
X122119014Y-117100706D01*
X122345134Y-116915134D01*
X122530706Y-116689014D01*
X122668599Y-116431034D01*
X122753513Y-116151111D01*
X122782185Y-115860000D01*
X122753513Y-115568889D01*
X122668599Y-115288966D01*
X122530706Y-115030986D01*
X122345134Y-114804866D01*
X122119014Y-114619294D01*
X122064209Y-114590000D01*
X122119014Y-114560706D01*
X122317197Y-114398061D01*
X124715000Y-114398061D01*
X124715000Y-114601939D01*
X124754774Y-114801898D01*
X124832795Y-114990256D01*
X124946063Y-115159774D01*
X125090226Y-115303937D01*
X125259744Y-115417205D01*
X125448102Y-115495226D01*
X125648061Y-115535000D01*
X125851939Y-115535000D01*
X126051898Y-115495226D01*
X126240256Y-115417205D01*
X126409774Y-115303937D01*
X126553937Y-115159774D01*
X126667205Y-114990256D01*
X126745226Y-114801898D01*
X126785000Y-114601939D01*
X126785000Y-114539801D01*
X127761004Y-113563798D01*
X127790001Y-113540001D01*
X127884974Y-113424276D01*
X127955546Y-113292247D01*
X127999003Y-113148986D01*
X128010000Y-113037333D01*
X128010000Y-113037324D01*
X128013676Y-113000001D01*
X128010000Y-112962678D01*
X128010000Y-112703725D01*
X128053937Y-112659788D01*
X128167205Y-112490270D01*
X128185943Y-112445033D01*
X129146362Y-113405452D01*
X129170160Y-113434450D01*
X129285885Y-113529423D01*
X129417914Y-113599995D01*
X129561175Y-113643452D01*
X129672828Y-113654449D01*
X129672836Y-113654449D01*
X129710161Y-113658125D01*
X129747486Y-113654449D01*
X131943513Y-113654449D01*
X131987450Y-113698386D01*
X132156968Y-113811654D01*
X132225401Y-113840000D01*
X129187322Y-113840000D01*
X129149999Y-113836324D01*
X129112676Y-113840000D01*
X129112667Y-113840000D01*
X129001014Y-113850997D01*
X128857753Y-113894454D01*
X128725724Y-113965026D01*
X128609999Y-114059999D01*
X128586201Y-114088997D01*
X126210199Y-116465000D01*
X126148061Y-116465000D01*
X125948102Y-116504774D01*
X125759744Y-116582795D01*
X125590226Y-116696063D01*
X125446063Y-116840226D01*
X125332795Y-117009744D01*
X125254774Y-117198102D01*
X125215000Y-117398061D01*
X125215000Y-117601939D01*
X125254774Y-117801898D01*
X125332795Y-117990256D01*
X125446063Y-118159774D01*
X125590226Y-118303937D01*
X125759744Y-118417205D01*
X125948102Y-118495226D01*
X126148061Y-118535000D01*
X126351939Y-118535000D01*
X126551898Y-118495226D01*
X126740256Y-118417205D01*
X126909774Y-118303937D01*
X127053937Y-118159774D01*
X127167205Y-117990256D01*
X127245226Y-117801898D01*
X127285000Y-117601939D01*
X127285000Y-117539801D01*
X127326740Y-117498061D01*
X150365000Y-117498061D01*
X150365000Y-117701939D01*
X150404774Y-117901898D01*
X150482795Y-118090256D01*
X150596063Y-118259774D01*
X150740226Y-118403937D01*
X150909744Y-118517205D01*
X151098102Y-118595226D01*
X151298061Y-118635000D01*
X151501939Y-118635000D01*
X151701898Y-118595226D01*
X151890256Y-118517205D01*
X152059774Y-118403937D01*
X152203937Y-118259774D01*
X152317205Y-118090256D01*
X152395226Y-117901898D01*
X152435000Y-117701939D01*
X152435000Y-117498061D01*
X152395226Y-117298102D01*
X152317205Y-117109744D01*
X152203937Y-116940226D01*
X152059774Y-116796063D01*
X151890256Y-116682795D01*
X151701898Y-116604774D01*
X151501939Y-116565000D01*
X151298061Y-116565000D01*
X151098102Y-116604774D01*
X150909744Y-116682795D01*
X150740226Y-116796063D01*
X150596063Y-116940226D01*
X150482795Y-117109744D01*
X150404774Y-117298102D01*
X150365000Y-117498061D01*
X127326740Y-117498061D01*
X129464802Y-115360000D01*
X131382850Y-115360000D01*
X131282795Y-115509744D01*
X131204774Y-115698102D01*
X131165000Y-115898061D01*
X131165000Y-116101939D01*
X131204774Y-116301898D01*
X131282795Y-116490256D01*
X131396063Y-116659774D01*
X131540226Y-116803937D01*
X131709744Y-116917205D01*
X131898102Y-116995226D01*
X132098061Y-117035000D01*
X132301939Y-117035000D01*
X132501898Y-116995226D01*
X132690256Y-116917205D01*
X132859774Y-116803937D01*
X133003937Y-116659774D01*
X133117205Y-116490256D01*
X133195226Y-116301898D01*
X133235000Y-116101939D01*
X133235000Y-115898061D01*
X133195226Y-115698102D01*
X133163977Y-115622660D01*
X133301898Y-115595226D01*
X133490256Y-115517205D01*
X133659774Y-115403937D01*
X133803937Y-115259774D01*
X133917205Y-115090256D01*
X133995226Y-114901898D01*
X134035000Y-114701939D01*
X134035000Y-114498061D01*
X133995226Y-114298102D01*
X133917205Y-114109744D01*
X133803937Y-113940226D01*
X133659774Y-113796063D01*
X133490256Y-113682795D01*
X133371698Y-113633686D01*
X133451161Y-113554223D01*
X133564429Y-113384705D01*
X133642450Y-113196347D01*
X133682224Y-112996388D01*
X133682224Y-112792510D01*
X133663438Y-112698061D01*
X135165000Y-112698061D01*
X135165000Y-112901939D01*
X135204774Y-113101898D01*
X135282795Y-113290256D01*
X135396063Y-113459774D01*
X135540226Y-113603937D01*
X135709744Y-113717205D01*
X135898102Y-113795226D01*
X135987076Y-113812924D01*
X135994030Y-113847882D01*
X135909744Y-113882795D01*
X135740226Y-113996063D01*
X135596063Y-114140226D01*
X135482795Y-114309744D01*
X135404774Y-114498102D01*
X135365000Y-114698061D01*
X135365000Y-114901939D01*
X135404774Y-115101898D01*
X135482795Y-115290256D01*
X135556123Y-115400000D01*
X135482795Y-115509744D01*
X135404774Y-115698102D01*
X135365000Y-115898061D01*
X135365000Y-116101939D01*
X135404774Y-116301898D01*
X135482795Y-116490256D01*
X135596063Y-116659774D01*
X135740226Y-116803937D01*
X135909744Y-116917205D01*
X136098102Y-116995226D01*
X136298061Y-117035000D01*
X136501939Y-117035000D01*
X136701898Y-116995226D01*
X136890256Y-116917205D01*
X137059774Y-116803937D01*
X137203937Y-116659774D01*
X137317205Y-116490256D01*
X137395226Y-116301898D01*
X137435000Y-116101939D01*
X137435000Y-115898061D01*
X137395226Y-115698102D01*
X137317205Y-115509744D01*
X137243877Y-115400000D01*
X137317205Y-115290256D01*
X137395226Y-115101898D01*
X137435000Y-114901939D01*
X137435000Y-114698061D01*
X137425055Y-114648061D01*
X141715000Y-114648061D01*
X141715000Y-114851939D01*
X141754774Y-115051898D01*
X141832795Y-115240256D01*
X141946063Y-115409774D01*
X142090226Y-115553937D01*
X142259744Y-115667205D01*
X142448102Y-115745226D01*
X142648061Y-115785000D01*
X142851939Y-115785000D01*
X143051898Y-115745226D01*
X143240256Y-115667205D01*
X143409774Y-115553937D01*
X143553937Y-115409774D01*
X143561763Y-115398061D01*
X155465000Y-115398061D01*
X155465000Y-115601939D01*
X155504774Y-115801898D01*
X155582795Y-115990256D01*
X155696063Y-116159774D01*
X155840226Y-116303937D01*
X156009744Y-116417205D01*
X156198102Y-116495226D01*
X156398061Y-116535000D01*
X156601939Y-116535000D01*
X156801898Y-116495226D01*
X156990256Y-116417205D01*
X157159774Y-116303937D01*
X157303937Y-116159774D01*
X157417205Y-115990256D01*
X157495226Y-115801898D01*
X157535000Y-115601939D01*
X157535000Y-115398061D01*
X157495226Y-115198102D01*
X157417205Y-115009744D01*
X157303937Y-114840226D01*
X157159774Y-114696063D01*
X156990256Y-114582795D01*
X156801898Y-114504774D01*
X156601939Y-114465000D01*
X156398061Y-114465000D01*
X156198102Y-114504774D01*
X156009744Y-114582795D01*
X155840226Y-114696063D01*
X155696063Y-114840226D01*
X155582795Y-115009744D01*
X155504774Y-115198102D01*
X155465000Y-115398061D01*
X143561763Y-115398061D01*
X143667205Y-115240256D01*
X143745226Y-115051898D01*
X143785000Y-114851939D01*
X143785000Y-114648061D01*
X143745226Y-114448102D01*
X143667205Y-114259744D01*
X143553937Y-114090226D01*
X143409774Y-113946063D01*
X143337934Y-113898061D01*
X150565000Y-113898061D01*
X150565000Y-114101939D01*
X150604774Y-114301898D01*
X150682795Y-114490256D01*
X150796063Y-114659774D01*
X150940226Y-114803937D01*
X151109744Y-114917205D01*
X151298102Y-114995226D01*
X151498061Y-115035000D01*
X151701939Y-115035000D01*
X151901898Y-114995226D01*
X152090256Y-114917205D01*
X152259774Y-114803937D01*
X152403937Y-114659774D01*
X152517205Y-114490256D01*
X152595226Y-114301898D01*
X152635000Y-114101939D01*
X152635000Y-113898061D01*
X152595226Y-113698102D01*
X152517205Y-113509744D01*
X152403937Y-113340226D01*
X152259774Y-113196063D01*
X152090256Y-113082795D01*
X151901898Y-113004774D01*
X151701939Y-112965000D01*
X151498061Y-112965000D01*
X151298102Y-113004774D01*
X151109744Y-113082795D01*
X150940226Y-113196063D01*
X150796063Y-113340226D01*
X150682795Y-113509744D01*
X150604774Y-113698102D01*
X150565000Y-113898061D01*
X143337934Y-113898061D01*
X143240256Y-113832795D01*
X143051898Y-113754774D01*
X142851939Y-113715000D01*
X142648061Y-113715000D01*
X142448102Y-113754774D01*
X142259744Y-113832795D01*
X142090226Y-113946063D01*
X141946063Y-114090226D01*
X141832795Y-114259744D01*
X141754774Y-114448102D01*
X141715000Y-114648061D01*
X137425055Y-114648061D01*
X137405970Y-114552118D01*
X137490256Y-114517205D01*
X137659774Y-114403937D01*
X137803937Y-114259774D01*
X137917205Y-114090256D01*
X137995226Y-113901898D01*
X138035000Y-113701939D01*
X138035000Y-113498061D01*
X137995226Y-113298102D01*
X137917205Y-113109744D01*
X137803937Y-112940226D01*
X137659774Y-112796063D01*
X137490256Y-112682795D01*
X137301898Y-112604774D01*
X137212924Y-112587076D01*
X137195226Y-112498102D01*
X137117205Y-112309744D01*
X137003937Y-112140226D01*
X136859774Y-111996063D01*
X136690256Y-111882795D01*
X136501898Y-111804774D01*
X136301939Y-111765000D01*
X136098061Y-111765000D01*
X135898102Y-111804774D01*
X135709744Y-111882795D01*
X135540226Y-111996063D01*
X135396063Y-112140226D01*
X135282795Y-112309744D01*
X135204774Y-112498102D01*
X135165000Y-112698061D01*
X133663438Y-112698061D01*
X133642450Y-112592551D01*
X133564429Y-112404193D01*
X133451161Y-112234675D01*
X133306998Y-112090512D01*
X133137480Y-111977244D01*
X132949122Y-111899223D01*
X132749163Y-111859449D01*
X132545285Y-111859449D01*
X132345326Y-111899223D01*
X132156968Y-111977244D01*
X131987450Y-112090512D01*
X131943513Y-112134449D01*
X130024963Y-112134449D01*
X129025922Y-111135408D01*
X154452347Y-111135408D01*
X154452347Y-111339286D01*
X154492121Y-111539245D01*
X154570142Y-111727603D01*
X154683410Y-111897121D01*
X154827573Y-112041284D01*
X154997091Y-112154552D01*
X155185449Y-112232573D01*
X155385408Y-112272347D01*
X155589286Y-112272347D01*
X155789245Y-112232573D01*
X155977603Y-112154552D01*
X156147121Y-112041284D01*
X156291284Y-111897121D01*
X156404552Y-111727603D01*
X156482573Y-111539245D01*
X156522347Y-111339286D01*
X156522347Y-111135408D01*
X156482573Y-110935449D01*
X156404552Y-110747091D01*
X156291284Y-110577573D01*
X156147121Y-110433410D01*
X155977603Y-110320142D01*
X155789245Y-110242121D01*
X155589286Y-110202347D01*
X155385408Y-110202347D01*
X155185449Y-110242121D01*
X154997091Y-110320142D01*
X154827573Y-110433410D01*
X154683410Y-110577573D01*
X154570142Y-110747091D01*
X154492121Y-110935449D01*
X154452347Y-111135408D01*
X129025922Y-111135408D01*
X128379489Y-110488976D01*
X128355686Y-110459972D01*
X128239961Y-110364999D01*
X128107932Y-110294427D01*
X127964724Y-110250986D01*
X127909774Y-110196036D01*
X127740256Y-110082768D01*
X127551898Y-110004747D01*
X127351939Y-109964973D01*
X127148061Y-109964973D01*
X126948102Y-110004747D01*
X126759744Y-110082768D01*
X126590226Y-110196036D01*
X126446063Y-110340199D01*
X126332795Y-110509717D01*
X126254774Y-110698075D01*
X126215000Y-110898034D01*
X126215000Y-111101912D01*
X126254774Y-111301871D01*
X126332795Y-111490229D01*
X126339319Y-111499994D01*
X126332795Y-111509758D01*
X126254774Y-111698116D01*
X126215000Y-111898075D01*
X126215000Y-112101953D01*
X126254774Y-112301912D01*
X126332795Y-112490270D01*
X126446063Y-112659788D01*
X126480737Y-112694462D01*
X125710199Y-113465000D01*
X125648061Y-113465000D01*
X125448102Y-113504774D01*
X125259744Y-113582795D01*
X125090226Y-113696063D01*
X124946063Y-113840226D01*
X124832795Y-114009744D01*
X124754774Y-114198102D01*
X124715000Y-114398061D01*
X122317197Y-114398061D01*
X122345134Y-114375134D01*
X122530706Y-114149014D01*
X122668599Y-113891034D01*
X122753513Y-113611111D01*
X122782185Y-113320000D01*
X122753513Y-113028889D01*
X122668599Y-112748966D01*
X122530706Y-112490986D01*
X122345134Y-112264866D01*
X122119014Y-112079294D01*
X122054477Y-112044799D01*
X122171355Y-111975178D01*
X122387588Y-111780269D01*
X122561641Y-111546920D01*
X122686825Y-111284099D01*
X122731476Y-111136890D01*
X122610155Y-110907000D01*
X121417000Y-110907000D01*
X121417000Y-110927000D01*
X121163000Y-110927000D01*
X121163000Y-110907000D01*
X121143000Y-110907000D01*
X121143000Y-110653000D01*
X121163000Y-110653000D01*
X121163000Y-110633000D01*
X121417000Y-110633000D01*
X121417000Y-110653000D01*
X122610155Y-110653000D01*
X122731476Y-110423110D01*
X122686825Y-110275901D01*
X122561641Y-110013080D01*
X122387588Y-109779731D01*
X122171355Y-109584822D01*
X122054477Y-109515201D01*
X122119014Y-109480706D01*
X122345134Y-109295134D01*
X122530706Y-109069014D01*
X122668599Y-108811034D01*
X122753513Y-108531111D01*
X122782185Y-108240000D01*
X122753513Y-107948889D01*
X122668599Y-107668966D01*
X122530706Y-107410986D01*
X122345134Y-107184866D01*
X122119014Y-106999294D01*
X122064209Y-106970000D01*
X122119014Y-106940706D01*
X122345134Y-106755134D01*
X122530706Y-106529014D01*
X122668599Y-106271034D01*
X122753513Y-105991111D01*
X122782185Y-105700000D01*
X122753513Y-105408889D01*
X122668599Y-105128966D01*
X122530706Y-104870986D01*
X122345134Y-104644866D01*
X122119014Y-104459294D01*
X122064209Y-104430000D01*
X122119014Y-104400706D01*
X122345134Y-104215134D01*
X122530706Y-103989014D01*
X122668599Y-103731034D01*
X122753513Y-103451111D01*
X122757491Y-103410721D01*
X125202340Y-103410721D01*
X125202340Y-103614599D01*
X125242114Y-103814558D01*
X125320135Y-104002916D01*
X125433403Y-104172434D01*
X125538465Y-104277496D01*
X125514700Y-104355843D01*
X125500998Y-104401014D01*
X125498707Y-104424276D01*
X125486324Y-104550000D01*
X125490001Y-104587332D01*
X125490001Y-104796288D01*
X125446063Y-104840226D01*
X125332795Y-105009744D01*
X125254774Y-105198102D01*
X125215000Y-105398061D01*
X125215000Y-105601939D01*
X125254774Y-105801898D01*
X125332795Y-105990256D01*
X125446063Y-106159774D01*
X125536289Y-106250000D01*
X125446063Y-106340226D01*
X125332795Y-106509744D01*
X125254774Y-106698102D01*
X125215000Y-106898061D01*
X125215000Y-107101939D01*
X125254774Y-107301898D01*
X125332795Y-107490256D01*
X125446063Y-107659774D01*
X125536289Y-107750000D01*
X125446063Y-107840226D01*
X125332795Y-108009744D01*
X125254774Y-108198102D01*
X125215000Y-108398061D01*
X125215000Y-108601939D01*
X125254774Y-108801898D01*
X125332795Y-108990256D01*
X125446063Y-109159774D01*
X125590226Y-109303937D01*
X125759744Y-109417205D01*
X125948102Y-109495226D01*
X126148061Y-109535000D01*
X126351939Y-109535000D01*
X126551898Y-109495226D01*
X126740256Y-109417205D01*
X126909774Y-109303937D01*
X127053937Y-109159774D01*
X127167205Y-108990256D01*
X127245226Y-108801898D01*
X127285000Y-108601939D01*
X127285000Y-108398061D01*
X127245226Y-108198102D01*
X127167205Y-108009744D01*
X127053937Y-107840226D01*
X126963711Y-107750000D01*
X127053937Y-107659774D01*
X127167205Y-107490256D01*
X127245226Y-107301898D01*
X127285000Y-107101939D01*
X127285000Y-107098061D01*
X129165000Y-107098061D01*
X129165000Y-107301939D01*
X129204774Y-107501898D01*
X129282795Y-107690256D01*
X129396063Y-107859774D01*
X129540226Y-108003937D01*
X129709744Y-108117205D01*
X129898102Y-108195226D01*
X130098061Y-108235000D01*
X130301939Y-108235000D01*
X130501898Y-108195226D01*
X130690256Y-108117205D01*
X130859774Y-108003937D01*
X131003937Y-107859774D01*
X131117205Y-107690256D01*
X131195226Y-107501898D01*
X131235000Y-107301939D01*
X131235000Y-107098061D01*
X131195226Y-106898102D01*
X131117205Y-106709744D01*
X131003937Y-106540226D01*
X130859774Y-106396063D01*
X130690256Y-106282795D01*
X130501898Y-106204774D01*
X130301939Y-106165000D01*
X130098061Y-106165000D01*
X129898102Y-106204774D01*
X129709744Y-106282795D01*
X129540226Y-106396063D01*
X129396063Y-106540226D01*
X129282795Y-106709744D01*
X129204774Y-106898102D01*
X129165000Y-107098061D01*
X127285000Y-107098061D01*
X127285000Y-107039802D01*
X127511002Y-106813799D01*
X127540001Y-106790001D01*
X127634974Y-106674276D01*
X127705546Y-106542247D01*
X127749003Y-106398986D01*
X127760000Y-106287333D01*
X127760000Y-106287324D01*
X127763676Y-106250001D01*
X127760000Y-106212678D01*
X127760000Y-105114801D01*
X128114802Y-104760000D01*
X129565000Y-104760000D01*
X129565000Y-104901939D01*
X129604774Y-105101898D01*
X129682795Y-105290256D01*
X129796063Y-105459774D01*
X129940226Y-105603937D01*
X130109744Y-105717205D01*
X130298102Y-105795226D01*
X130498061Y-105835000D01*
X130701939Y-105835000D01*
X130901898Y-105795226D01*
X131090256Y-105717205D01*
X131256122Y-105606377D01*
X131309743Y-105642205D01*
X131498101Y-105720226D01*
X131698060Y-105760000D01*
X131901938Y-105760000D01*
X132101897Y-105720226D01*
X132275374Y-105648369D01*
X132254774Y-105698102D01*
X132215000Y-105898061D01*
X132215000Y-106101939D01*
X132254774Y-106301898D01*
X132332795Y-106490256D01*
X132446063Y-106659774D01*
X132590226Y-106803937D01*
X132759744Y-106917205D01*
X132948102Y-106995226D01*
X133148061Y-107035000D01*
X133351939Y-107035000D01*
X133366271Y-107032149D01*
X133004956Y-107393465D01*
X132948101Y-107404774D01*
X132759743Y-107482795D01*
X132590225Y-107596063D01*
X132446062Y-107740226D01*
X132332794Y-107909744D01*
X132254773Y-108098102D01*
X132214999Y-108298061D01*
X132214999Y-108501939D01*
X132254773Y-108701898D01*
X132332794Y-108890256D01*
X132446062Y-109059774D01*
X132590225Y-109203937D01*
X132703098Y-109279356D01*
X132682793Y-109309744D01*
X132604772Y-109498102D01*
X132564998Y-109698061D01*
X132564998Y-109901939D01*
X132604772Y-110101898D01*
X132682793Y-110290256D01*
X132796061Y-110459774D01*
X132940224Y-110603937D01*
X133109742Y-110717205D01*
X133298100Y-110795226D01*
X133498059Y-110835000D01*
X133701937Y-110835000D01*
X133901896Y-110795226D01*
X134090254Y-110717205D01*
X134259772Y-110603937D01*
X134403935Y-110459774D01*
X134517203Y-110290256D01*
X134595224Y-110101898D01*
X134634998Y-109901939D01*
X134634998Y-109698061D01*
X134607040Y-109557507D01*
X134698102Y-109595226D01*
X134898061Y-109635000D01*
X135101939Y-109635000D01*
X135301898Y-109595226D01*
X135490256Y-109517205D01*
X135659774Y-109403937D01*
X135803937Y-109259774D01*
X135878581Y-109148061D01*
X141715000Y-109148061D01*
X141715000Y-109351939D01*
X141754774Y-109551898D01*
X141832795Y-109740256D01*
X141946063Y-109909774D01*
X142090226Y-110053937D01*
X142259744Y-110167205D01*
X142448102Y-110245226D01*
X142648061Y-110285000D01*
X142851939Y-110285000D01*
X143051898Y-110245226D01*
X143240256Y-110167205D01*
X143409774Y-110053937D01*
X143553937Y-109909774D01*
X143667205Y-109740256D01*
X143745226Y-109551898D01*
X143785000Y-109351939D01*
X143785000Y-109148061D01*
X143745226Y-108948102D01*
X143667205Y-108759744D01*
X143553937Y-108590226D01*
X143409774Y-108446063D01*
X143240256Y-108332795D01*
X143051898Y-108254774D01*
X142851939Y-108215000D01*
X142648061Y-108215000D01*
X142448102Y-108254774D01*
X142259744Y-108332795D01*
X142090226Y-108446063D01*
X141946063Y-108590226D01*
X141832795Y-108759744D01*
X141754774Y-108948102D01*
X141715000Y-109148061D01*
X135878581Y-109148061D01*
X135917205Y-109090256D01*
X135995226Y-108901898D01*
X136035000Y-108701939D01*
X136035000Y-108498061D01*
X135995226Y-108298102D01*
X135917205Y-108109744D01*
X135803937Y-107940226D01*
X135659774Y-107796063D01*
X135490256Y-107682795D01*
X135301898Y-107604774D01*
X135291311Y-107602668D01*
X135339411Y-107544058D01*
X135421589Y-107390312D01*
X135472195Y-107223489D01*
X135484548Y-107098061D01*
X135965000Y-107098061D01*
X135965000Y-107301939D01*
X136004774Y-107501898D01*
X136082795Y-107690256D01*
X136196063Y-107859774D01*
X136340226Y-108003937D01*
X136509744Y-108117205D01*
X136698102Y-108195226D01*
X136898061Y-108235000D01*
X137101939Y-108235000D01*
X137301898Y-108195226D01*
X137415763Y-108148061D01*
X154465000Y-108148061D01*
X154465000Y-108351939D01*
X154504774Y-108551898D01*
X154582795Y-108740256D01*
X154696063Y-108909774D01*
X154840226Y-109053937D01*
X155009744Y-109167205D01*
X155198102Y-109245226D01*
X155398061Y-109285000D01*
X155601939Y-109285000D01*
X155801898Y-109245226D01*
X155990256Y-109167205D01*
X156159774Y-109053937D01*
X156303937Y-108909774D01*
X156417205Y-108740256D01*
X156495226Y-108551898D01*
X156535000Y-108351939D01*
X156535000Y-108148061D01*
X156495226Y-107948102D01*
X156417205Y-107759744D01*
X156303937Y-107590226D01*
X156159774Y-107446063D01*
X155990256Y-107332795D01*
X155801898Y-107254774D01*
X155601939Y-107215000D01*
X155398061Y-107215000D01*
X155198102Y-107254774D01*
X155009744Y-107332795D01*
X154840226Y-107446063D01*
X154696063Y-107590226D01*
X154582795Y-107759744D01*
X154504774Y-107948102D01*
X154465000Y-108148061D01*
X137415763Y-108148061D01*
X137490256Y-108117205D01*
X137659774Y-108003937D01*
X137803937Y-107859774D01*
X137917205Y-107690256D01*
X137995226Y-107501898D01*
X138035000Y-107301939D01*
X138035000Y-107098061D01*
X137995226Y-106898102D01*
X137917205Y-106709744D01*
X137803937Y-106540226D01*
X137659774Y-106396063D01*
X137490256Y-106282795D01*
X137301898Y-106204774D01*
X137101939Y-106165000D01*
X136898061Y-106165000D01*
X136698102Y-106204774D01*
X136509744Y-106282795D01*
X136340226Y-106396063D01*
X136196063Y-106540226D01*
X136082795Y-106709744D01*
X136004774Y-106898102D01*
X135965000Y-107098061D01*
X135484548Y-107098061D01*
X135485000Y-107093476D01*
X135485000Y-107093468D01*
X135489281Y-107049999D01*
X135485000Y-107006530D01*
X135485000Y-105698061D01*
X145565000Y-105698061D01*
X145565000Y-105901939D01*
X145604774Y-106101898D01*
X145682795Y-106290256D01*
X145796063Y-106459774D01*
X145940226Y-106603937D01*
X146109744Y-106717205D01*
X146298102Y-106795226D01*
X146498061Y-106835000D01*
X146701939Y-106835000D01*
X146901898Y-106795226D01*
X147090256Y-106717205D01*
X147259774Y-106603937D01*
X147403937Y-106459774D01*
X147517205Y-106290256D01*
X147595226Y-106101898D01*
X147635000Y-105901939D01*
X147635000Y-105898061D01*
X147990032Y-105898061D01*
X147990032Y-106101939D01*
X148029806Y-106301898D01*
X148107827Y-106490256D01*
X148221095Y-106659774D01*
X148365258Y-106803937D01*
X148534776Y-106917205D01*
X148723134Y-106995226D01*
X148923093Y-107035000D01*
X149126971Y-107035000D01*
X149326930Y-106995226D01*
X149515288Y-106917205D01*
X149684806Y-106803937D01*
X149828969Y-106659774D01*
X149942237Y-106490256D01*
X150020258Y-106301898D01*
X150060032Y-106101939D01*
X150060032Y-105898061D01*
X150020258Y-105698102D01*
X149999531Y-105648061D01*
X154465000Y-105648061D01*
X154465000Y-105851939D01*
X154504774Y-106051898D01*
X154582795Y-106240256D01*
X154696063Y-106409774D01*
X154840226Y-106553937D01*
X155009744Y-106667205D01*
X155198102Y-106745226D01*
X155398061Y-106785000D01*
X155601939Y-106785000D01*
X155801898Y-106745226D01*
X155990256Y-106667205D01*
X156159774Y-106553937D01*
X156303937Y-106409774D01*
X156417205Y-106240256D01*
X156495226Y-106051898D01*
X156535000Y-105851939D01*
X156535000Y-105648061D01*
X156495226Y-105448102D01*
X156417205Y-105259744D01*
X156303937Y-105090226D01*
X156159774Y-104946063D01*
X155990256Y-104832795D01*
X155801898Y-104754774D01*
X155601939Y-104715000D01*
X155398061Y-104715000D01*
X155198102Y-104754774D01*
X155009744Y-104832795D01*
X154840226Y-104946063D01*
X154696063Y-105090226D01*
X154582795Y-105259744D01*
X154504774Y-105448102D01*
X154465000Y-105648061D01*
X149999531Y-105648061D01*
X149942237Y-105509744D01*
X149828969Y-105340226D01*
X149684806Y-105196063D01*
X149515288Y-105082795D01*
X149326930Y-105004774D01*
X149126971Y-104965000D01*
X148923093Y-104965000D01*
X148723134Y-105004774D01*
X148534776Y-105082795D01*
X148365258Y-105196063D01*
X148221095Y-105340226D01*
X148107827Y-105509744D01*
X148029806Y-105698102D01*
X147990032Y-105898061D01*
X147635000Y-105898061D01*
X147635000Y-105698061D01*
X147595226Y-105498102D01*
X147517205Y-105309744D01*
X147403937Y-105140226D01*
X147259774Y-104996063D01*
X147090256Y-104882795D01*
X146901898Y-104804774D01*
X146701939Y-104765000D01*
X146498061Y-104765000D01*
X146298102Y-104804774D01*
X146109744Y-104882795D01*
X145940226Y-104996063D01*
X145796063Y-105140226D01*
X145682795Y-105309744D01*
X145604774Y-105498102D01*
X145565000Y-105698061D01*
X135485000Y-105698061D01*
X135485000Y-103648061D01*
X141715000Y-103648061D01*
X141715000Y-103851939D01*
X141754774Y-104051898D01*
X141832795Y-104240256D01*
X141946063Y-104409774D01*
X142090226Y-104553937D01*
X142259744Y-104667205D01*
X142448102Y-104745226D01*
X142648061Y-104785000D01*
X142851939Y-104785000D01*
X143051898Y-104745226D01*
X143240256Y-104667205D01*
X143409774Y-104553937D01*
X143553937Y-104409774D01*
X143667205Y-104240256D01*
X143745226Y-104051898D01*
X143785000Y-103851939D01*
X143785000Y-103648061D01*
X143745226Y-103448102D01*
X143667205Y-103259744D01*
X143592582Y-103148061D01*
X154714986Y-103148061D01*
X154714986Y-103351939D01*
X154754760Y-103551898D01*
X154832781Y-103740256D01*
X154946049Y-103909774D01*
X155090212Y-104053937D01*
X155259730Y-104167205D01*
X155448088Y-104245226D01*
X155648047Y-104285000D01*
X155851925Y-104285000D01*
X156051884Y-104245226D01*
X156240242Y-104167205D01*
X156409760Y-104053937D01*
X156553923Y-103909774D01*
X156667191Y-103740256D01*
X156745212Y-103551898D01*
X156784986Y-103351939D01*
X156784986Y-103148061D01*
X156745212Y-102948102D01*
X156667191Y-102759744D01*
X156553923Y-102590226D01*
X156409760Y-102446063D01*
X156240242Y-102332795D01*
X156051884Y-102254774D01*
X155851925Y-102215000D01*
X155648047Y-102215000D01*
X155448088Y-102254774D01*
X155259730Y-102332795D01*
X155090212Y-102446063D01*
X154946049Y-102590226D01*
X154832781Y-102759744D01*
X154754760Y-102948102D01*
X154714986Y-103148061D01*
X143592582Y-103148061D01*
X143553937Y-103090226D01*
X143409774Y-102946063D01*
X143240256Y-102832795D01*
X143051898Y-102754774D01*
X142851939Y-102715000D01*
X142648061Y-102715000D01*
X142448102Y-102754774D01*
X142259744Y-102832795D01*
X142090226Y-102946063D01*
X141946063Y-103090226D01*
X141832795Y-103259744D01*
X141754774Y-103448102D01*
X141715000Y-103648061D01*
X135485000Y-103648061D01*
X135485000Y-100085000D01*
X138233422Y-100085000D01*
X138743470Y-100595049D01*
X138771183Y-100628817D01*
X138804951Y-100656530D01*
X138804953Y-100656532D01*
X138905941Y-100739411D01*
X139059687Y-100821589D01*
X139226510Y-100872195D01*
X139356523Y-100885000D01*
X139356531Y-100885000D01*
X139400000Y-100889281D01*
X139443469Y-100885000D01*
X142261546Y-100885000D01*
X142309744Y-100917205D01*
X142498102Y-100995226D01*
X142698061Y-101035000D01*
X142901939Y-101035000D01*
X143101898Y-100995226D01*
X143290256Y-100917205D01*
X143459774Y-100803937D01*
X143603937Y-100659774D01*
X143717205Y-100490256D01*
X143795226Y-100301898D01*
X143835000Y-100101939D01*
X143835000Y-99898061D01*
X145565000Y-99898061D01*
X145565000Y-100101939D01*
X145604774Y-100301898D01*
X145682795Y-100490256D01*
X145796063Y-100659774D01*
X145940226Y-100803937D01*
X146109744Y-100917205D01*
X146298102Y-100995226D01*
X146498061Y-101035000D01*
X146701939Y-101035000D01*
X146901898Y-100995226D01*
X147090256Y-100917205D01*
X147259774Y-100803937D01*
X147400000Y-100663711D01*
X147540226Y-100803937D01*
X147709744Y-100917205D01*
X147898102Y-100995226D01*
X148098061Y-101035000D01*
X148301939Y-101035000D01*
X148501898Y-100995226D01*
X148690256Y-100917205D01*
X148859774Y-100803937D01*
X148975000Y-100688711D01*
X149090226Y-100803937D01*
X149259744Y-100917205D01*
X149448102Y-100995226D01*
X149648061Y-101035000D01*
X149851939Y-101035000D01*
X150051898Y-100995226D01*
X150240256Y-100917205D01*
X150409774Y-100803937D01*
X150553937Y-100659774D01*
X150565000Y-100643217D01*
X150565000Y-100701939D01*
X150604774Y-100901898D01*
X150682795Y-101090256D01*
X150796063Y-101259774D01*
X150940226Y-101403937D01*
X151109744Y-101517205D01*
X151298102Y-101595226D01*
X151498061Y-101635000D01*
X151701939Y-101635000D01*
X151901898Y-101595226D01*
X152090256Y-101517205D01*
X152259774Y-101403937D01*
X152403937Y-101259774D01*
X152517205Y-101090256D01*
X152595226Y-100901898D01*
X152635000Y-100701939D01*
X152635000Y-100648061D01*
X154465000Y-100648061D01*
X154465000Y-100851939D01*
X154504774Y-101051898D01*
X154582795Y-101240256D01*
X154696063Y-101409774D01*
X154840226Y-101553937D01*
X155009744Y-101667205D01*
X155198102Y-101745226D01*
X155398061Y-101785000D01*
X155601939Y-101785000D01*
X155801898Y-101745226D01*
X155990256Y-101667205D01*
X156159774Y-101553937D01*
X156303937Y-101409774D01*
X156417205Y-101240256D01*
X156495226Y-101051898D01*
X156535000Y-100851939D01*
X156535000Y-100648061D01*
X156495226Y-100448102D01*
X156417205Y-100259744D01*
X156303937Y-100090226D01*
X156159774Y-99946063D01*
X155990256Y-99832795D01*
X155801898Y-99754774D01*
X155601939Y-99715000D01*
X155398061Y-99715000D01*
X155198102Y-99754774D01*
X155009744Y-99832795D01*
X154840226Y-99946063D01*
X154696063Y-100090226D01*
X154582795Y-100259744D01*
X154504774Y-100448102D01*
X154465000Y-100648061D01*
X152635000Y-100648061D01*
X152635000Y-100498061D01*
X152595226Y-100298102D01*
X152517205Y-100109744D01*
X152403937Y-99940226D01*
X152259774Y-99796063D01*
X152090256Y-99682795D01*
X151901898Y-99604774D01*
X151701939Y-99565000D01*
X151498061Y-99565000D01*
X151298102Y-99604774D01*
X151109744Y-99682795D01*
X150940226Y-99796063D01*
X150796063Y-99940226D01*
X150785000Y-99956783D01*
X150785000Y-99898061D01*
X150745226Y-99698102D01*
X150667205Y-99509744D01*
X150553937Y-99340226D01*
X150409774Y-99196063D01*
X150240256Y-99082795D01*
X150051898Y-99004774D01*
X149851939Y-98965000D01*
X149648061Y-98965000D01*
X149448102Y-99004774D01*
X149259744Y-99082795D01*
X149090226Y-99196063D01*
X148975000Y-99311289D01*
X148859774Y-99196063D01*
X148690256Y-99082795D01*
X148501898Y-99004774D01*
X148301939Y-98965000D01*
X148098061Y-98965000D01*
X147898102Y-99004774D01*
X147709744Y-99082795D01*
X147540226Y-99196063D01*
X147400000Y-99336289D01*
X147259774Y-99196063D01*
X147090256Y-99082795D01*
X146901898Y-99004774D01*
X146701939Y-98965000D01*
X146498061Y-98965000D01*
X146298102Y-99004774D01*
X146109744Y-99082795D01*
X145940226Y-99196063D01*
X145796063Y-99340226D01*
X145682795Y-99509744D01*
X145604774Y-99698102D01*
X145565000Y-99898061D01*
X143835000Y-99898061D01*
X143795226Y-99698102D01*
X143717205Y-99509744D01*
X143603937Y-99340226D01*
X143459774Y-99196063D01*
X143328420Y-99108296D01*
X143409774Y-99053937D01*
X143553937Y-98909774D01*
X143667205Y-98740256D01*
X143745226Y-98551898D01*
X143785000Y-98351939D01*
X143785000Y-98148061D01*
X143745226Y-97948102D01*
X143729740Y-97910714D01*
X154465000Y-97910714D01*
X154465000Y-98114592D01*
X154504774Y-98314551D01*
X154582795Y-98502909D01*
X154696063Y-98672427D01*
X154840226Y-98816590D01*
X155009744Y-98929858D01*
X155198102Y-99007879D01*
X155398061Y-99047653D01*
X155601939Y-99047653D01*
X155801898Y-99007879D01*
X155990256Y-98929858D01*
X156159774Y-98816590D01*
X156303937Y-98672427D01*
X156417205Y-98502909D01*
X156495226Y-98314551D01*
X156535000Y-98114592D01*
X156535000Y-97910714D01*
X156495226Y-97710755D01*
X156417205Y-97522397D01*
X156303937Y-97352879D01*
X156159774Y-97208716D01*
X155990256Y-97095448D01*
X155801898Y-97017427D01*
X155601939Y-96977653D01*
X155398061Y-96977653D01*
X155198102Y-97017427D01*
X155009744Y-97095448D01*
X154840226Y-97208716D01*
X154696063Y-97352879D01*
X154582795Y-97522397D01*
X154504774Y-97710755D01*
X154465000Y-97910714D01*
X143729740Y-97910714D01*
X143667205Y-97759744D01*
X143553937Y-97590226D01*
X143409774Y-97446063D01*
X143240256Y-97332795D01*
X143051898Y-97254774D01*
X142851939Y-97215000D01*
X142648061Y-97215000D01*
X142448102Y-97254774D01*
X142259744Y-97332795D01*
X142090226Y-97446063D01*
X141946063Y-97590226D01*
X141832795Y-97759744D01*
X141754774Y-97948102D01*
X141715000Y-98148061D01*
X141715000Y-98351939D01*
X141754774Y-98551898D01*
X141832795Y-98740256D01*
X141946063Y-98909774D01*
X142090226Y-99053937D01*
X142181613Y-99115000D01*
X139766579Y-99115000D01*
X139256534Y-98604956D01*
X139228817Y-98571183D01*
X139094059Y-98460589D01*
X138940313Y-98378411D01*
X138773490Y-98327805D01*
X138643477Y-98315000D01*
X138643469Y-98315000D01*
X138600000Y-98310719D01*
X138556531Y-98315000D01*
X134643477Y-98315000D01*
X134600000Y-98310718D01*
X134556524Y-98315000D01*
X134285000Y-98315000D01*
X134285000Y-94898061D01*
X150565000Y-94898061D01*
X150565000Y-95101939D01*
X150604774Y-95301898D01*
X150682795Y-95490256D01*
X150796063Y-95659774D01*
X150940226Y-95803937D01*
X151109744Y-95917205D01*
X151298102Y-95995226D01*
X151498061Y-96035000D01*
X151701939Y-96035000D01*
X151901898Y-95995226D01*
X152090256Y-95917205D01*
X152259774Y-95803937D01*
X152403937Y-95659774D01*
X152517205Y-95490256D01*
X152595226Y-95301898D01*
X152635000Y-95101939D01*
X152635000Y-94910714D01*
X155202347Y-94910714D01*
X155202347Y-95114592D01*
X155242121Y-95314551D01*
X155320142Y-95502909D01*
X155433410Y-95672427D01*
X155577573Y-95816590D01*
X155747091Y-95929858D01*
X155935449Y-96007879D01*
X156135408Y-96047653D01*
X156339286Y-96047653D01*
X156539245Y-96007879D01*
X156727603Y-95929858D01*
X156897121Y-95816590D01*
X157041284Y-95672427D01*
X157154552Y-95502909D01*
X157232573Y-95314551D01*
X157272347Y-95114592D01*
X157272347Y-94910714D01*
X157232573Y-94710755D01*
X157154552Y-94522397D01*
X157041284Y-94352879D01*
X156897121Y-94208716D01*
X156727603Y-94095448D01*
X156539245Y-94017427D01*
X156339286Y-93977653D01*
X156135408Y-93977653D01*
X155935449Y-94017427D01*
X155747091Y-94095448D01*
X155577573Y-94208716D01*
X155433410Y-94352879D01*
X155320142Y-94522397D01*
X155242121Y-94710755D01*
X155202347Y-94910714D01*
X152635000Y-94910714D01*
X152635000Y-94898061D01*
X152595226Y-94698102D01*
X152517205Y-94509744D01*
X152403937Y-94340226D01*
X152259774Y-94196063D01*
X152090256Y-94082795D01*
X151901898Y-94004774D01*
X151701939Y-93965000D01*
X151498061Y-93965000D01*
X151298102Y-94004774D01*
X151109744Y-94082795D01*
X150940226Y-94196063D01*
X150796063Y-94340226D01*
X150682795Y-94509744D01*
X150604774Y-94698102D01*
X150565000Y-94898061D01*
X134285000Y-94898061D01*
X134285000Y-93338454D01*
X134317205Y-93290256D01*
X134395226Y-93101898D01*
X134408533Y-93035000D01*
X134501939Y-93035000D01*
X134701898Y-92995226D01*
X134890256Y-92917205D01*
X135059774Y-92803937D01*
X135203937Y-92659774D01*
X135317205Y-92490256D01*
X135395226Y-92301898D01*
X135435000Y-92101939D01*
X135435000Y-91898061D01*
X135395226Y-91698102D01*
X135317205Y-91509744D01*
X135203937Y-91340226D01*
X135059774Y-91196063D01*
X134890256Y-91082795D01*
X134701898Y-91004774D01*
X134501939Y-90965000D01*
X134298061Y-90965000D01*
X134285000Y-90967598D01*
X134285000Y-89698061D01*
X134765000Y-89698061D01*
X134765000Y-89901939D01*
X134804774Y-90101898D01*
X134882795Y-90290256D01*
X134996063Y-90459774D01*
X135140226Y-90603937D01*
X135309744Y-90717205D01*
X135498102Y-90795226D01*
X135698061Y-90835000D01*
X135901939Y-90835000D01*
X136101898Y-90795226D01*
X136290256Y-90717205D01*
X136459774Y-90603937D01*
X136603937Y-90459774D01*
X136717205Y-90290256D01*
X136795226Y-90101898D01*
X136800000Y-90077897D01*
X136804774Y-90101898D01*
X136882795Y-90290256D01*
X136956123Y-90400000D01*
X136882795Y-90509744D01*
X136804774Y-90698102D01*
X136765000Y-90898061D01*
X136765000Y-91101939D01*
X136782130Y-91188060D01*
X136698102Y-91204774D01*
X136509744Y-91282795D01*
X136340226Y-91396063D01*
X136196063Y-91540226D01*
X136082795Y-91709744D01*
X136004774Y-91898102D01*
X135965000Y-92098061D01*
X135965000Y-92301939D01*
X136004774Y-92501898D01*
X136082795Y-92690256D01*
X136088097Y-92698192D01*
X135946063Y-92840226D01*
X135832795Y-93009744D01*
X135754774Y-93198102D01*
X135715000Y-93398061D01*
X135715000Y-93601939D01*
X135754774Y-93801898D01*
X135832795Y-93990256D01*
X135946063Y-94159774D01*
X136090226Y-94303937D01*
X136259744Y-94417205D01*
X136448102Y-94495226D01*
X136648061Y-94535000D01*
X136851939Y-94535000D01*
X137051898Y-94495226D01*
X137240256Y-94417205D01*
X137409774Y-94303937D01*
X137553937Y-94159774D01*
X137667205Y-93990256D01*
X137745226Y-93801898D01*
X137785000Y-93601939D01*
X137785000Y-93398061D01*
X137745226Y-93198102D01*
X137667205Y-93009744D01*
X137661903Y-93001808D01*
X137803937Y-92859774D01*
X137917205Y-92690256D01*
X137995226Y-92501898D01*
X138035000Y-92301939D01*
X138035000Y-92098061D01*
X139365000Y-92098061D01*
X139365000Y-92301939D01*
X139404774Y-92501898D01*
X139482795Y-92690256D01*
X139596063Y-92859774D01*
X139740226Y-93003937D01*
X139909744Y-93117205D01*
X140098102Y-93195226D01*
X140298061Y-93235000D01*
X140501939Y-93235000D01*
X140701898Y-93195226D01*
X140890256Y-93117205D01*
X140918940Y-93098039D01*
X141765000Y-93098039D01*
X141765000Y-93301917D01*
X141804774Y-93501876D01*
X141882795Y-93690234D01*
X141996063Y-93859752D01*
X142140226Y-94003915D01*
X142309744Y-94117183D01*
X142498102Y-94195204D01*
X142698061Y-94234978D01*
X142901939Y-94234978D01*
X143101898Y-94195204D01*
X143290256Y-94117183D01*
X143459774Y-94003915D01*
X143603937Y-93859752D01*
X143717205Y-93690234D01*
X143795226Y-93501876D01*
X143835000Y-93301917D01*
X143835000Y-93098039D01*
X143795226Y-92898080D01*
X143717205Y-92709722D01*
X143603937Y-92540204D01*
X143459774Y-92396041D01*
X143290256Y-92282773D01*
X143101898Y-92204752D01*
X142901939Y-92164978D01*
X142698061Y-92164978D01*
X142498102Y-92204752D01*
X142309744Y-92282773D01*
X142140226Y-92396041D01*
X141996063Y-92540204D01*
X141882795Y-92709722D01*
X141804774Y-92898080D01*
X141765000Y-93098039D01*
X140918940Y-93098039D01*
X141059774Y-93003937D01*
X141203937Y-92859774D01*
X141317205Y-92690256D01*
X141395226Y-92501898D01*
X141435000Y-92301939D01*
X141435000Y-92098061D01*
X141395226Y-91898102D01*
X141395195Y-91898025D01*
X151165000Y-91898025D01*
X151165000Y-92101903D01*
X151204774Y-92301862D01*
X151282795Y-92490220D01*
X151396063Y-92659738D01*
X151540226Y-92803901D01*
X151709744Y-92917169D01*
X151898102Y-92995190D01*
X152098061Y-93034964D01*
X152301939Y-93034964D01*
X152501898Y-92995190D01*
X152690256Y-92917169D01*
X152859774Y-92803901D01*
X153003937Y-92659738D01*
X153117205Y-92490220D01*
X153195226Y-92301862D01*
X153235000Y-92101903D01*
X153235000Y-91898025D01*
X153195226Y-91698066D01*
X153117205Y-91509708D01*
X153003937Y-91340190D01*
X152859774Y-91196027D01*
X152690256Y-91082759D01*
X152501898Y-91004738D01*
X152301939Y-90964964D01*
X152098061Y-90964964D01*
X151898102Y-91004738D01*
X151709744Y-91082759D01*
X151540226Y-91196027D01*
X151396063Y-91340190D01*
X151282795Y-91509708D01*
X151204774Y-91698066D01*
X151165000Y-91898025D01*
X141395195Y-91898025D01*
X141317205Y-91709744D01*
X141203937Y-91540226D01*
X141059774Y-91396063D01*
X140890256Y-91282795D01*
X140701898Y-91204774D01*
X140501939Y-91165000D01*
X140298061Y-91165000D01*
X140098102Y-91204774D01*
X139909744Y-91282795D01*
X139740226Y-91396063D01*
X139596063Y-91540226D01*
X139482795Y-91709744D01*
X139404774Y-91898102D01*
X139365000Y-92098061D01*
X138035000Y-92098061D01*
X138017870Y-92011940D01*
X138101898Y-91995226D01*
X138290256Y-91917205D01*
X138459774Y-91803937D01*
X138603937Y-91659774D01*
X138717205Y-91490256D01*
X138795226Y-91301898D01*
X138835000Y-91101939D01*
X138835000Y-90898061D01*
X138795226Y-90698102D01*
X138717205Y-90509744D01*
X138643877Y-90400000D01*
X138717205Y-90290256D01*
X138795226Y-90101898D01*
X138835000Y-89901939D01*
X138835000Y-89698061D01*
X138795226Y-89498102D01*
X138717205Y-89309744D01*
X138603937Y-89140226D01*
X138459774Y-88996063D01*
X138290256Y-88882795D01*
X138101898Y-88804774D01*
X137901939Y-88765000D01*
X137698061Y-88765000D01*
X137498102Y-88804774D01*
X137309744Y-88882795D01*
X137140226Y-88996063D01*
X136996063Y-89140226D01*
X136882795Y-89309744D01*
X136804774Y-89498102D01*
X136800000Y-89522103D01*
X136795226Y-89498102D01*
X136717205Y-89309744D01*
X136603937Y-89140226D01*
X136459774Y-88996063D01*
X136290256Y-88882795D01*
X136101898Y-88804774D01*
X135901939Y-88765000D01*
X135698061Y-88765000D01*
X135498102Y-88804774D01*
X135309744Y-88882795D01*
X135140226Y-88996063D01*
X134996063Y-89140226D01*
X134882795Y-89309744D01*
X134804774Y-89498102D01*
X134765000Y-89698061D01*
X134285000Y-89698061D01*
X134285000Y-87766578D01*
X134536589Y-87514990D01*
X136631556Y-87514990D01*
X136679754Y-87547195D01*
X136868112Y-87625216D01*
X137068071Y-87664990D01*
X137271949Y-87664990D01*
X137471908Y-87625216D01*
X137660266Y-87547195D01*
X137829784Y-87433927D01*
X137973947Y-87289764D01*
X138068629Y-87148061D01*
X141715000Y-87148061D01*
X141715000Y-87351939D01*
X141754774Y-87551898D01*
X141832795Y-87740256D01*
X141946063Y-87909774D01*
X142090226Y-88053937D01*
X142259744Y-88167205D01*
X142448102Y-88245226D01*
X142648061Y-88285000D01*
X142851939Y-88285000D01*
X143051898Y-88245226D01*
X143240256Y-88167205D01*
X143409774Y-88053937D01*
X143553937Y-87909774D01*
X143667205Y-87740256D01*
X143745226Y-87551898D01*
X143785000Y-87351939D01*
X143785000Y-87148061D01*
X143745226Y-86948102D01*
X143667205Y-86759744D01*
X143553937Y-86590226D01*
X143409774Y-86446063D01*
X143240256Y-86332795D01*
X143051898Y-86254774D01*
X142851939Y-86215000D01*
X142648061Y-86215000D01*
X142448102Y-86254774D01*
X142259744Y-86332795D01*
X142090226Y-86446063D01*
X141946063Y-86590226D01*
X141832795Y-86759744D01*
X141754774Y-86948102D01*
X141715000Y-87148061D01*
X138068629Y-87148061D01*
X138087215Y-87120246D01*
X138165236Y-86931888D01*
X138205010Y-86731929D01*
X138205010Y-86528051D01*
X138165236Y-86328092D01*
X138087215Y-86139734D01*
X138059371Y-86098061D01*
X151565000Y-86098061D01*
X151565000Y-86301939D01*
X151604774Y-86501898D01*
X151682795Y-86690256D01*
X151796063Y-86859774D01*
X151940226Y-87003937D01*
X152109744Y-87117205D01*
X152298102Y-87195226D01*
X152498061Y-87235000D01*
X152701939Y-87235000D01*
X152901898Y-87195226D01*
X153090256Y-87117205D01*
X153259774Y-87003937D01*
X153403937Y-86859774D01*
X153517205Y-86690256D01*
X153595226Y-86501898D01*
X153635000Y-86301939D01*
X153635000Y-86098061D01*
X153595226Y-85898102D01*
X153517205Y-85709744D01*
X153403937Y-85540226D01*
X153259774Y-85396063D01*
X153090256Y-85282795D01*
X152901898Y-85204774D01*
X152701939Y-85165000D01*
X152498061Y-85165000D01*
X152298102Y-85204774D01*
X152109744Y-85282795D01*
X151940226Y-85396063D01*
X151796063Y-85540226D01*
X151682795Y-85709744D01*
X151604774Y-85898102D01*
X151565000Y-86098061D01*
X138059371Y-86098061D01*
X137973947Y-85970216D01*
X137829784Y-85826053D01*
X137660266Y-85712785D01*
X137471908Y-85634764D01*
X137271949Y-85594990D01*
X137068071Y-85594990D01*
X136868112Y-85634764D01*
X136679754Y-85712785D01*
X136631556Y-85744990D01*
X134213479Y-85744990D01*
X134170010Y-85740709D01*
X134126541Y-85744990D01*
X134126533Y-85744990D01*
X133996520Y-85757795D01*
X133829696Y-85808401D01*
X133675951Y-85890579D01*
X133574963Y-85973458D01*
X133574961Y-85973460D01*
X133541193Y-86001173D01*
X133513480Y-86034941D01*
X132804951Y-86743471D01*
X132771184Y-86771183D01*
X132743471Y-86804951D01*
X132743468Y-86804954D01*
X132660590Y-86905941D01*
X132578412Y-87059687D01*
X132527805Y-87226510D01*
X132510719Y-87400000D01*
X132515001Y-87443479D01*
X132515000Y-92261546D01*
X132482795Y-92309744D01*
X132404774Y-92498102D01*
X132365000Y-92698061D01*
X132365000Y-92901939D01*
X132404774Y-93101898D01*
X132482795Y-93290256D01*
X132515001Y-93338456D01*
X132515000Y-96051289D01*
X132409774Y-95946063D01*
X132240256Y-95832795D01*
X132210000Y-95820262D01*
X132210000Y-95723061D01*
X132170226Y-95523102D01*
X132092205Y-95334744D01*
X131978937Y-95165226D01*
X131884521Y-95070810D01*
X131909774Y-95053937D01*
X132053937Y-94909774D01*
X132167205Y-94740256D01*
X132245226Y-94551898D01*
X132285000Y-94351939D01*
X132285000Y-94148061D01*
X132245226Y-93948102D01*
X132167205Y-93759744D01*
X132053937Y-93590226D01*
X131963711Y-93500000D01*
X132053937Y-93409774D01*
X132167205Y-93240256D01*
X132245226Y-93051898D01*
X132285000Y-92851939D01*
X132285000Y-92648061D01*
X132245226Y-92448102D01*
X132167205Y-92259744D01*
X132053937Y-92090226D01*
X131909774Y-91946063D01*
X131740256Y-91832795D01*
X131551898Y-91754774D01*
X131351939Y-91715000D01*
X131148061Y-91715000D01*
X130948102Y-91754774D01*
X130759744Y-91832795D01*
X130590226Y-91946063D01*
X130446063Y-92090226D01*
X130332795Y-92259744D01*
X130254774Y-92448102D01*
X130245372Y-92495372D01*
X130198102Y-92504774D01*
X130009744Y-92582795D01*
X129840226Y-92696063D01*
X129696063Y-92840226D01*
X129582795Y-93009744D01*
X129504774Y-93198102D01*
X129465000Y-93398061D01*
X129465000Y-93601939D01*
X129504774Y-93801898D01*
X129582795Y-93990256D01*
X129696063Y-94159774D01*
X129786289Y-94250000D01*
X129696063Y-94340226D01*
X129582795Y-94509744D01*
X129504774Y-94698102D01*
X129465000Y-94898061D01*
X129465000Y-95101939D01*
X129504774Y-95301898D01*
X129582795Y-95490256D01*
X129696063Y-95659774D01*
X129840226Y-95803937D01*
X130009744Y-95917205D01*
X130149586Y-95975130D01*
X130179774Y-96126898D01*
X130257795Y-96315256D01*
X130371063Y-96484774D01*
X130515226Y-96628937D01*
X130684744Y-96742205D01*
X130715000Y-96754738D01*
X130715000Y-96851939D01*
X130716888Y-96861430D01*
X130590226Y-96946063D01*
X130446063Y-97090226D01*
X130332795Y-97259744D01*
X130254774Y-97448102D01*
X130215000Y-97648061D01*
X130215000Y-97851939D01*
X130254774Y-98051898D01*
X130332795Y-98240256D01*
X130446063Y-98409774D01*
X130590226Y-98553937D01*
X130759744Y-98667205D01*
X130948102Y-98745226D01*
X131148061Y-98785000D01*
X131351939Y-98785000D01*
X131551898Y-98745226D01*
X131740256Y-98667205D01*
X131909774Y-98553937D01*
X132053937Y-98409774D01*
X132167205Y-98240256D01*
X132245226Y-98051898D01*
X132285000Y-97851939D01*
X132285000Y-97648061D01*
X132283112Y-97638570D01*
X132409774Y-97553937D01*
X132515000Y-97448711D01*
X132515000Y-98661546D01*
X132482795Y-98709744D01*
X132404774Y-98898102D01*
X132365000Y-99098061D01*
X132365000Y-99301939D01*
X132404774Y-99501898D01*
X132482795Y-99690256D01*
X132596063Y-99859774D01*
X132740226Y-100003937D01*
X132909744Y-100117205D01*
X133098102Y-100195226D01*
X133298061Y-100235000D01*
X133501939Y-100235000D01*
X133701898Y-100195226D01*
X133715001Y-100189799D01*
X133715001Y-100851290D01*
X133659774Y-100796063D01*
X133490256Y-100682795D01*
X133301898Y-100604774D01*
X133101939Y-100565000D01*
X132898061Y-100565000D01*
X132698102Y-100604774D01*
X132509744Y-100682795D01*
X132340226Y-100796063D01*
X132237500Y-100898789D01*
X132134774Y-100796063D01*
X131965256Y-100682795D01*
X131776898Y-100604774D01*
X131576939Y-100565000D01*
X131373061Y-100565000D01*
X131173102Y-100604774D01*
X130984744Y-100682795D01*
X130931849Y-100718138D01*
X130909774Y-100696063D01*
X130740256Y-100582795D01*
X130551898Y-100504774D01*
X130351939Y-100465000D01*
X130148061Y-100465000D01*
X129948102Y-100504774D01*
X129759744Y-100582795D01*
X129590226Y-100696063D01*
X129446063Y-100840226D01*
X129332795Y-101009744D01*
X129278841Y-101139999D01*
X126937323Y-101139999D01*
X126900000Y-101136323D01*
X126862677Y-101139999D01*
X126862668Y-101139999D01*
X126751015Y-101150996D01*
X126607754Y-101194453D01*
X126475725Y-101265025D01*
X126360000Y-101359998D01*
X126336201Y-101388997D01*
X125726338Y-101998861D01*
X125697340Y-102022659D01*
X125673542Y-102051657D01*
X125673541Y-102051658D01*
X125602366Y-102138384D01*
X125531794Y-102270414D01*
X125488338Y-102413675D01*
X125473664Y-102562660D01*
X125477341Y-102599992D01*
X125477341Y-102808948D01*
X125433403Y-102852886D01*
X125320135Y-103022404D01*
X125242114Y-103210762D01*
X125202340Y-103410721D01*
X122757491Y-103410721D01*
X122782185Y-103160000D01*
X122753513Y-102868889D01*
X122668599Y-102588966D01*
X122530706Y-102330986D01*
X122345134Y-102104866D01*
X122119014Y-101919294D01*
X122064209Y-101890000D01*
X122119014Y-101860706D01*
X122345134Y-101675134D01*
X122530706Y-101449014D01*
X122668599Y-101191034D01*
X122753513Y-100911111D01*
X122782185Y-100620000D01*
X122753513Y-100328889D01*
X122668599Y-100048966D01*
X122530706Y-99790986D01*
X122345134Y-99564866D01*
X122119014Y-99379294D01*
X122054477Y-99344799D01*
X122171355Y-99275178D01*
X122387588Y-99080269D01*
X122561641Y-98846920D01*
X122632543Y-98698061D01*
X126365000Y-98698061D01*
X126365000Y-98901939D01*
X126404774Y-99101898D01*
X126482795Y-99290256D01*
X126596063Y-99459774D01*
X126740226Y-99603937D01*
X126909744Y-99717205D01*
X127098102Y-99795226D01*
X127298061Y-99835000D01*
X127501939Y-99835000D01*
X127701898Y-99795226D01*
X127890256Y-99717205D01*
X128059774Y-99603937D01*
X128100000Y-99563711D01*
X128140226Y-99603937D01*
X128309744Y-99717205D01*
X128498102Y-99795226D01*
X128698061Y-99835000D01*
X128901939Y-99835000D01*
X129101898Y-99795226D01*
X129290256Y-99717205D01*
X129459774Y-99603937D01*
X129603937Y-99459774D01*
X129717205Y-99290256D01*
X129795226Y-99101898D01*
X129835000Y-98901939D01*
X129835000Y-98698061D01*
X129795226Y-98498102D01*
X129717205Y-98309744D01*
X129603937Y-98140226D01*
X129459774Y-97996063D01*
X129290256Y-97882795D01*
X129101898Y-97804774D01*
X128901939Y-97765000D01*
X128698061Y-97765000D01*
X128498102Y-97804774D01*
X128309744Y-97882795D01*
X128140226Y-97996063D01*
X128100000Y-98036289D01*
X128059774Y-97996063D01*
X127890256Y-97882795D01*
X127701898Y-97804774D01*
X127501939Y-97765000D01*
X127298061Y-97765000D01*
X127098102Y-97804774D01*
X126909744Y-97882795D01*
X126740226Y-97996063D01*
X126596063Y-98140226D01*
X126482795Y-98309744D01*
X126404774Y-98498102D01*
X126365000Y-98698061D01*
X122632543Y-98698061D01*
X122686825Y-98584099D01*
X122731476Y-98436890D01*
X122610155Y-98207000D01*
X121417000Y-98207000D01*
X121417000Y-98227000D01*
X121163000Y-98227000D01*
X121163000Y-98207000D01*
X121143000Y-98207000D01*
X121143000Y-97953000D01*
X121163000Y-97953000D01*
X121163000Y-95667000D01*
X121417000Y-95667000D01*
X121417000Y-97953000D01*
X122610155Y-97953000D01*
X122731476Y-97723110D01*
X122686825Y-97575901D01*
X122561641Y-97313080D01*
X122387588Y-97079731D01*
X122171355Y-96884822D01*
X122045745Y-96810000D01*
X122171355Y-96735178D01*
X122387588Y-96540269D01*
X122561641Y-96306920D01*
X122686825Y-96044099D01*
X122731476Y-95896890D01*
X122610155Y-95667000D01*
X121417000Y-95667000D01*
X121163000Y-95667000D01*
X121143000Y-95667000D01*
X121143000Y-95413000D01*
X121163000Y-95413000D01*
X121163000Y-93127000D01*
X121417000Y-93127000D01*
X121417000Y-95413000D01*
X122610155Y-95413000D01*
X122731476Y-95183110D01*
X122686825Y-95035901D01*
X122561641Y-94773080D01*
X122387588Y-94539731D01*
X122171355Y-94344822D01*
X122045745Y-94270000D01*
X122171355Y-94195178D01*
X122387588Y-94000269D01*
X122561641Y-93766920D01*
X122686825Y-93504099D01*
X122731476Y-93356890D01*
X122610155Y-93127000D01*
X121417000Y-93127000D01*
X121163000Y-93127000D01*
X121143000Y-93127000D01*
X121143000Y-92873000D01*
X121163000Y-92873000D01*
X121163000Y-91679186D01*
X121417000Y-91679186D01*
X121417000Y-92873000D01*
X122610155Y-92873000D01*
X122731476Y-92643110D01*
X122686825Y-92495901D01*
X122561641Y-92233080D01*
X122387588Y-91999731D01*
X122171355Y-91804822D01*
X121921252Y-91655843D01*
X121646891Y-91558519D01*
X121417000Y-91679186D01*
X121163000Y-91679186D01*
X120933109Y-91558519D01*
X120658748Y-91655843D01*
X120408645Y-91804822D01*
X120212498Y-91981626D01*
X120189502Y-91905820D01*
X120130537Y-91795506D01*
X120051185Y-91698815D01*
X119954494Y-91619463D01*
X119844180Y-91560498D01*
X119724482Y-91524188D01*
X119600000Y-91511928D01*
X117900000Y-91511928D01*
X117775518Y-91524188D01*
X117655820Y-91560498D01*
X117545506Y-91619463D01*
X117448815Y-91698815D01*
X117369463Y-91795506D01*
X117310498Y-91905820D01*
X117274188Y-92025518D01*
X117261928Y-92150000D01*
X117261928Y-93850000D01*
X117274188Y-93974482D01*
X117310498Y-94094180D01*
X117369463Y-94204494D01*
X117448815Y-94301185D01*
X117545506Y-94380537D01*
X117655820Y-94439502D01*
X117724687Y-94460393D01*
X117694866Y-94484866D01*
X117509294Y-94710986D01*
X117371401Y-94968966D01*
X117286487Y-95248889D01*
X117257815Y-95540000D01*
X116377000Y-95540000D01*
X116377000Y-85122285D01*
X117415000Y-85122285D01*
X117415000Y-85877715D01*
X117562377Y-86618628D01*
X117851467Y-87316554D01*
X118271161Y-87944670D01*
X118805330Y-88478839D01*
X119433446Y-88898533D01*
X120131372Y-89187623D01*
X120872285Y-89335000D01*
X121627715Y-89335000D01*
X122368628Y-89187623D01*
X123066554Y-88898533D01*
X123694670Y-88478839D01*
X124228839Y-87944670D01*
X124648533Y-87316554D01*
X124825531Y-86889242D01*
X124940226Y-87003937D01*
X125083995Y-87100000D01*
X124940226Y-87196063D01*
X124796063Y-87340226D01*
X124682795Y-87509744D01*
X124604774Y-87698102D01*
X124565000Y-87898061D01*
X124565000Y-88101939D01*
X124604774Y-88301898D01*
X124682795Y-88490256D01*
X124796063Y-88659774D01*
X124940226Y-88803937D01*
X125109744Y-88917205D01*
X125298102Y-88995226D01*
X125498061Y-89035000D01*
X125701939Y-89035000D01*
X125901898Y-88995226D01*
X126090256Y-88917205D01*
X126259774Y-88803937D01*
X126403937Y-88659774D01*
X126517205Y-88490256D01*
X126595226Y-88301898D01*
X126635000Y-88101939D01*
X126635000Y-87898061D01*
X126595226Y-87698102D01*
X126517205Y-87509744D01*
X126403937Y-87340226D01*
X126259774Y-87196063D01*
X126116005Y-87100000D01*
X126259774Y-87003937D01*
X126403937Y-86859774D01*
X126517205Y-86690256D01*
X126595226Y-86501898D01*
X126635000Y-86301939D01*
X126635000Y-86098061D01*
X126595226Y-85898102D01*
X126517205Y-85709744D01*
X126403937Y-85540226D01*
X126259774Y-85396063D01*
X126090256Y-85282795D01*
X125901898Y-85204774D01*
X125701939Y-85165000D01*
X125498061Y-85165000D01*
X125298102Y-85204774D01*
X125109744Y-85282795D01*
X125085000Y-85299328D01*
X125085000Y-85122285D01*
X157415000Y-85122285D01*
X157415000Y-85877715D01*
X157562377Y-86618628D01*
X157851467Y-87316554D01*
X158271161Y-87944670D01*
X158805330Y-88478839D01*
X159433446Y-88898533D01*
X160131372Y-89187623D01*
X160872285Y-89335000D01*
X161627715Y-89335000D01*
X162368628Y-89187623D01*
X163066554Y-88898533D01*
X163694670Y-88478839D01*
X164228839Y-87944670D01*
X164648533Y-87316554D01*
X164937623Y-86618628D01*
X165085000Y-85877715D01*
X165085000Y-85122285D01*
X164937623Y-84381372D01*
X164648533Y-83683446D01*
X164228839Y-83055330D01*
X163694670Y-82521161D01*
X163066554Y-82101467D01*
X162368628Y-81812377D01*
X161627715Y-81665000D01*
X160872285Y-81665000D01*
X160131372Y-81812377D01*
X159433446Y-82101467D01*
X158805330Y-82521161D01*
X158271161Y-83055330D01*
X157851467Y-83683446D01*
X157562377Y-84381372D01*
X157415000Y-85122285D01*
X125085000Y-85122285D01*
X124937623Y-84381372D01*
X124648533Y-83683446D01*
X124228839Y-83055330D01*
X123694670Y-82521161D01*
X123066554Y-82101467D01*
X122368628Y-81812377D01*
X121627715Y-81665000D01*
X120872285Y-81665000D01*
X120131372Y-81812377D01*
X119433446Y-82101467D01*
X118805330Y-82521161D01*
X118271161Y-83055330D01*
X117851467Y-83683446D01*
X117562377Y-84381372D01*
X117415000Y-85122285D01*
X116377000Y-85122285D01*
X116377000Y-82616063D01*
X116388662Y-82557435D01*
X116421869Y-82507737D01*
X118257737Y-80671869D01*
X118307435Y-80638662D01*
X118366063Y-80627000D01*
X164133937Y-80627000D01*
X164192565Y-80638662D01*
X164192565Y-80638662D01*
G37*
X164192565Y-80638662D02*
X164242263Y-80671869D01*
X166078131Y-82507737D01*
X166111338Y-82557435D01*
X166123000Y-82616063D01*
X166123000Y-95126322D01*
X166051185Y-95038815D01*
X165954494Y-94959463D01*
X165844180Y-94900498D01*
X165724482Y-94864188D01*
X165600000Y-94851928D01*
X163900000Y-94851928D01*
X163775518Y-94864188D01*
X163655820Y-94900498D01*
X163545506Y-94959463D01*
X163448815Y-95038815D01*
X163369463Y-95135506D01*
X163310498Y-95245820D01*
X163274188Y-95365518D01*
X163261928Y-95490000D01*
X163261928Y-97190000D01*
X163274188Y-97314482D01*
X163310498Y-97434180D01*
X163369463Y-97544494D01*
X163448815Y-97641185D01*
X163545506Y-97720537D01*
X163655820Y-97779502D01*
X163724687Y-97800393D01*
X163694866Y-97824866D01*
X163509294Y-98050986D01*
X163371401Y-98308966D01*
X163286487Y-98588889D01*
X163257815Y-98880000D01*
X163286487Y-99171111D01*
X163371401Y-99451034D01*
X163509294Y-99709014D01*
X163694866Y-99935134D01*
X163920986Y-100120706D01*
X163975791Y-100150000D01*
X163920986Y-100179294D01*
X163694866Y-100364866D01*
X163509294Y-100590986D01*
X163371401Y-100848966D01*
X163286487Y-101128889D01*
X163257815Y-101420000D01*
X163286487Y-101711111D01*
X163371401Y-101991034D01*
X163509294Y-102249014D01*
X163694866Y-102475134D01*
X163920986Y-102660706D01*
X163975791Y-102690000D01*
X163920986Y-102719294D01*
X163694866Y-102904866D01*
X163509294Y-103130986D01*
X163371401Y-103388966D01*
X163286487Y-103668889D01*
X163257815Y-103960000D01*
X163286487Y-104251111D01*
X163371401Y-104531034D01*
X163509294Y-104789014D01*
X163694866Y-105015134D01*
X163920986Y-105200706D01*
X163975791Y-105230000D01*
X163920986Y-105259294D01*
X163694866Y-105444866D01*
X163509294Y-105670986D01*
X163371401Y-105928966D01*
X163286487Y-106208889D01*
X163257815Y-106500000D01*
X163286487Y-106791111D01*
X163371401Y-107071034D01*
X163509294Y-107329014D01*
X163694866Y-107555134D01*
X163920986Y-107740706D01*
X163975791Y-107770000D01*
X163920986Y-107799294D01*
X163694866Y-107984866D01*
X163509294Y-108210986D01*
X163371401Y-108468966D01*
X163286487Y-108748889D01*
X163257815Y-109040000D01*
X163286487Y-109331111D01*
X163371401Y-109611034D01*
X163509294Y-109869014D01*
X163694866Y-110095134D01*
X163920986Y-110280706D01*
X163975791Y-110310000D01*
X163920986Y-110339294D01*
X163694866Y-110524866D01*
X163509294Y-110750986D01*
X163371401Y-111008966D01*
X163286487Y-111288889D01*
X163257815Y-111580000D01*
X163286487Y-111871111D01*
X163371401Y-112151034D01*
X163509294Y-112409014D01*
X163694866Y-112635134D01*
X163920986Y-112820706D01*
X163975791Y-112850000D01*
X163920986Y-112879294D01*
X163694866Y-113064866D01*
X163509294Y-113290986D01*
X163371401Y-113548966D01*
X163286487Y-113828889D01*
X163257815Y-114120000D01*
X163286487Y-114411111D01*
X163371401Y-114691034D01*
X163509294Y-114949014D01*
X163694866Y-115175134D01*
X163920986Y-115360706D01*
X164178966Y-115498599D01*
X164458889Y-115583513D01*
X164677050Y-115605000D01*
X164822950Y-115605000D01*
X165041111Y-115583513D01*
X165321034Y-115498599D01*
X165579014Y-115360706D01*
X165805134Y-115175134D01*
X165990706Y-114949014D01*
X166123000Y-114701509D01*
X166123000Y-127398433D01*
X166113830Y-127450700D01*
X166087413Y-127496725D01*
X163736337Y-130318016D01*
X163683760Y-130358573D01*
X163618944Y-130373000D01*
X118606617Y-130373000D01*
X118552093Y-130362984D01*
X118504689Y-130334247D01*
X116428336Y-128488601D01*
X116390423Y-128436940D01*
X116377000Y-128374284D01*
X116377000Y-125122285D01*
X117415000Y-125122285D01*
X117415000Y-125877715D01*
X117562377Y-126618628D01*
X117851467Y-127316554D01*
X118271161Y-127944670D01*
X118805330Y-128478839D01*
X119433446Y-128898533D01*
X120131372Y-129187623D01*
X120872285Y-129335000D01*
X121627715Y-129335000D01*
X122368628Y-129187623D01*
X123066554Y-128898533D01*
X123694670Y-128478839D01*
X123875448Y-128298061D01*
X132965000Y-128298061D01*
X132965000Y-128501939D01*
X133004774Y-128701898D01*
X133082795Y-128890256D01*
X133196063Y-129059774D01*
X133340226Y-129203937D01*
X133509744Y-129317205D01*
X133698102Y-129395226D01*
X133898061Y-129435000D01*
X134101939Y-129435000D01*
X134301898Y-129395226D01*
X134490256Y-129317205D01*
X134659774Y-129203937D01*
X134803937Y-129059774D01*
X134917205Y-128890256D01*
X134995226Y-128701898D01*
X135035000Y-128501939D01*
X135035000Y-128298061D01*
X134995226Y-128098102D01*
X134995210Y-128098061D01*
X145565000Y-128098061D01*
X145565000Y-128301939D01*
X145604774Y-128501898D01*
X145682795Y-128690256D01*
X145796063Y-128859774D01*
X145940226Y-129003937D01*
X146109744Y-129117205D01*
X146298102Y-129195226D01*
X146498061Y-129235000D01*
X146701939Y-129235000D01*
X146901898Y-129195226D01*
X147090256Y-129117205D01*
X147259774Y-129003937D01*
X147403937Y-128859774D01*
X147517205Y-128690256D01*
X147595226Y-128501898D01*
X147635000Y-128301939D01*
X147635000Y-128098061D01*
X147595226Y-127898102D01*
X147517205Y-127709744D01*
X147403937Y-127540226D01*
X147259774Y-127396063D01*
X147090256Y-127282795D01*
X146901898Y-127204774D01*
X146701939Y-127165000D01*
X146498061Y-127165000D01*
X146298102Y-127204774D01*
X146109744Y-127282795D01*
X145940226Y-127396063D01*
X145796063Y-127540226D01*
X145682795Y-127709744D01*
X145604774Y-127898102D01*
X145565000Y-128098061D01*
X134995210Y-128098061D01*
X134917205Y-127909744D01*
X134803937Y-127740226D01*
X134659774Y-127596063D01*
X134490256Y-127482795D01*
X134301898Y-127404774D01*
X134101939Y-127365000D01*
X133898061Y-127365000D01*
X133698102Y-127404774D01*
X133509744Y-127482795D01*
X133340226Y-127596063D01*
X133196063Y-127740226D01*
X133082795Y-127909744D01*
X133004774Y-128098102D01*
X132965000Y-128298061D01*
X123875448Y-128298061D01*
X124228839Y-127944670D01*
X124648533Y-127316554D01*
X124904720Y-126698061D01*
X135165000Y-126698061D01*
X135165000Y-126901939D01*
X135204774Y-127101898D01*
X135282795Y-127290256D01*
X135396063Y-127459774D01*
X135540226Y-127603937D01*
X135709744Y-127717205D01*
X135898102Y-127795226D01*
X136098061Y-127835000D01*
X136301939Y-127835000D01*
X136501898Y-127795226D01*
X136690256Y-127717205D01*
X136859774Y-127603937D01*
X137003937Y-127459774D01*
X137117205Y-127290256D01*
X137195226Y-127101898D01*
X137235000Y-126901939D01*
X137235000Y-126698061D01*
X137195226Y-126498102D01*
X137117205Y-126309744D01*
X137003937Y-126140226D01*
X136859774Y-125996063D01*
X136690256Y-125882795D01*
X136501898Y-125804774D01*
X136301939Y-125765000D01*
X136098061Y-125765000D01*
X135898102Y-125804774D01*
X135709744Y-125882795D01*
X135540226Y-125996063D01*
X135396063Y-126140226D01*
X135282795Y-126309744D01*
X135204774Y-126498102D01*
X135165000Y-126698061D01*
X124904720Y-126698061D01*
X124937623Y-126618628D01*
X125085000Y-125877715D01*
X125085000Y-125648061D01*
X141715000Y-125648061D01*
X141715000Y-125851939D01*
X141754774Y-126051898D01*
X141832795Y-126240256D01*
X141946063Y-126409774D01*
X142090226Y-126553937D01*
X142259744Y-126667205D01*
X142448102Y-126745226D01*
X142648061Y-126785000D01*
X142851939Y-126785000D01*
X143051898Y-126745226D01*
X143240256Y-126667205D01*
X143409774Y-126553937D01*
X143553937Y-126409774D01*
X143667205Y-126240256D01*
X143745226Y-126051898D01*
X143785000Y-125851939D01*
X143785000Y-125648061D01*
X143745226Y-125448102D01*
X143667205Y-125259744D01*
X143553937Y-125090226D01*
X143409774Y-124946063D01*
X143240256Y-124832795D01*
X143051898Y-124754774D01*
X142851939Y-124715000D01*
X142648061Y-124715000D01*
X142448102Y-124754774D01*
X142259744Y-124832795D01*
X142090226Y-124946063D01*
X141946063Y-125090226D01*
X141832795Y-125259744D01*
X141754774Y-125448102D01*
X141715000Y-125648061D01*
X125085000Y-125648061D01*
X125085000Y-125122285D01*
X124995396Y-124671816D01*
X150590792Y-124671816D01*
X150590792Y-124875694D01*
X150630566Y-125075653D01*
X150708587Y-125264011D01*
X150821855Y-125433529D01*
X150966018Y-125577692D01*
X151135536Y-125690960D01*
X151323894Y-125768981D01*
X151523853Y-125808755D01*
X151727731Y-125808755D01*
X151927690Y-125768981D01*
X152116048Y-125690960D01*
X152285566Y-125577692D01*
X152429729Y-125433529D01*
X152542997Y-125264011D01*
X152601702Y-125122285D01*
X157415000Y-125122285D01*
X157415000Y-125877715D01*
X157562377Y-126618628D01*
X157851467Y-127316554D01*
X158271161Y-127944670D01*
X158805330Y-128478839D01*
X159433446Y-128898533D01*
X160131372Y-129187623D01*
X160872285Y-129335000D01*
X161627715Y-129335000D01*
X162368628Y-129187623D01*
X163066554Y-128898533D01*
X163694670Y-128478839D01*
X164228839Y-127944670D01*
X164648533Y-127316554D01*
X164937623Y-126618628D01*
X165085000Y-125877715D01*
X165085000Y-125122285D01*
X164937623Y-124381372D01*
X164648533Y-123683446D01*
X164228839Y-123055330D01*
X163694670Y-122521161D01*
X163066554Y-122101467D01*
X162368628Y-121812377D01*
X161627715Y-121665000D01*
X160872285Y-121665000D01*
X160131372Y-121812377D01*
X159433446Y-122101467D01*
X158805330Y-122521161D01*
X158271161Y-123055330D01*
X157851467Y-123683446D01*
X157562377Y-124381372D01*
X157415000Y-125122285D01*
X152601702Y-125122285D01*
X152621018Y-125075653D01*
X152660792Y-124875694D01*
X152660792Y-124671816D01*
X152621018Y-124471857D01*
X152542997Y-124283499D01*
X152429729Y-124113981D01*
X152285566Y-123969818D01*
X152116048Y-123856550D01*
X151927690Y-123778529D01*
X151727731Y-123738755D01*
X151523853Y-123738755D01*
X151323894Y-123778529D01*
X151135536Y-123856550D01*
X150966018Y-123969818D01*
X150821855Y-124113981D01*
X150708587Y-124283499D01*
X150630566Y-124471857D01*
X150590792Y-124671816D01*
X124995396Y-124671816D01*
X124937623Y-124381372D01*
X124648533Y-123683446D01*
X124228839Y-123055330D01*
X124071570Y-122898061D01*
X132965000Y-122898061D01*
X132965000Y-123101939D01*
X133004774Y-123301898D01*
X133082795Y-123490256D01*
X133196063Y-123659774D01*
X133340226Y-123803937D01*
X133509744Y-123917205D01*
X133698102Y-123995226D01*
X133898061Y-124035000D01*
X134101939Y-124035000D01*
X134301898Y-123995226D01*
X134490256Y-123917205D01*
X134659774Y-123803937D01*
X134803937Y-123659774D01*
X134917205Y-123490256D01*
X134995226Y-123301898D01*
X135035000Y-123101939D01*
X135035000Y-122898061D01*
X134995226Y-122698102D01*
X134917205Y-122509744D01*
X134803937Y-122340226D01*
X134761772Y-122298061D01*
X151565000Y-122298061D01*
X151565000Y-122501939D01*
X151604774Y-122701898D01*
X151682795Y-122890256D01*
X151796063Y-123059774D01*
X151940226Y-123203937D01*
X152109744Y-123317205D01*
X152298102Y-123395226D01*
X152498061Y-123435000D01*
X152701939Y-123435000D01*
X152901898Y-123395226D01*
X153090256Y-123317205D01*
X153259774Y-123203937D01*
X153403937Y-123059774D01*
X153517205Y-122890256D01*
X153595226Y-122701898D01*
X153635000Y-122501939D01*
X153635000Y-122298061D01*
X153595226Y-122098102D01*
X153517205Y-121909744D01*
X153403937Y-121740226D01*
X153259774Y-121596063D01*
X153090256Y-121482795D01*
X152901898Y-121404774D01*
X152701939Y-121365000D01*
X152498061Y-121365000D01*
X152298102Y-121404774D01*
X152109744Y-121482795D01*
X151940226Y-121596063D01*
X151796063Y-121740226D01*
X151682795Y-121909744D01*
X151604774Y-122098102D01*
X151565000Y-122298061D01*
X134761772Y-122298061D01*
X134659774Y-122196063D01*
X134490256Y-122082795D01*
X134301898Y-122004774D01*
X134101939Y-121965000D01*
X133898061Y-121965000D01*
X133698102Y-122004774D01*
X133509744Y-122082795D01*
X133340226Y-122196063D01*
X133196063Y-122340226D01*
X133082795Y-122509744D01*
X133004774Y-122698102D01*
X132965000Y-122898061D01*
X124071570Y-122898061D01*
X123694670Y-122521161D01*
X123066554Y-122101467D01*
X122368628Y-121812377D01*
X121627715Y-121665000D01*
X120872285Y-121665000D01*
X120131372Y-121812377D01*
X119433446Y-122101467D01*
X118805330Y-122521161D01*
X118271161Y-123055330D01*
X117851467Y-123683446D01*
X117562377Y-124381372D01*
X117415000Y-125122285D01*
X116377000Y-125122285D01*
X116377000Y-120698061D01*
X135165000Y-120698061D01*
X135165000Y-120901939D01*
X135204774Y-121101898D01*
X135282795Y-121290256D01*
X135396063Y-121459774D01*
X135540226Y-121603937D01*
X135709744Y-121717205D01*
X135898102Y-121795226D01*
X136098061Y-121835000D01*
X136301939Y-121835000D01*
X136501898Y-121795226D01*
X136690256Y-121717205D01*
X136859774Y-121603937D01*
X137003937Y-121459774D01*
X137117205Y-121290256D01*
X137195226Y-121101898D01*
X137235000Y-120901939D01*
X137235000Y-120698061D01*
X137195226Y-120498102D01*
X137117205Y-120309744D01*
X137009173Y-120148061D01*
X141715000Y-120148061D01*
X141715000Y-120351939D01*
X141754774Y-120551898D01*
X141832795Y-120740256D01*
X141946063Y-120909774D01*
X142090226Y-121053937D01*
X142259744Y-121167205D01*
X142448102Y-121245226D01*
X142648061Y-121285000D01*
X142851939Y-121285000D01*
X143051898Y-121245226D01*
X143240256Y-121167205D01*
X143409774Y-121053937D01*
X143553937Y-120909774D01*
X143667205Y-120740256D01*
X143745226Y-120551898D01*
X143785000Y-120351939D01*
X143785000Y-120148061D01*
X143745226Y-119948102D01*
X143667205Y-119759744D01*
X143553937Y-119590226D01*
X143409774Y-119446063D01*
X143240256Y-119332795D01*
X143051898Y-119254774D01*
X142851939Y-119215000D01*
X142648061Y-119215000D01*
X142448102Y-119254774D01*
X142259744Y-119332795D01*
X142090226Y-119446063D01*
X141946063Y-119590226D01*
X141832795Y-119759744D01*
X141754774Y-119948102D01*
X141715000Y-120148061D01*
X137009173Y-120148061D01*
X137003937Y-120140226D01*
X136859774Y-119996063D01*
X136690256Y-119882795D01*
X136501898Y-119804774D01*
X136301939Y-119765000D01*
X136098061Y-119765000D01*
X135898102Y-119804774D01*
X135709744Y-119882795D01*
X135540226Y-119996063D01*
X135396063Y-120140226D01*
X135282795Y-120309744D01*
X135204774Y-120498102D01*
X135165000Y-120698061D01*
X116377000Y-120698061D01*
X116377000Y-118756890D01*
X117308524Y-118756890D01*
X117353175Y-118904099D01*
X117478359Y-119166920D01*
X117652412Y-119400269D01*
X117868645Y-119595178D01*
X118118748Y-119744157D01*
X118393109Y-119841481D01*
X118623000Y-119720814D01*
X118623000Y-118527000D01*
X117429845Y-118527000D01*
X117308524Y-118756890D01*
X116377000Y-118756890D01*
X116377000Y-95540000D01*
X117257815Y-95540000D01*
X117286487Y-95831111D01*
X117371401Y-96111034D01*
X117509294Y-96369014D01*
X117694866Y-96595134D01*
X117920986Y-96780706D01*
X117975791Y-96810000D01*
X117920986Y-96839294D01*
X117694866Y-97024866D01*
X117509294Y-97250986D01*
X117371401Y-97508966D01*
X117286487Y-97788889D01*
X117257815Y-98080000D01*
X117286487Y-98371111D01*
X117371401Y-98651034D01*
X117509294Y-98909014D01*
X117694866Y-99135134D01*
X117920986Y-99320706D01*
X117975791Y-99350000D01*
X117920986Y-99379294D01*
X117694866Y-99564866D01*
X117509294Y-99790986D01*
X117371401Y-100048966D01*
X117286487Y-100328889D01*
X117257815Y-100620000D01*
X117286487Y-100911111D01*
X117371401Y-101191034D01*
X117509294Y-101449014D01*
X117694866Y-101675134D01*
X117920986Y-101860706D01*
X117975791Y-101890000D01*
X117920986Y-101919294D01*
X117694866Y-102104866D01*
X117509294Y-102330986D01*
X117371401Y-102588966D01*
X117286487Y-102868889D01*
X117257815Y-103160000D01*
X117286487Y-103451111D01*
X117371401Y-103731034D01*
X117509294Y-103989014D01*
X117694866Y-104215134D01*
X117920986Y-104400706D01*
X117985523Y-104435201D01*
X117868645Y-104504822D01*
X117652412Y-104699731D01*
X117478359Y-104933080D01*
X117353175Y-105195901D01*
X117308524Y-105343110D01*
X117429845Y-105573000D01*
X118623000Y-105573000D01*
X118623000Y-105553000D01*
X118877000Y-105553000D01*
X118877000Y-105573000D01*
X118897000Y-105573000D01*
X118897000Y-105827000D01*
X118877000Y-105827000D01*
X118877000Y-105847000D01*
X118623000Y-105847000D01*
X118623000Y-105827000D01*
X117429845Y-105827000D01*
X117308524Y-106056890D01*
X117353175Y-106204099D01*
X117478359Y-106466920D01*
X117652412Y-106700269D01*
X117868645Y-106895178D01*
X117985523Y-106964799D01*
X117920986Y-106999294D01*
X117694866Y-107184866D01*
X117509294Y-107410986D01*
X117371401Y-107668966D01*
X117286487Y-107948889D01*
X117257815Y-108240000D01*
X117286487Y-108531111D01*
X117371401Y-108811034D01*
X117509294Y-109069014D01*
X117694866Y-109295134D01*
X117920986Y-109480706D01*
X117975791Y-109510000D01*
X117920986Y-109539294D01*
X117694866Y-109724866D01*
X117509294Y-109950986D01*
X117371401Y-110208966D01*
X117286487Y-110488889D01*
X117257815Y-110780000D01*
X117286487Y-111071111D01*
X117371401Y-111351034D01*
X117509294Y-111609014D01*
X117694866Y-111835134D01*
X117920986Y-112020706D01*
X117975791Y-112050000D01*
X117920986Y-112079294D01*
X117694866Y-112264866D01*
X117509294Y-112490986D01*
X117371401Y-112748966D01*
X117286487Y-113028889D01*
X117257815Y-113320000D01*
X117286487Y-113611111D01*
X117371401Y-113891034D01*
X117509294Y-114149014D01*
X117694866Y-114375134D01*
X117920986Y-114560706D01*
X117975791Y-114590000D01*
X117920986Y-114619294D01*
X117694866Y-114804866D01*
X117509294Y-115030986D01*
X117371401Y-115288966D01*
X117286487Y-115568889D01*
X117257815Y-115860000D01*
X117286487Y-116151111D01*
X117371401Y-116431034D01*
X117509294Y-116689014D01*
X117694866Y-116915134D01*
X117920986Y-117100706D01*
X117985523Y-117135201D01*
X117868645Y-117204822D01*
X117652412Y-117399731D01*
X117478359Y-117633080D01*
X117353175Y-117895901D01*
X117308524Y-118043110D01*
X117429845Y-118273000D01*
X118623000Y-118273000D01*
X118623000Y-118253000D01*
X118877000Y-118253000D01*
X118877000Y-118273000D01*
X118897000Y-118273000D01*
X118897000Y-118527000D01*
X118877000Y-118527000D01*
X118877000Y-119720814D01*
X119106891Y-119841481D01*
X119381252Y-119744157D01*
X119631355Y-119595178D01*
X119847588Y-119400269D01*
X120018416Y-119171244D01*
X120049294Y-119229014D01*
X120234866Y-119455134D01*
X120460986Y-119640706D01*
X120718966Y-119778599D01*
X120998889Y-119863513D01*
X121217050Y-119885000D01*
X121362950Y-119885000D01*
X121581111Y-119863513D01*
X121861034Y-119778599D01*
X122119014Y-119640706D01*
X122345134Y-119455134D01*
X122530706Y-119229014D01*
X122668599Y-118971034D01*
X122753513Y-118691111D01*
X122782185Y-118400000D01*
X122753513Y-118108889D01*
X122668599Y-117828966D01*
X122530706Y-117570986D01*
X122345134Y-117344866D01*
X122119014Y-117159294D01*
X122064209Y-117130000D01*
X122119014Y-117100706D01*
X122345134Y-116915134D01*
X122530706Y-116689014D01*
X122668599Y-116431034D01*
X122753513Y-116151111D01*
X122782185Y-115860000D01*
X122753513Y-115568889D01*
X122668599Y-115288966D01*
X122530706Y-115030986D01*
X122345134Y-114804866D01*
X122119014Y-114619294D01*
X122064209Y-114590000D01*
X122119014Y-114560706D01*
X122317197Y-114398061D01*
X124715000Y-114398061D01*
X124715000Y-114601939D01*
X124754774Y-114801898D01*
X124832795Y-114990256D01*
X124946063Y-115159774D01*
X125090226Y-115303937D01*
X125259744Y-115417205D01*
X125448102Y-115495226D01*
X125648061Y-115535000D01*
X125851939Y-115535000D01*
X126051898Y-115495226D01*
X126240256Y-115417205D01*
X126409774Y-115303937D01*
X126553937Y-115159774D01*
X126667205Y-114990256D01*
X126745226Y-114801898D01*
X126785000Y-114601939D01*
X126785000Y-114539801D01*
X127761004Y-113563798D01*
X127790001Y-113540001D01*
X127884974Y-113424276D01*
X127955546Y-113292247D01*
X127999003Y-113148986D01*
X128010000Y-113037333D01*
X128010000Y-113037324D01*
X128013676Y-113000001D01*
X128010000Y-112962678D01*
X128010000Y-112703725D01*
X128053937Y-112659788D01*
X128167205Y-112490270D01*
X128185943Y-112445033D01*
X129146362Y-113405452D01*
X129170160Y-113434450D01*
X129285885Y-113529423D01*
X129417914Y-113599995D01*
X129561175Y-113643452D01*
X129672828Y-113654449D01*
X129672836Y-113654449D01*
X129710161Y-113658125D01*
X129747486Y-113654449D01*
X131943513Y-113654449D01*
X131987450Y-113698386D01*
X132156968Y-113811654D01*
X132225401Y-113840000D01*
X129187322Y-113840000D01*
X129149999Y-113836324D01*
X129112676Y-113840000D01*
X129112667Y-113840000D01*
X129001014Y-113850997D01*
X128857753Y-113894454D01*
X128725724Y-113965026D01*
X128609999Y-114059999D01*
X128586201Y-114088997D01*
X126210199Y-116465000D01*
X126148061Y-116465000D01*
X125948102Y-116504774D01*
X125759744Y-116582795D01*
X125590226Y-116696063D01*
X125446063Y-116840226D01*
X125332795Y-117009744D01*
X125254774Y-117198102D01*
X125215000Y-117398061D01*
X125215000Y-117601939D01*
X125254774Y-117801898D01*
X125332795Y-117990256D01*
X125446063Y-118159774D01*
X125590226Y-118303937D01*
X125759744Y-118417205D01*
X125948102Y-118495226D01*
X126148061Y-118535000D01*
X126351939Y-118535000D01*
X126551898Y-118495226D01*
X126740256Y-118417205D01*
X126909774Y-118303937D01*
X127053937Y-118159774D01*
X127167205Y-117990256D01*
X127245226Y-117801898D01*
X127285000Y-117601939D01*
X127285000Y-117539801D01*
X127326740Y-117498061D01*
X150365000Y-117498061D01*
X150365000Y-117701939D01*
X150404774Y-117901898D01*
X150482795Y-118090256D01*
X150596063Y-118259774D01*
X150740226Y-118403937D01*
X150909744Y-118517205D01*
X151098102Y-118595226D01*
X151298061Y-118635000D01*
X151501939Y-118635000D01*
X151701898Y-118595226D01*
X151890256Y-118517205D01*
X152059774Y-118403937D01*
X152203937Y-118259774D01*
X152317205Y-118090256D01*
X152395226Y-117901898D01*
X152435000Y-117701939D01*
X152435000Y-117498061D01*
X152395226Y-117298102D01*
X152317205Y-117109744D01*
X152203937Y-116940226D01*
X152059774Y-116796063D01*
X151890256Y-116682795D01*
X151701898Y-116604774D01*
X151501939Y-116565000D01*
X151298061Y-116565000D01*
X151098102Y-116604774D01*
X150909744Y-116682795D01*
X150740226Y-116796063D01*
X150596063Y-116940226D01*
X150482795Y-117109744D01*
X150404774Y-117298102D01*
X150365000Y-117498061D01*
X127326740Y-117498061D01*
X129464802Y-115360000D01*
X131382850Y-115360000D01*
X131282795Y-115509744D01*
X131204774Y-115698102D01*
X131165000Y-115898061D01*
X131165000Y-116101939D01*
X131204774Y-116301898D01*
X131282795Y-116490256D01*
X131396063Y-116659774D01*
X131540226Y-116803937D01*
X131709744Y-116917205D01*
X131898102Y-116995226D01*
X132098061Y-117035000D01*
X132301939Y-117035000D01*
X132501898Y-116995226D01*
X132690256Y-116917205D01*
X132859774Y-116803937D01*
X133003937Y-116659774D01*
X133117205Y-116490256D01*
X133195226Y-116301898D01*
X133235000Y-116101939D01*
X133235000Y-115898061D01*
X133195226Y-115698102D01*
X133163977Y-115622660D01*
X133301898Y-115595226D01*
X133490256Y-115517205D01*
X133659774Y-115403937D01*
X133803937Y-115259774D01*
X133917205Y-115090256D01*
X133995226Y-114901898D01*
X134035000Y-114701939D01*
X134035000Y-114498061D01*
X133995226Y-114298102D01*
X133917205Y-114109744D01*
X133803937Y-113940226D01*
X133659774Y-113796063D01*
X133490256Y-113682795D01*
X133371698Y-113633686D01*
X133451161Y-113554223D01*
X133564429Y-113384705D01*
X133642450Y-113196347D01*
X133682224Y-112996388D01*
X133682224Y-112792510D01*
X133663438Y-112698061D01*
X135165000Y-112698061D01*
X135165000Y-112901939D01*
X135204774Y-113101898D01*
X135282795Y-113290256D01*
X135396063Y-113459774D01*
X135540226Y-113603937D01*
X135709744Y-113717205D01*
X135898102Y-113795226D01*
X135987076Y-113812924D01*
X135994030Y-113847882D01*
X135909744Y-113882795D01*
X135740226Y-113996063D01*
X135596063Y-114140226D01*
X135482795Y-114309744D01*
X135404774Y-114498102D01*
X135365000Y-114698061D01*
X135365000Y-114901939D01*
X135404774Y-115101898D01*
X135482795Y-115290256D01*
X135556123Y-115400000D01*
X135482795Y-115509744D01*
X135404774Y-115698102D01*
X135365000Y-115898061D01*
X135365000Y-116101939D01*
X135404774Y-116301898D01*
X135482795Y-116490256D01*
X135596063Y-116659774D01*
X135740226Y-116803937D01*
X135909744Y-116917205D01*
X136098102Y-116995226D01*
X136298061Y-117035000D01*
X136501939Y-117035000D01*
X136701898Y-116995226D01*
X136890256Y-116917205D01*
X137059774Y-116803937D01*
X137203937Y-116659774D01*
X137317205Y-116490256D01*
X137395226Y-116301898D01*
X137435000Y-116101939D01*
X137435000Y-115898061D01*
X137395226Y-115698102D01*
X137317205Y-115509744D01*
X137243877Y-115400000D01*
X137317205Y-115290256D01*
X137395226Y-115101898D01*
X137435000Y-114901939D01*
X137435000Y-114698061D01*
X137425055Y-114648061D01*
X141715000Y-114648061D01*
X141715000Y-114851939D01*
X141754774Y-115051898D01*
X141832795Y-115240256D01*
X141946063Y-115409774D01*
X142090226Y-115553937D01*
X142259744Y-115667205D01*
X142448102Y-115745226D01*
X142648061Y-115785000D01*
X142851939Y-115785000D01*
X143051898Y-115745226D01*
X143240256Y-115667205D01*
X143409774Y-115553937D01*
X143553937Y-115409774D01*
X143561763Y-115398061D01*
X155465000Y-115398061D01*
X155465000Y-115601939D01*
X155504774Y-115801898D01*
X155582795Y-115990256D01*
X155696063Y-116159774D01*
X155840226Y-116303937D01*
X156009744Y-116417205D01*
X156198102Y-116495226D01*
X156398061Y-116535000D01*
X156601939Y-116535000D01*
X156801898Y-116495226D01*
X156990256Y-116417205D01*
X157159774Y-116303937D01*
X157303937Y-116159774D01*
X157417205Y-115990256D01*
X157495226Y-115801898D01*
X157535000Y-115601939D01*
X157535000Y-115398061D01*
X157495226Y-115198102D01*
X157417205Y-115009744D01*
X157303937Y-114840226D01*
X157159774Y-114696063D01*
X156990256Y-114582795D01*
X156801898Y-114504774D01*
X156601939Y-114465000D01*
X156398061Y-114465000D01*
X156198102Y-114504774D01*
X156009744Y-114582795D01*
X155840226Y-114696063D01*
X155696063Y-114840226D01*
X155582795Y-115009744D01*
X155504774Y-115198102D01*
X155465000Y-115398061D01*
X143561763Y-115398061D01*
X143667205Y-115240256D01*
X143745226Y-115051898D01*
X143785000Y-114851939D01*
X143785000Y-114648061D01*
X143745226Y-114448102D01*
X143667205Y-114259744D01*
X143553937Y-114090226D01*
X143409774Y-113946063D01*
X143337934Y-113898061D01*
X150565000Y-113898061D01*
X150565000Y-114101939D01*
X150604774Y-114301898D01*
X150682795Y-114490256D01*
X150796063Y-114659774D01*
X150940226Y-114803937D01*
X151109744Y-114917205D01*
X151298102Y-114995226D01*
X151498061Y-115035000D01*
X151701939Y-115035000D01*
X151901898Y-114995226D01*
X152090256Y-114917205D01*
X152259774Y-114803937D01*
X152403937Y-114659774D01*
X152517205Y-114490256D01*
X152595226Y-114301898D01*
X152635000Y-114101939D01*
X152635000Y-113898061D01*
X152595226Y-113698102D01*
X152517205Y-113509744D01*
X152403937Y-113340226D01*
X152259774Y-113196063D01*
X152090256Y-113082795D01*
X151901898Y-113004774D01*
X151701939Y-112965000D01*
X151498061Y-112965000D01*
X151298102Y-113004774D01*
X151109744Y-113082795D01*
X150940226Y-113196063D01*
X150796063Y-113340226D01*
X150682795Y-113509744D01*
X150604774Y-113698102D01*
X150565000Y-113898061D01*
X143337934Y-113898061D01*
X143240256Y-113832795D01*
X143051898Y-113754774D01*
X142851939Y-113715000D01*
X142648061Y-113715000D01*
X142448102Y-113754774D01*
X142259744Y-113832795D01*
X142090226Y-113946063D01*
X141946063Y-114090226D01*
X141832795Y-114259744D01*
X141754774Y-114448102D01*
X141715000Y-114648061D01*
X137425055Y-114648061D01*
X137405970Y-114552118D01*
X137490256Y-114517205D01*
X137659774Y-114403937D01*
X137803937Y-114259774D01*
X137917205Y-114090256D01*
X137995226Y-113901898D01*
X138035000Y-113701939D01*
X138035000Y-113498061D01*
X137995226Y-113298102D01*
X137917205Y-113109744D01*
X137803937Y-112940226D01*
X137659774Y-112796063D01*
X137490256Y-112682795D01*
X137301898Y-112604774D01*
X137212924Y-112587076D01*
X137195226Y-112498102D01*
X137117205Y-112309744D01*
X137003937Y-112140226D01*
X136859774Y-111996063D01*
X136690256Y-111882795D01*
X136501898Y-111804774D01*
X136301939Y-111765000D01*
X136098061Y-111765000D01*
X135898102Y-111804774D01*
X135709744Y-111882795D01*
X135540226Y-111996063D01*
X135396063Y-112140226D01*
X135282795Y-112309744D01*
X135204774Y-112498102D01*
X135165000Y-112698061D01*
X133663438Y-112698061D01*
X133642450Y-112592551D01*
X133564429Y-112404193D01*
X133451161Y-112234675D01*
X133306998Y-112090512D01*
X133137480Y-111977244D01*
X132949122Y-111899223D01*
X132749163Y-111859449D01*
X132545285Y-111859449D01*
X132345326Y-111899223D01*
X132156968Y-111977244D01*
X131987450Y-112090512D01*
X131943513Y-112134449D01*
X130024963Y-112134449D01*
X129025922Y-111135408D01*
X154452347Y-111135408D01*
X154452347Y-111339286D01*
X154492121Y-111539245D01*
X154570142Y-111727603D01*
X154683410Y-111897121D01*
X154827573Y-112041284D01*
X154997091Y-112154552D01*
X155185449Y-112232573D01*
X155385408Y-112272347D01*
X155589286Y-112272347D01*
X155789245Y-112232573D01*
X155977603Y-112154552D01*
X156147121Y-112041284D01*
X156291284Y-111897121D01*
X156404552Y-111727603D01*
X156482573Y-111539245D01*
X156522347Y-111339286D01*
X156522347Y-111135408D01*
X156482573Y-110935449D01*
X156404552Y-110747091D01*
X156291284Y-110577573D01*
X156147121Y-110433410D01*
X155977603Y-110320142D01*
X155789245Y-110242121D01*
X155589286Y-110202347D01*
X155385408Y-110202347D01*
X155185449Y-110242121D01*
X154997091Y-110320142D01*
X154827573Y-110433410D01*
X154683410Y-110577573D01*
X154570142Y-110747091D01*
X154492121Y-110935449D01*
X154452347Y-111135408D01*
X129025922Y-111135408D01*
X128379489Y-110488976D01*
X128355686Y-110459972D01*
X128239961Y-110364999D01*
X128107932Y-110294427D01*
X127964724Y-110250986D01*
X127909774Y-110196036D01*
X127740256Y-110082768D01*
X127551898Y-110004747D01*
X127351939Y-109964973D01*
X127148061Y-109964973D01*
X126948102Y-110004747D01*
X126759744Y-110082768D01*
X126590226Y-110196036D01*
X126446063Y-110340199D01*
X126332795Y-110509717D01*
X126254774Y-110698075D01*
X126215000Y-110898034D01*
X126215000Y-111101912D01*
X126254774Y-111301871D01*
X126332795Y-111490229D01*
X126339319Y-111499994D01*
X126332795Y-111509758D01*
X126254774Y-111698116D01*
X126215000Y-111898075D01*
X126215000Y-112101953D01*
X126254774Y-112301912D01*
X126332795Y-112490270D01*
X126446063Y-112659788D01*
X126480737Y-112694462D01*
X125710199Y-113465000D01*
X125648061Y-113465000D01*
X125448102Y-113504774D01*
X125259744Y-113582795D01*
X125090226Y-113696063D01*
X124946063Y-113840226D01*
X124832795Y-114009744D01*
X124754774Y-114198102D01*
X124715000Y-114398061D01*
X122317197Y-114398061D01*
X122345134Y-114375134D01*
X122530706Y-114149014D01*
X122668599Y-113891034D01*
X122753513Y-113611111D01*
X122782185Y-113320000D01*
X122753513Y-113028889D01*
X122668599Y-112748966D01*
X122530706Y-112490986D01*
X122345134Y-112264866D01*
X122119014Y-112079294D01*
X122054477Y-112044799D01*
X122171355Y-111975178D01*
X122387588Y-111780269D01*
X122561641Y-111546920D01*
X122686825Y-111284099D01*
X122731476Y-111136890D01*
X122610155Y-110907000D01*
X121417000Y-110907000D01*
X121417000Y-110927000D01*
X121163000Y-110927000D01*
X121163000Y-110907000D01*
X121143000Y-110907000D01*
X121143000Y-110653000D01*
X121163000Y-110653000D01*
X121163000Y-110633000D01*
X121417000Y-110633000D01*
X121417000Y-110653000D01*
X122610155Y-110653000D01*
X122731476Y-110423110D01*
X122686825Y-110275901D01*
X122561641Y-110013080D01*
X122387588Y-109779731D01*
X122171355Y-109584822D01*
X122054477Y-109515201D01*
X122119014Y-109480706D01*
X122345134Y-109295134D01*
X122530706Y-109069014D01*
X122668599Y-108811034D01*
X122753513Y-108531111D01*
X122782185Y-108240000D01*
X122753513Y-107948889D01*
X122668599Y-107668966D01*
X122530706Y-107410986D01*
X122345134Y-107184866D01*
X122119014Y-106999294D01*
X122064209Y-106970000D01*
X122119014Y-106940706D01*
X122345134Y-106755134D01*
X122530706Y-106529014D01*
X122668599Y-106271034D01*
X122753513Y-105991111D01*
X122782185Y-105700000D01*
X122753513Y-105408889D01*
X122668599Y-105128966D01*
X122530706Y-104870986D01*
X122345134Y-104644866D01*
X122119014Y-104459294D01*
X122064209Y-104430000D01*
X122119014Y-104400706D01*
X122345134Y-104215134D01*
X122530706Y-103989014D01*
X122668599Y-103731034D01*
X122753513Y-103451111D01*
X122757491Y-103410721D01*
X125202340Y-103410721D01*
X125202340Y-103614599D01*
X125242114Y-103814558D01*
X125320135Y-104002916D01*
X125433403Y-104172434D01*
X125538465Y-104277496D01*
X125514700Y-104355843D01*
X125500998Y-104401014D01*
X125498707Y-104424276D01*
X125486324Y-104550000D01*
X125490001Y-104587332D01*
X125490001Y-104796288D01*
X125446063Y-104840226D01*
X125332795Y-105009744D01*
X125254774Y-105198102D01*
X125215000Y-105398061D01*
X125215000Y-105601939D01*
X125254774Y-105801898D01*
X125332795Y-105990256D01*
X125446063Y-106159774D01*
X125536289Y-106250000D01*
X125446063Y-106340226D01*
X125332795Y-106509744D01*
X125254774Y-106698102D01*
X125215000Y-106898061D01*
X125215000Y-107101939D01*
X125254774Y-107301898D01*
X125332795Y-107490256D01*
X125446063Y-107659774D01*
X125536289Y-107750000D01*
X125446063Y-107840226D01*
X125332795Y-108009744D01*
X125254774Y-108198102D01*
X125215000Y-108398061D01*
X125215000Y-108601939D01*
X125254774Y-108801898D01*
X125332795Y-108990256D01*
X125446063Y-109159774D01*
X125590226Y-109303937D01*
X125759744Y-109417205D01*
X125948102Y-109495226D01*
X126148061Y-109535000D01*
X126351939Y-109535000D01*
X126551898Y-109495226D01*
X126740256Y-109417205D01*
X126909774Y-109303937D01*
X127053937Y-109159774D01*
X127167205Y-108990256D01*
X127245226Y-108801898D01*
X127285000Y-108601939D01*
X127285000Y-108398061D01*
X127245226Y-108198102D01*
X127167205Y-108009744D01*
X127053937Y-107840226D01*
X126963711Y-107750000D01*
X127053937Y-107659774D01*
X127167205Y-107490256D01*
X127245226Y-107301898D01*
X127285000Y-107101939D01*
X127285000Y-107098061D01*
X129165000Y-107098061D01*
X129165000Y-107301939D01*
X129204774Y-107501898D01*
X129282795Y-107690256D01*
X129396063Y-107859774D01*
X129540226Y-108003937D01*
X129709744Y-108117205D01*
X129898102Y-108195226D01*
X130098061Y-108235000D01*
X130301939Y-108235000D01*
X130501898Y-108195226D01*
X130690256Y-108117205D01*
X130859774Y-108003937D01*
X131003937Y-107859774D01*
X131117205Y-107690256D01*
X131195226Y-107501898D01*
X131235000Y-107301939D01*
X131235000Y-107098061D01*
X131195226Y-106898102D01*
X131117205Y-106709744D01*
X131003937Y-106540226D01*
X130859774Y-106396063D01*
X130690256Y-106282795D01*
X130501898Y-106204774D01*
X130301939Y-106165000D01*
X130098061Y-106165000D01*
X129898102Y-106204774D01*
X129709744Y-106282795D01*
X129540226Y-106396063D01*
X129396063Y-106540226D01*
X129282795Y-106709744D01*
X129204774Y-106898102D01*
X129165000Y-107098061D01*
X127285000Y-107098061D01*
X127285000Y-107039802D01*
X127511002Y-106813799D01*
X127540001Y-106790001D01*
X127634974Y-106674276D01*
X127705546Y-106542247D01*
X127749003Y-106398986D01*
X127760000Y-106287333D01*
X127760000Y-106287324D01*
X127763676Y-106250001D01*
X127760000Y-106212678D01*
X127760000Y-105114801D01*
X128114802Y-104760000D01*
X129565000Y-104760000D01*
X129565000Y-104901939D01*
X129604774Y-105101898D01*
X129682795Y-105290256D01*
X129796063Y-105459774D01*
X129940226Y-105603937D01*
X130109744Y-105717205D01*
X130298102Y-105795226D01*
X130498061Y-105835000D01*
X130701939Y-105835000D01*
X130901898Y-105795226D01*
X131090256Y-105717205D01*
X131256122Y-105606377D01*
X131309743Y-105642205D01*
X131498101Y-105720226D01*
X131698060Y-105760000D01*
X131901938Y-105760000D01*
X132101897Y-105720226D01*
X132275374Y-105648369D01*
X132254774Y-105698102D01*
X132215000Y-105898061D01*
X132215000Y-106101939D01*
X132254774Y-106301898D01*
X132332795Y-106490256D01*
X132446063Y-106659774D01*
X132590226Y-106803937D01*
X132759744Y-106917205D01*
X132948102Y-106995226D01*
X133148061Y-107035000D01*
X133351939Y-107035000D01*
X133366271Y-107032149D01*
X133004956Y-107393465D01*
X132948101Y-107404774D01*
X132759743Y-107482795D01*
X132590225Y-107596063D01*
X132446062Y-107740226D01*
X132332794Y-107909744D01*
X132254773Y-108098102D01*
X132214999Y-108298061D01*
X132214999Y-108501939D01*
X132254773Y-108701898D01*
X132332794Y-108890256D01*
X132446062Y-109059774D01*
X132590225Y-109203937D01*
X132703098Y-109279356D01*
X132682793Y-109309744D01*
X132604772Y-109498102D01*
X132564998Y-109698061D01*
X132564998Y-109901939D01*
X132604772Y-110101898D01*
X132682793Y-110290256D01*
X132796061Y-110459774D01*
X132940224Y-110603937D01*
X133109742Y-110717205D01*
X133298100Y-110795226D01*
X133498059Y-110835000D01*
X133701937Y-110835000D01*
X133901896Y-110795226D01*
X134090254Y-110717205D01*
X134259772Y-110603937D01*
X134403935Y-110459774D01*
X134517203Y-110290256D01*
X134595224Y-110101898D01*
X134634998Y-109901939D01*
X134634998Y-109698061D01*
X134607040Y-109557507D01*
X134698102Y-109595226D01*
X134898061Y-109635000D01*
X135101939Y-109635000D01*
X135301898Y-109595226D01*
X135490256Y-109517205D01*
X135659774Y-109403937D01*
X135803937Y-109259774D01*
X135878581Y-109148061D01*
X141715000Y-109148061D01*
X141715000Y-109351939D01*
X141754774Y-109551898D01*
X141832795Y-109740256D01*
X141946063Y-109909774D01*
X142090226Y-110053937D01*
X142259744Y-110167205D01*
X142448102Y-110245226D01*
X142648061Y-110285000D01*
X142851939Y-110285000D01*
X143051898Y-110245226D01*
X143240256Y-110167205D01*
X143409774Y-110053937D01*
X143553937Y-109909774D01*
X143667205Y-109740256D01*
X143745226Y-109551898D01*
X143785000Y-109351939D01*
X143785000Y-109148061D01*
X143745226Y-108948102D01*
X143667205Y-108759744D01*
X143553937Y-108590226D01*
X143409774Y-108446063D01*
X143240256Y-108332795D01*
X143051898Y-108254774D01*
X142851939Y-108215000D01*
X142648061Y-108215000D01*
X142448102Y-108254774D01*
X142259744Y-108332795D01*
X142090226Y-108446063D01*
X141946063Y-108590226D01*
X141832795Y-108759744D01*
X141754774Y-108948102D01*
X141715000Y-109148061D01*
X135878581Y-109148061D01*
X135917205Y-109090256D01*
X135995226Y-108901898D01*
X136035000Y-108701939D01*
X136035000Y-108498061D01*
X135995226Y-108298102D01*
X135917205Y-108109744D01*
X135803937Y-107940226D01*
X135659774Y-107796063D01*
X135490256Y-107682795D01*
X135301898Y-107604774D01*
X135291311Y-107602668D01*
X135339411Y-107544058D01*
X135421589Y-107390312D01*
X135472195Y-107223489D01*
X135484548Y-107098061D01*
X135965000Y-107098061D01*
X135965000Y-107301939D01*
X136004774Y-107501898D01*
X136082795Y-107690256D01*
X136196063Y-107859774D01*
X136340226Y-108003937D01*
X136509744Y-108117205D01*
X136698102Y-108195226D01*
X136898061Y-108235000D01*
X137101939Y-108235000D01*
X137301898Y-108195226D01*
X137415763Y-108148061D01*
X154465000Y-108148061D01*
X154465000Y-108351939D01*
X154504774Y-108551898D01*
X154582795Y-108740256D01*
X154696063Y-108909774D01*
X154840226Y-109053937D01*
X155009744Y-109167205D01*
X155198102Y-109245226D01*
X155398061Y-109285000D01*
X155601939Y-109285000D01*
X155801898Y-109245226D01*
X155990256Y-109167205D01*
X156159774Y-109053937D01*
X156303937Y-108909774D01*
X156417205Y-108740256D01*
X156495226Y-108551898D01*
X156535000Y-108351939D01*
X156535000Y-108148061D01*
X156495226Y-107948102D01*
X156417205Y-107759744D01*
X156303937Y-107590226D01*
X156159774Y-107446063D01*
X155990256Y-107332795D01*
X155801898Y-107254774D01*
X155601939Y-107215000D01*
X155398061Y-107215000D01*
X155198102Y-107254774D01*
X155009744Y-107332795D01*
X154840226Y-107446063D01*
X154696063Y-107590226D01*
X154582795Y-107759744D01*
X154504774Y-107948102D01*
X154465000Y-108148061D01*
X137415763Y-108148061D01*
X137490256Y-108117205D01*
X137659774Y-108003937D01*
X137803937Y-107859774D01*
X137917205Y-107690256D01*
X137995226Y-107501898D01*
X138035000Y-107301939D01*
X138035000Y-107098061D01*
X137995226Y-106898102D01*
X137917205Y-106709744D01*
X137803937Y-106540226D01*
X137659774Y-106396063D01*
X137490256Y-106282795D01*
X137301898Y-106204774D01*
X137101939Y-106165000D01*
X136898061Y-106165000D01*
X136698102Y-106204774D01*
X136509744Y-106282795D01*
X136340226Y-106396063D01*
X136196063Y-106540226D01*
X136082795Y-106709744D01*
X136004774Y-106898102D01*
X135965000Y-107098061D01*
X135484548Y-107098061D01*
X135485000Y-107093476D01*
X135485000Y-107093468D01*
X135489281Y-107049999D01*
X135485000Y-107006530D01*
X135485000Y-105698061D01*
X145565000Y-105698061D01*
X145565000Y-105901939D01*
X145604774Y-106101898D01*
X145682795Y-106290256D01*
X145796063Y-106459774D01*
X145940226Y-106603937D01*
X146109744Y-106717205D01*
X146298102Y-106795226D01*
X146498061Y-106835000D01*
X146701939Y-106835000D01*
X146901898Y-106795226D01*
X147090256Y-106717205D01*
X147259774Y-106603937D01*
X147403937Y-106459774D01*
X147517205Y-106290256D01*
X147595226Y-106101898D01*
X147635000Y-105901939D01*
X147635000Y-105898061D01*
X147990032Y-105898061D01*
X147990032Y-106101939D01*
X148029806Y-106301898D01*
X148107827Y-106490256D01*
X148221095Y-106659774D01*
X148365258Y-106803937D01*
X148534776Y-106917205D01*
X148723134Y-106995226D01*
X148923093Y-107035000D01*
X149126971Y-107035000D01*
X149326930Y-106995226D01*
X149515288Y-106917205D01*
X149684806Y-106803937D01*
X149828969Y-106659774D01*
X149942237Y-106490256D01*
X150020258Y-106301898D01*
X150060032Y-106101939D01*
X150060032Y-105898061D01*
X150020258Y-105698102D01*
X149999531Y-105648061D01*
X154465000Y-105648061D01*
X154465000Y-105851939D01*
X154504774Y-106051898D01*
X154582795Y-106240256D01*
X154696063Y-106409774D01*
X154840226Y-106553937D01*
X155009744Y-106667205D01*
X155198102Y-106745226D01*
X155398061Y-106785000D01*
X155601939Y-106785000D01*
X155801898Y-106745226D01*
X155990256Y-106667205D01*
X156159774Y-106553937D01*
X156303937Y-106409774D01*
X156417205Y-106240256D01*
X156495226Y-106051898D01*
X156535000Y-105851939D01*
X156535000Y-105648061D01*
X156495226Y-105448102D01*
X156417205Y-105259744D01*
X156303937Y-105090226D01*
X156159774Y-104946063D01*
X155990256Y-104832795D01*
X155801898Y-104754774D01*
X155601939Y-104715000D01*
X155398061Y-104715000D01*
X155198102Y-104754774D01*
X155009744Y-104832795D01*
X154840226Y-104946063D01*
X154696063Y-105090226D01*
X154582795Y-105259744D01*
X154504774Y-105448102D01*
X154465000Y-105648061D01*
X149999531Y-105648061D01*
X149942237Y-105509744D01*
X149828969Y-105340226D01*
X149684806Y-105196063D01*
X149515288Y-105082795D01*
X149326930Y-105004774D01*
X149126971Y-104965000D01*
X148923093Y-104965000D01*
X148723134Y-105004774D01*
X148534776Y-105082795D01*
X148365258Y-105196063D01*
X148221095Y-105340226D01*
X148107827Y-105509744D01*
X148029806Y-105698102D01*
X147990032Y-105898061D01*
X147635000Y-105898061D01*
X147635000Y-105698061D01*
X147595226Y-105498102D01*
X147517205Y-105309744D01*
X147403937Y-105140226D01*
X147259774Y-104996063D01*
X147090256Y-104882795D01*
X146901898Y-104804774D01*
X146701939Y-104765000D01*
X146498061Y-104765000D01*
X146298102Y-104804774D01*
X146109744Y-104882795D01*
X145940226Y-104996063D01*
X145796063Y-105140226D01*
X145682795Y-105309744D01*
X145604774Y-105498102D01*
X145565000Y-105698061D01*
X135485000Y-105698061D01*
X135485000Y-103648061D01*
X141715000Y-103648061D01*
X141715000Y-103851939D01*
X141754774Y-104051898D01*
X141832795Y-104240256D01*
X141946063Y-104409774D01*
X142090226Y-104553937D01*
X142259744Y-104667205D01*
X142448102Y-104745226D01*
X142648061Y-104785000D01*
X142851939Y-104785000D01*
X143051898Y-104745226D01*
X143240256Y-104667205D01*
X143409774Y-104553937D01*
X143553937Y-104409774D01*
X143667205Y-104240256D01*
X143745226Y-104051898D01*
X143785000Y-103851939D01*
X143785000Y-103648061D01*
X143745226Y-103448102D01*
X143667205Y-103259744D01*
X143592582Y-103148061D01*
X154714986Y-103148061D01*
X154714986Y-103351939D01*
X154754760Y-103551898D01*
X154832781Y-103740256D01*
X154946049Y-103909774D01*
X155090212Y-104053937D01*
X155259730Y-104167205D01*
X155448088Y-104245226D01*
X155648047Y-104285000D01*
X155851925Y-104285000D01*
X156051884Y-104245226D01*
X156240242Y-104167205D01*
X156409760Y-104053937D01*
X156553923Y-103909774D01*
X156667191Y-103740256D01*
X156745212Y-103551898D01*
X156784986Y-103351939D01*
X156784986Y-103148061D01*
X156745212Y-102948102D01*
X156667191Y-102759744D01*
X156553923Y-102590226D01*
X156409760Y-102446063D01*
X156240242Y-102332795D01*
X156051884Y-102254774D01*
X155851925Y-102215000D01*
X155648047Y-102215000D01*
X155448088Y-102254774D01*
X155259730Y-102332795D01*
X155090212Y-102446063D01*
X154946049Y-102590226D01*
X154832781Y-102759744D01*
X154754760Y-102948102D01*
X154714986Y-103148061D01*
X143592582Y-103148061D01*
X143553937Y-103090226D01*
X143409774Y-102946063D01*
X143240256Y-102832795D01*
X143051898Y-102754774D01*
X142851939Y-102715000D01*
X142648061Y-102715000D01*
X142448102Y-102754774D01*
X142259744Y-102832795D01*
X142090226Y-102946063D01*
X141946063Y-103090226D01*
X141832795Y-103259744D01*
X141754774Y-103448102D01*
X141715000Y-103648061D01*
X135485000Y-103648061D01*
X135485000Y-100085000D01*
X138233422Y-100085000D01*
X138743470Y-100595049D01*
X138771183Y-100628817D01*
X138804951Y-100656530D01*
X138804953Y-100656532D01*
X138905941Y-100739411D01*
X139059687Y-100821589D01*
X139226510Y-100872195D01*
X139356523Y-100885000D01*
X139356531Y-100885000D01*
X139400000Y-100889281D01*
X139443469Y-100885000D01*
X142261546Y-100885000D01*
X142309744Y-100917205D01*
X142498102Y-100995226D01*
X142698061Y-101035000D01*
X142901939Y-101035000D01*
X143101898Y-100995226D01*
X143290256Y-100917205D01*
X143459774Y-100803937D01*
X143603937Y-100659774D01*
X143717205Y-100490256D01*
X143795226Y-100301898D01*
X143835000Y-100101939D01*
X143835000Y-99898061D01*
X145565000Y-99898061D01*
X145565000Y-100101939D01*
X145604774Y-100301898D01*
X145682795Y-100490256D01*
X145796063Y-100659774D01*
X145940226Y-100803937D01*
X146109744Y-100917205D01*
X146298102Y-100995226D01*
X146498061Y-101035000D01*
X146701939Y-101035000D01*
X146901898Y-100995226D01*
X147090256Y-100917205D01*
X147259774Y-100803937D01*
X147400000Y-100663711D01*
X147540226Y-100803937D01*
X147709744Y-100917205D01*
X147898102Y-100995226D01*
X148098061Y-101035000D01*
X148301939Y-101035000D01*
X148501898Y-100995226D01*
X148690256Y-100917205D01*
X148859774Y-100803937D01*
X148975000Y-100688711D01*
X149090226Y-100803937D01*
X149259744Y-100917205D01*
X149448102Y-100995226D01*
X149648061Y-101035000D01*
X149851939Y-101035000D01*
X150051898Y-100995226D01*
X150240256Y-100917205D01*
X150409774Y-100803937D01*
X150553937Y-100659774D01*
X150565000Y-100643217D01*
X150565000Y-100701939D01*
X150604774Y-100901898D01*
X150682795Y-101090256D01*
X150796063Y-101259774D01*
X150940226Y-101403937D01*
X151109744Y-101517205D01*
X151298102Y-101595226D01*
X151498061Y-101635000D01*
X151701939Y-101635000D01*
X151901898Y-101595226D01*
X152090256Y-101517205D01*
X152259774Y-101403937D01*
X152403937Y-101259774D01*
X152517205Y-101090256D01*
X152595226Y-100901898D01*
X152635000Y-100701939D01*
X152635000Y-100648061D01*
X154465000Y-100648061D01*
X154465000Y-100851939D01*
X154504774Y-101051898D01*
X154582795Y-101240256D01*
X154696063Y-101409774D01*
X154840226Y-101553937D01*
X155009744Y-101667205D01*
X155198102Y-101745226D01*
X155398061Y-101785000D01*
X155601939Y-101785000D01*
X155801898Y-101745226D01*
X155990256Y-101667205D01*
X156159774Y-101553937D01*
X156303937Y-101409774D01*
X156417205Y-101240256D01*
X156495226Y-101051898D01*
X156535000Y-100851939D01*
X156535000Y-100648061D01*
X156495226Y-100448102D01*
X156417205Y-100259744D01*
X156303937Y-100090226D01*
X156159774Y-99946063D01*
X155990256Y-99832795D01*
X155801898Y-99754774D01*
X155601939Y-99715000D01*
X155398061Y-99715000D01*
X155198102Y-99754774D01*
X155009744Y-99832795D01*
X154840226Y-99946063D01*
X154696063Y-100090226D01*
X154582795Y-100259744D01*
X154504774Y-100448102D01*
X154465000Y-100648061D01*
X152635000Y-100648061D01*
X152635000Y-100498061D01*
X152595226Y-100298102D01*
X152517205Y-100109744D01*
X152403937Y-99940226D01*
X152259774Y-99796063D01*
X152090256Y-99682795D01*
X151901898Y-99604774D01*
X151701939Y-99565000D01*
X151498061Y-99565000D01*
X151298102Y-99604774D01*
X151109744Y-99682795D01*
X150940226Y-99796063D01*
X150796063Y-99940226D01*
X150785000Y-99956783D01*
X150785000Y-99898061D01*
X150745226Y-99698102D01*
X150667205Y-99509744D01*
X150553937Y-99340226D01*
X150409774Y-99196063D01*
X150240256Y-99082795D01*
X150051898Y-99004774D01*
X149851939Y-98965000D01*
X149648061Y-98965000D01*
X149448102Y-99004774D01*
X149259744Y-99082795D01*
X149090226Y-99196063D01*
X148975000Y-99311289D01*
X148859774Y-99196063D01*
X148690256Y-99082795D01*
X148501898Y-99004774D01*
X148301939Y-98965000D01*
X148098061Y-98965000D01*
X147898102Y-99004774D01*
X147709744Y-99082795D01*
X147540226Y-99196063D01*
X147400000Y-99336289D01*
X147259774Y-99196063D01*
X147090256Y-99082795D01*
X146901898Y-99004774D01*
X146701939Y-98965000D01*
X146498061Y-98965000D01*
X146298102Y-99004774D01*
X146109744Y-99082795D01*
X145940226Y-99196063D01*
X145796063Y-99340226D01*
X145682795Y-99509744D01*
X145604774Y-99698102D01*
X145565000Y-99898061D01*
X143835000Y-99898061D01*
X143795226Y-99698102D01*
X143717205Y-99509744D01*
X143603937Y-99340226D01*
X143459774Y-99196063D01*
X143328420Y-99108296D01*
X143409774Y-99053937D01*
X143553937Y-98909774D01*
X143667205Y-98740256D01*
X143745226Y-98551898D01*
X143785000Y-98351939D01*
X143785000Y-98148061D01*
X143745226Y-97948102D01*
X143729740Y-97910714D01*
X154465000Y-97910714D01*
X154465000Y-98114592D01*
X154504774Y-98314551D01*
X154582795Y-98502909D01*
X154696063Y-98672427D01*
X154840226Y-98816590D01*
X155009744Y-98929858D01*
X155198102Y-99007879D01*
X155398061Y-99047653D01*
X155601939Y-99047653D01*
X155801898Y-99007879D01*
X155990256Y-98929858D01*
X156159774Y-98816590D01*
X156303937Y-98672427D01*
X156417205Y-98502909D01*
X156495226Y-98314551D01*
X156535000Y-98114592D01*
X156535000Y-97910714D01*
X156495226Y-97710755D01*
X156417205Y-97522397D01*
X156303937Y-97352879D01*
X156159774Y-97208716D01*
X155990256Y-97095448D01*
X155801898Y-97017427D01*
X155601939Y-96977653D01*
X155398061Y-96977653D01*
X155198102Y-97017427D01*
X155009744Y-97095448D01*
X154840226Y-97208716D01*
X154696063Y-97352879D01*
X154582795Y-97522397D01*
X154504774Y-97710755D01*
X154465000Y-97910714D01*
X143729740Y-97910714D01*
X143667205Y-97759744D01*
X143553937Y-97590226D01*
X143409774Y-97446063D01*
X143240256Y-97332795D01*
X143051898Y-97254774D01*
X142851939Y-97215000D01*
X142648061Y-97215000D01*
X142448102Y-97254774D01*
X142259744Y-97332795D01*
X142090226Y-97446063D01*
X141946063Y-97590226D01*
X141832795Y-97759744D01*
X141754774Y-97948102D01*
X141715000Y-98148061D01*
X141715000Y-98351939D01*
X141754774Y-98551898D01*
X141832795Y-98740256D01*
X141946063Y-98909774D01*
X142090226Y-99053937D01*
X142181613Y-99115000D01*
X139766579Y-99115000D01*
X139256534Y-98604956D01*
X139228817Y-98571183D01*
X139094059Y-98460589D01*
X138940313Y-98378411D01*
X138773490Y-98327805D01*
X138643477Y-98315000D01*
X138643469Y-98315000D01*
X138600000Y-98310719D01*
X138556531Y-98315000D01*
X134643477Y-98315000D01*
X134600000Y-98310718D01*
X134556524Y-98315000D01*
X134285000Y-98315000D01*
X134285000Y-94898061D01*
X150565000Y-94898061D01*
X150565000Y-95101939D01*
X150604774Y-95301898D01*
X150682795Y-95490256D01*
X150796063Y-95659774D01*
X150940226Y-95803937D01*
X151109744Y-95917205D01*
X151298102Y-95995226D01*
X151498061Y-96035000D01*
X151701939Y-96035000D01*
X151901898Y-95995226D01*
X152090256Y-95917205D01*
X152259774Y-95803937D01*
X152403937Y-95659774D01*
X152517205Y-95490256D01*
X152595226Y-95301898D01*
X152635000Y-95101939D01*
X152635000Y-94910714D01*
X155202347Y-94910714D01*
X155202347Y-95114592D01*
X155242121Y-95314551D01*
X155320142Y-95502909D01*
X155433410Y-95672427D01*
X155577573Y-95816590D01*
X155747091Y-95929858D01*
X155935449Y-96007879D01*
X156135408Y-96047653D01*
X156339286Y-96047653D01*
X156539245Y-96007879D01*
X156727603Y-95929858D01*
X156897121Y-95816590D01*
X157041284Y-95672427D01*
X157154552Y-95502909D01*
X157232573Y-95314551D01*
X157272347Y-95114592D01*
X157272347Y-94910714D01*
X157232573Y-94710755D01*
X157154552Y-94522397D01*
X157041284Y-94352879D01*
X156897121Y-94208716D01*
X156727603Y-94095448D01*
X156539245Y-94017427D01*
X156339286Y-93977653D01*
X156135408Y-93977653D01*
X155935449Y-94017427D01*
X155747091Y-94095448D01*
X155577573Y-94208716D01*
X155433410Y-94352879D01*
X155320142Y-94522397D01*
X155242121Y-94710755D01*
X155202347Y-94910714D01*
X152635000Y-94910714D01*
X152635000Y-94898061D01*
X152595226Y-94698102D01*
X152517205Y-94509744D01*
X152403937Y-94340226D01*
X152259774Y-94196063D01*
X152090256Y-94082795D01*
X151901898Y-94004774D01*
X151701939Y-93965000D01*
X151498061Y-93965000D01*
X151298102Y-94004774D01*
X151109744Y-94082795D01*
X150940226Y-94196063D01*
X150796063Y-94340226D01*
X150682795Y-94509744D01*
X150604774Y-94698102D01*
X150565000Y-94898061D01*
X134285000Y-94898061D01*
X134285000Y-93338454D01*
X134317205Y-93290256D01*
X134395226Y-93101898D01*
X134408533Y-93035000D01*
X134501939Y-93035000D01*
X134701898Y-92995226D01*
X134890256Y-92917205D01*
X135059774Y-92803937D01*
X135203937Y-92659774D01*
X135317205Y-92490256D01*
X135395226Y-92301898D01*
X135435000Y-92101939D01*
X135435000Y-91898061D01*
X135395226Y-91698102D01*
X135317205Y-91509744D01*
X135203937Y-91340226D01*
X135059774Y-91196063D01*
X134890256Y-91082795D01*
X134701898Y-91004774D01*
X134501939Y-90965000D01*
X134298061Y-90965000D01*
X134285000Y-90967598D01*
X134285000Y-89698061D01*
X134765000Y-89698061D01*
X134765000Y-89901939D01*
X134804774Y-90101898D01*
X134882795Y-90290256D01*
X134996063Y-90459774D01*
X135140226Y-90603937D01*
X135309744Y-90717205D01*
X135498102Y-90795226D01*
X135698061Y-90835000D01*
X135901939Y-90835000D01*
X136101898Y-90795226D01*
X136290256Y-90717205D01*
X136459774Y-90603937D01*
X136603937Y-90459774D01*
X136717205Y-90290256D01*
X136795226Y-90101898D01*
X136800000Y-90077897D01*
X136804774Y-90101898D01*
X136882795Y-90290256D01*
X136956123Y-90400000D01*
X136882795Y-90509744D01*
X136804774Y-90698102D01*
X136765000Y-90898061D01*
X136765000Y-91101939D01*
X136782130Y-91188060D01*
X136698102Y-91204774D01*
X136509744Y-91282795D01*
X136340226Y-91396063D01*
X136196063Y-91540226D01*
X136082795Y-91709744D01*
X136004774Y-91898102D01*
X135965000Y-92098061D01*
X135965000Y-92301939D01*
X136004774Y-92501898D01*
X136082795Y-92690256D01*
X136088097Y-92698192D01*
X135946063Y-92840226D01*
X135832795Y-93009744D01*
X135754774Y-93198102D01*
X135715000Y-93398061D01*
X135715000Y-93601939D01*
X135754774Y-93801898D01*
X135832795Y-93990256D01*
X135946063Y-94159774D01*
X136090226Y-94303937D01*
X136259744Y-94417205D01*
X136448102Y-94495226D01*
X136648061Y-94535000D01*
X136851939Y-94535000D01*
X137051898Y-94495226D01*
X137240256Y-94417205D01*
X137409774Y-94303937D01*
X137553937Y-94159774D01*
X137667205Y-93990256D01*
X137745226Y-93801898D01*
X137785000Y-93601939D01*
X137785000Y-93398061D01*
X137745226Y-93198102D01*
X137667205Y-93009744D01*
X137661903Y-93001808D01*
X137803937Y-92859774D01*
X137917205Y-92690256D01*
X137995226Y-92501898D01*
X138035000Y-92301939D01*
X138035000Y-92098061D01*
X139365000Y-92098061D01*
X139365000Y-92301939D01*
X139404774Y-92501898D01*
X139482795Y-92690256D01*
X139596063Y-92859774D01*
X139740226Y-93003937D01*
X139909744Y-93117205D01*
X140098102Y-93195226D01*
X140298061Y-93235000D01*
X140501939Y-93235000D01*
X140701898Y-93195226D01*
X140890256Y-93117205D01*
X140918940Y-93098039D01*
X141765000Y-93098039D01*
X141765000Y-93301917D01*
X141804774Y-93501876D01*
X141882795Y-93690234D01*
X141996063Y-93859752D01*
X142140226Y-94003915D01*
X142309744Y-94117183D01*
X142498102Y-94195204D01*
X142698061Y-94234978D01*
X142901939Y-94234978D01*
X143101898Y-94195204D01*
X143290256Y-94117183D01*
X143459774Y-94003915D01*
X143603937Y-93859752D01*
X143717205Y-93690234D01*
X143795226Y-93501876D01*
X143835000Y-93301917D01*
X143835000Y-93098039D01*
X143795226Y-92898080D01*
X143717205Y-92709722D01*
X143603937Y-92540204D01*
X143459774Y-92396041D01*
X143290256Y-92282773D01*
X143101898Y-92204752D01*
X142901939Y-92164978D01*
X142698061Y-92164978D01*
X142498102Y-92204752D01*
X142309744Y-92282773D01*
X142140226Y-92396041D01*
X141996063Y-92540204D01*
X141882795Y-92709722D01*
X141804774Y-92898080D01*
X141765000Y-93098039D01*
X140918940Y-93098039D01*
X141059774Y-93003937D01*
X141203937Y-92859774D01*
X141317205Y-92690256D01*
X141395226Y-92501898D01*
X141435000Y-92301939D01*
X141435000Y-92098061D01*
X141395226Y-91898102D01*
X141395195Y-91898025D01*
X151165000Y-91898025D01*
X151165000Y-92101903D01*
X151204774Y-92301862D01*
X151282795Y-92490220D01*
X151396063Y-92659738D01*
X151540226Y-92803901D01*
X151709744Y-92917169D01*
X151898102Y-92995190D01*
X152098061Y-93034964D01*
X152301939Y-93034964D01*
X152501898Y-92995190D01*
X152690256Y-92917169D01*
X152859774Y-92803901D01*
X153003937Y-92659738D01*
X153117205Y-92490220D01*
X153195226Y-92301862D01*
X153235000Y-92101903D01*
X153235000Y-91898025D01*
X153195226Y-91698066D01*
X153117205Y-91509708D01*
X153003937Y-91340190D01*
X152859774Y-91196027D01*
X152690256Y-91082759D01*
X152501898Y-91004738D01*
X152301939Y-90964964D01*
X152098061Y-90964964D01*
X151898102Y-91004738D01*
X151709744Y-91082759D01*
X151540226Y-91196027D01*
X151396063Y-91340190D01*
X151282795Y-91509708D01*
X151204774Y-91698066D01*
X151165000Y-91898025D01*
X141395195Y-91898025D01*
X141317205Y-91709744D01*
X141203937Y-91540226D01*
X141059774Y-91396063D01*
X140890256Y-91282795D01*
X140701898Y-91204774D01*
X140501939Y-91165000D01*
X140298061Y-91165000D01*
X140098102Y-91204774D01*
X139909744Y-91282795D01*
X139740226Y-91396063D01*
X139596063Y-91540226D01*
X139482795Y-91709744D01*
X139404774Y-91898102D01*
X139365000Y-92098061D01*
X138035000Y-92098061D01*
X138017870Y-92011940D01*
X138101898Y-91995226D01*
X138290256Y-91917205D01*
X138459774Y-91803937D01*
X138603937Y-91659774D01*
X138717205Y-91490256D01*
X138795226Y-91301898D01*
X138835000Y-91101939D01*
X138835000Y-90898061D01*
X138795226Y-90698102D01*
X138717205Y-90509744D01*
X138643877Y-90400000D01*
X138717205Y-90290256D01*
X138795226Y-90101898D01*
X138835000Y-89901939D01*
X138835000Y-89698061D01*
X138795226Y-89498102D01*
X138717205Y-89309744D01*
X138603937Y-89140226D01*
X138459774Y-88996063D01*
X138290256Y-88882795D01*
X138101898Y-88804774D01*
X137901939Y-88765000D01*
X137698061Y-88765000D01*
X137498102Y-88804774D01*
X137309744Y-88882795D01*
X137140226Y-88996063D01*
X136996063Y-89140226D01*
X136882795Y-89309744D01*
X136804774Y-89498102D01*
X136800000Y-89522103D01*
X136795226Y-89498102D01*
X136717205Y-89309744D01*
X136603937Y-89140226D01*
X136459774Y-88996063D01*
X136290256Y-88882795D01*
X136101898Y-88804774D01*
X135901939Y-88765000D01*
X135698061Y-88765000D01*
X135498102Y-88804774D01*
X135309744Y-88882795D01*
X135140226Y-88996063D01*
X134996063Y-89140226D01*
X134882795Y-89309744D01*
X134804774Y-89498102D01*
X134765000Y-89698061D01*
X134285000Y-89698061D01*
X134285000Y-87766578D01*
X134536589Y-87514990D01*
X136631556Y-87514990D01*
X136679754Y-87547195D01*
X136868112Y-87625216D01*
X137068071Y-87664990D01*
X137271949Y-87664990D01*
X137471908Y-87625216D01*
X137660266Y-87547195D01*
X137829784Y-87433927D01*
X137973947Y-87289764D01*
X138068629Y-87148061D01*
X141715000Y-87148061D01*
X141715000Y-87351939D01*
X141754774Y-87551898D01*
X141832795Y-87740256D01*
X141946063Y-87909774D01*
X142090226Y-88053937D01*
X142259744Y-88167205D01*
X142448102Y-88245226D01*
X142648061Y-88285000D01*
X142851939Y-88285000D01*
X143051898Y-88245226D01*
X143240256Y-88167205D01*
X143409774Y-88053937D01*
X143553937Y-87909774D01*
X143667205Y-87740256D01*
X143745226Y-87551898D01*
X143785000Y-87351939D01*
X143785000Y-87148061D01*
X143745226Y-86948102D01*
X143667205Y-86759744D01*
X143553937Y-86590226D01*
X143409774Y-86446063D01*
X143240256Y-86332795D01*
X143051898Y-86254774D01*
X142851939Y-86215000D01*
X142648061Y-86215000D01*
X142448102Y-86254774D01*
X142259744Y-86332795D01*
X142090226Y-86446063D01*
X141946063Y-86590226D01*
X141832795Y-86759744D01*
X141754774Y-86948102D01*
X141715000Y-87148061D01*
X138068629Y-87148061D01*
X138087215Y-87120246D01*
X138165236Y-86931888D01*
X138205010Y-86731929D01*
X138205010Y-86528051D01*
X138165236Y-86328092D01*
X138087215Y-86139734D01*
X138059371Y-86098061D01*
X151565000Y-86098061D01*
X151565000Y-86301939D01*
X151604774Y-86501898D01*
X151682795Y-86690256D01*
X151796063Y-86859774D01*
X151940226Y-87003937D01*
X152109744Y-87117205D01*
X152298102Y-87195226D01*
X152498061Y-87235000D01*
X152701939Y-87235000D01*
X152901898Y-87195226D01*
X153090256Y-87117205D01*
X153259774Y-87003937D01*
X153403937Y-86859774D01*
X153517205Y-86690256D01*
X153595226Y-86501898D01*
X153635000Y-86301939D01*
X153635000Y-86098061D01*
X153595226Y-85898102D01*
X153517205Y-85709744D01*
X153403937Y-85540226D01*
X153259774Y-85396063D01*
X153090256Y-85282795D01*
X152901898Y-85204774D01*
X152701939Y-85165000D01*
X152498061Y-85165000D01*
X152298102Y-85204774D01*
X152109744Y-85282795D01*
X151940226Y-85396063D01*
X151796063Y-85540226D01*
X151682795Y-85709744D01*
X151604774Y-85898102D01*
X151565000Y-86098061D01*
X138059371Y-86098061D01*
X137973947Y-85970216D01*
X137829784Y-85826053D01*
X137660266Y-85712785D01*
X137471908Y-85634764D01*
X137271949Y-85594990D01*
X137068071Y-85594990D01*
X136868112Y-85634764D01*
X136679754Y-85712785D01*
X136631556Y-85744990D01*
X134213479Y-85744990D01*
X134170010Y-85740709D01*
X134126541Y-85744990D01*
X134126533Y-85744990D01*
X133996520Y-85757795D01*
X133829696Y-85808401D01*
X133675951Y-85890579D01*
X133574963Y-85973458D01*
X133574961Y-85973460D01*
X133541193Y-86001173D01*
X133513480Y-86034941D01*
X132804951Y-86743471D01*
X132771184Y-86771183D01*
X132743471Y-86804951D01*
X132743468Y-86804954D01*
X132660590Y-86905941D01*
X132578412Y-87059687D01*
X132527805Y-87226510D01*
X132510719Y-87400000D01*
X132515001Y-87443479D01*
X132515000Y-92261546D01*
X132482795Y-92309744D01*
X132404774Y-92498102D01*
X132365000Y-92698061D01*
X132365000Y-92901939D01*
X132404774Y-93101898D01*
X132482795Y-93290256D01*
X132515001Y-93338456D01*
X132515000Y-96051289D01*
X132409774Y-95946063D01*
X132240256Y-95832795D01*
X132210000Y-95820262D01*
X132210000Y-95723061D01*
X132170226Y-95523102D01*
X132092205Y-95334744D01*
X131978937Y-95165226D01*
X131884521Y-95070810D01*
X131909774Y-95053937D01*
X132053937Y-94909774D01*
X132167205Y-94740256D01*
X132245226Y-94551898D01*
X132285000Y-94351939D01*
X132285000Y-94148061D01*
X132245226Y-93948102D01*
X132167205Y-93759744D01*
X132053937Y-93590226D01*
X131963711Y-93500000D01*
X132053937Y-93409774D01*
X132167205Y-93240256D01*
X132245226Y-93051898D01*
X132285000Y-92851939D01*
X132285000Y-92648061D01*
X132245226Y-92448102D01*
X132167205Y-92259744D01*
X132053937Y-92090226D01*
X131909774Y-91946063D01*
X131740256Y-91832795D01*
X131551898Y-91754774D01*
X131351939Y-91715000D01*
X131148061Y-91715000D01*
X130948102Y-91754774D01*
X130759744Y-91832795D01*
X130590226Y-91946063D01*
X130446063Y-92090226D01*
X130332795Y-92259744D01*
X130254774Y-92448102D01*
X130245372Y-92495372D01*
X130198102Y-92504774D01*
X130009744Y-92582795D01*
X129840226Y-92696063D01*
X129696063Y-92840226D01*
X129582795Y-93009744D01*
X129504774Y-93198102D01*
X129465000Y-93398061D01*
X129465000Y-93601939D01*
X129504774Y-93801898D01*
X129582795Y-93990256D01*
X129696063Y-94159774D01*
X129786289Y-94250000D01*
X129696063Y-94340226D01*
X129582795Y-94509744D01*
X129504774Y-94698102D01*
X129465000Y-94898061D01*
X129465000Y-95101939D01*
X129504774Y-95301898D01*
X129582795Y-95490256D01*
X129696063Y-95659774D01*
X129840226Y-95803937D01*
X130009744Y-95917205D01*
X130149586Y-95975130D01*
X130179774Y-96126898D01*
X130257795Y-96315256D01*
X130371063Y-96484774D01*
X130515226Y-96628937D01*
X130684744Y-96742205D01*
X130715000Y-96754738D01*
X130715000Y-96851939D01*
X130716888Y-96861430D01*
X130590226Y-96946063D01*
X130446063Y-97090226D01*
X130332795Y-97259744D01*
X130254774Y-97448102D01*
X130215000Y-97648061D01*
X130215000Y-97851939D01*
X130254774Y-98051898D01*
X130332795Y-98240256D01*
X130446063Y-98409774D01*
X130590226Y-98553937D01*
X130759744Y-98667205D01*
X130948102Y-98745226D01*
X131148061Y-98785000D01*
X131351939Y-98785000D01*
X131551898Y-98745226D01*
X131740256Y-98667205D01*
X131909774Y-98553937D01*
X132053937Y-98409774D01*
X132167205Y-98240256D01*
X132245226Y-98051898D01*
X132285000Y-97851939D01*
X132285000Y-97648061D01*
X132283112Y-97638570D01*
X132409774Y-97553937D01*
X132515000Y-97448711D01*
X132515000Y-98661546D01*
X132482795Y-98709744D01*
X132404774Y-98898102D01*
X132365000Y-99098061D01*
X132365000Y-99301939D01*
X132404774Y-99501898D01*
X132482795Y-99690256D01*
X132596063Y-99859774D01*
X132740226Y-100003937D01*
X132909744Y-100117205D01*
X133098102Y-100195226D01*
X133298061Y-100235000D01*
X133501939Y-100235000D01*
X133701898Y-100195226D01*
X133715001Y-100189799D01*
X133715001Y-100851290D01*
X133659774Y-100796063D01*
X133490256Y-100682795D01*
X133301898Y-100604774D01*
X133101939Y-100565000D01*
X132898061Y-100565000D01*
X132698102Y-100604774D01*
X132509744Y-100682795D01*
X132340226Y-100796063D01*
X132237500Y-100898789D01*
X132134774Y-100796063D01*
X131965256Y-100682795D01*
X131776898Y-100604774D01*
X131576939Y-100565000D01*
X131373061Y-100565000D01*
X131173102Y-100604774D01*
X130984744Y-100682795D01*
X130931849Y-100718138D01*
X130909774Y-100696063D01*
X130740256Y-100582795D01*
X130551898Y-100504774D01*
X130351939Y-100465000D01*
X130148061Y-100465000D01*
X129948102Y-100504774D01*
X129759744Y-100582795D01*
X129590226Y-100696063D01*
X129446063Y-100840226D01*
X129332795Y-101009744D01*
X129278841Y-101139999D01*
X126937323Y-101139999D01*
X126900000Y-101136323D01*
X126862677Y-101139999D01*
X126862668Y-101139999D01*
X126751015Y-101150996D01*
X126607754Y-101194453D01*
X126475725Y-101265025D01*
X126360000Y-101359998D01*
X126336201Y-101388997D01*
X125726338Y-101998861D01*
X125697340Y-102022659D01*
X125673542Y-102051657D01*
X125673541Y-102051658D01*
X125602366Y-102138384D01*
X125531794Y-102270414D01*
X125488338Y-102413675D01*
X125473664Y-102562660D01*
X125477341Y-102599992D01*
X125477341Y-102808948D01*
X125433403Y-102852886D01*
X125320135Y-103022404D01*
X125242114Y-103210762D01*
X125202340Y-103410721D01*
X122757491Y-103410721D01*
X122782185Y-103160000D01*
X122753513Y-102868889D01*
X122668599Y-102588966D01*
X122530706Y-102330986D01*
X122345134Y-102104866D01*
X122119014Y-101919294D01*
X122064209Y-101890000D01*
X122119014Y-101860706D01*
X122345134Y-101675134D01*
X122530706Y-101449014D01*
X122668599Y-101191034D01*
X122753513Y-100911111D01*
X122782185Y-100620000D01*
X122753513Y-100328889D01*
X122668599Y-100048966D01*
X122530706Y-99790986D01*
X122345134Y-99564866D01*
X122119014Y-99379294D01*
X122054477Y-99344799D01*
X122171355Y-99275178D01*
X122387588Y-99080269D01*
X122561641Y-98846920D01*
X122632543Y-98698061D01*
X126365000Y-98698061D01*
X126365000Y-98901939D01*
X126404774Y-99101898D01*
X126482795Y-99290256D01*
X126596063Y-99459774D01*
X126740226Y-99603937D01*
X126909744Y-99717205D01*
X127098102Y-99795226D01*
X127298061Y-99835000D01*
X127501939Y-99835000D01*
X127701898Y-99795226D01*
X127890256Y-99717205D01*
X128059774Y-99603937D01*
X128100000Y-99563711D01*
X128140226Y-99603937D01*
X128309744Y-99717205D01*
X128498102Y-99795226D01*
X128698061Y-99835000D01*
X128901939Y-99835000D01*
X129101898Y-99795226D01*
X129290256Y-99717205D01*
X129459774Y-99603937D01*
X129603937Y-99459774D01*
X129717205Y-99290256D01*
X129795226Y-99101898D01*
X129835000Y-98901939D01*
X129835000Y-98698061D01*
X129795226Y-98498102D01*
X129717205Y-98309744D01*
X129603937Y-98140226D01*
X129459774Y-97996063D01*
X129290256Y-97882795D01*
X129101898Y-97804774D01*
X128901939Y-97765000D01*
X128698061Y-97765000D01*
X128498102Y-97804774D01*
X128309744Y-97882795D01*
X128140226Y-97996063D01*
X128100000Y-98036289D01*
X128059774Y-97996063D01*
X127890256Y-97882795D01*
X127701898Y-97804774D01*
X127501939Y-97765000D01*
X127298061Y-97765000D01*
X127098102Y-97804774D01*
X126909744Y-97882795D01*
X126740226Y-97996063D01*
X126596063Y-98140226D01*
X126482795Y-98309744D01*
X126404774Y-98498102D01*
X126365000Y-98698061D01*
X122632543Y-98698061D01*
X122686825Y-98584099D01*
X122731476Y-98436890D01*
X122610155Y-98207000D01*
X121417000Y-98207000D01*
X121417000Y-98227000D01*
X121163000Y-98227000D01*
X121163000Y-98207000D01*
X121143000Y-98207000D01*
X121143000Y-97953000D01*
X121163000Y-97953000D01*
X121163000Y-95667000D01*
X121417000Y-95667000D01*
X121417000Y-97953000D01*
X122610155Y-97953000D01*
X122731476Y-97723110D01*
X122686825Y-97575901D01*
X122561641Y-97313080D01*
X122387588Y-97079731D01*
X122171355Y-96884822D01*
X122045745Y-96810000D01*
X122171355Y-96735178D01*
X122387588Y-96540269D01*
X122561641Y-96306920D01*
X122686825Y-96044099D01*
X122731476Y-95896890D01*
X122610155Y-95667000D01*
X121417000Y-95667000D01*
X121163000Y-95667000D01*
X121143000Y-95667000D01*
X121143000Y-95413000D01*
X121163000Y-95413000D01*
X121163000Y-93127000D01*
X121417000Y-93127000D01*
X121417000Y-95413000D01*
X122610155Y-95413000D01*
X122731476Y-95183110D01*
X122686825Y-95035901D01*
X122561641Y-94773080D01*
X122387588Y-94539731D01*
X122171355Y-94344822D01*
X122045745Y-94270000D01*
X122171355Y-94195178D01*
X122387588Y-94000269D01*
X122561641Y-93766920D01*
X122686825Y-93504099D01*
X122731476Y-93356890D01*
X122610155Y-93127000D01*
X121417000Y-93127000D01*
X121163000Y-93127000D01*
X121143000Y-93127000D01*
X121143000Y-92873000D01*
X121163000Y-92873000D01*
X121163000Y-91679186D01*
X121417000Y-91679186D01*
X121417000Y-92873000D01*
X122610155Y-92873000D01*
X122731476Y-92643110D01*
X122686825Y-92495901D01*
X122561641Y-92233080D01*
X122387588Y-91999731D01*
X122171355Y-91804822D01*
X121921252Y-91655843D01*
X121646891Y-91558519D01*
X121417000Y-91679186D01*
X121163000Y-91679186D01*
X120933109Y-91558519D01*
X120658748Y-91655843D01*
X120408645Y-91804822D01*
X120212498Y-91981626D01*
X120189502Y-91905820D01*
X120130537Y-91795506D01*
X120051185Y-91698815D01*
X119954494Y-91619463D01*
X119844180Y-91560498D01*
X119724482Y-91524188D01*
X119600000Y-91511928D01*
X117900000Y-91511928D01*
X117775518Y-91524188D01*
X117655820Y-91560498D01*
X117545506Y-91619463D01*
X117448815Y-91698815D01*
X117369463Y-91795506D01*
X117310498Y-91905820D01*
X117274188Y-92025518D01*
X117261928Y-92150000D01*
X117261928Y-93850000D01*
X117274188Y-93974482D01*
X117310498Y-94094180D01*
X117369463Y-94204494D01*
X117448815Y-94301185D01*
X117545506Y-94380537D01*
X117655820Y-94439502D01*
X117724687Y-94460393D01*
X117694866Y-94484866D01*
X117509294Y-94710986D01*
X117371401Y-94968966D01*
X117286487Y-95248889D01*
X117257815Y-95540000D01*
X116377000Y-95540000D01*
X116377000Y-85122285D01*
X117415000Y-85122285D01*
X117415000Y-85877715D01*
X117562377Y-86618628D01*
X117851467Y-87316554D01*
X118271161Y-87944670D01*
X118805330Y-88478839D01*
X119433446Y-88898533D01*
X120131372Y-89187623D01*
X120872285Y-89335000D01*
X121627715Y-89335000D01*
X122368628Y-89187623D01*
X123066554Y-88898533D01*
X123694670Y-88478839D01*
X124228839Y-87944670D01*
X124648533Y-87316554D01*
X124825531Y-86889242D01*
X124940226Y-87003937D01*
X125083995Y-87100000D01*
X124940226Y-87196063D01*
X124796063Y-87340226D01*
X124682795Y-87509744D01*
X124604774Y-87698102D01*
X124565000Y-87898061D01*
X124565000Y-88101939D01*
X124604774Y-88301898D01*
X124682795Y-88490256D01*
X124796063Y-88659774D01*
X124940226Y-88803937D01*
X125109744Y-88917205D01*
X125298102Y-88995226D01*
X125498061Y-89035000D01*
X125701939Y-89035000D01*
X125901898Y-88995226D01*
X126090256Y-88917205D01*
X126259774Y-88803937D01*
X126403937Y-88659774D01*
X126517205Y-88490256D01*
X126595226Y-88301898D01*
X126635000Y-88101939D01*
X126635000Y-87898061D01*
X126595226Y-87698102D01*
X126517205Y-87509744D01*
X126403937Y-87340226D01*
X126259774Y-87196063D01*
X126116005Y-87100000D01*
X126259774Y-87003937D01*
X126403937Y-86859774D01*
X126517205Y-86690256D01*
X126595226Y-86501898D01*
X126635000Y-86301939D01*
X126635000Y-86098061D01*
X126595226Y-85898102D01*
X126517205Y-85709744D01*
X126403937Y-85540226D01*
X126259774Y-85396063D01*
X126090256Y-85282795D01*
X125901898Y-85204774D01*
X125701939Y-85165000D01*
X125498061Y-85165000D01*
X125298102Y-85204774D01*
X125109744Y-85282795D01*
X125085000Y-85299328D01*
X125085000Y-85122285D01*
X157415000Y-85122285D01*
X157415000Y-85877715D01*
X157562377Y-86618628D01*
X157851467Y-87316554D01*
X158271161Y-87944670D01*
X158805330Y-88478839D01*
X159433446Y-88898533D01*
X160131372Y-89187623D01*
X160872285Y-89335000D01*
X161627715Y-89335000D01*
X162368628Y-89187623D01*
X163066554Y-88898533D01*
X163694670Y-88478839D01*
X164228839Y-87944670D01*
X164648533Y-87316554D01*
X164937623Y-86618628D01*
X165085000Y-85877715D01*
X165085000Y-85122285D01*
X164937623Y-84381372D01*
X164648533Y-83683446D01*
X164228839Y-83055330D01*
X163694670Y-82521161D01*
X163066554Y-82101467D01*
X162368628Y-81812377D01*
X161627715Y-81665000D01*
X160872285Y-81665000D01*
X160131372Y-81812377D01*
X159433446Y-82101467D01*
X158805330Y-82521161D01*
X158271161Y-83055330D01*
X157851467Y-83683446D01*
X157562377Y-84381372D01*
X157415000Y-85122285D01*
X125085000Y-85122285D01*
X124937623Y-84381372D01*
X124648533Y-83683446D01*
X124228839Y-83055330D01*
X123694670Y-82521161D01*
X123066554Y-82101467D01*
X122368628Y-81812377D01*
X121627715Y-81665000D01*
X120872285Y-81665000D01*
X120131372Y-81812377D01*
X119433446Y-82101467D01*
X118805330Y-82521161D01*
X118271161Y-83055330D01*
X117851467Y-83683446D01*
X117562377Y-84381372D01*
X117415000Y-85122285D01*
X116377000Y-85122285D01*
X116377000Y-82616063D01*
X116388662Y-82557435D01*
X116421869Y-82507737D01*
X118257737Y-80671869D01*
X118307435Y-80638662D01*
X118366063Y-80627000D01*
X164133937Y-80627000D01*
X164192565Y-80638662D01*
M02*
