G04 #@! TF.GenerationSoftware,KiCad,Pcbnew,(5.1.0)-1*
G04 #@! TF.CreationDate,2019-05-12T16:35:28-05:00*
G04 #@! TF.ProjectId,GPIODriverVer1,4750494f-4472-4697-9665-72566572312e,rev?*
G04 #@! TF.SameCoordinates,Original*
G04 #@! TF.FileFunction,Copper,L2,Inr*
G04 #@! TF.FilePolarity,Positive*
%FSLAX46Y46*%
G04 Gerber Fmt 4.6, Leading zero omitted, Abs format (unit mm)*
G04 Created by KiCad (PCBNEW (5.1.0)-1) date 2019-05-12 16:35:28*
%MOMM*%
%LPD*%
G04 APERTURE LIST*
%ADD10C,0.800000*%
%ADD11C,6.400000*%
%ADD12O,1.700000X1.700000*%
%ADD13R,1.700000X1.700000*%
%ADD14C,0.250000*%
G04 APERTURE END LIST*
D10*
X122947056Y-123802944D03*
X121250000Y-123100000D03*
X119552944Y-123802944D03*
X118850000Y-125500000D03*
X119552944Y-127197056D03*
X121250000Y-127900000D03*
X122947056Y-127197056D03*
X123650000Y-125500000D03*
D11*
X121250000Y-125500000D03*
D10*
X162947056Y-123802944D03*
X161250000Y-123100000D03*
X159552944Y-123802944D03*
X158850000Y-125500000D03*
X159552944Y-127197056D03*
X161250000Y-127900000D03*
X162947056Y-127197056D03*
X163650000Y-125500000D03*
D11*
X161250000Y-125500000D03*
D10*
X122947056Y-83802944D03*
X121250000Y-83100000D03*
X119552944Y-83802944D03*
X118850000Y-85500000D03*
X119552944Y-87197056D03*
X121250000Y-87900000D03*
X122947056Y-87197056D03*
X123650000Y-85500000D03*
D11*
X121250000Y-85500000D03*
D10*
X162947056Y-83802944D03*
X161250000Y-83100000D03*
X159552944Y-83802944D03*
X158850000Y-85500000D03*
X159552944Y-87197056D03*
X161250000Y-87900000D03*
X162947056Y-87197056D03*
X163650000Y-85500000D03*
D11*
X161250000Y-85500000D03*
D12*
X121290000Y-118400000D03*
X118750000Y-118400000D03*
X121290000Y-115860000D03*
X118750000Y-115860000D03*
X121290000Y-113320000D03*
X118750000Y-113320000D03*
X121290000Y-110780000D03*
X118750000Y-110780000D03*
X121290000Y-108240000D03*
X118750000Y-108240000D03*
X121290000Y-105700000D03*
X118750000Y-105700000D03*
X121290000Y-103160000D03*
X118750000Y-103160000D03*
X121290000Y-100620000D03*
X118750000Y-100620000D03*
X121290000Y-98080000D03*
X118750000Y-98080000D03*
X121290000Y-95540000D03*
X118750000Y-95540000D03*
X121290000Y-93000000D03*
D13*
X118750000Y-93000000D03*
X164750000Y-96340000D03*
D12*
X164750000Y-98880000D03*
X164750000Y-101420000D03*
X164750000Y-103960000D03*
X164750000Y-106500000D03*
X164750000Y-109040000D03*
X164750000Y-111580000D03*
X164750000Y-114120000D03*
D10*
X142750000Y-102750000D03*
X142750000Y-108250000D03*
X142750000Y-113750000D03*
X142750000Y-119250000D03*
X142750000Y-97250000D03*
X130250000Y-100000000D03*
X133250000Y-100500000D03*
X130250000Y-106000000D03*
X130175000Y-111075000D03*
X133325000Y-116925000D03*
X130175000Y-116925000D03*
X142750000Y-86250000D03*
X159750000Y-99000000D03*
X159750000Y-101500000D03*
X159750000Y-104000000D03*
X159750000Y-106500000D03*
X159750000Y-109000000D03*
X159750000Y-111500000D03*
X159750000Y-114000000D03*
X159750000Y-96500000D03*
X130250000Y-98000000D03*
X150750000Y-108250000D03*
X142749998Y-124750000D03*
X128600000Y-119200000D03*
X128400000Y-125200000D03*
X148600000Y-88450000D03*
X148400000Y-82300000D03*
X127800000Y-82200000D03*
X130800000Y-86800000D03*
X131965657Y-112027388D03*
X142749590Y-91730026D03*
X156237347Y-95012653D03*
X155500000Y-98012653D03*
X155500000Y-100750000D03*
X155749986Y-103250000D03*
X155500000Y-105750000D03*
X155500000Y-108250000D03*
X155487347Y-111237347D03*
X156500000Y-115500000D03*
X133400000Y-99200000D03*
X133400000Y-92800000D03*
X133249999Y-108400000D03*
X142800000Y-100000000D03*
X137170010Y-86629990D03*
X152600000Y-86200000D03*
X152200000Y-91999964D03*
X125600000Y-86200000D03*
X151600000Y-95000000D03*
X125600000Y-88000000D03*
X151600000Y-100600000D03*
X134000000Y-123000000D03*
X149025032Y-106000000D03*
X151600000Y-114000000D03*
X152600000Y-122400000D03*
X146600000Y-128200000D03*
X151400000Y-117600000D03*
X134000000Y-128400000D03*
X151625792Y-124773755D03*
X142750000Y-87250000D03*
X136750000Y-93500000D03*
X131250000Y-92750000D03*
X142800000Y-93199978D03*
X142750000Y-98250000D03*
X130500000Y-93500000D03*
X142750000Y-103750000D03*
X131250000Y-94250000D03*
X142750000Y-109250000D03*
X130500000Y-95000000D03*
X142750000Y-114750000D03*
X131175000Y-95825000D03*
X142750000Y-120250000D03*
X131750000Y-96750000D03*
X131250000Y-97750000D03*
X142750000Y-125750000D03*
X130250000Y-101500000D03*
X126237340Y-103512660D03*
X126250000Y-105500000D03*
X133250000Y-103500000D03*
X126250000Y-107000000D03*
X133250000Y-105000000D03*
X126250000Y-108500000D03*
X133250000Y-106000000D03*
X127250000Y-110999973D03*
X132647224Y-112894449D03*
X125750000Y-114500000D03*
X127250000Y-112000014D03*
X126250000Y-117500000D03*
X133000000Y-114600000D03*
X146600000Y-105800000D03*
X146600000Y-100000000D03*
X149750000Y-100000000D03*
X148200000Y-100000000D03*
X137000000Y-92200000D03*
X140400000Y-92200000D03*
X137800000Y-91000000D03*
X134400000Y-92000000D03*
X137800000Y-89800000D03*
X135800000Y-89800000D03*
X136200000Y-120800000D03*
X132200000Y-116000000D03*
X136200000Y-126800000D03*
X127400000Y-98800000D03*
X131800000Y-102775000D03*
X131799999Y-104725000D03*
X130600000Y-104800000D03*
X130200000Y-107200000D03*
X135000000Y-108600000D03*
X128800000Y-98800000D03*
X131475000Y-101600000D03*
X136200000Y-112800000D03*
X137000000Y-113600000D03*
X137000000Y-107200000D03*
X136400000Y-114800000D03*
X136400000Y-116000000D03*
X133000000Y-101600000D03*
X133599998Y-109800000D03*
D14*
X145200000Y-95000000D02*
X151600000Y-95000000D01*
X125600000Y-86200000D02*
X130326998Y-86200000D01*
X131726998Y-84800000D02*
X143400000Y-84800000D01*
X143400000Y-84800000D02*
X144400000Y-85800000D01*
X144400000Y-85800000D02*
X144400000Y-94200000D01*
X130326998Y-86200000D02*
X131726998Y-84800000D01*
X144400000Y-94200000D02*
X145200000Y-95000000D01*
X151600000Y-100400000D02*
X151600000Y-100600000D01*
X133275001Y-85524999D02*
X130800000Y-88000000D01*
X130800000Y-88000000D02*
X125600000Y-88000000D01*
X143124999Y-85524999D02*
X133275001Y-85524999D01*
X151600000Y-100034315D02*
X150765685Y-99200000D01*
X151600000Y-100600000D02*
X151600000Y-100034315D01*
X150765685Y-99200000D02*
X144400000Y-99200000D01*
X144400000Y-99200000D02*
X143800000Y-98600000D01*
X143800000Y-98600000D02*
X143800000Y-86200000D01*
X143800000Y-86200000D02*
X143124999Y-85524999D01*
X134000000Y-123000000D02*
X134000000Y-127197905D01*
X134000000Y-127197905D02*
X135202095Y-128400000D01*
X149425031Y-127374969D02*
X149425031Y-106399999D01*
X149425031Y-106399999D02*
X149025032Y-106000000D01*
X149400000Y-127400000D02*
X149425031Y-127374969D01*
X145326998Y-128400000D02*
X146326998Y-127400000D01*
X146326998Y-127400000D02*
X149400000Y-127400000D01*
X135202095Y-128400000D02*
X145326998Y-128400000D01*
X151600000Y-114000000D02*
X152600000Y-115000000D01*
X152600000Y-121834315D02*
X152600000Y-122400000D01*
X152600000Y-115000000D02*
X152600000Y-121834315D01*
X151000000Y-117600000D02*
X151400000Y-117600000D01*
X150600000Y-118000000D02*
X151000000Y-117600000D01*
X150600000Y-127600000D02*
X150600000Y-118000000D01*
X146600000Y-128200000D02*
X150000000Y-128200000D01*
X150000000Y-128200000D02*
X150600000Y-127600000D01*
X151600000Y-124799547D02*
X151625792Y-124773755D01*
X134000000Y-128400000D02*
X134565685Y-128400000D01*
X134565685Y-128400000D02*
X135090686Y-128925001D01*
X135090686Y-128925001D02*
X151274999Y-128925001D01*
X151274999Y-128925001D02*
X151600000Y-128600000D01*
X151600000Y-128600000D02*
X151600000Y-124799547D01*
X142184315Y-87250000D02*
X141750000Y-87684315D01*
X142750000Y-87250000D02*
X142184315Y-87250000D01*
X141750000Y-87684315D02*
X141750000Y-92750000D01*
X141000000Y-93500000D02*
X136750000Y-93500000D01*
X141750000Y-92750000D02*
X141000000Y-93500000D01*
X131250000Y-92750000D02*
X132150000Y-92750000D01*
X132150000Y-92750000D02*
X133625001Y-94225001D01*
X133625001Y-94225001D02*
X141774977Y-94225001D01*
X142400001Y-93599977D02*
X142800000Y-93199978D01*
X141774977Y-94225001D02*
X142400001Y-93599977D01*
X142184315Y-98250000D02*
X142000000Y-98065685D01*
X142750000Y-98250000D02*
X142184315Y-98250000D01*
X142000000Y-98065685D02*
X142000000Y-95250000D01*
X132100000Y-93500000D02*
X130500000Y-93500000D01*
X142000000Y-95250000D02*
X141425011Y-94675011D01*
X141425011Y-94675011D02*
X133275011Y-94675011D01*
X133275011Y-94675011D02*
X132100000Y-93500000D01*
X142184315Y-103750000D02*
X141500000Y-103065685D01*
X142750000Y-103750000D02*
X142184315Y-103750000D01*
X141500000Y-103065685D02*
X141500000Y-95500000D01*
X141500000Y-95500000D02*
X141125021Y-95125021D01*
X132050000Y-94250000D02*
X131250000Y-94250000D01*
X141125021Y-95125021D02*
X132925021Y-95125021D01*
X132925021Y-95125021D02*
X132050000Y-94250000D01*
X132000000Y-95000000D02*
X130500000Y-95000000D01*
X141750000Y-109250000D02*
X141049990Y-108549990D01*
X142750000Y-109250000D02*
X141750000Y-109250000D01*
X141049990Y-108549990D02*
X141049990Y-96049990D01*
X141049990Y-96049990D02*
X140575031Y-95575031D01*
X140575031Y-95575031D02*
X132575031Y-95575031D01*
X132575031Y-95575031D02*
X132000000Y-95000000D01*
X141250000Y-114750000D02*
X140500000Y-114000000D01*
X131740685Y-95825000D02*
X131175000Y-95825000D01*
X142750000Y-114750000D02*
X141250000Y-114750000D01*
X140500000Y-114000000D02*
X140500000Y-96750000D01*
X140500000Y-96750000D02*
X140000000Y-96250000D01*
X132025000Y-95825000D02*
X131740685Y-95825000D01*
X140000000Y-96250000D02*
X132450000Y-96250000D01*
X132450000Y-96250000D02*
X132025000Y-95825000D01*
X140750000Y-120250000D02*
X142750000Y-120250000D01*
X140000000Y-119500000D02*
X140750000Y-120250000D01*
X140000000Y-97250000D02*
X140000000Y-119500000D01*
X131750000Y-96750000D02*
X139500000Y-96750000D01*
X139500000Y-96750000D02*
X140000000Y-97250000D01*
X138500000Y-97750000D02*
X131250000Y-97750000D01*
X139549990Y-98799990D02*
X138500000Y-97750000D01*
X139549990Y-125049990D02*
X139549990Y-98799990D01*
X142750000Y-125750000D02*
X140250000Y-125750000D01*
X140250000Y-125750000D02*
X139549990Y-125049990D01*
X130750000Y-108500000D02*
X132850001Y-106399999D01*
X132850001Y-106399999D02*
X133250000Y-106000000D01*
X126250000Y-108500000D02*
X130750000Y-108500000D01*
X146600000Y-105234315D02*
X146600000Y-100000000D01*
X146600000Y-105800000D02*
X146600000Y-105234315D01*
X149750000Y-100000000D02*
X148200000Y-100000000D01*
X140400000Y-92200000D02*
X137000000Y-92200000D01*
X137800000Y-91000000D02*
X134600000Y-91000000D01*
X134400000Y-91200000D02*
X134400000Y-92000000D01*
X134600000Y-91000000D02*
X134400000Y-91200000D01*
X137800000Y-89800000D02*
X135800000Y-89800000D01*
X135634315Y-120800000D02*
X132200000Y-117365685D01*
X136200000Y-120800000D02*
X135634315Y-120800000D01*
X132200000Y-116565685D02*
X132200000Y-116000000D01*
X132200000Y-117365685D02*
X132200000Y-116565685D01*
X127400000Y-103800000D02*
X127400000Y-98800000D01*
X126962339Y-104237661D02*
X127400000Y-103800000D01*
X124600000Y-106076998D02*
X126439337Y-104237661D01*
X136200000Y-126800000D02*
X135450010Y-126050010D01*
X135450010Y-126050010D02*
X135450010Y-123273012D01*
X135450010Y-123273012D02*
X128600000Y-116423002D01*
X126439337Y-104237661D02*
X126962339Y-104237661D01*
X128600000Y-116423002D02*
X128600000Y-116200000D01*
X128600000Y-116200000D02*
X124600000Y-112200000D01*
X124600000Y-112200000D02*
X124600000Y-106076998D01*
X128800000Y-99365685D02*
X128800000Y-98800000D01*
X128800000Y-106365685D02*
X128800000Y-99365685D01*
X129634315Y-107200000D02*
X128800000Y-106365685D01*
X130200000Y-107200000D02*
X129634315Y-107200000D01*
X136200000Y-103000000D02*
X136200000Y-112800000D01*
X135600000Y-102400000D02*
X136200000Y-103000000D01*
X132726998Y-102400000D02*
X135600000Y-102400000D01*
X132326997Y-101999999D02*
X132726998Y-102400000D01*
X131475000Y-101600000D02*
X131874999Y-101999999D01*
X131874999Y-101999999D02*
X132326997Y-101999999D01*
X137000000Y-113600000D02*
X137000000Y-107200000D01*
X133200000Y-101400000D02*
X133000000Y-101600000D01*
X135600000Y-101400000D02*
X133200000Y-101400000D01*
X137800000Y-103600000D02*
X135600000Y-101400000D01*
X136400000Y-116000000D02*
X137800000Y-114600000D01*
X137800000Y-114600000D02*
X137800000Y-103600000D01*
M02*
