G04 #@! TF.GenerationSoftware,KiCad,Pcbnew,(5.1.0)-1*
G04 #@! TF.CreationDate,2019-05-16T12:54:04-05:00*
G04 #@! TF.ProjectId,GPIODriverVer1,4750494f-4472-4697-9665-72566572312e,rev?*
G04 #@! TF.SameCoordinates,Original*
G04 #@! TF.FileFunction,Soldermask,Bot*
G04 #@! TF.FilePolarity,Negative*
%FSLAX46Y46*%
G04 Gerber Fmt 4.6, Leading zero omitted, Abs format (unit mm)*
G04 Created by KiCad (PCBNEW (5.1.0)-1) date 2019-05-16 12:54:04*
%MOMM*%
%LPD*%
G04 APERTURE LIST*
%ADD10C,0.100000*%
G04 APERTURE END LIST*
D10*
G36*
X131631938Y-128291716D02*
G01*
X131652557Y-128297971D01*
X131671553Y-128308124D01*
X131688208Y-128321792D01*
X131701876Y-128338447D01*
X131712029Y-128357443D01*
X131718284Y-128378062D01*
X131721000Y-128405640D01*
X131721000Y-128864360D01*
X131718284Y-128891938D01*
X131712029Y-128912557D01*
X131701876Y-128931553D01*
X131688208Y-128948208D01*
X131671553Y-128961876D01*
X131652557Y-128972029D01*
X131631938Y-128978284D01*
X131604360Y-128981000D01*
X131095640Y-128981000D01*
X131068062Y-128978284D01*
X131047443Y-128972029D01*
X131028447Y-128961876D01*
X131011792Y-128948208D01*
X130998124Y-128931553D01*
X130987971Y-128912557D01*
X130981716Y-128891938D01*
X130979000Y-128864360D01*
X130979000Y-128405640D01*
X130981716Y-128378062D01*
X130987971Y-128357443D01*
X130998124Y-128338447D01*
X131011792Y-128321792D01*
X131028447Y-128308124D01*
X131047443Y-128297971D01*
X131068062Y-128291716D01*
X131095640Y-128289000D01*
X131604360Y-128289000D01*
X131631938Y-128291716D01*
X131631938Y-128291716D01*
G37*
G36*
X150331938Y-128241716D02*
G01*
X150352557Y-128247971D01*
X150371553Y-128258124D01*
X150388208Y-128271792D01*
X150401876Y-128288447D01*
X150412029Y-128307443D01*
X150418284Y-128328062D01*
X150421000Y-128355640D01*
X150421000Y-128814360D01*
X150418284Y-128841938D01*
X150412029Y-128862557D01*
X150401876Y-128881553D01*
X150388208Y-128898208D01*
X150371553Y-128911876D01*
X150352557Y-128922029D01*
X150331938Y-128928284D01*
X150304360Y-128931000D01*
X149795640Y-128931000D01*
X149768062Y-128928284D01*
X149747443Y-128922029D01*
X149728447Y-128911876D01*
X149711792Y-128898208D01*
X149698124Y-128881553D01*
X149687971Y-128862557D01*
X149681716Y-128841938D01*
X149679000Y-128814360D01*
X149679000Y-128355640D01*
X149681716Y-128328062D01*
X149687971Y-128307443D01*
X149698124Y-128288447D01*
X149711792Y-128271792D01*
X149728447Y-128258124D01*
X149747443Y-128247971D01*
X149768062Y-128241716D01*
X149795640Y-128239000D01*
X150304360Y-128239000D01*
X150331938Y-128241716D01*
X150331938Y-128241716D01*
G37*
G36*
X121884239Y-122311467D02*
G01*
X122198282Y-122373934D01*
X122789926Y-122619001D01*
X123322392Y-122974784D01*
X123775216Y-123427608D01*
X124130999Y-123960074D01*
X124376066Y-124551718D01*
X124376066Y-124551719D01*
X124501000Y-125179803D01*
X124501000Y-125820197D01*
X124450825Y-126072443D01*
X124376066Y-126448282D01*
X124130999Y-127039926D01*
X123775216Y-127572392D01*
X123322392Y-128025216D01*
X122789926Y-128380999D01*
X122198282Y-128626066D01*
X121884239Y-128688533D01*
X121570197Y-128751000D01*
X120929803Y-128751000D01*
X120615761Y-128688533D01*
X120301718Y-128626066D01*
X119710074Y-128380999D01*
X119177608Y-128025216D01*
X118724784Y-127572392D01*
X118369001Y-127039926D01*
X118123934Y-126448282D01*
X118049175Y-126072443D01*
X117999000Y-125820197D01*
X117999000Y-125179803D01*
X118123934Y-124551719D01*
X118123934Y-124551718D01*
X118369001Y-123960074D01*
X118724784Y-123427608D01*
X119177608Y-122974784D01*
X119710074Y-122619001D01*
X120301718Y-122373934D01*
X120615761Y-122311467D01*
X120929803Y-122249000D01*
X121570197Y-122249000D01*
X121884239Y-122311467D01*
X121884239Y-122311467D01*
G37*
G36*
X161884239Y-122311467D02*
G01*
X162198282Y-122373934D01*
X162789926Y-122619001D01*
X163322392Y-122974784D01*
X163775216Y-123427608D01*
X164130999Y-123960074D01*
X164376066Y-124551718D01*
X164376066Y-124551719D01*
X164501000Y-125179803D01*
X164501000Y-125820197D01*
X164450825Y-126072443D01*
X164376066Y-126448282D01*
X164130999Y-127039926D01*
X163775216Y-127572392D01*
X163322392Y-128025216D01*
X162789926Y-128380999D01*
X162198282Y-128626066D01*
X161884239Y-128688533D01*
X161570197Y-128751000D01*
X160929803Y-128751000D01*
X160615761Y-128688533D01*
X160301718Y-128626066D01*
X159710074Y-128380999D01*
X159177608Y-128025216D01*
X158724784Y-127572392D01*
X158369001Y-127039926D01*
X158123934Y-126448282D01*
X158049175Y-126072443D01*
X157999000Y-125820197D01*
X157999000Y-125179803D01*
X158123934Y-124551719D01*
X158123934Y-124551718D01*
X158369001Y-123960074D01*
X158724784Y-123427608D01*
X159177608Y-122974784D01*
X159710074Y-122619001D01*
X160301718Y-122373934D01*
X160615761Y-122311467D01*
X160929803Y-122249000D01*
X161570197Y-122249000D01*
X161884239Y-122311467D01*
X161884239Y-122311467D01*
G37*
G36*
X136576938Y-127781716D02*
G01*
X136597557Y-127787971D01*
X136616553Y-127798124D01*
X136633208Y-127811792D01*
X136646876Y-127828447D01*
X136657029Y-127847443D01*
X136663284Y-127868062D01*
X136666000Y-127895640D01*
X136666000Y-128404360D01*
X136663284Y-128431938D01*
X136657029Y-128452557D01*
X136646876Y-128471553D01*
X136633208Y-128488208D01*
X136616553Y-128501876D01*
X136597557Y-128512029D01*
X136576938Y-128518284D01*
X136549360Y-128521000D01*
X136090640Y-128521000D01*
X136063062Y-128518284D01*
X136042443Y-128512029D01*
X136023447Y-128501876D01*
X136006792Y-128488208D01*
X135993124Y-128471553D01*
X135982971Y-128452557D01*
X135976716Y-128431938D01*
X135974000Y-128404360D01*
X135974000Y-127895640D01*
X135976716Y-127868062D01*
X135982971Y-127847443D01*
X135993124Y-127828447D01*
X136006792Y-127811792D01*
X136023447Y-127798124D01*
X136042443Y-127787971D01*
X136063062Y-127781716D01*
X136090640Y-127779000D01*
X136549360Y-127779000D01*
X136576938Y-127781716D01*
X136576938Y-127781716D01*
G37*
G36*
X135606938Y-127781716D02*
G01*
X135627557Y-127787971D01*
X135646553Y-127798124D01*
X135663208Y-127811792D01*
X135676876Y-127828447D01*
X135687029Y-127847443D01*
X135693284Y-127868062D01*
X135696000Y-127895640D01*
X135696000Y-128404360D01*
X135693284Y-128431938D01*
X135687029Y-128452557D01*
X135676876Y-128471553D01*
X135663208Y-128488208D01*
X135646553Y-128501876D01*
X135627557Y-128512029D01*
X135606938Y-128518284D01*
X135579360Y-128521000D01*
X135120640Y-128521000D01*
X135093062Y-128518284D01*
X135072443Y-128512029D01*
X135053447Y-128501876D01*
X135036792Y-128488208D01*
X135023124Y-128471553D01*
X135012971Y-128452557D01*
X135006716Y-128431938D01*
X135004000Y-128404360D01*
X135004000Y-127895640D01*
X135006716Y-127868062D01*
X135012971Y-127847443D01*
X135023124Y-127828447D01*
X135036792Y-127811792D01*
X135053447Y-127798124D01*
X135072443Y-127787971D01*
X135093062Y-127781716D01*
X135120640Y-127779000D01*
X135579360Y-127779000D01*
X135606938Y-127781716D01*
X135606938Y-127781716D01*
G37*
G36*
X154321938Y-127731716D02*
G01*
X154342557Y-127737971D01*
X154361553Y-127748124D01*
X154378208Y-127761792D01*
X154391876Y-127778447D01*
X154402029Y-127797443D01*
X154408284Y-127818062D01*
X154411000Y-127845640D01*
X154411000Y-128354360D01*
X154408284Y-128381938D01*
X154402029Y-128402557D01*
X154391876Y-128421553D01*
X154378208Y-128438208D01*
X154361553Y-128451876D01*
X154342557Y-128462029D01*
X154321938Y-128468284D01*
X154294360Y-128471000D01*
X153835640Y-128471000D01*
X153808062Y-128468284D01*
X153787443Y-128462029D01*
X153768447Y-128451876D01*
X153751792Y-128438208D01*
X153738124Y-128421553D01*
X153727971Y-128402557D01*
X153721716Y-128381938D01*
X153719000Y-128354360D01*
X153719000Y-127845640D01*
X153721716Y-127818062D01*
X153727971Y-127797443D01*
X153738124Y-127778447D01*
X153751792Y-127761792D01*
X153768447Y-127748124D01*
X153787443Y-127737971D01*
X153808062Y-127731716D01*
X153835640Y-127729000D01*
X154294360Y-127729000D01*
X154321938Y-127731716D01*
X154321938Y-127731716D01*
G37*
G36*
X155291938Y-127731716D02*
G01*
X155312557Y-127737971D01*
X155331553Y-127748124D01*
X155348208Y-127761792D01*
X155361876Y-127778447D01*
X155372029Y-127797443D01*
X155378284Y-127818062D01*
X155381000Y-127845640D01*
X155381000Y-128354360D01*
X155378284Y-128381938D01*
X155372029Y-128402557D01*
X155361876Y-128421553D01*
X155348208Y-128438208D01*
X155331553Y-128451876D01*
X155312557Y-128462029D01*
X155291938Y-128468284D01*
X155264360Y-128471000D01*
X154805640Y-128471000D01*
X154778062Y-128468284D01*
X154757443Y-128462029D01*
X154738447Y-128451876D01*
X154721792Y-128438208D01*
X154708124Y-128421553D01*
X154697971Y-128402557D01*
X154691716Y-128381938D01*
X154689000Y-128354360D01*
X154689000Y-127845640D01*
X154691716Y-127818062D01*
X154697971Y-127797443D01*
X154708124Y-127778447D01*
X154721792Y-127761792D01*
X154738447Y-127748124D01*
X154757443Y-127737971D01*
X154778062Y-127731716D01*
X154805640Y-127729000D01*
X155264360Y-127729000D01*
X155291938Y-127731716D01*
X155291938Y-127731716D01*
G37*
G36*
X133351000Y-128301000D02*
G01*
X132349000Y-128301000D01*
X132349000Y-127399000D01*
X133351000Y-127399000D01*
X133351000Y-128301000D01*
X133351000Y-128301000D01*
G37*
G36*
X130351000Y-128301000D02*
G01*
X129349000Y-128301000D01*
X129349000Y-127399000D01*
X130351000Y-127399000D01*
X130351000Y-128301000D01*
X130351000Y-128301000D01*
G37*
G36*
X149051000Y-128251000D02*
G01*
X148049000Y-128251000D01*
X148049000Y-127349000D01*
X149051000Y-127349000D01*
X149051000Y-128251000D01*
X149051000Y-128251000D01*
G37*
G36*
X152051000Y-128251000D02*
G01*
X151049000Y-128251000D01*
X151049000Y-127349000D01*
X152051000Y-127349000D01*
X152051000Y-128251000D01*
X152051000Y-128251000D01*
G37*
G36*
X131631938Y-127321716D02*
G01*
X131652557Y-127327971D01*
X131671553Y-127338124D01*
X131688208Y-127351792D01*
X131701876Y-127368447D01*
X131712029Y-127387443D01*
X131718284Y-127408062D01*
X131721000Y-127435640D01*
X131721000Y-127894360D01*
X131718284Y-127921938D01*
X131712029Y-127942557D01*
X131701876Y-127961553D01*
X131688208Y-127978208D01*
X131671553Y-127991876D01*
X131652557Y-128002029D01*
X131631938Y-128008284D01*
X131604360Y-128011000D01*
X131095640Y-128011000D01*
X131068062Y-128008284D01*
X131047443Y-128002029D01*
X131028447Y-127991876D01*
X131011792Y-127978208D01*
X130998124Y-127961553D01*
X130987971Y-127942557D01*
X130981716Y-127921938D01*
X130979000Y-127894360D01*
X130979000Y-127435640D01*
X130981716Y-127408062D01*
X130987971Y-127387443D01*
X130998124Y-127368447D01*
X131011792Y-127351792D01*
X131028447Y-127338124D01*
X131047443Y-127327971D01*
X131068062Y-127321716D01*
X131095640Y-127319000D01*
X131604360Y-127319000D01*
X131631938Y-127321716D01*
X131631938Y-127321716D01*
G37*
G36*
X150331938Y-127271716D02*
G01*
X150352557Y-127277971D01*
X150371553Y-127288124D01*
X150388208Y-127301792D01*
X150401876Y-127318447D01*
X150412029Y-127337443D01*
X150418284Y-127358062D01*
X150421000Y-127385640D01*
X150421000Y-127844360D01*
X150418284Y-127871938D01*
X150412029Y-127892557D01*
X150401876Y-127911553D01*
X150388208Y-127928208D01*
X150371553Y-127941876D01*
X150352557Y-127952029D01*
X150331938Y-127958284D01*
X150304360Y-127961000D01*
X149795640Y-127961000D01*
X149768062Y-127958284D01*
X149747443Y-127952029D01*
X149728447Y-127941876D01*
X149711792Y-127928208D01*
X149698124Y-127911553D01*
X149687971Y-127892557D01*
X149681716Y-127871938D01*
X149679000Y-127844360D01*
X149679000Y-127385640D01*
X149681716Y-127358062D01*
X149687971Y-127337443D01*
X149698124Y-127318447D01*
X149711792Y-127301792D01*
X149728447Y-127288124D01*
X149747443Y-127277971D01*
X149768062Y-127271716D01*
X149795640Y-127269000D01*
X150304360Y-127269000D01*
X150331938Y-127271716D01*
X150331938Y-127271716D01*
G37*
G36*
X135351000Y-127351000D02*
G01*
X134349000Y-127351000D01*
X134349000Y-126449000D01*
X135351000Y-126449000D01*
X135351000Y-127351000D01*
X135351000Y-127351000D01*
G37*
G36*
X128351000Y-127351000D02*
G01*
X127349000Y-127351000D01*
X127349000Y-126449000D01*
X128351000Y-126449000D01*
X128351000Y-127351000D01*
X128351000Y-127351000D01*
G37*
G36*
X154051000Y-127301000D02*
G01*
X153049000Y-127301000D01*
X153049000Y-126399000D01*
X154051000Y-126399000D01*
X154051000Y-127301000D01*
X154051000Y-127301000D01*
G37*
G36*
X147051000Y-127301000D02*
G01*
X146049000Y-127301000D01*
X146049000Y-126399000D01*
X147051000Y-126399000D01*
X147051000Y-127301000D01*
X147051000Y-127301000D01*
G37*
G36*
X131631938Y-126041716D02*
G01*
X131652557Y-126047971D01*
X131671553Y-126058124D01*
X131688208Y-126071792D01*
X131701876Y-126088447D01*
X131712029Y-126107443D01*
X131718284Y-126128062D01*
X131721000Y-126155640D01*
X131721000Y-126614360D01*
X131718284Y-126641938D01*
X131712029Y-126662557D01*
X131701876Y-126681553D01*
X131688208Y-126698208D01*
X131671553Y-126711876D01*
X131652557Y-126722029D01*
X131631938Y-126728284D01*
X131604360Y-126731000D01*
X131095640Y-126731000D01*
X131068062Y-126728284D01*
X131047443Y-126722029D01*
X131028447Y-126711876D01*
X131011792Y-126698208D01*
X130998124Y-126681553D01*
X130987971Y-126662557D01*
X130981716Y-126641938D01*
X130979000Y-126614360D01*
X130979000Y-126155640D01*
X130981716Y-126128062D01*
X130987971Y-126107443D01*
X130998124Y-126088447D01*
X131011792Y-126071792D01*
X131028447Y-126058124D01*
X131047443Y-126047971D01*
X131068062Y-126041716D01*
X131095640Y-126039000D01*
X131604360Y-126039000D01*
X131631938Y-126041716D01*
X131631938Y-126041716D01*
G37*
G36*
X150331938Y-126006716D02*
G01*
X150352557Y-126012971D01*
X150371553Y-126023124D01*
X150388208Y-126036792D01*
X150401876Y-126053447D01*
X150412029Y-126072443D01*
X150418284Y-126093062D01*
X150421000Y-126120640D01*
X150421000Y-126579360D01*
X150418284Y-126606938D01*
X150412029Y-126627557D01*
X150401876Y-126646553D01*
X150388208Y-126663208D01*
X150371553Y-126676876D01*
X150352557Y-126687029D01*
X150331938Y-126693284D01*
X150304360Y-126696000D01*
X149795640Y-126696000D01*
X149768062Y-126693284D01*
X149747443Y-126687029D01*
X149728447Y-126676876D01*
X149711792Y-126663208D01*
X149698124Y-126646553D01*
X149687971Y-126627557D01*
X149681716Y-126606938D01*
X149679000Y-126579360D01*
X149679000Y-126120640D01*
X149681716Y-126093062D01*
X149687971Y-126072443D01*
X149698124Y-126053447D01*
X149711792Y-126036792D01*
X149728447Y-126023124D01*
X149747443Y-126012971D01*
X149768062Y-126006716D01*
X149795640Y-126004000D01*
X150304360Y-126004000D01*
X150331938Y-126006716D01*
X150331938Y-126006716D01*
G37*
G36*
X133351000Y-126401000D02*
G01*
X132349000Y-126401000D01*
X132349000Y-125499000D01*
X133351000Y-125499000D01*
X133351000Y-126401000D01*
X133351000Y-126401000D01*
G37*
G36*
X130351000Y-126401000D02*
G01*
X129349000Y-126401000D01*
X129349000Y-125499000D01*
X130351000Y-125499000D01*
X130351000Y-126401000D01*
X130351000Y-126401000D01*
G37*
G36*
X149051000Y-126351000D02*
G01*
X148049000Y-126351000D01*
X148049000Y-125449000D01*
X149051000Y-125449000D01*
X149051000Y-126351000D01*
X149051000Y-126351000D01*
G37*
G36*
X152051000Y-126351000D02*
G01*
X151049000Y-126351000D01*
X151049000Y-125449000D01*
X152051000Y-125449000D01*
X152051000Y-126351000D01*
X152051000Y-126351000D01*
G37*
G36*
X135621938Y-125031716D02*
G01*
X135642557Y-125037971D01*
X135661553Y-125048124D01*
X135678208Y-125061792D01*
X135691876Y-125078447D01*
X135702029Y-125097443D01*
X135708284Y-125118062D01*
X135711000Y-125145640D01*
X135711000Y-125654360D01*
X135708284Y-125681938D01*
X135702029Y-125702557D01*
X135691876Y-125721553D01*
X135678208Y-125738208D01*
X135661553Y-125751876D01*
X135642557Y-125762029D01*
X135621938Y-125768284D01*
X135594360Y-125771000D01*
X135135640Y-125771000D01*
X135108062Y-125768284D01*
X135087443Y-125762029D01*
X135068447Y-125751876D01*
X135051792Y-125738208D01*
X135038124Y-125721553D01*
X135027971Y-125702557D01*
X135021716Y-125681938D01*
X135019000Y-125654360D01*
X135019000Y-125145640D01*
X135021716Y-125118062D01*
X135027971Y-125097443D01*
X135038124Y-125078447D01*
X135051792Y-125061792D01*
X135068447Y-125048124D01*
X135087443Y-125037971D01*
X135108062Y-125031716D01*
X135135640Y-125029000D01*
X135594360Y-125029000D01*
X135621938Y-125031716D01*
X135621938Y-125031716D01*
G37*
G36*
X136591938Y-125031716D02*
G01*
X136612557Y-125037971D01*
X136631553Y-125048124D01*
X136648208Y-125061792D01*
X136661876Y-125078447D01*
X136672029Y-125097443D01*
X136678284Y-125118062D01*
X136681000Y-125145640D01*
X136681000Y-125654360D01*
X136678284Y-125681938D01*
X136672029Y-125702557D01*
X136661876Y-125721553D01*
X136648208Y-125738208D01*
X136631553Y-125751876D01*
X136612557Y-125762029D01*
X136591938Y-125768284D01*
X136564360Y-125771000D01*
X136105640Y-125771000D01*
X136078062Y-125768284D01*
X136057443Y-125762029D01*
X136038447Y-125751876D01*
X136021792Y-125738208D01*
X136008124Y-125721553D01*
X135997971Y-125702557D01*
X135991716Y-125681938D01*
X135989000Y-125654360D01*
X135989000Y-125145640D01*
X135991716Y-125118062D01*
X135997971Y-125097443D01*
X136008124Y-125078447D01*
X136021792Y-125061792D01*
X136038447Y-125048124D01*
X136057443Y-125037971D01*
X136078062Y-125031716D01*
X136105640Y-125029000D01*
X136564360Y-125029000D01*
X136591938Y-125031716D01*
X136591938Y-125031716D01*
G37*
G36*
X131631938Y-125071716D02*
G01*
X131652557Y-125077971D01*
X131671553Y-125088124D01*
X131688208Y-125101792D01*
X131701876Y-125118447D01*
X131712029Y-125137443D01*
X131718284Y-125158062D01*
X131721000Y-125185640D01*
X131721000Y-125644360D01*
X131718284Y-125671938D01*
X131712029Y-125692557D01*
X131701876Y-125711553D01*
X131688208Y-125728208D01*
X131671553Y-125741876D01*
X131652557Y-125752029D01*
X131631938Y-125758284D01*
X131604360Y-125761000D01*
X131095640Y-125761000D01*
X131068062Y-125758284D01*
X131047443Y-125752029D01*
X131028447Y-125741876D01*
X131011792Y-125728208D01*
X130998124Y-125711553D01*
X130987971Y-125692557D01*
X130981716Y-125671938D01*
X130979000Y-125644360D01*
X130979000Y-125185640D01*
X130981716Y-125158062D01*
X130987971Y-125137443D01*
X130998124Y-125118447D01*
X131011792Y-125101792D01*
X131028447Y-125088124D01*
X131047443Y-125077971D01*
X131068062Y-125071716D01*
X131095640Y-125069000D01*
X131604360Y-125069000D01*
X131631938Y-125071716D01*
X131631938Y-125071716D01*
G37*
G36*
X150331938Y-125036716D02*
G01*
X150352557Y-125042971D01*
X150371553Y-125053124D01*
X150388208Y-125066792D01*
X150401876Y-125083447D01*
X150412029Y-125102443D01*
X150418284Y-125123062D01*
X150421000Y-125150640D01*
X150421000Y-125609360D01*
X150418284Y-125636938D01*
X150412029Y-125657557D01*
X150401876Y-125676553D01*
X150388208Y-125693208D01*
X150371553Y-125706876D01*
X150352557Y-125717029D01*
X150331938Y-125723284D01*
X150304360Y-125726000D01*
X149795640Y-125726000D01*
X149768062Y-125723284D01*
X149747443Y-125717029D01*
X149728447Y-125706876D01*
X149711792Y-125693208D01*
X149698124Y-125676553D01*
X149687971Y-125657557D01*
X149681716Y-125636938D01*
X149679000Y-125609360D01*
X149679000Y-125150640D01*
X149681716Y-125123062D01*
X149687971Y-125102443D01*
X149698124Y-125083447D01*
X149711792Y-125066792D01*
X149728447Y-125053124D01*
X149747443Y-125042971D01*
X149768062Y-125036716D01*
X149795640Y-125034000D01*
X150304360Y-125034000D01*
X150331938Y-125036716D01*
X150331938Y-125036716D01*
G37*
G36*
X155291938Y-124981716D02*
G01*
X155312557Y-124987971D01*
X155331553Y-124998124D01*
X155348208Y-125011792D01*
X155361876Y-125028447D01*
X155372029Y-125047443D01*
X155378284Y-125068062D01*
X155381000Y-125095640D01*
X155381000Y-125604360D01*
X155378284Y-125631938D01*
X155372029Y-125652557D01*
X155361876Y-125671553D01*
X155348208Y-125688208D01*
X155331553Y-125701876D01*
X155312557Y-125712029D01*
X155291938Y-125718284D01*
X155264360Y-125721000D01*
X154805640Y-125721000D01*
X154778062Y-125718284D01*
X154757443Y-125712029D01*
X154738447Y-125701876D01*
X154721792Y-125688208D01*
X154708124Y-125671553D01*
X154697971Y-125652557D01*
X154691716Y-125631938D01*
X154689000Y-125604360D01*
X154689000Y-125095640D01*
X154691716Y-125068062D01*
X154697971Y-125047443D01*
X154708124Y-125028447D01*
X154721792Y-125011792D01*
X154738447Y-124998124D01*
X154757443Y-124987971D01*
X154778062Y-124981716D01*
X154805640Y-124979000D01*
X155264360Y-124979000D01*
X155291938Y-124981716D01*
X155291938Y-124981716D01*
G37*
G36*
X154321938Y-124981716D02*
G01*
X154342557Y-124987971D01*
X154361553Y-124998124D01*
X154378208Y-125011792D01*
X154391876Y-125028447D01*
X154402029Y-125047443D01*
X154408284Y-125068062D01*
X154411000Y-125095640D01*
X154411000Y-125604360D01*
X154408284Y-125631938D01*
X154402029Y-125652557D01*
X154391876Y-125671553D01*
X154378208Y-125688208D01*
X154361553Y-125701876D01*
X154342557Y-125712029D01*
X154321938Y-125718284D01*
X154294360Y-125721000D01*
X153835640Y-125721000D01*
X153808062Y-125718284D01*
X153787443Y-125712029D01*
X153768447Y-125701876D01*
X153751792Y-125688208D01*
X153738124Y-125671553D01*
X153727971Y-125652557D01*
X153721716Y-125631938D01*
X153719000Y-125604360D01*
X153719000Y-125095640D01*
X153721716Y-125068062D01*
X153727971Y-125047443D01*
X153738124Y-125028447D01*
X153751792Y-125011792D01*
X153768447Y-124998124D01*
X153787443Y-124987971D01*
X153808062Y-124981716D01*
X153835640Y-124979000D01*
X154294360Y-124979000D01*
X154321938Y-124981716D01*
X154321938Y-124981716D01*
G37*
G36*
X131681938Y-122491716D02*
G01*
X131702557Y-122497971D01*
X131721553Y-122508124D01*
X131738208Y-122521792D01*
X131751876Y-122538447D01*
X131762029Y-122557443D01*
X131768284Y-122578062D01*
X131771000Y-122605640D01*
X131771000Y-123064360D01*
X131768284Y-123091938D01*
X131762029Y-123112557D01*
X131751876Y-123131553D01*
X131738208Y-123148208D01*
X131721553Y-123161876D01*
X131702557Y-123172029D01*
X131681938Y-123178284D01*
X131654360Y-123181000D01*
X131145640Y-123181000D01*
X131118062Y-123178284D01*
X131097443Y-123172029D01*
X131078447Y-123161876D01*
X131061792Y-123148208D01*
X131048124Y-123131553D01*
X131037971Y-123112557D01*
X131031716Y-123091938D01*
X131029000Y-123064360D01*
X131029000Y-122605640D01*
X131031716Y-122578062D01*
X131037971Y-122557443D01*
X131048124Y-122538447D01*
X131061792Y-122521792D01*
X131078447Y-122508124D01*
X131097443Y-122497971D01*
X131118062Y-122491716D01*
X131145640Y-122489000D01*
X131654360Y-122489000D01*
X131681938Y-122491716D01*
X131681938Y-122491716D01*
G37*
G36*
X150231938Y-122091716D02*
G01*
X150252557Y-122097971D01*
X150271553Y-122108124D01*
X150288208Y-122121792D01*
X150301876Y-122138447D01*
X150312029Y-122157443D01*
X150318284Y-122178062D01*
X150321000Y-122205640D01*
X150321000Y-122664360D01*
X150318284Y-122691938D01*
X150312029Y-122712557D01*
X150301876Y-122731553D01*
X150288208Y-122748208D01*
X150271553Y-122761876D01*
X150252557Y-122772029D01*
X150231938Y-122778284D01*
X150204360Y-122781000D01*
X149695640Y-122781000D01*
X149668062Y-122778284D01*
X149647443Y-122772029D01*
X149628447Y-122761876D01*
X149611792Y-122748208D01*
X149598124Y-122731553D01*
X149587971Y-122712557D01*
X149581716Y-122691938D01*
X149579000Y-122664360D01*
X149579000Y-122205640D01*
X149581716Y-122178062D01*
X149587971Y-122157443D01*
X149598124Y-122138447D01*
X149611792Y-122121792D01*
X149628447Y-122108124D01*
X149647443Y-122097971D01*
X149668062Y-122091716D01*
X149695640Y-122089000D01*
X150204360Y-122089000D01*
X150231938Y-122091716D01*
X150231938Y-122091716D01*
G37*
G36*
X135656938Y-121981716D02*
G01*
X135677557Y-121987971D01*
X135696553Y-121998124D01*
X135713208Y-122011792D01*
X135726876Y-122028447D01*
X135737029Y-122047443D01*
X135743284Y-122068062D01*
X135746000Y-122095640D01*
X135746000Y-122604360D01*
X135743284Y-122631938D01*
X135737029Y-122652557D01*
X135726876Y-122671553D01*
X135713208Y-122688208D01*
X135696553Y-122701876D01*
X135677557Y-122712029D01*
X135656938Y-122718284D01*
X135629360Y-122721000D01*
X135170640Y-122721000D01*
X135143062Y-122718284D01*
X135122443Y-122712029D01*
X135103447Y-122701876D01*
X135086792Y-122688208D01*
X135073124Y-122671553D01*
X135062971Y-122652557D01*
X135056716Y-122631938D01*
X135054000Y-122604360D01*
X135054000Y-122095640D01*
X135056716Y-122068062D01*
X135062971Y-122047443D01*
X135073124Y-122028447D01*
X135086792Y-122011792D01*
X135103447Y-121998124D01*
X135122443Y-121987971D01*
X135143062Y-121981716D01*
X135170640Y-121979000D01*
X135629360Y-121979000D01*
X135656938Y-121981716D01*
X135656938Y-121981716D01*
G37*
G36*
X136626938Y-121981716D02*
G01*
X136647557Y-121987971D01*
X136666553Y-121998124D01*
X136683208Y-122011792D01*
X136696876Y-122028447D01*
X136707029Y-122047443D01*
X136713284Y-122068062D01*
X136716000Y-122095640D01*
X136716000Y-122604360D01*
X136713284Y-122631938D01*
X136707029Y-122652557D01*
X136696876Y-122671553D01*
X136683208Y-122688208D01*
X136666553Y-122701876D01*
X136647557Y-122712029D01*
X136626938Y-122718284D01*
X136599360Y-122721000D01*
X136140640Y-122721000D01*
X136113062Y-122718284D01*
X136092443Y-122712029D01*
X136073447Y-122701876D01*
X136056792Y-122688208D01*
X136043124Y-122671553D01*
X136032971Y-122652557D01*
X136026716Y-122631938D01*
X136024000Y-122604360D01*
X136024000Y-122095640D01*
X136026716Y-122068062D01*
X136032971Y-122047443D01*
X136043124Y-122028447D01*
X136056792Y-122011792D01*
X136073447Y-121998124D01*
X136092443Y-121987971D01*
X136113062Y-121981716D01*
X136140640Y-121979000D01*
X136599360Y-121979000D01*
X136626938Y-121981716D01*
X136626938Y-121981716D01*
G37*
G36*
X154221938Y-121831716D02*
G01*
X154242557Y-121837971D01*
X154261553Y-121848124D01*
X154278208Y-121861792D01*
X154291876Y-121878447D01*
X154302029Y-121897443D01*
X154308284Y-121918062D01*
X154311000Y-121945640D01*
X154311000Y-122454360D01*
X154308284Y-122481938D01*
X154302029Y-122502557D01*
X154291876Y-122521553D01*
X154278208Y-122538208D01*
X154261553Y-122551876D01*
X154242557Y-122562029D01*
X154221938Y-122568284D01*
X154194360Y-122571000D01*
X153735640Y-122571000D01*
X153708062Y-122568284D01*
X153687443Y-122562029D01*
X153668447Y-122551876D01*
X153651792Y-122538208D01*
X153638124Y-122521553D01*
X153627971Y-122502557D01*
X153621716Y-122481938D01*
X153619000Y-122454360D01*
X153619000Y-121945640D01*
X153621716Y-121918062D01*
X153627971Y-121897443D01*
X153638124Y-121878447D01*
X153651792Y-121861792D01*
X153668447Y-121848124D01*
X153687443Y-121837971D01*
X153708062Y-121831716D01*
X153735640Y-121829000D01*
X154194360Y-121829000D01*
X154221938Y-121831716D01*
X154221938Y-121831716D01*
G37*
G36*
X155191938Y-121831716D02*
G01*
X155212557Y-121837971D01*
X155231553Y-121848124D01*
X155248208Y-121861792D01*
X155261876Y-121878447D01*
X155272029Y-121897443D01*
X155278284Y-121918062D01*
X155281000Y-121945640D01*
X155281000Y-122454360D01*
X155278284Y-122481938D01*
X155272029Y-122502557D01*
X155261876Y-122521553D01*
X155248208Y-122538208D01*
X155231553Y-122551876D01*
X155212557Y-122562029D01*
X155191938Y-122568284D01*
X155164360Y-122571000D01*
X154705640Y-122571000D01*
X154678062Y-122568284D01*
X154657443Y-122562029D01*
X154638447Y-122551876D01*
X154621792Y-122538208D01*
X154608124Y-122521553D01*
X154597971Y-122502557D01*
X154591716Y-122481938D01*
X154589000Y-122454360D01*
X154589000Y-121945640D01*
X154591716Y-121918062D01*
X154597971Y-121897443D01*
X154608124Y-121878447D01*
X154621792Y-121861792D01*
X154638447Y-121848124D01*
X154657443Y-121837971D01*
X154678062Y-121831716D01*
X154705640Y-121829000D01*
X155164360Y-121829000D01*
X155191938Y-121831716D01*
X155191938Y-121831716D01*
G37*
G36*
X130401000Y-122251000D02*
G01*
X129399000Y-122251000D01*
X129399000Y-121349000D01*
X130401000Y-121349000D01*
X130401000Y-122251000D01*
X130401000Y-122251000D01*
G37*
G36*
X133401000Y-122251000D02*
G01*
X132399000Y-122251000D01*
X132399000Y-121349000D01*
X133401000Y-121349000D01*
X133401000Y-122251000D01*
X133401000Y-122251000D01*
G37*
G36*
X131681938Y-121521716D02*
G01*
X131702557Y-121527971D01*
X131721553Y-121538124D01*
X131738208Y-121551792D01*
X131751876Y-121568447D01*
X131762029Y-121587443D01*
X131768284Y-121608062D01*
X131771000Y-121635640D01*
X131771000Y-122094360D01*
X131768284Y-122121938D01*
X131762029Y-122142557D01*
X131751876Y-122161553D01*
X131738208Y-122178208D01*
X131721553Y-122191876D01*
X131702557Y-122202029D01*
X131681938Y-122208284D01*
X131654360Y-122211000D01*
X131145640Y-122211000D01*
X131118062Y-122208284D01*
X131097443Y-122202029D01*
X131078447Y-122191876D01*
X131061792Y-122178208D01*
X131048124Y-122161553D01*
X131037971Y-122142557D01*
X131031716Y-122121938D01*
X131029000Y-122094360D01*
X131029000Y-121635640D01*
X131031716Y-121608062D01*
X131037971Y-121587443D01*
X131048124Y-121568447D01*
X131061792Y-121551792D01*
X131078447Y-121538124D01*
X131097443Y-121527971D01*
X131118062Y-121521716D01*
X131145640Y-121519000D01*
X131654360Y-121519000D01*
X131681938Y-121521716D01*
X131681938Y-121521716D01*
G37*
G36*
X148951000Y-122101000D02*
G01*
X147949000Y-122101000D01*
X147949000Y-121199000D01*
X148951000Y-121199000D01*
X148951000Y-122101000D01*
X148951000Y-122101000D01*
G37*
G36*
X151951000Y-122101000D02*
G01*
X150949000Y-122101000D01*
X150949000Y-121199000D01*
X151951000Y-121199000D01*
X151951000Y-122101000D01*
X151951000Y-122101000D01*
G37*
G36*
X150231938Y-121121716D02*
G01*
X150252557Y-121127971D01*
X150271553Y-121138124D01*
X150288208Y-121151792D01*
X150301876Y-121168447D01*
X150312029Y-121187443D01*
X150318284Y-121208062D01*
X150321000Y-121235640D01*
X150321000Y-121694360D01*
X150318284Y-121721938D01*
X150312029Y-121742557D01*
X150301876Y-121761553D01*
X150288208Y-121778208D01*
X150271553Y-121791876D01*
X150252557Y-121802029D01*
X150231938Y-121808284D01*
X150204360Y-121811000D01*
X149695640Y-121811000D01*
X149668062Y-121808284D01*
X149647443Y-121802029D01*
X149628447Y-121791876D01*
X149611792Y-121778208D01*
X149598124Y-121761553D01*
X149587971Y-121742557D01*
X149581716Y-121721938D01*
X149579000Y-121694360D01*
X149579000Y-121235640D01*
X149581716Y-121208062D01*
X149587971Y-121187443D01*
X149598124Y-121168447D01*
X149611792Y-121151792D01*
X149628447Y-121138124D01*
X149647443Y-121127971D01*
X149668062Y-121121716D01*
X149695640Y-121119000D01*
X150204360Y-121119000D01*
X150231938Y-121121716D01*
X150231938Y-121121716D01*
G37*
G36*
X128401000Y-121301000D02*
G01*
X127399000Y-121301000D01*
X127399000Y-120399000D01*
X128401000Y-120399000D01*
X128401000Y-121301000D01*
X128401000Y-121301000D01*
G37*
G36*
X135401000Y-121301000D02*
G01*
X134399000Y-121301000D01*
X134399000Y-120399000D01*
X135401000Y-120399000D01*
X135401000Y-121301000D01*
X135401000Y-121301000D01*
G37*
G36*
X146951000Y-121151000D02*
G01*
X145949000Y-121151000D01*
X145949000Y-120249000D01*
X146951000Y-120249000D01*
X146951000Y-121151000D01*
X146951000Y-121151000D01*
G37*
G36*
X153951000Y-121151000D02*
G01*
X152949000Y-121151000D01*
X152949000Y-120249000D01*
X153951000Y-120249000D01*
X153951000Y-121151000D01*
X153951000Y-121151000D01*
G37*
G36*
X131681938Y-120006716D02*
G01*
X131702557Y-120012971D01*
X131721553Y-120023124D01*
X131738208Y-120036792D01*
X131751876Y-120053447D01*
X131762029Y-120072443D01*
X131768284Y-120093062D01*
X131771000Y-120120640D01*
X131771000Y-120579360D01*
X131768284Y-120606938D01*
X131762029Y-120627557D01*
X131751876Y-120646553D01*
X131738208Y-120663208D01*
X131721553Y-120676876D01*
X131702557Y-120687029D01*
X131681938Y-120693284D01*
X131654360Y-120696000D01*
X131145640Y-120696000D01*
X131118062Y-120693284D01*
X131097443Y-120687029D01*
X131078447Y-120676876D01*
X131061792Y-120663208D01*
X131048124Y-120646553D01*
X131037971Y-120627557D01*
X131031716Y-120606938D01*
X131029000Y-120579360D01*
X131029000Y-120120640D01*
X131031716Y-120093062D01*
X131037971Y-120072443D01*
X131048124Y-120053447D01*
X131061792Y-120036792D01*
X131078447Y-120023124D01*
X131097443Y-120012971D01*
X131118062Y-120006716D01*
X131145640Y-120004000D01*
X131654360Y-120004000D01*
X131681938Y-120006716D01*
X131681938Y-120006716D01*
G37*
G36*
X150231938Y-119841716D02*
G01*
X150252557Y-119847971D01*
X150271553Y-119858124D01*
X150288208Y-119871792D01*
X150301876Y-119888447D01*
X150312029Y-119907443D01*
X150318284Y-119928062D01*
X150321000Y-119955640D01*
X150321000Y-120414360D01*
X150318284Y-120441938D01*
X150312029Y-120462557D01*
X150301876Y-120481553D01*
X150288208Y-120498208D01*
X150271553Y-120511876D01*
X150252557Y-120522029D01*
X150231938Y-120528284D01*
X150204360Y-120531000D01*
X149695640Y-120531000D01*
X149668062Y-120528284D01*
X149647443Y-120522029D01*
X149628447Y-120511876D01*
X149611792Y-120498208D01*
X149598124Y-120481553D01*
X149587971Y-120462557D01*
X149581716Y-120441938D01*
X149579000Y-120414360D01*
X149579000Y-119955640D01*
X149581716Y-119928062D01*
X149587971Y-119907443D01*
X149598124Y-119888447D01*
X149611792Y-119871792D01*
X149628447Y-119858124D01*
X149647443Y-119847971D01*
X149668062Y-119841716D01*
X149695640Y-119839000D01*
X150204360Y-119839000D01*
X150231938Y-119841716D01*
X150231938Y-119841716D01*
G37*
G36*
X133401000Y-120351000D02*
G01*
X132399000Y-120351000D01*
X132399000Y-119449000D01*
X133401000Y-119449000D01*
X133401000Y-120351000D01*
X133401000Y-120351000D01*
G37*
G36*
X130401000Y-120351000D02*
G01*
X129399000Y-120351000D01*
X129399000Y-119449000D01*
X130401000Y-119449000D01*
X130401000Y-120351000D01*
X130401000Y-120351000D01*
G37*
G36*
X148951000Y-120201000D02*
G01*
X147949000Y-120201000D01*
X147949000Y-119299000D01*
X148951000Y-119299000D01*
X148951000Y-120201000D01*
X148951000Y-120201000D01*
G37*
G36*
X151951000Y-120201000D02*
G01*
X150949000Y-120201000D01*
X150949000Y-119299000D01*
X151951000Y-119299000D01*
X151951000Y-120201000D01*
X151951000Y-120201000D01*
G37*
G36*
X131681938Y-119036716D02*
G01*
X131702557Y-119042971D01*
X131721553Y-119053124D01*
X131738208Y-119066792D01*
X131751876Y-119083447D01*
X131762029Y-119102443D01*
X131768284Y-119123062D01*
X131771000Y-119150640D01*
X131771000Y-119609360D01*
X131768284Y-119636938D01*
X131762029Y-119657557D01*
X131751876Y-119676553D01*
X131738208Y-119693208D01*
X131721553Y-119706876D01*
X131702557Y-119717029D01*
X131681938Y-119723284D01*
X131654360Y-119726000D01*
X131145640Y-119726000D01*
X131118062Y-119723284D01*
X131097443Y-119717029D01*
X131078447Y-119706876D01*
X131061792Y-119693208D01*
X131048124Y-119676553D01*
X131037971Y-119657557D01*
X131031716Y-119636938D01*
X131029000Y-119609360D01*
X131029000Y-119150640D01*
X131031716Y-119123062D01*
X131037971Y-119102443D01*
X131048124Y-119083447D01*
X131061792Y-119066792D01*
X131078447Y-119053124D01*
X131097443Y-119042971D01*
X131118062Y-119036716D01*
X131145640Y-119034000D01*
X131654360Y-119034000D01*
X131681938Y-119036716D01*
X131681938Y-119036716D01*
G37*
G36*
X136656938Y-118981716D02*
G01*
X136677557Y-118987971D01*
X136696553Y-118998124D01*
X136713208Y-119011792D01*
X136726876Y-119028447D01*
X136737029Y-119047443D01*
X136743284Y-119068062D01*
X136746000Y-119095640D01*
X136746000Y-119604360D01*
X136743284Y-119631938D01*
X136737029Y-119652557D01*
X136726876Y-119671553D01*
X136713208Y-119688208D01*
X136696553Y-119701876D01*
X136677557Y-119712029D01*
X136656938Y-119718284D01*
X136629360Y-119721000D01*
X136170640Y-119721000D01*
X136143062Y-119718284D01*
X136122443Y-119712029D01*
X136103447Y-119701876D01*
X136086792Y-119688208D01*
X136073124Y-119671553D01*
X136062971Y-119652557D01*
X136056716Y-119631938D01*
X136054000Y-119604360D01*
X136054000Y-119095640D01*
X136056716Y-119068062D01*
X136062971Y-119047443D01*
X136073124Y-119028447D01*
X136086792Y-119011792D01*
X136103447Y-118998124D01*
X136122443Y-118987971D01*
X136143062Y-118981716D01*
X136170640Y-118979000D01*
X136629360Y-118979000D01*
X136656938Y-118981716D01*
X136656938Y-118981716D01*
G37*
G36*
X135686938Y-118981716D02*
G01*
X135707557Y-118987971D01*
X135726553Y-118998124D01*
X135743208Y-119011792D01*
X135756876Y-119028447D01*
X135767029Y-119047443D01*
X135773284Y-119068062D01*
X135776000Y-119095640D01*
X135776000Y-119604360D01*
X135773284Y-119631938D01*
X135767029Y-119652557D01*
X135756876Y-119671553D01*
X135743208Y-119688208D01*
X135726553Y-119701876D01*
X135707557Y-119712029D01*
X135686938Y-119718284D01*
X135659360Y-119721000D01*
X135200640Y-119721000D01*
X135173062Y-119718284D01*
X135152443Y-119712029D01*
X135133447Y-119701876D01*
X135116792Y-119688208D01*
X135103124Y-119671553D01*
X135092971Y-119652557D01*
X135086716Y-119631938D01*
X135084000Y-119604360D01*
X135084000Y-119095640D01*
X135086716Y-119068062D01*
X135092971Y-119047443D01*
X135103124Y-119028447D01*
X135116792Y-119011792D01*
X135133447Y-118998124D01*
X135152443Y-118987971D01*
X135173062Y-118981716D01*
X135200640Y-118979000D01*
X135659360Y-118979000D01*
X135686938Y-118981716D01*
X135686938Y-118981716D01*
G37*
G36*
X154221938Y-118831716D02*
G01*
X154242557Y-118837971D01*
X154261553Y-118848124D01*
X154278208Y-118861792D01*
X154291876Y-118878447D01*
X154302029Y-118897443D01*
X154308284Y-118918062D01*
X154311000Y-118945640D01*
X154311000Y-119454360D01*
X154308284Y-119481938D01*
X154302029Y-119502557D01*
X154291876Y-119521553D01*
X154278208Y-119538208D01*
X154261553Y-119551876D01*
X154242557Y-119562029D01*
X154221938Y-119568284D01*
X154194360Y-119571000D01*
X153735640Y-119571000D01*
X153708062Y-119568284D01*
X153687443Y-119562029D01*
X153668447Y-119551876D01*
X153651792Y-119538208D01*
X153638124Y-119521553D01*
X153627971Y-119502557D01*
X153621716Y-119481938D01*
X153619000Y-119454360D01*
X153619000Y-118945640D01*
X153621716Y-118918062D01*
X153627971Y-118897443D01*
X153638124Y-118878447D01*
X153651792Y-118861792D01*
X153668447Y-118848124D01*
X153687443Y-118837971D01*
X153708062Y-118831716D01*
X153735640Y-118829000D01*
X154194360Y-118829000D01*
X154221938Y-118831716D01*
X154221938Y-118831716D01*
G37*
G36*
X155191938Y-118831716D02*
G01*
X155212557Y-118837971D01*
X155231553Y-118848124D01*
X155248208Y-118861792D01*
X155261876Y-118878447D01*
X155272029Y-118897443D01*
X155278284Y-118918062D01*
X155281000Y-118945640D01*
X155281000Y-119454360D01*
X155278284Y-119481938D01*
X155272029Y-119502557D01*
X155261876Y-119521553D01*
X155248208Y-119538208D01*
X155231553Y-119551876D01*
X155212557Y-119562029D01*
X155191938Y-119568284D01*
X155164360Y-119571000D01*
X154705640Y-119571000D01*
X154678062Y-119568284D01*
X154657443Y-119562029D01*
X154638447Y-119551876D01*
X154621792Y-119538208D01*
X154608124Y-119521553D01*
X154597971Y-119502557D01*
X154591716Y-119481938D01*
X154589000Y-119454360D01*
X154589000Y-118945640D01*
X154591716Y-118918062D01*
X154597971Y-118897443D01*
X154608124Y-118878447D01*
X154621792Y-118861792D01*
X154638447Y-118848124D01*
X154657443Y-118837971D01*
X154678062Y-118831716D01*
X154705640Y-118829000D01*
X155164360Y-118829000D01*
X155191938Y-118831716D01*
X155191938Y-118831716D01*
G37*
G36*
X150231938Y-118871716D02*
G01*
X150252557Y-118877971D01*
X150271553Y-118888124D01*
X150288208Y-118901792D01*
X150301876Y-118918447D01*
X150312029Y-118937443D01*
X150318284Y-118958062D01*
X150321000Y-118985640D01*
X150321000Y-119444360D01*
X150318284Y-119471938D01*
X150312029Y-119492557D01*
X150301876Y-119511553D01*
X150288208Y-119528208D01*
X150271553Y-119541876D01*
X150252557Y-119552029D01*
X150231938Y-119558284D01*
X150204360Y-119561000D01*
X149695640Y-119561000D01*
X149668062Y-119558284D01*
X149647443Y-119552029D01*
X149628447Y-119541876D01*
X149611792Y-119528208D01*
X149598124Y-119511553D01*
X149587971Y-119492557D01*
X149581716Y-119471938D01*
X149579000Y-119444360D01*
X149579000Y-118985640D01*
X149581716Y-118958062D01*
X149587971Y-118937443D01*
X149598124Y-118918447D01*
X149611792Y-118901792D01*
X149628447Y-118888124D01*
X149647443Y-118877971D01*
X149668062Y-118871716D01*
X149695640Y-118869000D01*
X150204360Y-118869000D01*
X150231938Y-118871716D01*
X150231938Y-118871716D01*
G37*
G36*
X121400443Y-117505519D02*
G01*
X121466627Y-117512037D01*
X121636466Y-117563557D01*
X121792991Y-117647222D01*
X121828729Y-117676552D01*
X121930186Y-117759814D01*
X122013448Y-117861271D01*
X122042778Y-117897009D01*
X122126443Y-118053534D01*
X122177963Y-118223373D01*
X122195359Y-118400000D01*
X122177963Y-118576627D01*
X122126443Y-118746466D01*
X122042778Y-118902991D01*
X122040402Y-118905886D01*
X121930186Y-119040186D01*
X121829200Y-119123062D01*
X121792991Y-119152778D01*
X121636466Y-119236443D01*
X121466627Y-119287963D01*
X121400442Y-119294482D01*
X121334260Y-119301000D01*
X121245740Y-119301000D01*
X121179558Y-119294482D01*
X121113373Y-119287963D01*
X120943534Y-119236443D01*
X120787009Y-119152778D01*
X120750800Y-119123062D01*
X120649814Y-119040186D01*
X120539598Y-118905886D01*
X120537222Y-118902991D01*
X120453557Y-118746466D01*
X120402037Y-118576627D01*
X120384641Y-118400000D01*
X120402037Y-118223373D01*
X120453557Y-118053534D01*
X120537222Y-117897009D01*
X120566552Y-117861271D01*
X120649814Y-117759814D01*
X120751271Y-117676552D01*
X120787009Y-117647222D01*
X120943534Y-117563557D01*
X121113373Y-117512037D01*
X121179557Y-117505519D01*
X121245740Y-117499000D01*
X121334260Y-117499000D01*
X121400443Y-117505519D01*
X121400443Y-117505519D01*
G37*
G36*
X118860443Y-117505519D02*
G01*
X118926627Y-117512037D01*
X119096466Y-117563557D01*
X119252991Y-117647222D01*
X119288729Y-117676552D01*
X119390186Y-117759814D01*
X119473448Y-117861271D01*
X119502778Y-117897009D01*
X119586443Y-118053534D01*
X119637963Y-118223373D01*
X119655359Y-118400000D01*
X119637963Y-118576627D01*
X119586443Y-118746466D01*
X119502778Y-118902991D01*
X119500402Y-118905886D01*
X119390186Y-119040186D01*
X119289200Y-119123062D01*
X119252991Y-119152778D01*
X119096466Y-119236443D01*
X118926627Y-119287963D01*
X118860442Y-119294482D01*
X118794260Y-119301000D01*
X118705740Y-119301000D01*
X118639558Y-119294482D01*
X118573373Y-119287963D01*
X118403534Y-119236443D01*
X118247009Y-119152778D01*
X118210800Y-119123062D01*
X118109814Y-119040186D01*
X117999598Y-118905886D01*
X117997222Y-118902991D01*
X117913557Y-118746466D01*
X117862037Y-118576627D01*
X117844641Y-118400000D01*
X117862037Y-118223373D01*
X117913557Y-118053534D01*
X117997222Y-117897009D01*
X118026552Y-117861271D01*
X118109814Y-117759814D01*
X118211271Y-117676552D01*
X118247009Y-117647222D01*
X118403534Y-117563557D01*
X118573373Y-117512037D01*
X118639557Y-117505519D01*
X118705740Y-117499000D01*
X118794260Y-117499000D01*
X118860443Y-117505519D01*
X118860443Y-117505519D01*
G37*
G36*
X121400443Y-114965519D02*
G01*
X121466627Y-114972037D01*
X121636466Y-115023557D01*
X121792991Y-115107222D01*
X121828729Y-115136552D01*
X121930186Y-115219814D01*
X122013448Y-115321271D01*
X122042778Y-115357009D01*
X122126443Y-115513534D01*
X122177963Y-115683373D01*
X122195359Y-115860000D01*
X122177963Y-116036627D01*
X122126443Y-116206466D01*
X122042778Y-116362991D01*
X122013448Y-116398729D01*
X121930186Y-116500186D01*
X121828729Y-116583448D01*
X121792991Y-116612778D01*
X121636466Y-116696443D01*
X121466627Y-116747963D01*
X121400443Y-116754481D01*
X121334260Y-116761000D01*
X121245740Y-116761000D01*
X121179557Y-116754481D01*
X121113373Y-116747963D01*
X120943534Y-116696443D01*
X120787009Y-116612778D01*
X120751271Y-116583448D01*
X120649814Y-116500186D01*
X120566552Y-116398729D01*
X120537222Y-116362991D01*
X120453557Y-116206466D01*
X120402037Y-116036627D01*
X120384641Y-115860000D01*
X120402037Y-115683373D01*
X120453557Y-115513534D01*
X120537222Y-115357009D01*
X120566552Y-115321271D01*
X120649814Y-115219814D01*
X120751271Y-115136552D01*
X120787009Y-115107222D01*
X120943534Y-115023557D01*
X121113373Y-114972037D01*
X121179557Y-114965519D01*
X121245740Y-114959000D01*
X121334260Y-114959000D01*
X121400443Y-114965519D01*
X121400443Y-114965519D01*
G37*
G36*
X118860443Y-114965519D02*
G01*
X118926627Y-114972037D01*
X119096466Y-115023557D01*
X119252991Y-115107222D01*
X119288729Y-115136552D01*
X119390186Y-115219814D01*
X119473448Y-115321271D01*
X119502778Y-115357009D01*
X119586443Y-115513534D01*
X119637963Y-115683373D01*
X119655359Y-115860000D01*
X119637963Y-116036627D01*
X119586443Y-116206466D01*
X119502778Y-116362991D01*
X119473448Y-116398729D01*
X119390186Y-116500186D01*
X119288729Y-116583448D01*
X119252991Y-116612778D01*
X119096466Y-116696443D01*
X118926627Y-116747963D01*
X118860443Y-116754481D01*
X118794260Y-116761000D01*
X118705740Y-116761000D01*
X118639557Y-116754481D01*
X118573373Y-116747963D01*
X118403534Y-116696443D01*
X118247009Y-116612778D01*
X118211271Y-116583448D01*
X118109814Y-116500186D01*
X118026552Y-116398729D01*
X117997222Y-116362991D01*
X117913557Y-116206466D01*
X117862037Y-116036627D01*
X117844641Y-115860000D01*
X117862037Y-115683373D01*
X117913557Y-115513534D01*
X117997222Y-115357009D01*
X118026552Y-115321271D01*
X118109814Y-115219814D01*
X118211271Y-115136552D01*
X118247009Y-115107222D01*
X118403534Y-115023557D01*
X118573373Y-114972037D01*
X118639557Y-114965519D01*
X118705740Y-114959000D01*
X118794260Y-114959000D01*
X118860443Y-114965519D01*
X118860443Y-114965519D01*
G37*
G36*
X158201000Y-115501000D02*
G01*
X157299000Y-115501000D01*
X157299000Y-114499000D01*
X158201000Y-114499000D01*
X158201000Y-115501000D01*
X158201000Y-115501000D01*
G37*
G36*
X164860442Y-113225518D02*
G01*
X164926627Y-113232037D01*
X165096466Y-113283557D01*
X165252991Y-113367222D01*
X165288729Y-113396552D01*
X165390186Y-113479814D01*
X165473448Y-113581271D01*
X165502778Y-113617009D01*
X165586443Y-113773534D01*
X165637963Y-113943373D01*
X165655359Y-114120000D01*
X165637963Y-114296627D01*
X165586443Y-114466466D01*
X165502778Y-114622991D01*
X165473448Y-114658729D01*
X165390186Y-114760186D01*
X165288729Y-114843448D01*
X165252991Y-114872778D01*
X165096466Y-114956443D01*
X164926627Y-115007963D01*
X164860443Y-115014481D01*
X164794260Y-115021000D01*
X164705740Y-115021000D01*
X164639557Y-115014481D01*
X164573373Y-115007963D01*
X164403534Y-114956443D01*
X164247009Y-114872778D01*
X164211271Y-114843448D01*
X164109814Y-114760186D01*
X164026552Y-114658729D01*
X163997222Y-114622991D01*
X163913557Y-114466466D01*
X163862037Y-114296627D01*
X163844641Y-114120000D01*
X163862037Y-113943373D01*
X163913557Y-113773534D01*
X163997222Y-113617009D01*
X164026552Y-113581271D01*
X164109814Y-113479814D01*
X164211271Y-113396552D01*
X164247009Y-113367222D01*
X164403534Y-113283557D01*
X164573373Y-113232037D01*
X164639558Y-113225518D01*
X164705740Y-113219000D01*
X164794260Y-113219000D01*
X164860442Y-113225518D01*
X164860442Y-113225518D01*
G37*
G36*
X161521938Y-113631716D02*
G01*
X161542557Y-113637971D01*
X161561553Y-113648124D01*
X161578208Y-113661792D01*
X161591876Y-113678447D01*
X161602029Y-113697443D01*
X161608284Y-113718062D01*
X161611000Y-113745640D01*
X161611000Y-114254360D01*
X161608284Y-114281938D01*
X161602029Y-114302557D01*
X161591876Y-114321553D01*
X161578208Y-114338208D01*
X161561553Y-114351876D01*
X161542557Y-114362029D01*
X161521938Y-114368284D01*
X161494360Y-114371000D01*
X161035640Y-114371000D01*
X161008062Y-114368284D01*
X160987443Y-114362029D01*
X160968447Y-114351876D01*
X160951792Y-114338208D01*
X160938124Y-114321553D01*
X160927971Y-114302557D01*
X160921716Y-114281938D01*
X160919000Y-114254360D01*
X160919000Y-113745640D01*
X160921716Y-113718062D01*
X160927971Y-113697443D01*
X160938124Y-113678447D01*
X160951792Y-113661792D01*
X160968447Y-113648124D01*
X160987443Y-113637971D01*
X161008062Y-113631716D01*
X161035640Y-113629000D01*
X161494360Y-113629000D01*
X161521938Y-113631716D01*
X161521938Y-113631716D01*
G37*
G36*
X162491938Y-113631716D02*
G01*
X162512557Y-113637971D01*
X162531553Y-113648124D01*
X162548208Y-113661792D01*
X162561876Y-113678447D01*
X162572029Y-113697443D01*
X162578284Y-113718062D01*
X162581000Y-113745640D01*
X162581000Y-114254360D01*
X162578284Y-114281938D01*
X162572029Y-114302557D01*
X162561876Y-114321553D01*
X162548208Y-114338208D01*
X162531553Y-114351876D01*
X162512557Y-114362029D01*
X162491938Y-114368284D01*
X162464360Y-114371000D01*
X162005640Y-114371000D01*
X161978062Y-114368284D01*
X161957443Y-114362029D01*
X161938447Y-114351876D01*
X161921792Y-114338208D01*
X161908124Y-114321553D01*
X161897971Y-114302557D01*
X161891716Y-114281938D01*
X161889000Y-114254360D01*
X161889000Y-113745640D01*
X161891716Y-113718062D01*
X161897971Y-113697443D01*
X161908124Y-113678447D01*
X161921792Y-113661792D01*
X161938447Y-113648124D01*
X161957443Y-113637971D01*
X161978062Y-113631716D01*
X162005640Y-113629000D01*
X162464360Y-113629000D01*
X162491938Y-113631716D01*
X162491938Y-113631716D01*
G37*
G36*
X153756938Y-113631716D02*
G01*
X153777557Y-113637971D01*
X153796553Y-113648124D01*
X153813208Y-113661792D01*
X153826876Y-113678447D01*
X153837029Y-113697443D01*
X153843284Y-113718062D01*
X153846000Y-113745640D01*
X153846000Y-114254360D01*
X153843284Y-114281938D01*
X153837029Y-114302557D01*
X153826876Y-114321553D01*
X153813208Y-114338208D01*
X153796553Y-114351876D01*
X153777557Y-114362029D01*
X153756938Y-114368284D01*
X153729360Y-114371000D01*
X153270640Y-114371000D01*
X153243062Y-114368284D01*
X153222443Y-114362029D01*
X153203447Y-114351876D01*
X153186792Y-114338208D01*
X153173124Y-114321553D01*
X153162971Y-114302557D01*
X153156716Y-114281938D01*
X153154000Y-114254360D01*
X153154000Y-113745640D01*
X153156716Y-113718062D01*
X153162971Y-113697443D01*
X153173124Y-113678447D01*
X153186792Y-113661792D01*
X153203447Y-113648124D01*
X153222443Y-113637971D01*
X153243062Y-113631716D01*
X153270640Y-113629000D01*
X153729360Y-113629000D01*
X153756938Y-113631716D01*
X153756938Y-113631716D01*
G37*
G36*
X154726938Y-113631716D02*
G01*
X154747557Y-113637971D01*
X154766553Y-113648124D01*
X154783208Y-113661792D01*
X154796876Y-113678447D01*
X154807029Y-113697443D01*
X154813284Y-113718062D01*
X154816000Y-113745640D01*
X154816000Y-114254360D01*
X154813284Y-114281938D01*
X154807029Y-114302557D01*
X154796876Y-114321553D01*
X154783208Y-114338208D01*
X154766553Y-114351876D01*
X154747557Y-114362029D01*
X154726938Y-114368284D01*
X154699360Y-114371000D01*
X154240640Y-114371000D01*
X154213062Y-114368284D01*
X154192443Y-114362029D01*
X154173447Y-114351876D01*
X154156792Y-114338208D01*
X154143124Y-114321553D01*
X154132971Y-114302557D01*
X154126716Y-114281938D01*
X154124000Y-114254360D01*
X154124000Y-113745640D01*
X154126716Y-113718062D01*
X154132971Y-113697443D01*
X154143124Y-113678447D01*
X154156792Y-113661792D01*
X154173447Y-113648124D01*
X154192443Y-113637971D01*
X154213062Y-113631716D01*
X154240640Y-113629000D01*
X154699360Y-113629000D01*
X154726938Y-113631716D01*
X154726938Y-113631716D01*
G37*
G36*
X121400442Y-112425518D02*
G01*
X121466627Y-112432037D01*
X121636466Y-112483557D01*
X121792991Y-112567222D01*
X121828729Y-112596552D01*
X121930186Y-112679814D01*
X122013448Y-112781271D01*
X122042778Y-112817009D01*
X122126443Y-112973534D01*
X122177963Y-113143373D01*
X122195359Y-113320000D01*
X122177963Y-113496627D01*
X122126443Y-113666466D01*
X122042778Y-113822991D01*
X122013448Y-113858729D01*
X121930186Y-113960186D01*
X121828729Y-114043448D01*
X121792991Y-114072778D01*
X121636466Y-114156443D01*
X121466627Y-114207963D01*
X121400442Y-114214482D01*
X121334260Y-114221000D01*
X121245740Y-114221000D01*
X121179558Y-114214482D01*
X121113373Y-114207963D01*
X120943534Y-114156443D01*
X120787009Y-114072778D01*
X120751271Y-114043448D01*
X120649814Y-113960186D01*
X120566552Y-113858729D01*
X120537222Y-113822991D01*
X120453557Y-113666466D01*
X120402037Y-113496627D01*
X120384641Y-113320000D01*
X120402037Y-113143373D01*
X120453557Y-112973534D01*
X120537222Y-112817009D01*
X120566552Y-112781271D01*
X120649814Y-112679814D01*
X120751271Y-112596552D01*
X120787009Y-112567222D01*
X120943534Y-112483557D01*
X121113373Y-112432037D01*
X121179558Y-112425518D01*
X121245740Y-112419000D01*
X121334260Y-112419000D01*
X121400442Y-112425518D01*
X121400442Y-112425518D01*
G37*
G36*
X118860442Y-112425518D02*
G01*
X118926627Y-112432037D01*
X119096466Y-112483557D01*
X119252991Y-112567222D01*
X119288729Y-112596552D01*
X119390186Y-112679814D01*
X119473448Y-112781271D01*
X119502778Y-112817009D01*
X119586443Y-112973534D01*
X119637963Y-113143373D01*
X119655359Y-113320000D01*
X119637963Y-113496627D01*
X119586443Y-113666466D01*
X119502778Y-113822991D01*
X119473448Y-113858729D01*
X119390186Y-113960186D01*
X119288729Y-114043448D01*
X119252991Y-114072778D01*
X119096466Y-114156443D01*
X118926627Y-114207963D01*
X118860442Y-114214482D01*
X118794260Y-114221000D01*
X118705740Y-114221000D01*
X118639558Y-114214482D01*
X118573373Y-114207963D01*
X118403534Y-114156443D01*
X118247009Y-114072778D01*
X118211271Y-114043448D01*
X118109814Y-113960186D01*
X118026552Y-113858729D01*
X117997222Y-113822991D01*
X117913557Y-113666466D01*
X117862037Y-113496627D01*
X117844641Y-113320000D01*
X117862037Y-113143373D01*
X117913557Y-112973534D01*
X117997222Y-112817009D01*
X118026552Y-112781271D01*
X118109814Y-112679814D01*
X118211271Y-112596552D01*
X118247009Y-112567222D01*
X118403534Y-112483557D01*
X118573373Y-112432037D01*
X118639558Y-112425518D01*
X118705740Y-112419000D01*
X118794260Y-112419000D01*
X118860442Y-112425518D01*
X118860442Y-112425518D01*
G37*
G36*
X157251000Y-113501000D02*
G01*
X156349000Y-113501000D01*
X156349000Y-112499000D01*
X157251000Y-112499000D01*
X157251000Y-113501000D01*
X157251000Y-113501000D01*
G37*
G36*
X159151000Y-113501000D02*
G01*
X158249000Y-113501000D01*
X158249000Y-112499000D01*
X159151000Y-112499000D01*
X159151000Y-113501000D01*
X159151000Y-113501000D01*
G37*
G36*
X153771938Y-112381716D02*
G01*
X153792557Y-112387971D01*
X153811553Y-112398124D01*
X153828208Y-112411792D01*
X153841876Y-112428447D01*
X153852029Y-112447443D01*
X153858284Y-112468062D01*
X153861000Y-112495640D01*
X153861000Y-113004360D01*
X153858284Y-113031938D01*
X153852029Y-113052557D01*
X153841876Y-113071553D01*
X153828208Y-113088208D01*
X153811553Y-113101876D01*
X153792557Y-113112029D01*
X153771938Y-113118284D01*
X153744360Y-113121000D01*
X153285640Y-113121000D01*
X153258062Y-113118284D01*
X153237443Y-113112029D01*
X153218447Y-113101876D01*
X153201792Y-113088208D01*
X153188124Y-113071553D01*
X153177971Y-113052557D01*
X153171716Y-113031938D01*
X153169000Y-113004360D01*
X153169000Y-112495640D01*
X153171716Y-112468062D01*
X153177971Y-112447443D01*
X153188124Y-112428447D01*
X153201792Y-112411792D01*
X153218447Y-112398124D01*
X153237443Y-112387971D01*
X153258062Y-112381716D01*
X153285640Y-112379000D01*
X153744360Y-112379000D01*
X153771938Y-112381716D01*
X153771938Y-112381716D01*
G37*
G36*
X154741938Y-112381716D02*
G01*
X154762557Y-112387971D01*
X154781553Y-112398124D01*
X154798208Y-112411792D01*
X154811876Y-112428447D01*
X154822029Y-112447443D01*
X154828284Y-112468062D01*
X154831000Y-112495640D01*
X154831000Y-113004360D01*
X154828284Y-113031938D01*
X154822029Y-113052557D01*
X154811876Y-113071553D01*
X154798208Y-113088208D01*
X154781553Y-113101876D01*
X154762557Y-113112029D01*
X154741938Y-113118284D01*
X154714360Y-113121000D01*
X154255640Y-113121000D01*
X154228062Y-113118284D01*
X154207443Y-113112029D01*
X154188447Y-113101876D01*
X154171792Y-113088208D01*
X154158124Y-113071553D01*
X154147971Y-113052557D01*
X154141716Y-113031938D01*
X154139000Y-113004360D01*
X154139000Y-112495640D01*
X154141716Y-112468062D01*
X154147971Y-112447443D01*
X154158124Y-112428447D01*
X154171792Y-112411792D01*
X154188447Y-112398124D01*
X154207443Y-112387971D01*
X154228062Y-112381716D01*
X154255640Y-112379000D01*
X154714360Y-112379000D01*
X154741938Y-112381716D01*
X154741938Y-112381716D01*
G37*
G36*
X163151000Y-113001000D02*
G01*
X162249000Y-113001000D01*
X162249000Y-111999000D01*
X163151000Y-111999000D01*
X163151000Y-113001000D01*
X163151000Y-113001000D01*
G37*
G36*
X161251000Y-113001000D02*
G01*
X160349000Y-113001000D01*
X160349000Y-111999000D01*
X161251000Y-111999000D01*
X161251000Y-113001000D01*
X161251000Y-113001000D01*
G37*
G36*
X164860442Y-110685518D02*
G01*
X164926627Y-110692037D01*
X165096466Y-110743557D01*
X165252991Y-110827222D01*
X165288729Y-110856552D01*
X165390186Y-110939814D01*
X165440399Y-111001000D01*
X165502778Y-111077009D01*
X165586443Y-111233534D01*
X165637963Y-111403373D01*
X165655359Y-111580000D01*
X165637963Y-111756627D01*
X165586443Y-111926466D01*
X165502778Y-112082991D01*
X165498496Y-112088208D01*
X165390186Y-112220186D01*
X165288729Y-112303448D01*
X165252991Y-112332778D01*
X165096466Y-112416443D01*
X164926627Y-112467963D01*
X164860442Y-112474482D01*
X164794260Y-112481000D01*
X164705740Y-112481000D01*
X164639558Y-112474482D01*
X164573373Y-112467963D01*
X164403534Y-112416443D01*
X164247009Y-112332778D01*
X164211271Y-112303448D01*
X164109814Y-112220186D01*
X164001504Y-112088208D01*
X163997222Y-112082991D01*
X163913557Y-111926466D01*
X163862037Y-111756627D01*
X163844641Y-111580000D01*
X163862037Y-111403373D01*
X163913557Y-111233534D01*
X163997222Y-111077009D01*
X164059601Y-111001000D01*
X164109814Y-110939814D01*
X164211271Y-110856552D01*
X164247009Y-110827222D01*
X164403534Y-110743557D01*
X164573373Y-110692037D01*
X164639558Y-110685518D01*
X164705740Y-110679000D01*
X164794260Y-110679000D01*
X164860442Y-110685518D01*
X164860442Y-110685518D01*
G37*
G36*
X157506938Y-111381716D02*
G01*
X157527557Y-111387971D01*
X157546553Y-111398124D01*
X157563208Y-111411792D01*
X157576876Y-111428447D01*
X157587029Y-111447443D01*
X157593284Y-111468062D01*
X157596000Y-111495640D01*
X157596000Y-112004360D01*
X157593284Y-112031938D01*
X157587029Y-112052557D01*
X157576876Y-112071553D01*
X157563208Y-112088208D01*
X157546553Y-112101876D01*
X157527557Y-112112029D01*
X157506938Y-112118284D01*
X157479360Y-112121000D01*
X157020640Y-112121000D01*
X156993062Y-112118284D01*
X156972443Y-112112029D01*
X156953447Y-112101876D01*
X156936792Y-112088208D01*
X156923124Y-112071553D01*
X156912971Y-112052557D01*
X156906716Y-112031938D01*
X156904000Y-112004360D01*
X156904000Y-111495640D01*
X156906716Y-111468062D01*
X156912971Y-111447443D01*
X156923124Y-111428447D01*
X156936792Y-111411792D01*
X156953447Y-111398124D01*
X156972443Y-111387971D01*
X156993062Y-111381716D01*
X157020640Y-111379000D01*
X157479360Y-111379000D01*
X157506938Y-111381716D01*
X157506938Y-111381716D01*
G37*
G36*
X158476938Y-111381716D02*
G01*
X158497557Y-111387971D01*
X158516553Y-111398124D01*
X158533208Y-111411792D01*
X158546876Y-111428447D01*
X158557029Y-111447443D01*
X158563284Y-111468062D01*
X158566000Y-111495640D01*
X158566000Y-112004360D01*
X158563284Y-112031938D01*
X158557029Y-112052557D01*
X158546876Y-112071553D01*
X158533208Y-112088208D01*
X158516553Y-112101876D01*
X158497557Y-112112029D01*
X158476938Y-112118284D01*
X158449360Y-112121000D01*
X157990640Y-112121000D01*
X157963062Y-112118284D01*
X157942443Y-112112029D01*
X157923447Y-112101876D01*
X157906792Y-112088208D01*
X157893124Y-112071553D01*
X157882971Y-112052557D01*
X157876716Y-112031938D01*
X157874000Y-112004360D01*
X157874000Y-111495640D01*
X157876716Y-111468062D01*
X157882971Y-111447443D01*
X157893124Y-111428447D01*
X157906792Y-111411792D01*
X157923447Y-111398124D01*
X157942443Y-111387971D01*
X157963062Y-111381716D01*
X157990640Y-111379000D01*
X158449360Y-111379000D01*
X158476938Y-111381716D01*
X158476938Y-111381716D01*
G37*
G36*
X153771938Y-111131716D02*
G01*
X153792557Y-111137971D01*
X153811553Y-111148124D01*
X153828208Y-111161792D01*
X153841876Y-111178447D01*
X153852029Y-111197443D01*
X153858284Y-111218062D01*
X153861000Y-111245640D01*
X153861000Y-111754360D01*
X153858284Y-111781938D01*
X153852029Y-111802557D01*
X153841876Y-111821553D01*
X153828208Y-111838208D01*
X153811553Y-111851876D01*
X153792557Y-111862029D01*
X153771938Y-111868284D01*
X153744360Y-111871000D01*
X153285640Y-111871000D01*
X153258062Y-111868284D01*
X153237443Y-111862029D01*
X153218447Y-111851876D01*
X153201792Y-111838208D01*
X153188124Y-111821553D01*
X153177971Y-111802557D01*
X153171716Y-111781938D01*
X153169000Y-111754360D01*
X153169000Y-111245640D01*
X153171716Y-111218062D01*
X153177971Y-111197443D01*
X153188124Y-111178447D01*
X153201792Y-111161792D01*
X153218447Y-111148124D01*
X153237443Y-111137971D01*
X153258062Y-111131716D01*
X153285640Y-111129000D01*
X153744360Y-111129000D01*
X153771938Y-111131716D01*
X153771938Y-111131716D01*
G37*
G36*
X154741938Y-111131716D02*
G01*
X154762557Y-111137971D01*
X154781553Y-111148124D01*
X154798208Y-111161792D01*
X154811876Y-111178447D01*
X154822029Y-111197443D01*
X154828284Y-111218062D01*
X154831000Y-111245640D01*
X154831000Y-111754360D01*
X154828284Y-111781938D01*
X154822029Y-111802557D01*
X154811876Y-111821553D01*
X154798208Y-111838208D01*
X154781553Y-111851876D01*
X154762557Y-111862029D01*
X154741938Y-111868284D01*
X154714360Y-111871000D01*
X154255640Y-111871000D01*
X154228062Y-111868284D01*
X154207443Y-111862029D01*
X154188447Y-111851876D01*
X154171792Y-111838208D01*
X154158124Y-111821553D01*
X154147971Y-111802557D01*
X154141716Y-111781938D01*
X154139000Y-111754360D01*
X154139000Y-111245640D01*
X154141716Y-111218062D01*
X154147971Y-111197443D01*
X154158124Y-111178447D01*
X154171792Y-111161792D01*
X154188447Y-111148124D01*
X154207443Y-111137971D01*
X154228062Y-111131716D01*
X154255640Y-111129000D01*
X154714360Y-111129000D01*
X154741938Y-111131716D01*
X154741938Y-111131716D01*
G37*
G36*
X118860443Y-109885519D02*
G01*
X118926627Y-109892037D01*
X119096466Y-109943557D01*
X119252991Y-110027222D01*
X119283183Y-110052000D01*
X119390186Y-110139814D01*
X119473448Y-110241271D01*
X119502778Y-110277009D01*
X119586443Y-110433534D01*
X119637963Y-110603373D01*
X119655359Y-110780000D01*
X119637963Y-110956627D01*
X119601445Y-111077011D01*
X119586442Y-111126468D01*
X119569504Y-111158156D01*
X119502778Y-111282991D01*
X119473448Y-111318729D01*
X119390186Y-111420186D01*
X119288729Y-111503448D01*
X119252991Y-111532778D01*
X119096466Y-111616443D01*
X118926627Y-111667963D01*
X118860443Y-111674481D01*
X118794260Y-111681000D01*
X118705740Y-111681000D01*
X118639557Y-111674481D01*
X118573373Y-111667963D01*
X118403534Y-111616443D01*
X118247009Y-111532778D01*
X118211271Y-111503448D01*
X118109814Y-111420186D01*
X118026552Y-111318729D01*
X117997222Y-111282991D01*
X117930496Y-111158156D01*
X117913558Y-111126468D01*
X117898555Y-111077011D01*
X117862037Y-110956627D01*
X117844641Y-110780000D01*
X117862037Y-110603373D01*
X117913557Y-110433534D01*
X117997222Y-110277009D01*
X118026552Y-110241271D01*
X118109814Y-110139814D01*
X118216817Y-110052000D01*
X118247009Y-110027222D01*
X118403534Y-109943557D01*
X118573373Y-109892037D01*
X118639557Y-109885519D01*
X118705740Y-109879000D01*
X118794260Y-109879000D01*
X118860443Y-109885519D01*
X118860443Y-109885519D01*
G37*
G36*
X121400443Y-109885519D02*
G01*
X121466627Y-109892037D01*
X121636466Y-109943557D01*
X121792991Y-110027222D01*
X121823183Y-110052000D01*
X121930186Y-110139814D01*
X122013448Y-110241271D01*
X122042778Y-110277009D01*
X122126443Y-110433534D01*
X122177963Y-110603373D01*
X122195359Y-110780000D01*
X122177963Y-110956627D01*
X122141445Y-111077011D01*
X122126442Y-111126468D01*
X122109504Y-111158156D01*
X122042778Y-111282991D01*
X122013448Y-111318729D01*
X121930186Y-111420186D01*
X121828729Y-111503448D01*
X121792991Y-111532778D01*
X121636466Y-111616443D01*
X121466627Y-111667963D01*
X121400443Y-111674481D01*
X121334260Y-111681000D01*
X121245740Y-111681000D01*
X121179557Y-111674481D01*
X121113373Y-111667963D01*
X120943534Y-111616443D01*
X120787009Y-111532778D01*
X120751271Y-111503448D01*
X120649814Y-111420186D01*
X120566552Y-111318729D01*
X120537222Y-111282991D01*
X120470496Y-111158156D01*
X120453558Y-111126468D01*
X120438555Y-111077011D01*
X120402037Y-110956627D01*
X120384641Y-110780000D01*
X120402037Y-110603373D01*
X120453557Y-110433534D01*
X120537222Y-110277009D01*
X120566552Y-110241271D01*
X120649814Y-110139814D01*
X120756817Y-110052000D01*
X120787009Y-110027222D01*
X120943534Y-109943557D01*
X121113373Y-109892037D01*
X121179557Y-109885519D01*
X121245740Y-109879000D01*
X121334260Y-109879000D01*
X121400443Y-109885519D01*
X121400443Y-109885519D01*
G37*
G36*
X162201000Y-111001000D02*
G01*
X161299000Y-111001000D01*
X161299000Y-109999000D01*
X162201000Y-109999000D01*
X162201000Y-111001000D01*
X162201000Y-111001000D01*
G37*
G36*
X153771938Y-109881716D02*
G01*
X153792557Y-109887971D01*
X153811553Y-109898124D01*
X153828208Y-109911792D01*
X153841876Y-109928447D01*
X153852029Y-109947443D01*
X153858284Y-109968062D01*
X153861000Y-109995640D01*
X153861000Y-110504360D01*
X153858284Y-110531938D01*
X153852029Y-110552557D01*
X153841876Y-110571553D01*
X153828208Y-110588208D01*
X153811553Y-110601876D01*
X153792557Y-110612029D01*
X153771938Y-110618284D01*
X153744360Y-110621000D01*
X153285640Y-110621000D01*
X153258062Y-110618284D01*
X153237443Y-110612029D01*
X153218447Y-110601876D01*
X153201792Y-110588208D01*
X153188124Y-110571553D01*
X153177971Y-110552557D01*
X153171716Y-110531938D01*
X153169000Y-110504360D01*
X153169000Y-109995640D01*
X153171716Y-109968062D01*
X153177971Y-109947443D01*
X153188124Y-109928447D01*
X153201792Y-109911792D01*
X153218447Y-109898124D01*
X153237443Y-109887971D01*
X153258062Y-109881716D01*
X153285640Y-109879000D01*
X153744360Y-109879000D01*
X153771938Y-109881716D01*
X153771938Y-109881716D01*
G37*
G36*
X154741938Y-109881716D02*
G01*
X154762557Y-109887971D01*
X154781553Y-109898124D01*
X154798208Y-109911792D01*
X154811876Y-109928447D01*
X154822029Y-109947443D01*
X154828284Y-109968062D01*
X154831000Y-109995640D01*
X154831000Y-110504360D01*
X154828284Y-110531938D01*
X154822029Y-110552557D01*
X154811876Y-110571553D01*
X154798208Y-110588208D01*
X154781553Y-110601876D01*
X154762557Y-110612029D01*
X154741938Y-110618284D01*
X154714360Y-110621000D01*
X154255640Y-110621000D01*
X154228062Y-110618284D01*
X154207443Y-110612029D01*
X154188447Y-110601876D01*
X154171792Y-110588208D01*
X154158124Y-110571553D01*
X154147971Y-110552557D01*
X154141716Y-110531938D01*
X154139000Y-110504360D01*
X154139000Y-109995640D01*
X154141716Y-109968062D01*
X154147971Y-109947443D01*
X154158124Y-109928447D01*
X154171792Y-109911792D01*
X154188447Y-109898124D01*
X154207443Y-109887971D01*
X154228062Y-109881716D01*
X154255640Y-109879000D01*
X154714360Y-109879000D01*
X154741938Y-109881716D01*
X154741938Y-109881716D01*
G37*
G36*
X158251000Y-110501000D02*
G01*
X157349000Y-110501000D01*
X157349000Y-109499000D01*
X158251000Y-109499000D01*
X158251000Y-110501000D01*
X158251000Y-110501000D01*
G37*
G36*
X164860443Y-108145519D02*
G01*
X164926627Y-108152037D01*
X165096466Y-108203557D01*
X165252991Y-108287222D01*
X165288729Y-108316552D01*
X165390186Y-108399814D01*
X165468827Y-108495640D01*
X165502778Y-108537009D01*
X165586443Y-108693534D01*
X165637963Y-108863373D01*
X165655359Y-109040000D01*
X165637963Y-109216627D01*
X165586443Y-109386466D01*
X165502778Y-109542991D01*
X165473448Y-109578729D01*
X165390186Y-109680186D01*
X165288729Y-109763448D01*
X165252991Y-109792778D01*
X165096466Y-109876443D01*
X164926627Y-109927963D01*
X164860442Y-109934482D01*
X164794260Y-109941000D01*
X164705740Y-109941000D01*
X164639558Y-109934482D01*
X164573373Y-109927963D01*
X164403534Y-109876443D01*
X164247009Y-109792778D01*
X164211271Y-109763448D01*
X164109814Y-109680186D01*
X164026552Y-109578729D01*
X163997222Y-109542991D01*
X163913557Y-109386466D01*
X163862037Y-109216627D01*
X163844641Y-109040000D01*
X163862037Y-108863373D01*
X163913557Y-108693534D01*
X163997222Y-108537009D01*
X164031173Y-108495640D01*
X164109814Y-108399814D01*
X164211271Y-108316552D01*
X164247009Y-108287222D01*
X164403534Y-108203557D01*
X164573373Y-108152037D01*
X164639557Y-108145519D01*
X164705740Y-108139000D01*
X164794260Y-108139000D01*
X164860443Y-108145519D01*
X164860443Y-108145519D01*
G37*
G36*
X153771938Y-108631716D02*
G01*
X153792557Y-108637971D01*
X153811553Y-108648124D01*
X153828208Y-108661792D01*
X153841876Y-108678447D01*
X153852029Y-108697443D01*
X153858284Y-108718062D01*
X153861000Y-108745640D01*
X153861000Y-109254360D01*
X153858284Y-109281938D01*
X153852029Y-109302557D01*
X153841876Y-109321553D01*
X153828208Y-109338208D01*
X153811553Y-109351876D01*
X153792557Y-109362029D01*
X153771938Y-109368284D01*
X153744360Y-109371000D01*
X153285640Y-109371000D01*
X153258062Y-109368284D01*
X153237443Y-109362029D01*
X153218447Y-109351876D01*
X153201792Y-109338208D01*
X153188124Y-109321553D01*
X153177971Y-109302557D01*
X153171716Y-109281938D01*
X153169000Y-109254360D01*
X153169000Y-108745640D01*
X153171716Y-108718062D01*
X153177971Y-108697443D01*
X153188124Y-108678447D01*
X153201792Y-108661792D01*
X153218447Y-108648124D01*
X153237443Y-108637971D01*
X153258062Y-108631716D01*
X153285640Y-108629000D01*
X153744360Y-108629000D01*
X153771938Y-108631716D01*
X153771938Y-108631716D01*
G37*
G36*
X154741938Y-108631716D02*
G01*
X154762557Y-108637971D01*
X154781553Y-108648124D01*
X154798208Y-108661792D01*
X154811876Y-108678447D01*
X154822029Y-108697443D01*
X154828284Y-108718062D01*
X154831000Y-108745640D01*
X154831000Y-109254360D01*
X154828284Y-109281938D01*
X154822029Y-109302557D01*
X154811876Y-109321553D01*
X154798208Y-109338208D01*
X154781553Y-109351876D01*
X154762557Y-109362029D01*
X154741938Y-109368284D01*
X154714360Y-109371000D01*
X154255640Y-109371000D01*
X154228062Y-109368284D01*
X154207443Y-109362029D01*
X154188447Y-109351876D01*
X154171792Y-109338208D01*
X154158124Y-109321553D01*
X154147971Y-109302557D01*
X154141716Y-109281938D01*
X154139000Y-109254360D01*
X154139000Y-108745640D01*
X154141716Y-108718062D01*
X154147971Y-108697443D01*
X154158124Y-108678447D01*
X154171792Y-108661792D01*
X154188447Y-108648124D01*
X154207443Y-108637971D01*
X154228062Y-108631716D01*
X154255640Y-108629000D01*
X154714360Y-108629000D01*
X154741938Y-108631716D01*
X154741938Y-108631716D01*
G37*
G36*
X121400443Y-107345519D02*
G01*
X121466627Y-107352037D01*
X121636466Y-107403557D01*
X121636468Y-107403558D01*
X121714729Y-107445390D01*
X121792991Y-107487222D01*
X121803248Y-107495640D01*
X121930186Y-107599814D01*
X122013448Y-107701271D01*
X122042778Y-107737009D01*
X122126443Y-107893534D01*
X122177963Y-108063373D01*
X122195359Y-108240000D01*
X122177963Y-108416627D01*
X122126443Y-108586466D01*
X122042778Y-108742991D01*
X122022049Y-108768249D01*
X121930186Y-108880186D01*
X121847553Y-108948000D01*
X121792991Y-108992778D01*
X121792989Y-108992779D01*
X121645615Y-109071553D01*
X121636466Y-109076443D01*
X121466627Y-109127963D01*
X121400442Y-109134482D01*
X121334260Y-109141000D01*
X121245740Y-109141000D01*
X121179558Y-109134482D01*
X121113373Y-109127963D01*
X120943534Y-109076443D01*
X120934386Y-109071553D01*
X120787011Y-108992779D01*
X120787009Y-108992778D01*
X120732447Y-108948000D01*
X120649814Y-108880186D01*
X120557951Y-108768249D01*
X120537222Y-108742991D01*
X120453557Y-108586466D01*
X120402037Y-108416627D01*
X120384641Y-108240000D01*
X120402037Y-108063373D01*
X120453557Y-107893534D01*
X120537222Y-107737009D01*
X120566552Y-107701271D01*
X120649814Y-107599814D01*
X120776752Y-107495640D01*
X120787009Y-107487222D01*
X120865271Y-107445390D01*
X120943532Y-107403558D01*
X120943534Y-107403557D01*
X121113373Y-107352037D01*
X121179557Y-107345519D01*
X121245740Y-107339000D01*
X121334260Y-107339000D01*
X121400443Y-107345519D01*
X121400443Y-107345519D01*
G37*
G36*
X118860443Y-107345519D02*
G01*
X118926627Y-107352037D01*
X119096466Y-107403557D01*
X119096468Y-107403558D01*
X119174729Y-107445390D01*
X119252991Y-107487222D01*
X119263248Y-107495640D01*
X119390186Y-107599814D01*
X119473448Y-107701271D01*
X119502778Y-107737009D01*
X119586443Y-107893534D01*
X119637963Y-108063373D01*
X119655359Y-108240000D01*
X119637963Y-108416627D01*
X119586443Y-108586466D01*
X119502778Y-108742991D01*
X119482049Y-108768249D01*
X119390186Y-108880186D01*
X119307553Y-108948000D01*
X119252991Y-108992778D01*
X119252989Y-108992779D01*
X119105615Y-109071553D01*
X119096466Y-109076443D01*
X118926627Y-109127963D01*
X118860442Y-109134482D01*
X118794260Y-109141000D01*
X118705740Y-109141000D01*
X118639558Y-109134482D01*
X118573373Y-109127963D01*
X118403534Y-109076443D01*
X118394386Y-109071553D01*
X118247011Y-108992779D01*
X118247009Y-108992778D01*
X118192447Y-108948000D01*
X118109814Y-108880186D01*
X118017951Y-108768249D01*
X117997222Y-108742991D01*
X117913557Y-108586466D01*
X117862037Y-108416627D01*
X117844641Y-108240000D01*
X117862037Y-108063373D01*
X117913557Y-107893534D01*
X117997222Y-107737009D01*
X118026552Y-107701271D01*
X118109814Y-107599814D01*
X118236752Y-107495640D01*
X118247009Y-107487222D01*
X118325271Y-107445390D01*
X118403532Y-107403558D01*
X118403534Y-107403557D01*
X118573373Y-107352037D01*
X118639557Y-107345519D01*
X118705740Y-107339000D01*
X118794260Y-107339000D01*
X118860443Y-107345519D01*
X118860443Y-107345519D01*
G37*
G36*
X162491938Y-108381716D02*
G01*
X162512557Y-108387971D01*
X162531553Y-108398124D01*
X162548208Y-108411792D01*
X162561876Y-108428447D01*
X162572029Y-108447443D01*
X162578284Y-108468062D01*
X162581000Y-108495640D01*
X162581000Y-109004360D01*
X162578284Y-109031938D01*
X162572029Y-109052557D01*
X162561876Y-109071553D01*
X162548208Y-109088208D01*
X162531553Y-109101876D01*
X162512557Y-109112029D01*
X162491938Y-109118284D01*
X162464360Y-109121000D01*
X162005640Y-109121000D01*
X161978062Y-109118284D01*
X161957443Y-109112029D01*
X161938447Y-109101876D01*
X161921792Y-109088208D01*
X161908124Y-109071553D01*
X161897971Y-109052557D01*
X161891716Y-109031938D01*
X161889000Y-109004360D01*
X161889000Y-108495640D01*
X161891716Y-108468062D01*
X161897971Y-108447443D01*
X161908124Y-108428447D01*
X161921792Y-108411792D01*
X161938447Y-108398124D01*
X161957443Y-108387971D01*
X161978062Y-108381716D01*
X162005640Y-108379000D01*
X162464360Y-108379000D01*
X162491938Y-108381716D01*
X162491938Y-108381716D01*
G37*
G36*
X161521938Y-108381716D02*
G01*
X161542557Y-108387971D01*
X161561553Y-108398124D01*
X161578208Y-108411792D01*
X161591876Y-108428447D01*
X161602029Y-108447443D01*
X161608284Y-108468062D01*
X161611000Y-108495640D01*
X161611000Y-109004360D01*
X161608284Y-109031938D01*
X161602029Y-109052557D01*
X161591876Y-109071553D01*
X161578208Y-109088208D01*
X161561553Y-109101876D01*
X161542557Y-109112029D01*
X161521938Y-109118284D01*
X161494360Y-109121000D01*
X161035640Y-109121000D01*
X161008062Y-109118284D01*
X160987443Y-109112029D01*
X160968447Y-109101876D01*
X160951792Y-109088208D01*
X160938124Y-109071553D01*
X160927971Y-109052557D01*
X160921716Y-109031938D01*
X160919000Y-109004360D01*
X160919000Y-108495640D01*
X160921716Y-108468062D01*
X160927971Y-108447443D01*
X160938124Y-108428447D01*
X160951792Y-108411792D01*
X160968447Y-108398124D01*
X160987443Y-108387971D01*
X161008062Y-108381716D01*
X161035640Y-108379000D01*
X161494360Y-108379000D01*
X161521938Y-108381716D01*
X161521938Y-108381716D01*
G37*
G36*
X157301000Y-108501000D02*
G01*
X156399000Y-108501000D01*
X156399000Y-107499000D01*
X157301000Y-107499000D01*
X157301000Y-108501000D01*
X157301000Y-108501000D01*
G37*
G36*
X159201000Y-108501000D02*
G01*
X158299000Y-108501000D01*
X158299000Y-107499000D01*
X159201000Y-107499000D01*
X159201000Y-108501000D01*
X159201000Y-108501000D01*
G37*
G36*
X153756938Y-107381716D02*
G01*
X153777557Y-107387971D01*
X153796553Y-107398124D01*
X153813208Y-107411792D01*
X153826876Y-107428447D01*
X153837029Y-107447443D01*
X153843284Y-107468062D01*
X153846000Y-107495640D01*
X153846000Y-108004360D01*
X153843284Y-108031938D01*
X153837029Y-108052557D01*
X153826876Y-108071553D01*
X153813208Y-108088208D01*
X153796553Y-108101876D01*
X153777557Y-108112029D01*
X153756938Y-108118284D01*
X153729360Y-108121000D01*
X153270640Y-108121000D01*
X153243062Y-108118284D01*
X153222443Y-108112029D01*
X153203447Y-108101876D01*
X153186792Y-108088208D01*
X153173124Y-108071553D01*
X153162971Y-108052557D01*
X153156716Y-108031938D01*
X153154000Y-108004360D01*
X153154000Y-107495640D01*
X153156716Y-107468062D01*
X153162971Y-107447443D01*
X153173124Y-107428447D01*
X153186792Y-107411792D01*
X153203447Y-107398124D01*
X153222443Y-107387971D01*
X153243062Y-107381716D01*
X153270640Y-107379000D01*
X153729360Y-107379000D01*
X153756938Y-107381716D01*
X153756938Y-107381716D01*
G37*
G36*
X154726938Y-107381716D02*
G01*
X154747557Y-107387971D01*
X154766553Y-107398124D01*
X154783208Y-107411792D01*
X154796876Y-107428447D01*
X154807029Y-107447443D01*
X154813284Y-107468062D01*
X154816000Y-107495640D01*
X154816000Y-108004360D01*
X154813284Y-108031938D01*
X154807029Y-108052557D01*
X154796876Y-108071553D01*
X154783208Y-108088208D01*
X154766553Y-108101876D01*
X154747557Y-108112029D01*
X154726938Y-108118284D01*
X154699360Y-108121000D01*
X154240640Y-108121000D01*
X154213062Y-108118284D01*
X154192443Y-108112029D01*
X154173447Y-108101876D01*
X154156792Y-108088208D01*
X154143124Y-108071553D01*
X154132971Y-108052557D01*
X154126716Y-108031938D01*
X154124000Y-108004360D01*
X154124000Y-107495640D01*
X154126716Y-107468062D01*
X154132971Y-107447443D01*
X154143124Y-107428447D01*
X154156792Y-107411792D01*
X154173447Y-107398124D01*
X154192443Y-107387971D01*
X154213062Y-107381716D01*
X154240640Y-107379000D01*
X154699360Y-107379000D01*
X154726938Y-107381716D01*
X154726938Y-107381716D01*
G37*
G36*
X161251000Y-108001000D02*
G01*
X160349000Y-108001000D01*
X160349000Y-106999000D01*
X161251000Y-106999000D01*
X161251000Y-108001000D01*
X161251000Y-108001000D01*
G37*
G36*
X163151000Y-108001000D02*
G01*
X162249000Y-108001000D01*
X162249000Y-106999000D01*
X163151000Y-106999000D01*
X163151000Y-108001000D01*
X163151000Y-108001000D01*
G37*
G36*
X129601000Y-107801000D02*
G01*
X127999000Y-107801000D01*
X127999000Y-102699000D01*
X129601000Y-102699000D01*
X129601000Y-107801000D01*
X129601000Y-107801000D01*
G37*
G36*
X135501000Y-107801000D02*
G01*
X133899000Y-107801000D01*
X133899000Y-102699000D01*
X135501000Y-102699000D01*
X135501000Y-107801000D01*
X135501000Y-107801000D01*
G37*
G36*
X151251000Y-107551000D02*
G01*
X149649000Y-107551000D01*
X149649000Y-102449000D01*
X151251000Y-102449000D01*
X151251000Y-107551000D01*
X151251000Y-107551000D01*
G37*
G36*
X145351000Y-107551000D02*
G01*
X143749000Y-107551000D01*
X143749000Y-102449000D01*
X145351000Y-102449000D01*
X145351000Y-107551000D01*
X145351000Y-107551000D01*
G37*
G36*
X164860442Y-105605518D02*
G01*
X164926627Y-105612037D01*
X165096466Y-105663557D01*
X165252991Y-105747222D01*
X165288729Y-105776552D01*
X165390186Y-105859814D01*
X165463378Y-105949000D01*
X165502778Y-105997009D01*
X165586443Y-106153534D01*
X165637963Y-106323373D01*
X165655359Y-106500000D01*
X165637963Y-106676627D01*
X165586443Y-106846466D01*
X165502778Y-107002991D01*
X165479022Y-107031938D01*
X165390186Y-107140186D01*
X165288729Y-107223448D01*
X165252991Y-107252778D01*
X165096466Y-107336443D01*
X164926627Y-107387963D01*
X164860442Y-107394482D01*
X164794260Y-107401000D01*
X164705740Y-107401000D01*
X164639558Y-107394482D01*
X164573373Y-107387963D01*
X164403534Y-107336443D01*
X164247009Y-107252778D01*
X164211271Y-107223448D01*
X164109814Y-107140186D01*
X164020978Y-107031938D01*
X163997222Y-107002991D01*
X163913557Y-106846466D01*
X163862037Y-106676627D01*
X163844641Y-106500000D01*
X163862037Y-106323373D01*
X163913557Y-106153534D01*
X163997222Y-105997009D01*
X164036622Y-105949000D01*
X164109814Y-105859814D01*
X164211271Y-105776552D01*
X164247009Y-105747222D01*
X164403534Y-105663557D01*
X164573373Y-105612037D01*
X164639557Y-105605519D01*
X164705740Y-105599000D01*
X164794260Y-105599000D01*
X164860442Y-105605518D01*
X164860442Y-105605518D01*
G37*
G36*
X158476938Y-106381716D02*
G01*
X158497557Y-106387971D01*
X158516553Y-106398124D01*
X158533208Y-106411792D01*
X158546876Y-106428447D01*
X158557029Y-106447443D01*
X158563284Y-106468062D01*
X158566000Y-106495640D01*
X158566000Y-107004360D01*
X158563284Y-107031938D01*
X158557029Y-107052557D01*
X158546876Y-107071553D01*
X158533208Y-107088208D01*
X158516553Y-107101876D01*
X158497557Y-107112029D01*
X158476938Y-107118284D01*
X158449360Y-107121000D01*
X157990640Y-107121000D01*
X157963062Y-107118284D01*
X157942443Y-107112029D01*
X157923447Y-107101876D01*
X157906792Y-107088208D01*
X157893124Y-107071553D01*
X157882971Y-107052557D01*
X157876716Y-107031938D01*
X157874000Y-107004360D01*
X157874000Y-106495640D01*
X157876716Y-106468062D01*
X157882971Y-106447443D01*
X157893124Y-106428447D01*
X157906792Y-106411792D01*
X157923447Y-106398124D01*
X157942443Y-106387971D01*
X157963062Y-106381716D01*
X157990640Y-106379000D01*
X158449360Y-106379000D01*
X158476938Y-106381716D01*
X158476938Y-106381716D01*
G37*
G36*
X157506938Y-106381716D02*
G01*
X157527557Y-106387971D01*
X157546553Y-106398124D01*
X157563208Y-106411792D01*
X157576876Y-106428447D01*
X157587029Y-106447443D01*
X157593284Y-106468062D01*
X157596000Y-106495640D01*
X157596000Y-107004360D01*
X157593284Y-107031938D01*
X157587029Y-107052557D01*
X157576876Y-107071553D01*
X157563208Y-107088208D01*
X157546553Y-107101876D01*
X157527557Y-107112029D01*
X157506938Y-107118284D01*
X157479360Y-107121000D01*
X157020640Y-107121000D01*
X156993062Y-107118284D01*
X156972443Y-107112029D01*
X156953447Y-107101876D01*
X156936792Y-107088208D01*
X156923124Y-107071553D01*
X156912971Y-107052557D01*
X156906716Y-107031938D01*
X156904000Y-107004360D01*
X156904000Y-106495640D01*
X156906716Y-106468062D01*
X156912971Y-106447443D01*
X156923124Y-106428447D01*
X156936792Y-106411792D01*
X156953447Y-106398124D01*
X156972443Y-106387971D01*
X156993062Y-106381716D01*
X157020640Y-106379000D01*
X157479360Y-106379000D01*
X157506938Y-106381716D01*
X157506938Y-106381716D01*
G37*
G36*
X154726938Y-106131716D02*
G01*
X154747557Y-106137971D01*
X154766553Y-106148124D01*
X154783208Y-106161792D01*
X154796876Y-106178447D01*
X154807029Y-106197443D01*
X154813284Y-106218062D01*
X154816000Y-106245640D01*
X154816000Y-106754360D01*
X154813284Y-106781938D01*
X154807029Y-106802557D01*
X154796876Y-106821553D01*
X154783208Y-106838208D01*
X154766553Y-106851876D01*
X154747557Y-106862029D01*
X154726938Y-106868284D01*
X154699360Y-106871000D01*
X154240640Y-106871000D01*
X154213062Y-106868284D01*
X154192443Y-106862029D01*
X154173447Y-106851876D01*
X154156792Y-106838208D01*
X154143124Y-106821553D01*
X154132971Y-106802557D01*
X154126716Y-106781938D01*
X154124000Y-106754360D01*
X154124000Y-106245640D01*
X154126716Y-106218062D01*
X154132971Y-106197443D01*
X154143124Y-106178447D01*
X154156792Y-106161792D01*
X154173447Y-106148124D01*
X154192443Y-106137971D01*
X154213062Y-106131716D01*
X154240640Y-106129000D01*
X154699360Y-106129000D01*
X154726938Y-106131716D01*
X154726938Y-106131716D01*
G37*
G36*
X153756938Y-106131716D02*
G01*
X153777557Y-106137971D01*
X153796553Y-106148124D01*
X153813208Y-106161792D01*
X153826876Y-106178447D01*
X153837029Y-106197443D01*
X153843284Y-106218062D01*
X153846000Y-106245640D01*
X153846000Y-106754360D01*
X153843284Y-106781938D01*
X153837029Y-106802557D01*
X153826876Y-106821553D01*
X153813208Y-106838208D01*
X153796553Y-106851876D01*
X153777557Y-106862029D01*
X153756938Y-106868284D01*
X153729360Y-106871000D01*
X153270640Y-106871000D01*
X153243062Y-106868284D01*
X153222443Y-106862029D01*
X153203447Y-106851876D01*
X153186792Y-106838208D01*
X153173124Y-106821553D01*
X153162971Y-106802557D01*
X153156716Y-106781938D01*
X153154000Y-106754360D01*
X153154000Y-106245640D01*
X153156716Y-106218062D01*
X153162971Y-106197443D01*
X153173124Y-106178447D01*
X153186792Y-106161792D01*
X153203447Y-106148124D01*
X153222443Y-106137971D01*
X153243062Y-106131716D01*
X153270640Y-106129000D01*
X153729360Y-106129000D01*
X153756938Y-106131716D01*
X153756938Y-106131716D01*
G37*
G36*
X121400442Y-104805518D02*
G01*
X121466627Y-104812037D01*
X121636466Y-104863557D01*
X121792991Y-104947222D01*
X121818384Y-104968062D01*
X121930186Y-105059814D01*
X122013448Y-105161271D01*
X122042778Y-105197009D01*
X122126443Y-105353534D01*
X122177963Y-105523373D01*
X122195359Y-105700000D01*
X122177963Y-105876627D01*
X122126443Y-106046466D01*
X122042778Y-106202991D01*
X122040402Y-106205886D01*
X121930186Y-106340186D01*
X121828729Y-106423448D01*
X121792991Y-106452778D01*
X121636466Y-106536443D01*
X121466627Y-106587963D01*
X121400443Y-106594481D01*
X121334260Y-106601000D01*
X121245740Y-106601000D01*
X121179557Y-106594481D01*
X121113373Y-106587963D01*
X120943534Y-106536443D01*
X120787009Y-106452778D01*
X120751271Y-106423448D01*
X120649814Y-106340186D01*
X120539598Y-106205886D01*
X120537222Y-106202991D01*
X120453557Y-106046466D01*
X120402037Y-105876627D01*
X120384641Y-105700000D01*
X120402037Y-105523373D01*
X120453557Y-105353534D01*
X120537222Y-105197009D01*
X120566552Y-105161271D01*
X120649814Y-105059814D01*
X120761616Y-104968062D01*
X120787009Y-104947222D01*
X120943534Y-104863557D01*
X121113373Y-104812037D01*
X121179558Y-104805518D01*
X121245740Y-104799000D01*
X121334260Y-104799000D01*
X121400442Y-104805518D01*
X121400442Y-104805518D01*
G37*
G36*
X118860442Y-104805518D02*
G01*
X118926627Y-104812037D01*
X119096466Y-104863557D01*
X119252991Y-104947222D01*
X119278384Y-104968062D01*
X119390186Y-105059814D01*
X119473448Y-105161271D01*
X119502778Y-105197009D01*
X119586443Y-105353534D01*
X119637963Y-105523373D01*
X119655359Y-105700000D01*
X119637963Y-105876627D01*
X119586443Y-106046466D01*
X119502778Y-106202991D01*
X119500402Y-106205886D01*
X119390186Y-106340186D01*
X119288729Y-106423448D01*
X119252991Y-106452778D01*
X119096466Y-106536443D01*
X118926627Y-106587963D01*
X118860443Y-106594481D01*
X118794260Y-106601000D01*
X118705740Y-106601000D01*
X118639557Y-106594481D01*
X118573373Y-106587963D01*
X118403534Y-106536443D01*
X118247009Y-106452778D01*
X118211271Y-106423448D01*
X118109814Y-106340186D01*
X117999598Y-106205886D01*
X117997222Y-106202991D01*
X117913557Y-106046466D01*
X117862037Y-105876627D01*
X117844641Y-105700000D01*
X117862037Y-105523373D01*
X117913557Y-105353534D01*
X117997222Y-105197009D01*
X118026552Y-105161271D01*
X118109814Y-105059814D01*
X118221616Y-104968062D01*
X118247009Y-104947222D01*
X118403534Y-104863557D01*
X118573373Y-104812037D01*
X118639558Y-104805518D01*
X118705740Y-104799000D01*
X118794260Y-104799000D01*
X118860442Y-104805518D01*
X118860442Y-104805518D01*
G37*
G36*
X162201000Y-106001000D02*
G01*
X161299000Y-106001000D01*
X161299000Y-104999000D01*
X162201000Y-104999000D01*
X162201000Y-106001000D01*
X162201000Y-106001000D01*
G37*
G36*
X154756938Y-104881716D02*
G01*
X154777557Y-104887971D01*
X154796553Y-104898124D01*
X154813208Y-104911792D01*
X154826876Y-104928447D01*
X154837029Y-104947443D01*
X154843284Y-104968062D01*
X154846000Y-104995640D01*
X154846000Y-105504360D01*
X154843284Y-105531938D01*
X154837029Y-105552557D01*
X154826876Y-105571553D01*
X154813208Y-105588208D01*
X154796553Y-105601876D01*
X154777557Y-105612029D01*
X154756938Y-105618284D01*
X154729360Y-105621000D01*
X154270640Y-105621000D01*
X154243062Y-105618284D01*
X154222443Y-105612029D01*
X154203447Y-105601876D01*
X154186792Y-105588208D01*
X154173124Y-105571553D01*
X154162971Y-105552557D01*
X154156716Y-105531938D01*
X154154000Y-105504360D01*
X154154000Y-104995640D01*
X154156716Y-104968062D01*
X154162971Y-104947443D01*
X154173124Y-104928447D01*
X154186792Y-104911792D01*
X154203447Y-104898124D01*
X154222443Y-104887971D01*
X154243062Y-104881716D01*
X154270640Y-104879000D01*
X154729360Y-104879000D01*
X154756938Y-104881716D01*
X154756938Y-104881716D01*
G37*
G36*
X153786938Y-104881716D02*
G01*
X153807557Y-104887971D01*
X153826553Y-104898124D01*
X153843208Y-104911792D01*
X153856876Y-104928447D01*
X153867029Y-104947443D01*
X153873284Y-104968062D01*
X153876000Y-104995640D01*
X153876000Y-105504360D01*
X153873284Y-105531938D01*
X153867029Y-105552557D01*
X153856876Y-105571553D01*
X153843208Y-105588208D01*
X153826553Y-105601876D01*
X153807557Y-105612029D01*
X153786938Y-105618284D01*
X153759360Y-105621000D01*
X153300640Y-105621000D01*
X153273062Y-105618284D01*
X153252443Y-105612029D01*
X153233447Y-105601876D01*
X153216792Y-105588208D01*
X153203124Y-105571553D01*
X153192971Y-105552557D01*
X153186716Y-105531938D01*
X153184000Y-105504360D01*
X153184000Y-104995640D01*
X153186716Y-104968062D01*
X153192971Y-104947443D01*
X153203124Y-104928447D01*
X153216792Y-104911792D01*
X153233447Y-104898124D01*
X153252443Y-104887971D01*
X153273062Y-104881716D01*
X153300640Y-104879000D01*
X153759360Y-104879000D01*
X153786938Y-104881716D01*
X153786938Y-104881716D01*
G37*
G36*
X158201000Y-105501000D02*
G01*
X157299000Y-105501000D01*
X157299000Y-104499000D01*
X158201000Y-104499000D01*
X158201000Y-105501000D01*
X158201000Y-105501000D01*
G37*
G36*
X164860443Y-103065519D02*
G01*
X164926627Y-103072037D01*
X165096466Y-103123557D01*
X165252991Y-103207222D01*
X165288729Y-103236552D01*
X165390186Y-103319814D01*
X165446120Y-103387971D01*
X165502778Y-103457009D01*
X165586443Y-103613534D01*
X165637963Y-103783373D01*
X165655359Y-103960000D01*
X165637963Y-104136627D01*
X165586443Y-104306466D01*
X165502778Y-104462991D01*
X165473448Y-104498729D01*
X165390186Y-104600186D01*
X165288729Y-104683448D01*
X165252991Y-104712778D01*
X165096466Y-104796443D01*
X164926627Y-104847963D01*
X164860442Y-104854482D01*
X164794260Y-104861000D01*
X164705740Y-104861000D01*
X164639558Y-104854482D01*
X164573373Y-104847963D01*
X164403534Y-104796443D01*
X164247009Y-104712778D01*
X164211271Y-104683448D01*
X164109814Y-104600186D01*
X164026552Y-104498729D01*
X163997222Y-104462991D01*
X163913557Y-104306466D01*
X163862037Y-104136627D01*
X163844641Y-103960000D01*
X163862037Y-103783373D01*
X163913557Y-103613534D01*
X163997222Y-103457009D01*
X164053880Y-103387971D01*
X164109814Y-103319814D01*
X164211271Y-103236552D01*
X164247009Y-103207222D01*
X164403534Y-103123557D01*
X164573373Y-103072037D01*
X164639557Y-103065519D01*
X164705740Y-103059000D01*
X164794260Y-103059000D01*
X164860443Y-103065519D01*
X164860443Y-103065519D01*
G37*
G36*
X153756938Y-103631716D02*
G01*
X153777557Y-103637971D01*
X153796553Y-103648124D01*
X153813208Y-103661792D01*
X153826876Y-103678447D01*
X153837029Y-103697443D01*
X153843284Y-103718062D01*
X153846000Y-103745640D01*
X153846000Y-104254360D01*
X153843284Y-104281938D01*
X153837029Y-104302557D01*
X153826876Y-104321553D01*
X153813208Y-104338208D01*
X153796553Y-104351876D01*
X153777557Y-104362029D01*
X153756938Y-104368284D01*
X153729360Y-104371000D01*
X153270640Y-104371000D01*
X153243062Y-104368284D01*
X153222443Y-104362029D01*
X153203447Y-104351876D01*
X153186792Y-104338208D01*
X153173124Y-104321553D01*
X153162971Y-104302557D01*
X153156716Y-104281938D01*
X153154000Y-104254360D01*
X153154000Y-103745640D01*
X153156716Y-103718062D01*
X153162971Y-103697443D01*
X153173124Y-103678447D01*
X153186792Y-103661792D01*
X153203447Y-103648124D01*
X153222443Y-103637971D01*
X153243062Y-103631716D01*
X153270640Y-103629000D01*
X153729360Y-103629000D01*
X153756938Y-103631716D01*
X153756938Y-103631716D01*
G37*
G36*
X154726938Y-103631716D02*
G01*
X154747557Y-103637971D01*
X154766553Y-103648124D01*
X154783208Y-103661792D01*
X154796876Y-103678447D01*
X154807029Y-103697443D01*
X154813284Y-103718062D01*
X154816000Y-103745640D01*
X154816000Y-104254360D01*
X154813284Y-104281938D01*
X154807029Y-104302557D01*
X154796876Y-104321553D01*
X154783208Y-104338208D01*
X154766553Y-104351876D01*
X154747557Y-104362029D01*
X154726938Y-104368284D01*
X154699360Y-104371000D01*
X154240640Y-104371000D01*
X154213062Y-104368284D01*
X154192443Y-104362029D01*
X154173447Y-104351876D01*
X154156792Y-104338208D01*
X154143124Y-104321553D01*
X154132971Y-104302557D01*
X154126716Y-104281938D01*
X154124000Y-104254360D01*
X154124000Y-103745640D01*
X154126716Y-103718062D01*
X154132971Y-103697443D01*
X154143124Y-103678447D01*
X154156792Y-103661792D01*
X154173447Y-103648124D01*
X154192443Y-103637971D01*
X154213062Y-103631716D01*
X154240640Y-103629000D01*
X154699360Y-103629000D01*
X154726938Y-103631716D01*
X154726938Y-103631716D01*
G37*
G36*
X161506938Y-103381716D02*
G01*
X161527557Y-103387971D01*
X161546553Y-103398124D01*
X161563208Y-103411792D01*
X161576876Y-103428447D01*
X161587029Y-103447443D01*
X161593284Y-103468062D01*
X161596000Y-103495640D01*
X161596000Y-104004360D01*
X161593284Y-104031938D01*
X161587029Y-104052557D01*
X161576876Y-104071553D01*
X161563208Y-104088208D01*
X161546553Y-104101876D01*
X161527557Y-104112029D01*
X161506938Y-104118284D01*
X161479360Y-104121000D01*
X161020640Y-104121000D01*
X160993062Y-104118284D01*
X160972443Y-104112029D01*
X160953447Y-104101876D01*
X160936792Y-104088208D01*
X160923124Y-104071553D01*
X160912971Y-104052557D01*
X160906716Y-104031938D01*
X160904000Y-104004360D01*
X160904000Y-103495640D01*
X160906716Y-103468062D01*
X160912971Y-103447443D01*
X160923124Y-103428447D01*
X160936792Y-103411792D01*
X160953447Y-103398124D01*
X160972443Y-103387971D01*
X160993062Y-103381716D01*
X161020640Y-103379000D01*
X161479360Y-103379000D01*
X161506938Y-103381716D01*
X161506938Y-103381716D01*
G37*
G36*
X162476938Y-103381716D02*
G01*
X162497557Y-103387971D01*
X162516553Y-103398124D01*
X162533208Y-103411792D01*
X162546876Y-103428447D01*
X162557029Y-103447443D01*
X162563284Y-103468062D01*
X162566000Y-103495640D01*
X162566000Y-104004360D01*
X162563284Y-104031938D01*
X162557029Y-104052557D01*
X162546876Y-104071553D01*
X162533208Y-104088208D01*
X162516553Y-104101876D01*
X162497557Y-104112029D01*
X162476938Y-104118284D01*
X162449360Y-104121000D01*
X161990640Y-104121000D01*
X161963062Y-104118284D01*
X161942443Y-104112029D01*
X161923447Y-104101876D01*
X161906792Y-104088208D01*
X161893124Y-104071553D01*
X161882971Y-104052557D01*
X161876716Y-104031938D01*
X161874000Y-104004360D01*
X161874000Y-103495640D01*
X161876716Y-103468062D01*
X161882971Y-103447443D01*
X161893124Y-103428447D01*
X161906792Y-103411792D01*
X161923447Y-103398124D01*
X161942443Y-103387971D01*
X161963062Y-103381716D01*
X161990640Y-103379000D01*
X162449360Y-103379000D01*
X162476938Y-103381716D01*
X162476938Y-103381716D01*
G37*
G36*
X121400443Y-102265519D02*
G01*
X121466627Y-102272037D01*
X121636466Y-102323557D01*
X121792991Y-102407222D01*
X121820345Y-102429671D01*
X121930186Y-102519814D01*
X122013448Y-102621271D01*
X122042778Y-102657009D01*
X122126443Y-102813534D01*
X122177963Y-102983373D01*
X122195359Y-103160000D01*
X122177963Y-103336627D01*
X122126443Y-103506466D01*
X122042778Y-103662991D01*
X122030093Y-103678447D01*
X121930186Y-103800186D01*
X121828729Y-103883448D01*
X121792991Y-103912778D01*
X121636466Y-103996443D01*
X121466627Y-104047963D01*
X121400443Y-104054481D01*
X121334260Y-104061000D01*
X121245740Y-104061000D01*
X121179557Y-104054481D01*
X121113373Y-104047963D01*
X120943534Y-103996443D01*
X120787009Y-103912778D01*
X120751271Y-103883448D01*
X120649814Y-103800186D01*
X120549907Y-103678447D01*
X120537222Y-103662991D01*
X120453557Y-103506466D01*
X120402037Y-103336627D01*
X120384641Y-103160000D01*
X120402037Y-102983373D01*
X120453557Y-102813534D01*
X120537222Y-102657009D01*
X120566552Y-102621271D01*
X120649814Y-102519814D01*
X120759655Y-102429671D01*
X120787009Y-102407222D01*
X120943534Y-102323557D01*
X121113373Y-102272037D01*
X121179557Y-102265519D01*
X121245740Y-102259000D01*
X121334260Y-102259000D01*
X121400443Y-102265519D01*
X121400443Y-102265519D01*
G37*
G36*
X118860443Y-102265519D02*
G01*
X118926627Y-102272037D01*
X119096466Y-102323557D01*
X119252991Y-102407222D01*
X119280345Y-102429671D01*
X119390186Y-102519814D01*
X119473448Y-102621271D01*
X119502778Y-102657009D01*
X119586443Y-102813534D01*
X119637963Y-102983373D01*
X119655359Y-103160000D01*
X119637963Y-103336627D01*
X119586443Y-103506466D01*
X119502778Y-103662991D01*
X119490093Y-103678447D01*
X119390186Y-103800186D01*
X119288729Y-103883448D01*
X119252991Y-103912778D01*
X119096466Y-103996443D01*
X118926627Y-104047963D01*
X118860443Y-104054481D01*
X118794260Y-104061000D01*
X118705740Y-104061000D01*
X118639557Y-104054481D01*
X118573373Y-104047963D01*
X118403534Y-103996443D01*
X118247009Y-103912778D01*
X118211271Y-103883448D01*
X118109814Y-103800186D01*
X118009907Y-103678447D01*
X117997222Y-103662991D01*
X117913557Y-103506466D01*
X117862037Y-103336627D01*
X117844641Y-103160000D01*
X117862037Y-102983373D01*
X117913557Y-102813534D01*
X117997222Y-102657009D01*
X118026552Y-102621271D01*
X118109814Y-102519814D01*
X118219655Y-102429671D01*
X118247009Y-102407222D01*
X118403534Y-102323557D01*
X118573373Y-102272037D01*
X118639557Y-102265519D01*
X118705740Y-102259000D01*
X118794260Y-102259000D01*
X118860443Y-102265519D01*
X118860443Y-102265519D01*
G37*
G36*
X159151000Y-103501000D02*
G01*
X158249000Y-103501000D01*
X158249000Y-102499000D01*
X159151000Y-102499000D01*
X159151000Y-103501000D01*
X159151000Y-103501000D01*
G37*
G36*
X157251000Y-103501000D02*
G01*
X156349000Y-103501000D01*
X156349000Y-102499000D01*
X157251000Y-102499000D01*
X157251000Y-103501000D01*
X157251000Y-103501000D01*
G37*
G36*
X154726938Y-102381716D02*
G01*
X154747557Y-102387971D01*
X154766553Y-102398124D01*
X154783208Y-102411792D01*
X154796876Y-102428447D01*
X154807029Y-102447443D01*
X154813284Y-102468062D01*
X154816000Y-102495640D01*
X154816000Y-103004360D01*
X154813284Y-103031938D01*
X154807029Y-103052557D01*
X154796876Y-103071553D01*
X154783208Y-103088208D01*
X154766553Y-103101876D01*
X154747557Y-103112029D01*
X154726938Y-103118284D01*
X154699360Y-103121000D01*
X154240640Y-103121000D01*
X154213062Y-103118284D01*
X154192443Y-103112029D01*
X154173447Y-103101876D01*
X154156792Y-103088208D01*
X154143124Y-103071553D01*
X154132971Y-103052557D01*
X154126716Y-103031938D01*
X154124000Y-103004360D01*
X154124000Y-102495640D01*
X154126716Y-102468062D01*
X154132971Y-102447443D01*
X154143124Y-102428447D01*
X154156792Y-102411792D01*
X154173447Y-102398124D01*
X154192443Y-102387971D01*
X154213062Y-102381716D01*
X154240640Y-102379000D01*
X154699360Y-102379000D01*
X154726938Y-102381716D01*
X154726938Y-102381716D01*
G37*
G36*
X153756938Y-102381716D02*
G01*
X153777557Y-102387971D01*
X153796553Y-102398124D01*
X153813208Y-102411792D01*
X153826876Y-102428447D01*
X153837029Y-102447443D01*
X153843284Y-102468062D01*
X153846000Y-102495640D01*
X153846000Y-103004360D01*
X153843284Y-103031938D01*
X153837029Y-103052557D01*
X153826876Y-103071553D01*
X153813208Y-103088208D01*
X153796553Y-103101876D01*
X153777557Y-103112029D01*
X153756938Y-103118284D01*
X153729360Y-103121000D01*
X153270640Y-103121000D01*
X153243062Y-103118284D01*
X153222443Y-103112029D01*
X153203447Y-103101876D01*
X153186792Y-103088208D01*
X153173124Y-103071553D01*
X153162971Y-103052557D01*
X153156716Y-103031938D01*
X153154000Y-103004360D01*
X153154000Y-102495640D01*
X153156716Y-102468062D01*
X153162971Y-102447443D01*
X153173124Y-102428447D01*
X153186792Y-102411792D01*
X153203447Y-102398124D01*
X153222443Y-102387971D01*
X153243062Y-102381716D01*
X153270640Y-102379000D01*
X153729360Y-102379000D01*
X153756938Y-102381716D01*
X153756938Y-102381716D01*
G37*
G36*
X163151000Y-103001000D02*
G01*
X162249000Y-103001000D01*
X162249000Y-101999000D01*
X163151000Y-101999000D01*
X163151000Y-103001000D01*
X163151000Y-103001000D01*
G37*
G36*
X161251000Y-103001000D02*
G01*
X160349000Y-103001000D01*
X160349000Y-101999000D01*
X161251000Y-101999000D01*
X161251000Y-103001000D01*
X161251000Y-103001000D01*
G37*
G36*
X164860442Y-100525518D02*
G01*
X164926627Y-100532037D01*
X165096466Y-100583557D01*
X165252991Y-100667222D01*
X165288729Y-100696552D01*
X165390186Y-100779814D01*
X165471131Y-100878447D01*
X165502778Y-100917009D01*
X165586443Y-101073534D01*
X165637963Y-101243373D01*
X165655359Y-101420000D01*
X165637963Y-101596627D01*
X165586443Y-101766466D01*
X165502778Y-101922991D01*
X165482253Y-101948000D01*
X165390186Y-102060186D01*
X165288729Y-102143448D01*
X165252991Y-102172778D01*
X165096466Y-102256443D01*
X164926627Y-102307963D01*
X164860442Y-102314482D01*
X164794260Y-102321000D01*
X164705740Y-102321000D01*
X164639558Y-102314482D01*
X164573373Y-102307963D01*
X164403534Y-102256443D01*
X164247009Y-102172778D01*
X164211271Y-102143448D01*
X164109814Y-102060186D01*
X164017747Y-101948000D01*
X163997222Y-101922991D01*
X163913557Y-101766466D01*
X163862037Y-101596627D01*
X163844641Y-101420000D01*
X163862037Y-101243373D01*
X163913557Y-101073534D01*
X163997222Y-100917009D01*
X164028869Y-100878447D01*
X164109814Y-100779814D01*
X164211271Y-100696552D01*
X164247009Y-100667222D01*
X164403534Y-100583557D01*
X164573373Y-100532037D01*
X164639558Y-100525518D01*
X164705740Y-100519000D01*
X164794260Y-100519000D01*
X164860442Y-100525518D01*
X164860442Y-100525518D01*
G37*
G36*
X157536938Y-101381716D02*
G01*
X157557557Y-101387971D01*
X157576553Y-101398124D01*
X157593208Y-101411792D01*
X157606876Y-101428447D01*
X157617029Y-101447443D01*
X157623284Y-101468062D01*
X157626000Y-101495640D01*
X157626000Y-102004360D01*
X157623284Y-102031938D01*
X157617029Y-102052557D01*
X157606876Y-102071553D01*
X157593208Y-102088208D01*
X157576553Y-102101876D01*
X157557557Y-102112029D01*
X157536938Y-102118284D01*
X157509360Y-102121000D01*
X157050640Y-102121000D01*
X157023062Y-102118284D01*
X157002443Y-102112029D01*
X156983447Y-102101876D01*
X156966792Y-102088208D01*
X156953124Y-102071553D01*
X156942971Y-102052557D01*
X156936716Y-102031938D01*
X156934000Y-102004360D01*
X156934000Y-101495640D01*
X156936716Y-101468062D01*
X156942971Y-101447443D01*
X156953124Y-101428447D01*
X156966792Y-101411792D01*
X156983447Y-101398124D01*
X157002443Y-101387971D01*
X157023062Y-101381716D01*
X157050640Y-101379000D01*
X157509360Y-101379000D01*
X157536938Y-101381716D01*
X157536938Y-101381716D01*
G37*
G36*
X158506938Y-101381716D02*
G01*
X158527557Y-101387971D01*
X158546553Y-101398124D01*
X158563208Y-101411792D01*
X158576876Y-101428447D01*
X158587029Y-101447443D01*
X158593284Y-101468062D01*
X158596000Y-101495640D01*
X158596000Y-102004360D01*
X158593284Y-102031938D01*
X158587029Y-102052557D01*
X158576876Y-102071553D01*
X158563208Y-102088208D01*
X158546553Y-102101876D01*
X158527557Y-102112029D01*
X158506938Y-102118284D01*
X158479360Y-102121000D01*
X158020640Y-102121000D01*
X157993062Y-102118284D01*
X157972443Y-102112029D01*
X157953447Y-102101876D01*
X157936792Y-102088208D01*
X157923124Y-102071553D01*
X157912971Y-102052557D01*
X157906716Y-102031938D01*
X157904000Y-102004360D01*
X157904000Y-101495640D01*
X157906716Y-101468062D01*
X157912971Y-101447443D01*
X157923124Y-101428447D01*
X157936792Y-101411792D01*
X157953447Y-101398124D01*
X157972443Y-101387971D01*
X157993062Y-101381716D01*
X158020640Y-101379000D01*
X158479360Y-101379000D01*
X158506938Y-101381716D01*
X158506938Y-101381716D01*
G37*
G36*
X153771938Y-101131716D02*
G01*
X153792557Y-101137971D01*
X153811553Y-101148124D01*
X153828208Y-101161792D01*
X153841876Y-101178447D01*
X153852029Y-101197443D01*
X153858284Y-101218062D01*
X153861000Y-101245640D01*
X153861000Y-101754360D01*
X153858284Y-101781938D01*
X153852029Y-101802557D01*
X153841876Y-101821553D01*
X153828208Y-101838208D01*
X153811553Y-101851876D01*
X153792557Y-101862029D01*
X153771938Y-101868284D01*
X153744360Y-101871000D01*
X153285640Y-101871000D01*
X153258062Y-101868284D01*
X153237443Y-101862029D01*
X153218447Y-101851876D01*
X153201792Y-101838208D01*
X153188124Y-101821553D01*
X153177971Y-101802557D01*
X153171716Y-101781938D01*
X153169000Y-101754360D01*
X153169000Y-101245640D01*
X153171716Y-101218062D01*
X153177971Y-101197443D01*
X153188124Y-101178447D01*
X153201792Y-101161792D01*
X153218447Y-101148124D01*
X153237443Y-101137971D01*
X153258062Y-101131716D01*
X153285640Y-101129000D01*
X153744360Y-101129000D01*
X153771938Y-101131716D01*
X153771938Y-101131716D01*
G37*
G36*
X154741938Y-101131716D02*
G01*
X154762557Y-101137971D01*
X154781553Y-101148124D01*
X154798208Y-101161792D01*
X154811876Y-101178447D01*
X154822029Y-101197443D01*
X154828284Y-101218062D01*
X154831000Y-101245640D01*
X154831000Y-101754360D01*
X154828284Y-101781938D01*
X154822029Y-101802557D01*
X154811876Y-101821553D01*
X154798208Y-101838208D01*
X154781553Y-101851876D01*
X154762557Y-101862029D01*
X154741938Y-101868284D01*
X154714360Y-101871000D01*
X154255640Y-101871000D01*
X154228062Y-101868284D01*
X154207443Y-101862029D01*
X154188447Y-101851876D01*
X154171792Y-101838208D01*
X154158124Y-101821553D01*
X154147971Y-101802557D01*
X154141716Y-101781938D01*
X154139000Y-101754360D01*
X154139000Y-101245640D01*
X154141716Y-101218062D01*
X154147971Y-101197443D01*
X154158124Y-101178447D01*
X154171792Y-101161792D01*
X154188447Y-101148124D01*
X154207443Y-101137971D01*
X154228062Y-101131716D01*
X154255640Y-101129000D01*
X154714360Y-101129000D01*
X154741938Y-101131716D01*
X154741938Y-101131716D01*
G37*
G36*
X144886938Y-100831716D02*
G01*
X144907557Y-100837971D01*
X144926553Y-100848124D01*
X144943208Y-100861792D01*
X144956876Y-100878447D01*
X144967029Y-100897443D01*
X144973284Y-100918062D01*
X144976000Y-100945640D01*
X144976000Y-101454360D01*
X144973284Y-101481938D01*
X144967029Y-101502557D01*
X144956876Y-101521553D01*
X144943208Y-101538208D01*
X144926553Y-101551876D01*
X144907557Y-101562029D01*
X144886938Y-101568284D01*
X144859360Y-101571000D01*
X144400640Y-101571000D01*
X144373062Y-101568284D01*
X144352443Y-101562029D01*
X144333447Y-101551876D01*
X144316792Y-101538208D01*
X144303124Y-101521553D01*
X144292971Y-101502557D01*
X144286716Y-101481938D01*
X144284000Y-101454360D01*
X144284000Y-100945640D01*
X144286716Y-100918062D01*
X144292971Y-100897443D01*
X144303124Y-100878447D01*
X144316792Y-100861792D01*
X144333447Y-100848124D01*
X144352443Y-100837971D01*
X144373062Y-100831716D01*
X144400640Y-100829000D01*
X144859360Y-100829000D01*
X144886938Y-100831716D01*
X144886938Y-100831716D01*
G37*
G36*
X145856938Y-100831716D02*
G01*
X145877557Y-100837971D01*
X145896553Y-100848124D01*
X145913208Y-100861792D01*
X145926876Y-100878447D01*
X145937029Y-100897443D01*
X145943284Y-100918062D01*
X145946000Y-100945640D01*
X145946000Y-101454360D01*
X145943284Y-101481938D01*
X145937029Y-101502557D01*
X145926876Y-101521553D01*
X145913208Y-101538208D01*
X145896553Y-101551876D01*
X145877557Y-101562029D01*
X145856938Y-101568284D01*
X145829360Y-101571000D01*
X145370640Y-101571000D01*
X145343062Y-101568284D01*
X145322443Y-101562029D01*
X145303447Y-101551876D01*
X145286792Y-101538208D01*
X145273124Y-101521553D01*
X145262971Y-101502557D01*
X145256716Y-101481938D01*
X145254000Y-101454360D01*
X145254000Y-100945640D01*
X145256716Y-100918062D01*
X145262971Y-100897443D01*
X145273124Y-100878447D01*
X145286792Y-100861792D01*
X145303447Y-100848124D01*
X145322443Y-100837971D01*
X145343062Y-100831716D01*
X145370640Y-100829000D01*
X145829360Y-100829000D01*
X145856938Y-100831716D01*
X145856938Y-100831716D01*
G37*
G36*
X118860443Y-99725519D02*
G01*
X118926627Y-99732037D01*
X119096466Y-99783557D01*
X119252991Y-99867222D01*
X119283389Y-99892169D01*
X119390186Y-99979814D01*
X119473448Y-100081271D01*
X119502778Y-100117009D01*
X119586443Y-100273534D01*
X119637963Y-100443373D01*
X119655359Y-100620000D01*
X119637963Y-100796627D01*
X119586443Y-100966466D01*
X119502778Y-101122991D01*
X119490484Y-101137971D01*
X119390186Y-101260186D01*
X119288729Y-101343448D01*
X119252991Y-101372778D01*
X119096466Y-101456443D01*
X118926627Y-101507963D01*
X118860442Y-101514482D01*
X118794260Y-101521000D01*
X118705740Y-101521000D01*
X118639558Y-101514482D01*
X118573373Y-101507963D01*
X118403534Y-101456443D01*
X118247009Y-101372778D01*
X118211271Y-101343448D01*
X118109814Y-101260186D01*
X118009516Y-101137971D01*
X117997222Y-101122991D01*
X117913557Y-100966466D01*
X117862037Y-100796627D01*
X117844641Y-100620000D01*
X117862037Y-100443373D01*
X117913557Y-100273534D01*
X117997222Y-100117009D01*
X118026552Y-100081271D01*
X118109814Y-99979814D01*
X118216611Y-99892169D01*
X118247009Y-99867222D01*
X118403534Y-99783557D01*
X118573373Y-99732037D01*
X118639558Y-99725518D01*
X118705740Y-99719000D01*
X118794260Y-99719000D01*
X118860443Y-99725519D01*
X118860443Y-99725519D01*
G37*
G36*
X121400443Y-99725519D02*
G01*
X121466627Y-99732037D01*
X121636466Y-99783557D01*
X121792991Y-99867222D01*
X121823389Y-99892169D01*
X121930186Y-99979814D01*
X122013448Y-100081271D01*
X122042778Y-100117009D01*
X122126443Y-100273534D01*
X122177963Y-100443373D01*
X122195359Y-100620000D01*
X122177963Y-100796627D01*
X122126443Y-100966466D01*
X122042778Y-101122991D01*
X122030484Y-101137971D01*
X121930186Y-101260186D01*
X121828729Y-101343448D01*
X121792991Y-101372778D01*
X121636466Y-101456443D01*
X121466627Y-101507963D01*
X121400442Y-101514482D01*
X121334260Y-101521000D01*
X121245740Y-101521000D01*
X121179558Y-101514482D01*
X121113373Y-101507963D01*
X120943534Y-101456443D01*
X120787009Y-101372778D01*
X120751271Y-101343448D01*
X120649814Y-101260186D01*
X120549516Y-101137971D01*
X120537222Y-101122991D01*
X120453557Y-100966466D01*
X120402037Y-100796627D01*
X120384641Y-100620000D01*
X120402037Y-100443373D01*
X120453557Y-100273534D01*
X120537222Y-100117009D01*
X120566552Y-100081271D01*
X120649814Y-99979814D01*
X120756611Y-99892169D01*
X120787009Y-99867222D01*
X120943534Y-99783557D01*
X121113373Y-99732037D01*
X121179558Y-99725518D01*
X121245740Y-99719000D01*
X121334260Y-99719000D01*
X121400443Y-99725519D01*
X121400443Y-99725519D01*
G37*
G36*
X162201000Y-101001000D02*
G01*
X161299000Y-101001000D01*
X161299000Y-99999000D01*
X162201000Y-99999000D01*
X162201000Y-101001000D01*
X162201000Y-101001000D01*
G37*
G36*
X154756938Y-99881716D02*
G01*
X154777557Y-99887971D01*
X154796553Y-99898124D01*
X154813208Y-99911792D01*
X154826876Y-99928447D01*
X154837029Y-99947443D01*
X154843284Y-99968062D01*
X154846000Y-99995640D01*
X154846000Y-100504360D01*
X154843284Y-100531938D01*
X154837029Y-100552557D01*
X154826876Y-100571553D01*
X154813208Y-100588208D01*
X154796553Y-100601876D01*
X154777557Y-100612029D01*
X154756938Y-100618284D01*
X154729360Y-100621000D01*
X154270640Y-100621000D01*
X154243062Y-100618284D01*
X154222443Y-100612029D01*
X154203447Y-100601876D01*
X154186792Y-100588208D01*
X154173124Y-100571553D01*
X154162971Y-100552557D01*
X154156716Y-100531938D01*
X154154000Y-100504360D01*
X154154000Y-99995640D01*
X154156716Y-99968062D01*
X154162971Y-99947443D01*
X154173124Y-99928447D01*
X154186792Y-99911792D01*
X154203447Y-99898124D01*
X154222443Y-99887971D01*
X154243062Y-99881716D01*
X154270640Y-99879000D01*
X154729360Y-99879000D01*
X154756938Y-99881716D01*
X154756938Y-99881716D01*
G37*
G36*
X153786938Y-99881716D02*
G01*
X153807557Y-99887971D01*
X153826553Y-99898124D01*
X153843208Y-99911792D01*
X153856876Y-99928447D01*
X153867029Y-99947443D01*
X153873284Y-99968062D01*
X153876000Y-99995640D01*
X153876000Y-100504360D01*
X153873284Y-100531938D01*
X153867029Y-100552557D01*
X153856876Y-100571553D01*
X153843208Y-100588208D01*
X153826553Y-100601876D01*
X153807557Y-100612029D01*
X153786938Y-100618284D01*
X153759360Y-100621000D01*
X153300640Y-100621000D01*
X153273062Y-100618284D01*
X153252443Y-100612029D01*
X153233447Y-100601876D01*
X153216792Y-100588208D01*
X153203124Y-100571553D01*
X153192971Y-100552557D01*
X153186716Y-100531938D01*
X153184000Y-100504360D01*
X153184000Y-99995640D01*
X153186716Y-99968062D01*
X153192971Y-99947443D01*
X153203124Y-99928447D01*
X153216792Y-99911792D01*
X153233447Y-99898124D01*
X153252443Y-99887971D01*
X153273062Y-99881716D01*
X153300640Y-99879000D01*
X153759360Y-99879000D01*
X153786938Y-99881716D01*
X153786938Y-99881716D01*
G37*
G36*
X158201000Y-100501000D02*
G01*
X157299000Y-100501000D01*
X157299000Y-99499000D01*
X158201000Y-99499000D01*
X158201000Y-100501000D01*
X158201000Y-100501000D01*
G37*
G36*
X164860442Y-97985518D02*
G01*
X164926627Y-97992037D01*
X165096466Y-98043557D01*
X165252991Y-98127222D01*
X165288729Y-98156552D01*
X165390186Y-98239814D01*
X165473448Y-98341271D01*
X165502778Y-98377009D01*
X165586443Y-98533534D01*
X165637963Y-98703373D01*
X165655359Y-98880000D01*
X165637963Y-99056627D01*
X165586443Y-99226466D01*
X165502778Y-99382991D01*
X165473448Y-99418729D01*
X165390186Y-99520186D01*
X165288729Y-99603448D01*
X165252991Y-99632778D01*
X165096466Y-99716443D01*
X164926627Y-99767963D01*
X164860443Y-99774481D01*
X164794260Y-99781000D01*
X164705740Y-99781000D01*
X164639557Y-99774481D01*
X164573373Y-99767963D01*
X164403534Y-99716443D01*
X164247009Y-99632778D01*
X164211271Y-99603448D01*
X164109814Y-99520186D01*
X164026552Y-99418729D01*
X163997222Y-99382991D01*
X163913557Y-99226466D01*
X163862037Y-99056627D01*
X163844641Y-98880000D01*
X163862037Y-98703373D01*
X163913557Y-98533534D01*
X163997222Y-98377009D01*
X164026552Y-98341271D01*
X164109814Y-98239814D01*
X164211271Y-98156552D01*
X164247009Y-98127222D01*
X164403534Y-98043557D01*
X164573373Y-97992037D01*
X164639557Y-97985519D01*
X164705740Y-97979000D01*
X164794260Y-97979000D01*
X164860442Y-97985518D01*
X164860442Y-97985518D01*
G37*
G36*
X153756938Y-98631716D02*
G01*
X153777557Y-98637971D01*
X153796553Y-98648124D01*
X153813208Y-98661792D01*
X153826876Y-98678447D01*
X153837029Y-98697443D01*
X153843284Y-98718062D01*
X153846000Y-98745640D01*
X153846000Y-99254360D01*
X153843284Y-99281938D01*
X153837029Y-99302557D01*
X153826876Y-99321553D01*
X153813208Y-99338208D01*
X153796553Y-99351876D01*
X153777557Y-99362029D01*
X153756938Y-99368284D01*
X153729360Y-99371000D01*
X153270640Y-99371000D01*
X153243062Y-99368284D01*
X153222443Y-99362029D01*
X153203447Y-99351876D01*
X153186792Y-99338208D01*
X153173124Y-99321553D01*
X153162971Y-99302557D01*
X153156716Y-99281938D01*
X153154000Y-99254360D01*
X153154000Y-98745640D01*
X153156716Y-98718062D01*
X153162971Y-98697443D01*
X153173124Y-98678447D01*
X153186792Y-98661792D01*
X153203447Y-98648124D01*
X153222443Y-98637971D01*
X153243062Y-98631716D01*
X153270640Y-98629000D01*
X153729360Y-98629000D01*
X153756938Y-98631716D01*
X153756938Y-98631716D01*
G37*
G36*
X154726938Y-98631716D02*
G01*
X154747557Y-98637971D01*
X154766553Y-98648124D01*
X154783208Y-98661792D01*
X154796876Y-98678447D01*
X154807029Y-98697443D01*
X154813284Y-98718062D01*
X154816000Y-98745640D01*
X154816000Y-99254360D01*
X154813284Y-99281938D01*
X154807029Y-99302557D01*
X154796876Y-99321553D01*
X154783208Y-99338208D01*
X154766553Y-99351876D01*
X154747557Y-99362029D01*
X154726938Y-99368284D01*
X154699360Y-99371000D01*
X154240640Y-99371000D01*
X154213062Y-99368284D01*
X154192443Y-99362029D01*
X154173447Y-99351876D01*
X154156792Y-99338208D01*
X154143124Y-99321553D01*
X154132971Y-99302557D01*
X154126716Y-99281938D01*
X154124000Y-99254360D01*
X154124000Y-98745640D01*
X154126716Y-98718062D01*
X154132971Y-98697443D01*
X154143124Y-98678447D01*
X154156792Y-98661792D01*
X154173447Y-98648124D01*
X154192443Y-98637971D01*
X154213062Y-98631716D01*
X154240640Y-98629000D01*
X154699360Y-98629000D01*
X154726938Y-98631716D01*
X154726938Y-98631716D01*
G37*
G36*
X162476938Y-98381716D02*
G01*
X162497557Y-98387971D01*
X162516553Y-98398124D01*
X162533208Y-98411792D01*
X162546876Y-98428447D01*
X162557029Y-98447443D01*
X162563284Y-98468062D01*
X162566000Y-98495640D01*
X162566000Y-99004360D01*
X162563284Y-99031938D01*
X162557029Y-99052557D01*
X162546876Y-99071553D01*
X162533208Y-99088208D01*
X162516553Y-99101876D01*
X162497557Y-99112029D01*
X162476938Y-99118284D01*
X162449360Y-99121000D01*
X161990640Y-99121000D01*
X161963062Y-99118284D01*
X161942443Y-99112029D01*
X161923447Y-99101876D01*
X161906792Y-99088208D01*
X161893124Y-99071553D01*
X161882971Y-99052557D01*
X161876716Y-99031938D01*
X161874000Y-99004360D01*
X161874000Y-98495640D01*
X161876716Y-98468062D01*
X161882971Y-98447443D01*
X161893124Y-98428447D01*
X161906792Y-98411792D01*
X161923447Y-98398124D01*
X161942443Y-98387971D01*
X161963062Y-98381716D01*
X161990640Y-98379000D01*
X162449360Y-98379000D01*
X162476938Y-98381716D01*
X162476938Y-98381716D01*
G37*
G36*
X161506938Y-98381716D02*
G01*
X161527557Y-98387971D01*
X161546553Y-98398124D01*
X161563208Y-98411792D01*
X161576876Y-98428447D01*
X161587029Y-98447443D01*
X161593284Y-98468062D01*
X161596000Y-98495640D01*
X161596000Y-99004360D01*
X161593284Y-99031938D01*
X161587029Y-99052557D01*
X161576876Y-99071553D01*
X161563208Y-99088208D01*
X161546553Y-99101876D01*
X161527557Y-99112029D01*
X161506938Y-99118284D01*
X161479360Y-99121000D01*
X161020640Y-99121000D01*
X160993062Y-99118284D01*
X160972443Y-99112029D01*
X160953447Y-99101876D01*
X160936792Y-99088208D01*
X160923124Y-99071553D01*
X160912971Y-99052557D01*
X160906716Y-99031938D01*
X160904000Y-99004360D01*
X160904000Y-98495640D01*
X160906716Y-98468062D01*
X160912971Y-98447443D01*
X160923124Y-98428447D01*
X160936792Y-98411792D01*
X160953447Y-98398124D01*
X160972443Y-98387971D01*
X160993062Y-98381716D01*
X161020640Y-98379000D01*
X161479360Y-98379000D01*
X161506938Y-98381716D01*
X161506938Y-98381716D01*
G37*
G36*
X118860443Y-97185519D02*
G01*
X118926627Y-97192037D01*
X119096466Y-97243557D01*
X119252991Y-97327222D01*
X119288729Y-97356552D01*
X119390186Y-97439814D01*
X119454555Y-97518249D01*
X119502778Y-97577009D01*
X119586443Y-97733534D01*
X119637963Y-97903373D01*
X119655359Y-98080000D01*
X119637963Y-98256627D01*
X119595040Y-98398124D01*
X119586442Y-98426468D01*
X119570718Y-98455886D01*
X119502778Y-98582991D01*
X119473448Y-98618729D01*
X119390186Y-98720186D01*
X119290494Y-98802000D01*
X119252991Y-98832778D01*
X119096466Y-98916443D01*
X118926627Y-98967963D01*
X118860443Y-98974481D01*
X118794260Y-98981000D01*
X118705740Y-98981000D01*
X118639557Y-98974481D01*
X118573373Y-98967963D01*
X118403534Y-98916443D01*
X118247009Y-98832778D01*
X118209506Y-98802000D01*
X118109814Y-98720186D01*
X118026552Y-98618729D01*
X117997222Y-98582991D01*
X117929282Y-98455886D01*
X117913558Y-98426468D01*
X117904960Y-98398124D01*
X117862037Y-98256627D01*
X117844641Y-98080000D01*
X117862037Y-97903373D01*
X117913557Y-97733534D01*
X117997222Y-97577009D01*
X118045445Y-97518249D01*
X118109814Y-97439814D01*
X118211271Y-97356552D01*
X118247009Y-97327222D01*
X118403534Y-97243557D01*
X118573373Y-97192037D01*
X118639557Y-97185519D01*
X118705740Y-97179000D01*
X118794260Y-97179000D01*
X118860443Y-97185519D01*
X118860443Y-97185519D01*
G37*
G36*
X121400443Y-97185519D02*
G01*
X121466627Y-97192037D01*
X121636466Y-97243557D01*
X121792991Y-97327222D01*
X121828729Y-97356552D01*
X121930186Y-97439814D01*
X121994555Y-97518249D01*
X122042778Y-97577009D01*
X122126443Y-97733534D01*
X122177963Y-97903373D01*
X122195359Y-98080000D01*
X122177963Y-98256627D01*
X122135040Y-98398124D01*
X122126442Y-98426468D01*
X122110718Y-98455886D01*
X122042778Y-98582991D01*
X122013448Y-98618729D01*
X121930186Y-98720186D01*
X121830494Y-98802000D01*
X121792991Y-98832778D01*
X121636466Y-98916443D01*
X121466627Y-98967963D01*
X121400443Y-98974481D01*
X121334260Y-98981000D01*
X121245740Y-98981000D01*
X121179557Y-98974481D01*
X121113373Y-98967963D01*
X120943534Y-98916443D01*
X120787009Y-98832778D01*
X120749506Y-98802000D01*
X120649814Y-98720186D01*
X120566552Y-98618729D01*
X120537222Y-98582991D01*
X120469282Y-98455886D01*
X120453558Y-98426468D01*
X120444960Y-98398124D01*
X120402037Y-98256627D01*
X120384641Y-98080000D01*
X120402037Y-97903373D01*
X120453557Y-97733534D01*
X120537222Y-97577009D01*
X120585445Y-97518249D01*
X120649814Y-97439814D01*
X120751271Y-97356552D01*
X120787009Y-97327222D01*
X120943534Y-97243557D01*
X121113373Y-97192037D01*
X121179557Y-97185519D01*
X121245740Y-97179000D01*
X121334260Y-97179000D01*
X121400443Y-97185519D01*
X121400443Y-97185519D01*
G37*
G36*
X159151000Y-98501000D02*
G01*
X158249000Y-98501000D01*
X158249000Y-97499000D01*
X159151000Y-97499000D01*
X159151000Y-98501000D01*
X159151000Y-98501000D01*
G37*
G36*
X157251000Y-98501000D02*
G01*
X156349000Y-98501000D01*
X156349000Y-97499000D01*
X157251000Y-97499000D01*
X157251000Y-98501000D01*
X157251000Y-98501000D01*
G37*
G36*
X153756938Y-97381716D02*
G01*
X153777557Y-97387971D01*
X153796553Y-97398124D01*
X153813208Y-97411792D01*
X153826876Y-97428447D01*
X153837029Y-97447443D01*
X153843284Y-97468062D01*
X153846000Y-97495640D01*
X153846000Y-98004360D01*
X153843284Y-98031938D01*
X153837029Y-98052557D01*
X153826876Y-98071553D01*
X153813208Y-98088208D01*
X153796553Y-98101876D01*
X153777557Y-98112029D01*
X153756938Y-98118284D01*
X153729360Y-98121000D01*
X153270640Y-98121000D01*
X153243062Y-98118284D01*
X153222443Y-98112029D01*
X153203447Y-98101876D01*
X153186792Y-98088208D01*
X153173124Y-98071553D01*
X153162971Y-98052557D01*
X153156716Y-98031938D01*
X153154000Y-98004360D01*
X153154000Y-97495640D01*
X153156716Y-97468062D01*
X153162971Y-97447443D01*
X153173124Y-97428447D01*
X153186792Y-97411792D01*
X153203447Y-97398124D01*
X153222443Y-97387971D01*
X153243062Y-97381716D01*
X153270640Y-97379000D01*
X153729360Y-97379000D01*
X153756938Y-97381716D01*
X153756938Y-97381716D01*
G37*
G36*
X154726938Y-97381716D02*
G01*
X154747557Y-97387971D01*
X154766553Y-97398124D01*
X154783208Y-97411792D01*
X154796876Y-97428447D01*
X154807029Y-97447443D01*
X154813284Y-97468062D01*
X154816000Y-97495640D01*
X154816000Y-98004360D01*
X154813284Y-98031938D01*
X154807029Y-98052557D01*
X154796876Y-98071553D01*
X154783208Y-98088208D01*
X154766553Y-98101876D01*
X154747557Y-98112029D01*
X154726938Y-98118284D01*
X154699360Y-98121000D01*
X154240640Y-98121000D01*
X154213062Y-98118284D01*
X154192443Y-98112029D01*
X154173447Y-98101876D01*
X154156792Y-98088208D01*
X154143124Y-98071553D01*
X154132971Y-98052557D01*
X154126716Y-98031938D01*
X154124000Y-98004360D01*
X154124000Y-97495640D01*
X154126716Y-97468062D01*
X154132971Y-97447443D01*
X154143124Y-97428447D01*
X154156792Y-97411792D01*
X154173447Y-97398124D01*
X154192443Y-97387971D01*
X154213062Y-97381716D01*
X154240640Y-97379000D01*
X154699360Y-97379000D01*
X154726938Y-97381716D01*
X154726938Y-97381716D01*
G37*
G36*
X161251000Y-98001000D02*
G01*
X160349000Y-98001000D01*
X160349000Y-96999000D01*
X161251000Y-96999000D01*
X161251000Y-98001000D01*
X161251000Y-98001000D01*
G37*
G36*
X163151000Y-98001000D02*
G01*
X162249000Y-98001000D01*
X162249000Y-96999000D01*
X163151000Y-96999000D01*
X163151000Y-98001000D01*
X163151000Y-98001000D01*
G37*
G36*
X165651000Y-97241000D02*
G01*
X163849000Y-97241000D01*
X163849000Y-95439000D01*
X165651000Y-95439000D01*
X165651000Y-97241000D01*
X165651000Y-97241000D01*
G37*
G36*
X157506938Y-96381716D02*
G01*
X157527557Y-96387971D01*
X157546553Y-96398124D01*
X157563208Y-96411792D01*
X157576876Y-96428447D01*
X157587029Y-96447443D01*
X157593284Y-96468062D01*
X157596000Y-96495640D01*
X157596000Y-97004360D01*
X157593284Y-97031938D01*
X157587029Y-97052557D01*
X157576876Y-97071553D01*
X157563208Y-97088208D01*
X157546553Y-97101876D01*
X157527557Y-97112029D01*
X157506938Y-97118284D01*
X157479360Y-97121000D01*
X157020640Y-97121000D01*
X156993062Y-97118284D01*
X156972443Y-97112029D01*
X156953447Y-97101876D01*
X156936792Y-97088208D01*
X156923124Y-97071553D01*
X156912971Y-97052557D01*
X156906716Y-97031938D01*
X156904000Y-97004360D01*
X156904000Y-96495640D01*
X156906716Y-96468062D01*
X156912971Y-96447443D01*
X156923124Y-96428447D01*
X156936792Y-96411792D01*
X156953447Y-96398124D01*
X156972443Y-96387971D01*
X156993062Y-96381716D01*
X157020640Y-96379000D01*
X157479360Y-96379000D01*
X157506938Y-96381716D01*
X157506938Y-96381716D01*
G37*
G36*
X158476938Y-96381716D02*
G01*
X158497557Y-96387971D01*
X158516553Y-96398124D01*
X158533208Y-96411792D01*
X158546876Y-96428447D01*
X158557029Y-96447443D01*
X158563284Y-96468062D01*
X158566000Y-96495640D01*
X158566000Y-97004360D01*
X158563284Y-97031938D01*
X158557029Y-97052557D01*
X158546876Y-97071553D01*
X158533208Y-97088208D01*
X158516553Y-97101876D01*
X158497557Y-97112029D01*
X158476938Y-97118284D01*
X158449360Y-97121000D01*
X157990640Y-97121000D01*
X157963062Y-97118284D01*
X157942443Y-97112029D01*
X157923447Y-97101876D01*
X157906792Y-97088208D01*
X157893124Y-97071553D01*
X157882971Y-97052557D01*
X157876716Y-97031938D01*
X157874000Y-97004360D01*
X157874000Y-96495640D01*
X157876716Y-96468062D01*
X157882971Y-96447443D01*
X157893124Y-96428447D01*
X157906792Y-96411792D01*
X157923447Y-96398124D01*
X157942443Y-96387971D01*
X157963062Y-96381716D01*
X157990640Y-96379000D01*
X158449360Y-96379000D01*
X158476938Y-96381716D01*
X158476938Y-96381716D01*
G37*
G36*
X153756938Y-96131716D02*
G01*
X153777557Y-96137971D01*
X153796553Y-96148124D01*
X153813208Y-96161792D01*
X153826876Y-96178447D01*
X153837029Y-96197443D01*
X153843284Y-96218062D01*
X153846000Y-96245640D01*
X153846000Y-96754360D01*
X153843284Y-96781938D01*
X153837029Y-96802557D01*
X153826876Y-96821553D01*
X153813208Y-96838208D01*
X153796553Y-96851876D01*
X153777557Y-96862029D01*
X153756938Y-96868284D01*
X153729360Y-96871000D01*
X153270640Y-96871000D01*
X153243062Y-96868284D01*
X153222443Y-96862029D01*
X153203447Y-96851876D01*
X153186792Y-96838208D01*
X153173124Y-96821553D01*
X153162971Y-96802557D01*
X153156716Y-96781938D01*
X153154000Y-96754360D01*
X153154000Y-96245640D01*
X153156716Y-96218062D01*
X153162971Y-96197443D01*
X153173124Y-96178447D01*
X153186792Y-96161792D01*
X153203447Y-96148124D01*
X153222443Y-96137971D01*
X153243062Y-96131716D01*
X153270640Y-96129000D01*
X153729360Y-96129000D01*
X153756938Y-96131716D01*
X153756938Y-96131716D01*
G37*
G36*
X154726938Y-96131716D02*
G01*
X154747557Y-96137971D01*
X154766553Y-96148124D01*
X154783208Y-96161792D01*
X154796876Y-96178447D01*
X154807029Y-96197443D01*
X154813284Y-96218062D01*
X154816000Y-96245640D01*
X154816000Y-96754360D01*
X154813284Y-96781938D01*
X154807029Y-96802557D01*
X154796876Y-96821553D01*
X154783208Y-96838208D01*
X154766553Y-96851876D01*
X154747557Y-96862029D01*
X154726938Y-96868284D01*
X154699360Y-96871000D01*
X154240640Y-96871000D01*
X154213062Y-96868284D01*
X154192443Y-96862029D01*
X154173447Y-96851876D01*
X154156792Y-96838208D01*
X154143124Y-96821553D01*
X154132971Y-96802557D01*
X154126716Y-96781938D01*
X154124000Y-96754360D01*
X154124000Y-96245640D01*
X154126716Y-96218062D01*
X154132971Y-96197443D01*
X154143124Y-96178447D01*
X154156792Y-96161792D01*
X154173447Y-96148124D01*
X154192443Y-96137971D01*
X154213062Y-96131716D01*
X154240640Y-96129000D01*
X154699360Y-96129000D01*
X154726938Y-96131716D01*
X154726938Y-96131716D01*
G37*
G36*
X118860442Y-94645518D02*
G01*
X118926627Y-94652037D01*
X119096466Y-94703557D01*
X119252991Y-94787222D01*
X119288729Y-94816552D01*
X119390186Y-94899814D01*
X119468827Y-94995640D01*
X119502778Y-95037009D01*
X119586443Y-95193534D01*
X119637963Y-95363373D01*
X119655359Y-95540000D01*
X119637963Y-95716627D01*
X119586443Y-95886466D01*
X119502778Y-96042991D01*
X119473448Y-96078729D01*
X119390186Y-96180186D01*
X119288729Y-96263448D01*
X119252991Y-96292778D01*
X119096466Y-96376443D01*
X118926627Y-96427963D01*
X118860443Y-96434481D01*
X118794260Y-96441000D01*
X118705740Y-96441000D01*
X118639557Y-96434481D01*
X118573373Y-96427963D01*
X118403534Y-96376443D01*
X118247009Y-96292778D01*
X118211271Y-96263448D01*
X118109814Y-96180186D01*
X118026552Y-96078729D01*
X117997222Y-96042991D01*
X117913557Y-95886466D01*
X117862037Y-95716627D01*
X117844641Y-95540000D01*
X117862037Y-95363373D01*
X117913557Y-95193534D01*
X117997222Y-95037009D01*
X118031173Y-94995640D01*
X118109814Y-94899814D01*
X118211271Y-94816552D01*
X118247009Y-94787222D01*
X118403534Y-94703557D01*
X118573373Y-94652037D01*
X118639558Y-94645518D01*
X118705740Y-94639000D01*
X118794260Y-94639000D01*
X118860442Y-94645518D01*
X118860442Y-94645518D01*
G37*
G36*
X121400442Y-94645518D02*
G01*
X121466627Y-94652037D01*
X121636466Y-94703557D01*
X121792991Y-94787222D01*
X121828729Y-94816552D01*
X121930186Y-94899814D01*
X122008827Y-94995640D01*
X122042778Y-95037009D01*
X122126443Y-95193534D01*
X122177963Y-95363373D01*
X122195359Y-95540000D01*
X122177963Y-95716627D01*
X122126443Y-95886466D01*
X122042778Y-96042991D01*
X122013448Y-96078729D01*
X121930186Y-96180186D01*
X121828729Y-96263448D01*
X121792991Y-96292778D01*
X121636466Y-96376443D01*
X121466627Y-96427963D01*
X121400443Y-96434481D01*
X121334260Y-96441000D01*
X121245740Y-96441000D01*
X121179557Y-96434481D01*
X121113373Y-96427963D01*
X120943534Y-96376443D01*
X120787009Y-96292778D01*
X120751271Y-96263448D01*
X120649814Y-96180186D01*
X120566552Y-96078729D01*
X120537222Y-96042991D01*
X120453557Y-95886466D01*
X120402037Y-95716627D01*
X120384641Y-95540000D01*
X120402037Y-95363373D01*
X120453557Y-95193534D01*
X120537222Y-95037009D01*
X120571173Y-94995640D01*
X120649814Y-94899814D01*
X120751271Y-94816552D01*
X120787009Y-94787222D01*
X120943534Y-94703557D01*
X121113373Y-94652037D01*
X121179558Y-94645518D01*
X121245740Y-94639000D01*
X121334260Y-94639000D01*
X121400442Y-94645518D01*
X121400442Y-94645518D01*
G37*
G36*
X162201000Y-96001000D02*
G01*
X161299000Y-96001000D01*
X161299000Y-94999000D01*
X162201000Y-94999000D01*
X162201000Y-96001000D01*
X162201000Y-96001000D01*
G37*
G36*
X154726938Y-94881716D02*
G01*
X154747557Y-94887971D01*
X154766553Y-94898124D01*
X154783208Y-94911792D01*
X154796876Y-94928447D01*
X154807029Y-94947443D01*
X154813284Y-94968062D01*
X154816000Y-94995640D01*
X154816000Y-95504360D01*
X154813284Y-95531938D01*
X154807029Y-95552557D01*
X154796876Y-95571553D01*
X154783208Y-95588208D01*
X154766553Y-95601876D01*
X154747557Y-95612029D01*
X154726938Y-95618284D01*
X154699360Y-95621000D01*
X154240640Y-95621000D01*
X154213062Y-95618284D01*
X154192443Y-95612029D01*
X154173447Y-95601876D01*
X154156792Y-95588208D01*
X154143124Y-95571553D01*
X154132971Y-95552557D01*
X154126716Y-95531938D01*
X154124000Y-95504360D01*
X154124000Y-94995640D01*
X154126716Y-94968062D01*
X154132971Y-94947443D01*
X154143124Y-94928447D01*
X154156792Y-94911792D01*
X154173447Y-94898124D01*
X154192443Y-94887971D01*
X154213062Y-94881716D01*
X154240640Y-94879000D01*
X154699360Y-94879000D01*
X154726938Y-94881716D01*
X154726938Y-94881716D01*
G37*
G36*
X153756938Y-94881716D02*
G01*
X153777557Y-94887971D01*
X153796553Y-94898124D01*
X153813208Y-94911792D01*
X153826876Y-94928447D01*
X153837029Y-94947443D01*
X153843284Y-94968062D01*
X153846000Y-94995640D01*
X153846000Y-95504360D01*
X153843284Y-95531938D01*
X153837029Y-95552557D01*
X153826876Y-95571553D01*
X153813208Y-95588208D01*
X153796553Y-95601876D01*
X153777557Y-95612029D01*
X153756938Y-95618284D01*
X153729360Y-95621000D01*
X153270640Y-95621000D01*
X153243062Y-95618284D01*
X153222443Y-95612029D01*
X153203447Y-95601876D01*
X153186792Y-95588208D01*
X153173124Y-95571553D01*
X153162971Y-95552557D01*
X153156716Y-95531938D01*
X153154000Y-95504360D01*
X153154000Y-94995640D01*
X153156716Y-94968062D01*
X153162971Y-94947443D01*
X153173124Y-94928447D01*
X153186792Y-94911792D01*
X153203447Y-94898124D01*
X153222443Y-94887971D01*
X153243062Y-94881716D01*
X153270640Y-94879000D01*
X153729360Y-94879000D01*
X153756938Y-94881716D01*
X153756938Y-94881716D01*
G37*
G36*
X121400443Y-92105519D02*
G01*
X121466627Y-92112037D01*
X121636466Y-92163557D01*
X121792991Y-92247222D01*
X121828729Y-92276552D01*
X121930186Y-92359814D01*
X122013448Y-92461271D01*
X122042778Y-92497009D01*
X122126443Y-92653534D01*
X122177963Y-92823373D01*
X122195359Y-93000000D01*
X122177963Y-93176627D01*
X122126443Y-93346466D01*
X122042778Y-93502991D01*
X122013448Y-93538729D01*
X121930186Y-93640186D01*
X121828729Y-93723448D01*
X121792991Y-93752778D01*
X121636466Y-93836443D01*
X121466627Y-93887963D01*
X121400442Y-93894482D01*
X121334260Y-93901000D01*
X121245740Y-93901000D01*
X121179557Y-93894481D01*
X121113373Y-93887963D01*
X120943534Y-93836443D01*
X120787009Y-93752778D01*
X120751271Y-93723448D01*
X120649814Y-93640186D01*
X120566552Y-93538729D01*
X120537222Y-93502991D01*
X120453557Y-93346466D01*
X120402037Y-93176627D01*
X120384641Y-93000000D01*
X120402037Y-92823373D01*
X120453557Y-92653534D01*
X120537222Y-92497009D01*
X120566552Y-92461271D01*
X120649814Y-92359814D01*
X120751271Y-92276552D01*
X120787009Y-92247222D01*
X120943534Y-92163557D01*
X121113373Y-92112037D01*
X121179557Y-92105519D01*
X121245740Y-92099000D01*
X121334260Y-92099000D01*
X121400443Y-92105519D01*
X121400443Y-92105519D01*
G37*
G36*
X119651000Y-93901000D02*
G01*
X117849000Y-93901000D01*
X117849000Y-92099000D01*
X119651000Y-92099000D01*
X119651000Y-93901000D01*
X119651000Y-93901000D01*
G37*
G36*
X151481938Y-90941716D02*
G01*
X151502557Y-90947971D01*
X151521553Y-90958124D01*
X151538208Y-90971792D01*
X151551876Y-90988447D01*
X151562029Y-91007443D01*
X151568284Y-91028062D01*
X151571000Y-91055640D01*
X151571000Y-91514360D01*
X151568284Y-91541938D01*
X151562029Y-91562557D01*
X151551876Y-91581553D01*
X151538208Y-91598208D01*
X151521553Y-91611876D01*
X151502557Y-91622029D01*
X151481938Y-91628284D01*
X151454360Y-91631000D01*
X150945640Y-91631000D01*
X150918062Y-91628284D01*
X150897443Y-91622029D01*
X150878447Y-91611876D01*
X150861792Y-91598208D01*
X150848124Y-91581553D01*
X150837971Y-91562557D01*
X150831716Y-91541938D01*
X150829000Y-91514360D01*
X150829000Y-91055640D01*
X150831716Y-91028062D01*
X150837971Y-91007443D01*
X150848124Y-90988447D01*
X150861792Y-90971792D01*
X150878447Y-90958124D01*
X150897443Y-90947971D01*
X150918062Y-90941716D01*
X150945640Y-90939000D01*
X151454360Y-90939000D01*
X151481938Y-90941716D01*
X151481938Y-90941716D01*
G37*
G36*
X131081938Y-90826716D02*
G01*
X131102557Y-90832971D01*
X131121553Y-90843124D01*
X131138208Y-90856792D01*
X131151876Y-90873447D01*
X131162029Y-90892443D01*
X131168284Y-90913062D01*
X131171000Y-90940640D01*
X131171000Y-91399360D01*
X131168284Y-91426938D01*
X131162029Y-91447557D01*
X131151876Y-91466553D01*
X131138208Y-91483208D01*
X131121553Y-91496876D01*
X131102557Y-91507029D01*
X131081938Y-91513284D01*
X131054360Y-91516000D01*
X130545640Y-91516000D01*
X130518062Y-91513284D01*
X130497443Y-91507029D01*
X130478447Y-91496876D01*
X130461792Y-91483208D01*
X130448124Y-91466553D01*
X130437971Y-91447557D01*
X130431716Y-91426938D01*
X130429000Y-91399360D01*
X130429000Y-90940640D01*
X130431716Y-90913062D01*
X130437971Y-90892443D01*
X130448124Y-90873447D01*
X130461792Y-90856792D01*
X130478447Y-90843124D01*
X130497443Y-90832971D01*
X130518062Y-90826716D01*
X130545640Y-90824000D01*
X131054360Y-90824000D01*
X131081938Y-90826716D01*
X131081938Y-90826716D01*
G37*
G36*
X156441938Y-90681716D02*
G01*
X156462557Y-90687971D01*
X156481553Y-90698124D01*
X156498208Y-90711792D01*
X156511876Y-90728447D01*
X156522029Y-90747443D01*
X156528284Y-90768062D01*
X156531000Y-90795640D01*
X156531000Y-91304360D01*
X156528284Y-91331938D01*
X156522029Y-91352557D01*
X156511876Y-91371553D01*
X156498208Y-91388208D01*
X156481553Y-91401876D01*
X156462557Y-91412029D01*
X156441938Y-91418284D01*
X156414360Y-91421000D01*
X155955640Y-91421000D01*
X155928062Y-91418284D01*
X155907443Y-91412029D01*
X155888447Y-91401876D01*
X155871792Y-91388208D01*
X155858124Y-91371553D01*
X155847971Y-91352557D01*
X155841716Y-91331938D01*
X155839000Y-91304360D01*
X155839000Y-90795640D01*
X155841716Y-90768062D01*
X155847971Y-90747443D01*
X155858124Y-90728447D01*
X155871792Y-90711792D01*
X155888447Y-90698124D01*
X155907443Y-90687971D01*
X155928062Y-90681716D01*
X155955640Y-90679000D01*
X156414360Y-90679000D01*
X156441938Y-90681716D01*
X156441938Y-90681716D01*
G37*
G36*
X155471938Y-90681716D02*
G01*
X155492557Y-90687971D01*
X155511553Y-90698124D01*
X155528208Y-90711792D01*
X155541876Y-90728447D01*
X155552029Y-90747443D01*
X155558284Y-90768062D01*
X155561000Y-90795640D01*
X155561000Y-91304360D01*
X155558284Y-91331938D01*
X155552029Y-91352557D01*
X155541876Y-91371553D01*
X155528208Y-91388208D01*
X155511553Y-91401876D01*
X155492557Y-91412029D01*
X155471938Y-91418284D01*
X155444360Y-91421000D01*
X154985640Y-91421000D01*
X154958062Y-91418284D01*
X154937443Y-91412029D01*
X154918447Y-91401876D01*
X154901792Y-91388208D01*
X154888124Y-91371553D01*
X154877971Y-91352557D01*
X154871716Y-91331938D01*
X154869000Y-91304360D01*
X154869000Y-90795640D01*
X154871716Y-90768062D01*
X154877971Y-90747443D01*
X154888124Y-90728447D01*
X154901792Y-90711792D01*
X154918447Y-90698124D01*
X154937443Y-90687971D01*
X154958062Y-90681716D01*
X154985640Y-90679000D01*
X155444360Y-90679000D01*
X155471938Y-90681716D01*
X155471938Y-90681716D01*
G37*
G36*
X135086938Y-90631716D02*
G01*
X135107557Y-90637971D01*
X135126553Y-90648124D01*
X135143208Y-90661792D01*
X135156876Y-90678447D01*
X135167029Y-90697443D01*
X135173284Y-90718062D01*
X135176000Y-90745640D01*
X135176000Y-91254360D01*
X135173284Y-91281938D01*
X135167029Y-91302557D01*
X135156876Y-91321553D01*
X135143208Y-91338208D01*
X135126553Y-91351876D01*
X135107557Y-91362029D01*
X135086938Y-91368284D01*
X135059360Y-91371000D01*
X134600640Y-91371000D01*
X134573062Y-91368284D01*
X134552443Y-91362029D01*
X134533447Y-91351876D01*
X134516792Y-91338208D01*
X134503124Y-91321553D01*
X134492971Y-91302557D01*
X134486716Y-91281938D01*
X134484000Y-91254360D01*
X134484000Y-90745640D01*
X134486716Y-90718062D01*
X134492971Y-90697443D01*
X134503124Y-90678447D01*
X134516792Y-90661792D01*
X134533447Y-90648124D01*
X134552443Y-90637971D01*
X134573062Y-90631716D01*
X134600640Y-90629000D01*
X135059360Y-90629000D01*
X135086938Y-90631716D01*
X135086938Y-90631716D01*
G37*
G36*
X136056938Y-90631716D02*
G01*
X136077557Y-90637971D01*
X136096553Y-90648124D01*
X136113208Y-90661792D01*
X136126876Y-90678447D01*
X136137029Y-90697443D01*
X136143284Y-90718062D01*
X136146000Y-90745640D01*
X136146000Y-91254360D01*
X136143284Y-91281938D01*
X136137029Y-91302557D01*
X136126876Y-91321553D01*
X136113208Y-91338208D01*
X136096553Y-91351876D01*
X136077557Y-91362029D01*
X136056938Y-91368284D01*
X136029360Y-91371000D01*
X135570640Y-91371000D01*
X135543062Y-91368284D01*
X135522443Y-91362029D01*
X135503447Y-91351876D01*
X135486792Y-91338208D01*
X135473124Y-91321553D01*
X135462971Y-91302557D01*
X135456716Y-91281938D01*
X135454000Y-91254360D01*
X135454000Y-90745640D01*
X135456716Y-90718062D01*
X135462971Y-90697443D01*
X135473124Y-90678447D01*
X135486792Y-90661792D01*
X135503447Y-90648124D01*
X135522443Y-90637971D01*
X135543062Y-90631716D01*
X135570640Y-90629000D01*
X136029360Y-90629000D01*
X136056938Y-90631716D01*
X136056938Y-90631716D01*
G37*
G36*
X150201000Y-90951000D02*
G01*
X149199000Y-90951000D01*
X149199000Y-90049000D01*
X150201000Y-90049000D01*
X150201000Y-90951000D01*
X150201000Y-90951000D01*
G37*
G36*
X153201000Y-90951000D02*
G01*
X152199000Y-90951000D01*
X152199000Y-90049000D01*
X153201000Y-90049000D01*
X153201000Y-90951000D01*
X153201000Y-90951000D01*
G37*
G36*
X129801000Y-90801000D02*
G01*
X128799000Y-90801000D01*
X128799000Y-89899000D01*
X129801000Y-89899000D01*
X129801000Y-90801000D01*
X129801000Y-90801000D01*
G37*
G36*
X132901000Y-90801000D02*
G01*
X131899000Y-90801000D01*
X131899000Y-89899000D01*
X132901000Y-89899000D01*
X132901000Y-90801000D01*
X132901000Y-90801000D01*
G37*
G36*
X151481938Y-89971716D02*
G01*
X151502557Y-89977971D01*
X151521553Y-89988124D01*
X151538208Y-90001792D01*
X151551876Y-90018447D01*
X151562029Y-90037443D01*
X151568284Y-90058062D01*
X151571000Y-90085640D01*
X151571000Y-90544360D01*
X151568284Y-90571938D01*
X151562029Y-90592557D01*
X151551876Y-90611553D01*
X151538208Y-90628208D01*
X151521553Y-90641876D01*
X151502557Y-90652029D01*
X151481938Y-90658284D01*
X151454360Y-90661000D01*
X150945640Y-90661000D01*
X150918062Y-90658284D01*
X150897443Y-90652029D01*
X150878447Y-90641876D01*
X150861792Y-90628208D01*
X150848124Y-90611553D01*
X150837971Y-90592557D01*
X150831716Y-90571938D01*
X150829000Y-90544360D01*
X150829000Y-90085640D01*
X150831716Y-90058062D01*
X150837971Y-90037443D01*
X150848124Y-90018447D01*
X150861792Y-90001792D01*
X150878447Y-89988124D01*
X150897443Y-89977971D01*
X150918062Y-89971716D01*
X150945640Y-89969000D01*
X151454360Y-89969000D01*
X151481938Y-89971716D01*
X151481938Y-89971716D01*
G37*
G36*
X131081938Y-89856716D02*
G01*
X131102557Y-89862971D01*
X131121553Y-89873124D01*
X131138208Y-89886792D01*
X131151876Y-89903447D01*
X131162029Y-89922443D01*
X131168284Y-89943062D01*
X131171000Y-89970640D01*
X131171000Y-90429360D01*
X131168284Y-90456938D01*
X131162029Y-90477557D01*
X131151876Y-90496553D01*
X131138208Y-90513208D01*
X131121553Y-90526876D01*
X131102557Y-90537029D01*
X131081938Y-90543284D01*
X131054360Y-90546000D01*
X130545640Y-90546000D01*
X130518062Y-90543284D01*
X130497443Y-90537029D01*
X130478447Y-90526876D01*
X130461792Y-90513208D01*
X130448124Y-90496553D01*
X130437971Y-90477557D01*
X130431716Y-90456938D01*
X130429000Y-90429360D01*
X130429000Y-89970640D01*
X130431716Y-89943062D01*
X130437971Y-89922443D01*
X130448124Y-89903447D01*
X130461792Y-89886792D01*
X130478447Y-89873124D01*
X130497443Y-89862971D01*
X130518062Y-89856716D01*
X130545640Y-89854000D01*
X131054360Y-89854000D01*
X131081938Y-89856716D01*
X131081938Y-89856716D01*
G37*
G36*
X148201000Y-90001000D02*
G01*
X147199000Y-90001000D01*
X147199000Y-89099000D01*
X148201000Y-89099000D01*
X148201000Y-90001000D01*
X148201000Y-90001000D01*
G37*
G36*
X155201000Y-90001000D02*
G01*
X154199000Y-90001000D01*
X154199000Y-89099000D01*
X155201000Y-89099000D01*
X155201000Y-90001000D01*
X155201000Y-90001000D01*
G37*
G36*
X127801000Y-89851000D02*
G01*
X126799000Y-89851000D01*
X126799000Y-88949000D01*
X127801000Y-88949000D01*
X127801000Y-89851000D01*
X127801000Y-89851000D01*
G37*
G36*
X134901000Y-89851000D02*
G01*
X133899000Y-89851000D01*
X133899000Y-88949000D01*
X134901000Y-88949000D01*
X134901000Y-89851000D01*
X134901000Y-89851000D01*
G37*
G36*
X151481938Y-88691716D02*
G01*
X151502557Y-88697971D01*
X151521553Y-88708124D01*
X151538208Y-88721792D01*
X151551876Y-88738447D01*
X151562029Y-88757443D01*
X151568284Y-88778062D01*
X151571000Y-88805640D01*
X151571000Y-89264360D01*
X151568284Y-89291938D01*
X151562029Y-89312557D01*
X151551876Y-89331553D01*
X151538208Y-89348208D01*
X151521553Y-89361876D01*
X151502557Y-89372029D01*
X151481938Y-89378284D01*
X151454360Y-89381000D01*
X150945640Y-89381000D01*
X150918062Y-89378284D01*
X150897443Y-89372029D01*
X150878447Y-89361876D01*
X150861792Y-89348208D01*
X150848124Y-89331553D01*
X150837971Y-89312557D01*
X150831716Y-89291938D01*
X150829000Y-89264360D01*
X150829000Y-88805640D01*
X150831716Y-88778062D01*
X150837971Y-88757443D01*
X150848124Y-88738447D01*
X150861792Y-88721792D01*
X150878447Y-88708124D01*
X150897443Y-88697971D01*
X150918062Y-88691716D01*
X150945640Y-88689000D01*
X151454360Y-88689000D01*
X151481938Y-88691716D01*
X151481938Y-88691716D01*
G37*
G36*
X131081938Y-88656716D02*
G01*
X131102557Y-88662971D01*
X131121553Y-88673124D01*
X131138208Y-88686792D01*
X131151876Y-88703447D01*
X131162029Y-88722443D01*
X131168284Y-88743062D01*
X131171000Y-88770640D01*
X131171000Y-89229360D01*
X131168284Y-89256938D01*
X131162029Y-89277557D01*
X131151876Y-89296553D01*
X131138208Y-89313208D01*
X131121553Y-89326876D01*
X131102557Y-89337029D01*
X131081938Y-89343284D01*
X131054360Y-89346000D01*
X130545640Y-89346000D01*
X130518062Y-89343284D01*
X130497443Y-89337029D01*
X130478447Y-89326876D01*
X130461792Y-89313208D01*
X130448124Y-89296553D01*
X130437971Y-89277557D01*
X130431716Y-89256938D01*
X130429000Y-89229360D01*
X130429000Y-88770640D01*
X130431716Y-88743062D01*
X130437971Y-88722443D01*
X130448124Y-88703447D01*
X130461792Y-88686792D01*
X130478447Y-88673124D01*
X130497443Y-88662971D01*
X130518062Y-88656716D01*
X130545640Y-88654000D01*
X131054360Y-88654000D01*
X131081938Y-88656716D01*
X131081938Y-88656716D01*
G37*
G36*
X150201000Y-89051000D02*
G01*
X149199000Y-89051000D01*
X149199000Y-88149000D01*
X150201000Y-88149000D01*
X150201000Y-89051000D01*
X150201000Y-89051000D01*
G37*
G36*
X153201000Y-89051000D02*
G01*
X152199000Y-89051000D01*
X152199000Y-88149000D01*
X153201000Y-88149000D01*
X153201000Y-89051000D01*
X153201000Y-89051000D01*
G37*
G36*
X129801000Y-88901000D02*
G01*
X128799000Y-88901000D01*
X128799000Y-87999000D01*
X129801000Y-87999000D01*
X129801000Y-88901000D01*
X129801000Y-88901000D01*
G37*
G36*
X132901000Y-88901000D02*
G01*
X131899000Y-88901000D01*
X131899000Y-87999000D01*
X132901000Y-87999000D01*
X132901000Y-88901000D01*
X132901000Y-88901000D01*
G37*
G36*
X121878518Y-82310329D02*
G01*
X122198282Y-82373934D01*
X122789926Y-82619001D01*
X123322392Y-82974784D01*
X123775216Y-83427608D01*
X124130999Y-83960074D01*
X124376066Y-84551718D01*
X124403970Y-84692000D01*
X124501000Y-85179803D01*
X124501000Y-85820197D01*
X124456930Y-86041751D01*
X124376066Y-86448282D01*
X124130999Y-87039926D01*
X123775216Y-87572392D01*
X123322392Y-88025216D01*
X122789926Y-88380999D01*
X122198282Y-88626066D01*
X122041137Y-88657324D01*
X121570197Y-88751000D01*
X120929803Y-88751000D01*
X120458863Y-88657324D01*
X120301718Y-88626066D01*
X119710074Y-88380999D01*
X119177608Y-88025216D01*
X118724784Y-87572392D01*
X118369001Y-87039926D01*
X118123934Y-86448282D01*
X118043070Y-86041751D01*
X117999000Y-85820197D01*
X117999000Y-85179803D01*
X118096030Y-84692000D01*
X118123934Y-84551718D01*
X118369001Y-83960074D01*
X118724784Y-83427608D01*
X119177608Y-82974784D01*
X119710074Y-82619001D01*
X120301718Y-82373934D01*
X120621482Y-82310329D01*
X120929803Y-82249000D01*
X121570197Y-82249000D01*
X121878518Y-82310329D01*
X121878518Y-82310329D01*
G37*
G36*
X161878518Y-82310329D02*
G01*
X162198282Y-82373934D01*
X162789926Y-82619001D01*
X163322392Y-82974784D01*
X163775216Y-83427608D01*
X164130999Y-83960074D01*
X164376066Y-84551718D01*
X164403970Y-84692000D01*
X164501000Y-85179803D01*
X164501000Y-85820197D01*
X164456930Y-86041751D01*
X164376066Y-86448282D01*
X164130999Y-87039926D01*
X163775216Y-87572392D01*
X163322392Y-88025216D01*
X162789926Y-88380999D01*
X162198282Y-88626066D01*
X162041137Y-88657324D01*
X161570197Y-88751000D01*
X160929803Y-88751000D01*
X160458863Y-88657324D01*
X160301718Y-88626066D01*
X159710074Y-88380999D01*
X159177608Y-88025216D01*
X158724784Y-87572392D01*
X158369001Y-87039926D01*
X158123934Y-86448282D01*
X158043070Y-86041751D01*
X157999000Y-85820197D01*
X157999000Y-85179803D01*
X158096030Y-84692000D01*
X158123934Y-84551718D01*
X158369001Y-83960074D01*
X158724784Y-83427608D01*
X159177608Y-82974784D01*
X159710074Y-82619001D01*
X160301718Y-82373934D01*
X160621482Y-82310329D01*
X160929803Y-82249000D01*
X161570197Y-82249000D01*
X161878518Y-82310329D01*
X161878518Y-82310329D01*
G37*
G36*
X155471938Y-87681716D02*
G01*
X155492557Y-87687971D01*
X155511553Y-87698124D01*
X155528208Y-87711792D01*
X155541876Y-87728447D01*
X155552029Y-87747443D01*
X155558284Y-87768062D01*
X155561000Y-87795640D01*
X155561000Y-88304360D01*
X155558284Y-88331938D01*
X155552029Y-88352557D01*
X155541876Y-88371553D01*
X155528208Y-88388208D01*
X155511553Y-88401876D01*
X155492557Y-88412029D01*
X155471938Y-88418284D01*
X155444360Y-88421000D01*
X154985640Y-88421000D01*
X154958062Y-88418284D01*
X154937443Y-88412029D01*
X154918447Y-88401876D01*
X154901792Y-88388208D01*
X154888124Y-88371553D01*
X154877971Y-88352557D01*
X154871716Y-88331938D01*
X154869000Y-88304360D01*
X154869000Y-87795640D01*
X154871716Y-87768062D01*
X154877971Y-87747443D01*
X154888124Y-87728447D01*
X154901792Y-87711792D01*
X154918447Y-87698124D01*
X154937443Y-87687971D01*
X154958062Y-87681716D01*
X154985640Y-87679000D01*
X155444360Y-87679000D01*
X155471938Y-87681716D01*
X155471938Y-87681716D01*
G37*
G36*
X156441938Y-87681716D02*
G01*
X156462557Y-87687971D01*
X156481553Y-87698124D01*
X156498208Y-87711792D01*
X156511876Y-87728447D01*
X156522029Y-87747443D01*
X156528284Y-87768062D01*
X156531000Y-87795640D01*
X156531000Y-88304360D01*
X156528284Y-88331938D01*
X156522029Y-88352557D01*
X156511876Y-88371553D01*
X156498208Y-88388208D01*
X156481553Y-88401876D01*
X156462557Y-88412029D01*
X156441938Y-88418284D01*
X156414360Y-88421000D01*
X155955640Y-88421000D01*
X155928062Y-88418284D01*
X155907443Y-88412029D01*
X155888447Y-88401876D01*
X155871792Y-88388208D01*
X155858124Y-88371553D01*
X155847971Y-88352557D01*
X155841716Y-88331938D01*
X155839000Y-88304360D01*
X155839000Y-87795640D01*
X155841716Y-87768062D01*
X155847971Y-87747443D01*
X155858124Y-87728447D01*
X155871792Y-87711792D01*
X155888447Y-87698124D01*
X155907443Y-87687971D01*
X155928062Y-87681716D01*
X155955640Y-87679000D01*
X156414360Y-87679000D01*
X156441938Y-87681716D01*
X156441938Y-87681716D01*
G37*
G36*
X151481938Y-87721716D02*
G01*
X151502557Y-87727971D01*
X151521553Y-87738124D01*
X151538208Y-87751792D01*
X151551876Y-87768447D01*
X151562029Y-87787443D01*
X151568284Y-87808062D01*
X151571000Y-87835640D01*
X151571000Y-88294360D01*
X151568284Y-88321938D01*
X151562029Y-88342557D01*
X151551876Y-88361553D01*
X151538208Y-88378208D01*
X151521553Y-88391876D01*
X151502557Y-88402029D01*
X151481938Y-88408284D01*
X151454360Y-88411000D01*
X150945640Y-88411000D01*
X150918062Y-88408284D01*
X150897443Y-88402029D01*
X150878447Y-88391876D01*
X150861792Y-88378208D01*
X150848124Y-88361553D01*
X150837971Y-88342557D01*
X150831716Y-88321938D01*
X150829000Y-88294360D01*
X150829000Y-87835640D01*
X150831716Y-87808062D01*
X150837971Y-87787443D01*
X150848124Y-87768447D01*
X150861792Y-87751792D01*
X150878447Y-87738124D01*
X150897443Y-87727971D01*
X150918062Y-87721716D01*
X150945640Y-87719000D01*
X151454360Y-87719000D01*
X151481938Y-87721716D01*
X151481938Y-87721716D01*
G37*
G36*
X131081938Y-87686716D02*
G01*
X131102557Y-87692971D01*
X131121553Y-87703124D01*
X131138208Y-87716792D01*
X131151876Y-87733447D01*
X131162029Y-87752443D01*
X131168284Y-87773062D01*
X131171000Y-87800640D01*
X131171000Y-88259360D01*
X131168284Y-88286938D01*
X131162029Y-88307557D01*
X131151876Y-88326553D01*
X131138208Y-88343208D01*
X131121553Y-88356876D01*
X131102557Y-88367029D01*
X131081938Y-88373284D01*
X131054360Y-88376000D01*
X130545640Y-88376000D01*
X130518062Y-88373284D01*
X130497443Y-88367029D01*
X130478447Y-88356876D01*
X130461792Y-88343208D01*
X130448124Y-88326553D01*
X130437971Y-88307557D01*
X130431716Y-88286938D01*
X130429000Y-88259360D01*
X130429000Y-87800640D01*
X130431716Y-87773062D01*
X130437971Y-87752443D01*
X130448124Y-87733447D01*
X130461792Y-87716792D01*
X130478447Y-87703124D01*
X130497443Y-87692971D01*
X130518062Y-87686716D01*
X130545640Y-87684000D01*
X131054360Y-87684000D01*
X131081938Y-87686716D01*
X131081938Y-87686716D01*
G37*
G36*
X135171938Y-87631716D02*
G01*
X135192557Y-87637971D01*
X135211553Y-87648124D01*
X135228208Y-87661792D01*
X135241876Y-87678447D01*
X135252029Y-87697443D01*
X135258284Y-87718062D01*
X135261000Y-87745640D01*
X135261000Y-88254360D01*
X135258284Y-88281938D01*
X135252029Y-88302557D01*
X135241876Y-88321553D01*
X135228208Y-88338208D01*
X135211553Y-88351876D01*
X135192557Y-88362029D01*
X135171938Y-88368284D01*
X135144360Y-88371000D01*
X134685640Y-88371000D01*
X134658062Y-88368284D01*
X134637443Y-88362029D01*
X134618447Y-88351876D01*
X134601792Y-88338208D01*
X134588124Y-88321553D01*
X134577971Y-88302557D01*
X134571716Y-88281938D01*
X134569000Y-88254360D01*
X134569000Y-87745640D01*
X134571716Y-87718062D01*
X134577971Y-87697443D01*
X134588124Y-87678447D01*
X134601792Y-87661792D01*
X134618447Y-87648124D01*
X134637443Y-87637971D01*
X134658062Y-87631716D01*
X134685640Y-87629000D01*
X135144360Y-87629000D01*
X135171938Y-87631716D01*
X135171938Y-87631716D01*
G37*
G36*
X136141938Y-87631716D02*
G01*
X136162557Y-87637971D01*
X136181553Y-87648124D01*
X136198208Y-87661792D01*
X136211876Y-87678447D01*
X136222029Y-87697443D01*
X136228284Y-87718062D01*
X136231000Y-87745640D01*
X136231000Y-88254360D01*
X136228284Y-88281938D01*
X136222029Y-88302557D01*
X136211876Y-88321553D01*
X136198208Y-88338208D01*
X136181553Y-88351876D01*
X136162557Y-88362029D01*
X136141938Y-88368284D01*
X136114360Y-88371000D01*
X135655640Y-88371000D01*
X135628062Y-88368284D01*
X135607443Y-88362029D01*
X135588447Y-88351876D01*
X135571792Y-88338208D01*
X135558124Y-88321553D01*
X135547971Y-88302557D01*
X135541716Y-88281938D01*
X135539000Y-88254360D01*
X135539000Y-87745640D01*
X135541716Y-87718062D01*
X135547971Y-87697443D01*
X135558124Y-87678447D01*
X135571792Y-87661792D01*
X135588447Y-87648124D01*
X135607443Y-87637971D01*
X135628062Y-87631716D01*
X135655640Y-87629000D01*
X136114360Y-87629000D01*
X136141938Y-87631716D01*
X136141938Y-87631716D01*
G37*
G36*
X151481938Y-85491716D02*
G01*
X151502557Y-85497971D01*
X151521553Y-85508124D01*
X151538208Y-85521792D01*
X151551876Y-85538447D01*
X151562029Y-85557443D01*
X151568284Y-85578062D01*
X151571000Y-85605640D01*
X151571000Y-86064360D01*
X151568284Y-86091938D01*
X151562029Y-86112557D01*
X151551876Y-86131553D01*
X151538208Y-86148208D01*
X151521553Y-86161876D01*
X151502557Y-86172029D01*
X151481938Y-86178284D01*
X151454360Y-86181000D01*
X150945640Y-86181000D01*
X150918062Y-86178284D01*
X150897443Y-86172029D01*
X150878447Y-86161876D01*
X150861792Y-86148208D01*
X150848124Y-86131553D01*
X150837971Y-86112557D01*
X150831716Y-86091938D01*
X150829000Y-86064360D01*
X150829000Y-85605640D01*
X150831716Y-85578062D01*
X150837971Y-85557443D01*
X150848124Y-85538447D01*
X150861792Y-85521792D01*
X150878447Y-85508124D01*
X150897443Y-85497971D01*
X150918062Y-85491716D01*
X150945640Y-85489000D01*
X151454360Y-85489000D01*
X151481938Y-85491716D01*
X151481938Y-85491716D01*
G37*
G36*
X131081938Y-84941716D02*
G01*
X131102557Y-84947971D01*
X131121553Y-84958124D01*
X131138208Y-84971792D01*
X131151876Y-84988447D01*
X131162029Y-85007443D01*
X131168284Y-85028062D01*
X131171000Y-85055640D01*
X131171000Y-85514360D01*
X131168284Y-85541938D01*
X131162029Y-85562557D01*
X131151876Y-85581553D01*
X131138208Y-85598208D01*
X131121553Y-85611876D01*
X131102557Y-85622029D01*
X131081938Y-85628284D01*
X131054360Y-85631000D01*
X130545640Y-85631000D01*
X130518062Y-85628284D01*
X130497443Y-85622029D01*
X130478447Y-85611876D01*
X130461792Y-85598208D01*
X130448124Y-85581553D01*
X130437971Y-85562557D01*
X130431716Y-85541938D01*
X130429000Y-85514360D01*
X130429000Y-85055640D01*
X130431716Y-85028062D01*
X130437971Y-85007443D01*
X130448124Y-84988447D01*
X130461792Y-84971792D01*
X130478447Y-84958124D01*
X130497443Y-84947971D01*
X130518062Y-84941716D01*
X130545640Y-84939000D01*
X131054360Y-84939000D01*
X131081938Y-84941716D01*
X131081938Y-84941716D01*
G37*
G36*
X156441938Y-84481716D02*
G01*
X156462557Y-84487971D01*
X156481553Y-84498124D01*
X156498208Y-84511792D01*
X156511876Y-84528447D01*
X156522029Y-84547443D01*
X156528284Y-84568062D01*
X156531000Y-84595640D01*
X156531000Y-85104360D01*
X156528284Y-85131938D01*
X156522029Y-85152557D01*
X156511876Y-85171553D01*
X156498208Y-85188208D01*
X156481553Y-85201876D01*
X156462557Y-85212029D01*
X156441938Y-85218284D01*
X156414360Y-85221000D01*
X155955640Y-85221000D01*
X155928062Y-85218284D01*
X155907443Y-85212029D01*
X155888447Y-85201876D01*
X155871792Y-85188208D01*
X155858124Y-85171553D01*
X155847971Y-85152557D01*
X155841716Y-85131938D01*
X155839000Y-85104360D01*
X155839000Y-84595640D01*
X155841716Y-84568062D01*
X155847971Y-84547443D01*
X155858124Y-84528447D01*
X155871792Y-84511792D01*
X155888447Y-84498124D01*
X155907443Y-84487971D01*
X155928062Y-84481716D01*
X155955640Y-84479000D01*
X156414360Y-84479000D01*
X156441938Y-84481716D01*
X156441938Y-84481716D01*
G37*
G36*
X155471938Y-84481716D02*
G01*
X155492557Y-84487971D01*
X155511553Y-84498124D01*
X155528208Y-84511792D01*
X155541876Y-84528447D01*
X155552029Y-84547443D01*
X155558284Y-84568062D01*
X155561000Y-84595640D01*
X155561000Y-85104360D01*
X155558284Y-85131938D01*
X155552029Y-85152557D01*
X155541876Y-85171553D01*
X155528208Y-85188208D01*
X155511553Y-85201876D01*
X155492557Y-85212029D01*
X155471938Y-85218284D01*
X155444360Y-85221000D01*
X154985640Y-85221000D01*
X154958062Y-85218284D01*
X154937443Y-85212029D01*
X154918447Y-85201876D01*
X154901792Y-85188208D01*
X154888124Y-85171553D01*
X154877971Y-85152557D01*
X154871716Y-85131938D01*
X154869000Y-85104360D01*
X154869000Y-84595640D01*
X154871716Y-84568062D01*
X154877971Y-84547443D01*
X154888124Y-84528447D01*
X154901792Y-84511792D01*
X154918447Y-84498124D01*
X154937443Y-84487971D01*
X154958062Y-84481716D01*
X154985640Y-84479000D01*
X155444360Y-84479000D01*
X155471938Y-84481716D01*
X155471938Y-84481716D01*
G37*
G36*
X151481938Y-84521716D02*
G01*
X151502557Y-84527971D01*
X151521553Y-84538124D01*
X151538208Y-84551792D01*
X151551876Y-84568447D01*
X151562029Y-84587443D01*
X151568284Y-84608062D01*
X151571000Y-84635640D01*
X151571000Y-85094360D01*
X151568284Y-85121938D01*
X151562029Y-85142557D01*
X151551876Y-85161553D01*
X151538208Y-85178208D01*
X151521553Y-85191876D01*
X151502557Y-85202029D01*
X151481938Y-85208284D01*
X151454360Y-85211000D01*
X150945640Y-85211000D01*
X150918062Y-85208284D01*
X150897443Y-85202029D01*
X150878447Y-85191876D01*
X150861792Y-85178208D01*
X150848124Y-85161553D01*
X150837971Y-85142557D01*
X150831716Y-85121938D01*
X150829000Y-85094360D01*
X150829000Y-84635640D01*
X150831716Y-84608062D01*
X150837971Y-84587443D01*
X150848124Y-84568447D01*
X150861792Y-84551792D01*
X150878447Y-84538124D01*
X150897443Y-84527971D01*
X150918062Y-84521716D01*
X150945640Y-84519000D01*
X151454360Y-84519000D01*
X151481938Y-84521716D01*
X151481938Y-84521716D01*
G37*
G36*
X135171938Y-84431716D02*
G01*
X135192557Y-84437971D01*
X135211553Y-84448124D01*
X135228208Y-84461792D01*
X135241876Y-84478447D01*
X135252029Y-84497443D01*
X135258284Y-84518062D01*
X135261000Y-84545640D01*
X135261000Y-85054360D01*
X135258284Y-85081938D01*
X135252029Y-85102557D01*
X135241876Y-85121553D01*
X135228208Y-85138208D01*
X135211553Y-85151876D01*
X135192557Y-85162029D01*
X135171938Y-85168284D01*
X135144360Y-85171000D01*
X134685640Y-85171000D01*
X134658062Y-85168284D01*
X134637443Y-85162029D01*
X134618447Y-85151876D01*
X134601792Y-85138208D01*
X134588124Y-85121553D01*
X134577971Y-85102557D01*
X134571716Y-85081938D01*
X134569000Y-85054360D01*
X134569000Y-84545640D01*
X134571716Y-84518062D01*
X134577971Y-84497443D01*
X134588124Y-84478447D01*
X134601792Y-84461792D01*
X134618447Y-84448124D01*
X134637443Y-84437971D01*
X134658062Y-84431716D01*
X134685640Y-84429000D01*
X135144360Y-84429000D01*
X135171938Y-84431716D01*
X135171938Y-84431716D01*
G37*
G36*
X136141938Y-84431716D02*
G01*
X136162557Y-84437971D01*
X136181553Y-84448124D01*
X136198208Y-84461792D01*
X136211876Y-84478447D01*
X136222029Y-84497443D01*
X136228284Y-84518062D01*
X136231000Y-84545640D01*
X136231000Y-85054360D01*
X136228284Y-85081938D01*
X136222029Y-85102557D01*
X136211876Y-85121553D01*
X136198208Y-85138208D01*
X136181553Y-85151876D01*
X136162557Y-85162029D01*
X136141938Y-85168284D01*
X136114360Y-85171000D01*
X135655640Y-85171000D01*
X135628062Y-85168284D01*
X135607443Y-85162029D01*
X135588447Y-85151876D01*
X135571792Y-85138208D01*
X135558124Y-85121553D01*
X135547971Y-85102557D01*
X135541716Y-85081938D01*
X135539000Y-85054360D01*
X135539000Y-84545640D01*
X135541716Y-84518062D01*
X135547971Y-84497443D01*
X135558124Y-84478447D01*
X135571792Y-84461792D01*
X135588447Y-84448124D01*
X135607443Y-84437971D01*
X135628062Y-84431716D01*
X135655640Y-84429000D01*
X136114360Y-84429000D01*
X136141938Y-84431716D01*
X136141938Y-84431716D01*
G37*
G36*
X153201000Y-85001000D02*
G01*
X152199000Y-85001000D01*
X152199000Y-84099000D01*
X153201000Y-84099000D01*
X153201000Y-85001000D01*
X153201000Y-85001000D01*
G37*
G36*
X150201000Y-85001000D02*
G01*
X149199000Y-85001000D01*
X149199000Y-84099000D01*
X150201000Y-84099000D01*
X150201000Y-85001000D01*
X150201000Y-85001000D01*
G37*
G36*
X132901000Y-84901000D02*
G01*
X131899000Y-84901000D01*
X131899000Y-83999000D01*
X132901000Y-83999000D01*
X132901000Y-84901000D01*
X132901000Y-84901000D01*
G37*
G36*
X129851000Y-84901000D02*
G01*
X128849000Y-84901000D01*
X128849000Y-83999000D01*
X129851000Y-83999000D01*
X129851000Y-84901000D01*
X129851000Y-84901000D01*
G37*
G36*
X131081938Y-83971716D02*
G01*
X131102557Y-83977971D01*
X131121553Y-83988124D01*
X131138208Y-84001792D01*
X131151876Y-84018447D01*
X131162029Y-84037443D01*
X131168284Y-84058062D01*
X131171000Y-84085640D01*
X131171000Y-84544360D01*
X131168284Y-84571938D01*
X131162029Y-84592557D01*
X131151876Y-84611553D01*
X131138208Y-84628208D01*
X131121553Y-84641876D01*
X131102557Y-84652029D01*
X131081938Y-84658284D01*
X131054360Y-84661000D01*
X130545640Y-84661000D01*
X130518062Y-84658284D01*
X130497443Y-84652029D01*
X130478447Y-84641876D01*
X130461792Y-84628208D01*
X130448124Y-84611553D01*
X130437971Y-84592557D01*
X130431716Y-84571938D01*
X130429000Y-84544360D01*
X130429000Y-84085640D01*
X130431716Y-84058062D01*
X130437971Y-84037443D01*
X130448124Y-84018447D01*
X130461792Y-84001792D01*
X130478447Y-83988124D01*
X130497443Y-83977971D01*
X130518062Y-83971716D01*
X130545640Y-83969000D01*
X131054360Y-83969000D01*
X131081938Y-83971716D01*
X131081938Y-83971716D01*
G37*
G36*
X155201000Y-84051000D02*
G01*
X154199000Y-84051000D01*
X154199000Y-83149000D01*
X155201000Y-83149000D01*
X155201000Y-84051000D01*
X155201000Y-84051000D01*
G37*
G36*
X148201000Y-84051000D02*
G01*
X147199000Y-84051000D01*
X147199000Y-83149000D01*
X148201000Y-83149000D01*
X148201000Y-84051000D01*
X148201000Y-84051000D01*
G37*
G36*
X134901000Y-83951000D02*
G01*
X133899000Y-83951000D01*
X133899000Y-83049000D01*
X134901000Y-83049000D01*
X134901000Y-83951000D01*
X134901000Y-83951000D01*
G37*
G36*
X127851000Y-83951000D02*
G01*
X126849000Y-83951000D01*
X126849000Y-83049000D01*
X127851000Y-83049000D01*
X127851000Y-83951000D01*
X127851000Y-83951000D01*
G37*
G36*
X151481938Y-83241716D02*
G01*
X151502557Y-83247971D01*
X151521553Y-83258124D01*
X151538208Y-83271792D01*
X151551876Y-83288447D01*
X151562029Y-83307443D01*
X151568284Y-83328062D01*
X151571000Y-83355640D01*
X151571000Y-83814360D01*
X151568284Y-83841938D01*
X151562029Y-83862557D01*
X151551876Y-83881553D01*
X151538208Y-83898208D01*
X151521553Y-83911876D01*
X151502557Y-83922029D01*
X151481938Y-83928284D01*
X151454360Y-83931000D01*
X150945640Y-83931000D01*
X150918062Y-83928284D01*
X150897443Y-83922029D01*
X150878447Y-83911876D01*
X150861792Y-83898208D01*
X150848124Y-83881553D01*
X150837971Y-83862557D01*
X150831716Y-83841938D01*
X150829000Y-83814360D01*
X150829000Y-83355640D01*
X150831716Y-83328062D01*
X150837971Y-83307443D01*
X150848124Y-83288447D01*
X150861792Y-83271792D01*
X150878447Y-83258124D01*
X150897443Y-83247971D01*
X150918062Y-83241716D01*
X150945640Y-83239000D01*
X151454360Y-83239000D01*
X151481938Y-83241716D01*
X151481938Y-83241716D01*
G37*
G36*
X131131938Y-82641716D02*
G01*
X131152557Y-82647971D01*
X131171553Y-82658124D01*
X131188208Y-82671792D01*
X131201876Y-82688447D01*
X131212029Y-82707443D01*
X131218284Y-82728062D01*
X131221000Y-82755640D01*
X131221000Y-83214360D01*
X131218284Y-83241938D01*
X131212029Y-83262557D01*
X131201876Y-83281553D01*
X131188208Y-83298208D01*
X131171553Y-83311876D01*
X131152557Y-83322029D01*
X131131938Y-83328284D01*
X131104360Y-83331000D01*
X130595640Y-83331000D01*
X130568062Y-83328284D01*
X130547443Y-83322029D01*
X130528447Y-83311876D01*
X130511792Y-83298208D01*
X130498124Y-83281553D01*
X130487971Y-83262557D01*
X130481716Y-83241938D01*
X130479000Y-83214360D01*
X130479000Y-82755640D01*
X130481716Y-82728062D01*
X130487971Y-82707443D01*
X130498124Y-82688447D01*
X130511792Y-82671792D01*
X130528447Y-82658124D01*
X130547443Y-82647971D01*
X130568062Y-82641716D01*
X130595640Y-82639000D01*
X131104360Y-82639000D01*
X131131938Y-82641716D01*
X131131938Y-82641716D01*
G37*
G36*
X150201000Y-83101000D02*
G01*
X149199000Y-83101000D01*
X149199000Y-82199000D01*
X150201000Y-82199000D01*
X150201000Y-83101000D01*
X150201000Y-83101000D01*
G37*
G36*
X153201000Y-83101000D02*
G01*
X152199000Y-83101000D01*
X152199000Y-82199000D01*
X153201000Y-82199000D01*
X153201000Y-83101000D01*
X153201000Y-83101000D01*
G37*
G36*
X132901000Y-83001000D02*
G01*
X131899000Y-83001000D01*
X131899000Y-82099000D01*
X132901000Y-82099000D01*
X132901000Y-83001000D01*
X132901000Y-83001000D01*
G37*
G36*
X129851000Y-83001000D02*
G01*
X128849000Y-83001000D01*
X128849000Y-82099000D01*
X129851000Y-82099000D01*
X129851000Y-83001000D01*
X129851000Y-83001000D01*
G37*
G36*
X151481938Y-82271716D02*
G01*
X151502557Y-82277971D01*
X151521553Y-82288124D01*
X151538208Y-82301792D01*
X151551876Y-82318447D01*
X151562029Y-82337443D01*
X151568284Y-82358062D01*
X151571000Y-82385640D01*
X151571000Y-82844360D01*
X151568284Y-82871938D01*
X151562029Y-82892557D01*
X151551876Y-82911553D01*
X151538208Y-82928208D01*
X151521553Y-82941876D01*
X151502557Y-82952029D01*
X151481938Y-82958284D01*
X151454360Y-82961000D01*
X150945640Y-82961000D01*
X150918062Y-82958284D01*
X150897443Y-82952029D01*
X150878447Y-82941876D01*
X150861792Y-82928208D01*
X150848124Y-82911553D01*
X150837971Y-82892557D01*
X150831716Y-82871938D01*
X150829000Y-82844360D01*
X150829000Y-82385640D01*
X150831716Y-82358062D01*
X150837971Y-82337443D01*
X150848124Y-82318447D01*
X150861792Y-82301792D01*
X150878447Y-82288124D01*
X150897443Y-82277971D01*
X150918062Y-82271716D01*
X150945640Y-82269000D01*
X151454360Y-82269000D01*
X151481938Y-82271716D01*
X151481938Y-82271716D01*
G37*
G36*
X156426938Y-81981716D02*
G01*
X156447557Y-81987971D01*
X156466553Y-81998124D01*
X156483208Y-82011792D01*
X156496876Y-82028447D01*
X156507029Y-82047443D01*
X156513284Y-82068062D01*
X156516000Y-82095640D01*
X156516000Y-82604360D01*
X156513284Y-82631938D01*
X156507029Y-82652557D01*
X156496876Y-82671553D01*
X156483208Y-82688208D01*
X156466553Y-82701876D01*
X156447557Y-82712029D01*
X156426938Y-82718284D01*
X156399360Y-82721000D01*
X155940640Y-82721000D01*
X155913062Y-82718284D01*
X155892443Y-82712029D01*
X155873447Y-82701876D01*
X155856792Y-82688208D01*
X155843124Y-82671553D01*
X155832971Y-82652557D01*
X155826716Y-82631938D01*
X155824000Y-82604360D01*
X155824000Y-82095640D01*
X155826716Y-82068062D01*
X155832971Y-82047443D01*
X155843124Y-82028447D01*
X155856792Y-82011792D01*
X155873447Y-81998124D01*
X155892443Y-81987971D01*
X155913062Y-81981716D01*
X155940640Y-81979000D01*
X156399360Y-81979000D01*
X156426938Y-81981716D01*
X156426938Y-81981716D01*
G37*
G36*
X155456938Y-81981716D02*
G01*
X155477557Y-81987971D01*
X155496553Y-81998124D01*
X155513208Y-82011792D01*
X155526876Y-82028447D01*
X155537029Y-82047443D01*
X155543284Y-82068062D01*
X155546000Y-82095640D01*
X155546000Y-82604360D01*
X155543284Y-82631938D01*
X155537029Y-82652557D01*
X155526876Y-82671553D01*
X155513208Y-82688208D01*
X155496553Y-82701876D01*
X155477557Y-82712029D01*
X155456938Y-82718284D01*
X155429360Y-82721000D01*
X154970640Y-82721000D01*
X154943062Y-82718284D01*
X154922443Y-82712029D01*
X154903447Y-82701876D01*
X154886792Y-82688208D01*
X154873124Y-82671553D01*
X154862971Y-82652557D01*
X154856716Y-82631938D01*
X154854000Y-82604360D01*
X154854000Y-82095640D01*
X154856716Y-82068062D01*
X154862971Y-82047443D01*
X154873124Y-82028447D01*
X154886792Y-82011792D01*
X154903447Y-81998124D01*
X154922443Y-81987971D01*
X154943062Y-81981716D01*
X154970640Y-81979000D01*
X155429360Y-81979000D01*
X155456938Y-81981716D01*
X155456938Y-81981716D01*
G37*
G36*
X136141938Y-81631716D02*
G01*
X136162557Y-81637971D01*
X136181553Y-81648124D01*
X136198208Y-81661792D01*
X136211876Y-81678447D01*
X136222029Y-81697443D01*
X136228284Y-81718062D01*
X136231000Y-81745640D01*
X136231000Y-82254360D01*
X136228284Y-82281938D01*
X136222029Y-82302557D01*
X136211876Y-82321553D01*
X136198208Y-82338208D01*
X136181553Y-82351876D01*
X136162557Y-82362029D01*
X136141938Y-82368284D01*
X136114360Y-82371000D01*
X135655640Y-82371000D01*
X135628062Y-82368284D01*
X135607443Y-82362029D01*
X135588447Y-82351876D01*
X135571792Y-82338208D01*
X135558124Y-82321553D01*
X135547971Y-82302557D01*
X135541716Y-82281938D01*
X135539000Y-82254360D01*
X135539000Y-81745640D01*
X135541716Y-81718062D01*
X135547971Y-81697443D01*
X135558124Y-81678447D01*
X135571792Y-81661792D01*
X135588447Y-81648124D01*
X135607443Y-81637971D01*
X135628062Y-81631716D01*
X135655640Y-81629000D01*
X136114360Y-81629000D01*
X136141938Y-81631716D01*
X136141938Y-81631716D01*
G37*
G36*
X135171938Y-81631716D02*
G01*
X135192557Y-81637971D01*
X135211553Y-81648124D01*
X135228208Y-81661792D01*
X135241876Y-81678447D01*
X135252029Y-81697443D01*
X135258284Y-81718062D01*
X135261000Y-81745640D01*
X135261000Y-82254360D01*
X135258284Y-82281938D01*
X135252029Y-82302557D01*
X135241876Y-82321553D01*
X135228208Y-82338208D01*
X135211553Y-82351876D01*
X135192557Y-82362029D01*
X135171938Y-82368284D01*
X135144360Y-82371000D01*
X134685640Y-82371000D01*
X134658062Y-82368284D01*
X134637443Y-82362029D01*
X134618447Y-82351876D01*
X134601792Y-82338208D01*
X134588124Y-82321553D01*
X134577971Y-82302557D01*
X134571716Y-82281938D01*
X134569000Y-82254360D01*
X134569000Y-81745640D01*
X134571716Y-81718062D01*
X134577971Y-81697443D01*
X134588124Y-81678447D01*
X134601792Y-81661792D01*
X134618447Y-81648124D01*
X134637443Y-81637971D01*
X134658062Y-81631716D01*
X134685640Y-81629000D01*
X135144360Y-81629000D01*
X135171938Y-81631716D01*
X135171938Y-81631716D01*
G37*
G36*
X131131938Y-81671716D02*
G01*
X131152557Y-81677971D01*
X131171553Y-81688124D01*
X131188208Y-81701792D01*
X131201876Y-81718447D01*
X131212029Y-81737443D01*
X131218284Y-81758062D01*
X131221000Y-81785640D01*
X131221000Y-82244360D01*
X131218284Y-82271938D01*
X131212029Y-82292557D01*
X131201876Y-82311553D01*
X131188208Y-82328208D01*
X131171553Y-82341876D01*
X131152557Y-82352029D01*
X131131938Y-82358284D01*
X131104360Y-82361000D01*
X130595640Y-82361000D01*
X130568062Y-82358284D01*
X130547443Y-82352029D01*
X130528447Y-82341876D01*
X130511792Y-82328208D01*
X130498124Y-82311553D01*
X130487971Y-82292557D01*
X130481716Y-82271938D01*
X130479000Y-82244360D01*
X130479000Y-81785640D01*
X130481716Y-81758062D01*
X130487971Y-81737443D01*
X130498124Y-81718447D01*
X130511792Y-81701792D01*
X130528447Y-81688124D01*
X130547443Y-81677971D01*
X130568062Y-81671716D01*
X130595640Y-81669000D01*
X131104360Y-81669000D01*
X131131938Y-81671716D01*
X131131938Y-81671716D01*
G37*
M02*
