M48
; DRILL file {KiCad (5.1.0)-1} date 05/16/19 12:54:07
; FORMAT={-:-/ absolute / metric / decimal}
; #@! TF.CreationDate,2019-05-16T12:54:07-05:00
; #@! TF.GenerationSoftware,Kicad,Pcbnew,(5.1.0)-1
FMAT,2
METRIC
T1C0.400
T2C0.500
T3C1.000
T4C3.200
%
G90
G05
T1
X125.6Y-86.2
X125.6Y-88.0
X125.75Y-114.5
X126.237Y-103.513
X126.25Y-105.5
X126.25Y-107.0
X126.25Y-108.5
X126.25Y-117.5
X127.25Y-111.0
X127.25Y-112.0
X127.4Y-98.8
X127.8Y-82.2
X128.4Y-125.2
X128.6Y-119.2
X128.8Y-98.8
X130.175Y-111.075
X130.175Y-116.925
X130.2Y-107.2
X130.25Y-98.0
X130.25Y-100.0
X130.25Y-101.5
X130.25Y-106.0
X130.5Y-93.5
X130.5Y-95.0
X130.6Y-104.8
X130.8Y-86.8
X131.175Y-95.825
X131.25Y-92.75
X131.25Y-94.25
X131.25Y-97.75
X131.475Y-101.6
X131.75Y-96.75
X131.8Y-104.725
X131.8Y-102.775
X131.966Y-112.027
X132.2Y-116.0
X132.647Y-112.894
X133.0Y-101.6
X133.0Y-114.6
X133.25Y-108.4
X133.25Y-100.5
X133.25Y-103.5
X133.25Y-105.0
X133.25Y-106.0
X133.325Y-116.925
X133.4Y-92.8
X133.4Y-99.2
X133.6Y-109.8
X134.0Y-123.0
X134.0Y-128.4
X134.4Y-92.0
X135.0Y-108.6
X135.8Y-89.8
X136.2Y-112.8
X136.2Y-120.8
X136.2Y-126.8
X136.4Y-114.8
X136.4Y-116.0
X136.75Y-93.5
X137.0Y-92.2
X137.0Y-107.2
X137.0Y-113.6
X137.17Y-86.63
X137.8Y-89.8
X137.8Y-91.0
X140.4Y-92.2
X142.75Y-91.73
X142.75Y-124.75
X142.75Y-86.25
X142.75Y-87.25
X142.75Y-97.25
X142.75Y-98.25
X142.75Y-102.75
X142.75Y-103.75
X142.75Y-108.25
X142.75Y-109.25
X142.75Y-113.75
X142.75Y-114.75
X142.75Y-119.25
X142.75Y-120.25
X142.75Y-125.75
X142.8Y-93.2
X142.8Y-100.0
X146.6Y-100.0
X146.6Y-105.8
X146.6Y-128.2
X148.2Y-100.0
X148.4Y-82.3
X148.6Y-88.45
X149.025Y-106.0
X149.75Y-100.0
X150.75Y-108.25
X151.4Y-117.6
X151.6Y-95.0
X151.6Y-100.6
X151.6Y-114.0
X151.626Y-124.774
X152.2Y-92.0
X152.6Y-86.2
X152.6Y-122.4
X155.487Y-111.237
X155.5Y-98.013
X155.5Y-100.75
X155.5Y-105.75
X155.5Y-108.25
X155.75Y-103.25
X156.237Y-95.013
X156.5Y-115.5
X159.75Y-96.5
X159.75Y-99.0
X159.75Y-101.5
X159.75Y-104.0
X159.75Y-106.5
X159.75Y-109.0
X159.75Y-111.5
X159.75Y-114.0
T2
X118.85Y-125.5
X119.553Y-123.803
X119.553Y-127.197
X121.25Y-123.1
X121.25Y-127.9
X122.947Y-123.803
X122.947Y-127.197
X123.65Y-125.5
X158.85Y-85.5
X159.553Y-83.803
X159.553Y-87.197
X161.25Y-83.1
X161.25Y-87.9
X162.947Y-83.803
X162.947Y-87.197
X163.65Y-85.5
X118.85Y-85.5
X119.553Y-83.803
X119.553Y-87.197
X121.25Y-83.1
X121.25Y-87.9
X122.947Y-83.803
X122.947Y-87.197
X123.65Y-85.5
X158.85Y-125.5
X159.553Y-123.803
X159.553Y-127.197
X161.25Y-123.1
X161.25Y-127.9
X162.947Y-123.803
X162.947Y-127.197
X163.65Y-125.5
T3
X164.75Y-96.34
X164.75Y-98.88
X164.75Y-101.42
X164.75Y-103.96
X164.75Y-106.5
X164.75Y-109.04
X164.75Y-111.58
X164.75Y-114.12
X118.75Y-93.0
X118.75Y-95.54
X118.75Y-98.08
X118.75Y-100.62
X118.75Y-103.16
X118.75Y-105.7
X118.75Y-108.24
X118.75Y-110.78
X118.75Y-113.32
X118.75Y-115.86
X118.75Y-118.4
X121.29Y-93.0
X121.29Y-95.54
X121.29Y-98.08
X121.29Y-100.62
X121.29Y-103.16
X121.29Y-105.7
X121.29Y-108.24
X121.29Y-110.78
X121.29Y-113.32
X121.29Y-115.86
X121.29Y-118.4
T4
X121.25Y-125.5
X161.25Y-85.5
X121.25Y-85.5
X161.25Y-125.5
T0
M30
